<svg xmlns="http://www.w3.org/2000/svg" xmlns:xlink="http://www.w3.org/1999/xlink" width="122" zoomAndPan="magnify" viewBox="0 0 91.5 127.499994" height="170" preserveAspectRatio="xMidYMid meet" version="1.0"><defs><clipPath id="5f21157a89"><path d="M 0.597656 0.808594 L 90.402344 0.808594 L 90.402344 126.191406 L 0.597656 126.191406 Z M 0.597656 0.808594 " clip-rule="nonzero"/></clipPath><clipPath id="3267f747a0"><path d="M 7.3125 0.808594 L 83.691406 0.808594 C 85.472656 0.808594 87.179688 1.515625 88.4375 2.777344 C 89.695312 4.035156 90.402344 5.742188 90.402344 7.523438 L 90.402344 119.480469 C 90.402344 121.261719 89.695312 122.96875 88.4375 124.226562 C 87.179688 125.484375 85.472656 126.191406 83.691406 126.191406 L 7.3125 126.191406 C 3.605469 126.191406 0.597656 123.1875 0.597656 119.480469 L 0.597656 7.523438 C 0.597656 3.816406 3.605469 0.808594 7.3125 0.808594 Z M 7.3125 0.808594 " clip-rule="nonzero"/></clipPath><clipPath id="6a545a61fc"><path d="M 0.601562 0.808594 L 90.109375 0.808594 L 90.109375 126.125 L 0.601562 126.125 Z M 0.601562 0.808594 " clip-rule="nonzero"/></clipPath><clipPath id="250cf9d6ca"><path d="M 7.3125 0.808594 L 83.6875 0.808594 C 85.464844 0.808594 87.171875 1.515625 88.433594 2.777344 C 89.691406 4.035156 90.398438 5.742188 90.398438 7.523438 L 90.398438 119.46875 C 90.398438 121.25 89.691406 122.957031 88.433594 124.214844 C 87.171875 125.476562 85.464844 126.183594 83.6875 126.183594 L 7.3125 126.183594 C 3.605469 126.183594 0.601562 123.175781 0.601562 119.46875 L 0.601562 7.523438 C 0.601562 3.816406 3.605469 0.808594 7.3125 0.808594 Z M 7.3125 0.808594 " clip-rule="nonzero"/></clipPath><clipPath id="b798c11e79"><path d="M 11.339844 11.179688 L 79.660156 11.179688 L 79.660156 115.824219 L 11.339844 115.824219 Z M 11.339844 11.179688 " clip-rule="nonzero"/></clipPath><clipPath id="0aa0511408"><path d="M 14.324219 11.179688 L 76.675781 11.179688 C 77.46875 11.179688 78.226562 11.492188 78.789062 12.050781 C 79.347656 12.613281 79.660156 13.371094 79.660156 14.164062 L 79.660156 112.839844 C 79.660156 113.632812 79.347656 114.390625 78.789062 114.949219 C 78.226562 115.511719 77.46875 115.824219 76.675781 115.824219 L 14.324219 115.824219 C 13.535156 115.824219 12.773438 115.511719 12.214844 114.949219 C 11.65625 114.390625 11.339844 113.632812 11.339844 112.839844 L 11.339844 14.164062 C 11.339844 13.371094 11.65625 12.613281 12.214844 12.050781 C 12.773438 11.492188 13.535156 11.179688 14.324219 11.179688 Z M 14.324219 11.179688 " clip-rule="nonzero"/></clipPath><clipPath id="b1c924313f"><path d="M 11.339844 11.183594 L 79.964844 11.183594 L 79.964844 115.609375 L 11.339844 115.609375 Z M 11.339844 11.183594 " clip-rule="nonzero"/></clipPath><clipPath id="d7493017db"><path d="M 14.324219 11.183594 L 76.667969 11.183594 C 77.460938 11.183594 78.21875 11.496094 78.777344 12.054688 C 79.335938 12.617188 79.652344 13.375 79.652344 14.164062 L 79.652344 112.832031 C 79.652344 113.621094 79.335938 114.378906 78.777344 114.941406 C 78.21875 115.5 77.460938 115.8125 76.667969 115.8125 L 14.324219 115.8125 C 13.535156 115.8125 12.773438 115.5 12.214844 114.941406 C 11.65625 114.378906 11.339844 113.621094 11.339844 112.832031 L 11.339844 14.164062 C 11.339844 13.375 11.65625 12.617188 12.214844 12.054688 C 12.773438 11.496094 13.535156 11.183594 14.324219 11.183594 Z M 14.324219 11.183594 " clip-rule="nonzero"/></clipPath><clipPath id="c0317b6ee3"><path d="M 31.46875 19.707031 L 42.933594 19.707031 L 42.933594 38.765625 L 31.46875 38.765625 Z M 31.46875 19.707031 " clip-rule="nonzero"/></clipPath><clipPath id="4281d9a2e9"><path d="M 8.097656 8.519531 L 18.4375 8.519531 L 18.4375 18.753906 L 8.097656 18.753906 Z M 8.097656 8.519531 " clip-rule="nonzero"/></clipPath><clipPath id="22b8802af2"><path d="M 68.832031 18.757812 L 84.386719 18.757812 L 84.386719 22.484375 L 68.832031 22.484375 Z M 68.832031 18.757812 " clip-rule="nonzero"/></clipPath><clipPath id="5c406a9614"><path d="M 68.828125 27.230469 L 84.382812 27.230469 L 84.382812 38.765625 L 68.828125 38.765625 Z M 68.828125 27.230469 " clip-rule="nonzero"/></clipPath><clipPath id="65bccfbcd4"><path d="M 67.40625 108.015625 L 72.554688 108.015625 L 72.554688 119.550781 L 67.40625 119.550781 Z M 67.40625 108.015625 " clip-rule="nonzero"/></clipPath><clipPath id="53b16f03bf"><path d="M 8.097656 81.242188 L 18.441406 81.242188 L 18.441406 84.972656 L 8.097656 84.972656 Z M 8.097656 81.242188 " clip-rule="nonzero"/></clipPath><clipPath id="11fb118d66"><path d="M 6.976562 89.019531 L 22.527344 89.019531 L 22.527344 100.554688 L 6.976562 100.554688 Z M 6.976562 89.019531 " clip-rule="nonzero"/></clipPath></defs><g clip-path="url(#5f21157a89)"><g clip-path="url(#3267f747a0)"><path fill="#ffffff" d="M 0.597656 0.808594 L 90.402344 0.808594 L 90.402344 126.191406 L 0.597656 126.191406 Z M 0.597656 0.808594 " fill-opacity="1" fill-rule="nonzero"/></g></g><g clip-path="url(#6a545a61fc)"><g clip-path="url(#250cf9d6ca)"><path stroke-linecap="butt" transform="matrix(0.745924, 0, 0, 0.745924, 0.600905, 0.809393)" fill="none" stroke-linejoin="miter" d="M 8.997694 -0.00107172 L 111.387498 -0.00107172 C 113.77024 -0.00107172 116.058719 0.946788 117.750203 2.638273 C 119.436451 4.32452 120.384311 6.613 120.384311 9.000978 L 120.384311 159.077031 C 120.384311 161.46501 119.436451 163.753489 117.750203 165.439737 C 116.058719 167.131221 113.77024 168.079081 111.387498 168.079081 L 8.997694 168.079081 C 4.027976 168.079081 0.000881536 164.046749 0.000881536 159.077031 L 0.000881536 9.000978 C 0.000881536 4.03126 4.027976 -0.00107172 8.997694 -0.00107172 Z M 8.997694 -0.00107172 " stroke="#463f57" stroke-width="12" stroke-opacity="1" stroke-miterlimit="4"/></g></g><g clip-path="url(#b798c11e79)"><g clip-path="url(#0aa0511408)"><path fill="#ffffff" d="M 11.339844 11.179688 L 79.660156 11.179688 L 79.660156 115.824219 L 11.339844 115.824219 Z M 11.339844 11.179688 " fill-opacity="1" fill-rule="nonzero"/></g></g><g clip-path="url(#b1c924313f)"><g clip-path="url(#d7493017db)"><path stroke-linecap="butt" transform="matrix(0.745924, 0, 0, 0.745924, 11.341397, 11.182462)" fill="none" stroke-linejoin="miter" d="M 3.998829 0.001517 L 87.578073 0.001517 C 88.641142 0.001517 89.657081 0.420461 90.405942 1.169322 C 91.154804 1.923421 91.578984 2.939359 91.578984 3.997191 L 91.578984 136.273389 C 91.578984 137.331222 91.154804 138.34716 90.405942 139.101258 C 89.657081 139.85012 88.641142 140.269064 87.578073 140.269064 L 3.998829 140.269064 C 2.940997 140.269064 1.919822 139.85012 1.17096 139.101258 C 0.422098 138.34716 -0.00208189 137.331222 -0.00208189 136.273389 L -0.00208189 3.997191 C -0.00208189 2.939359 0.422098 1.923421 1.17096 1.169322 C 1.919822 0.420461 2.940997 0.001517 3.998829 0.001517 Z M 3.998829 0.001517 " stroke="#463f57" stroke-width="10" stroke-opacity="1" stroke-miterlimit="4"/></g></g><g clip-path="url(#c0317b6ee3)"><path fill="#ffffff" d="M 31.46875 19.707031 L 42.933594 19.707031 L 42.933594 38.765625 L 31.46875 38.765625 Z M 31.46875 19.707031 " fill-opacity="1" fill-rule="nonzero"/></g><g clip-path="url(#4281d9a2e9)"><path fill="#ffffff" d="M 8.097656 18.753906 L 8.097656 8.519531 L 18.4375 8.519531 L 18.4375 18.753906 Z M 8.097656 18.753906 " fill-opacity="1" fill-rule="nonzero"/></g><g clip-path="url(#22b8802af2)"><path fill="#ffffff" d="M 84.386719 18.757812 L 84.386719 22.484375 L 68.832031 22.484375 L 68.832031 18.757812 Z M 84.386719 18.757812 " fill-opacity="1" fill-rule="nonzero"/></g><g clip-path="url(#5c406a9614)"><path fill="#ffffff" d="M 84.382812 27.230469 L 84.382812 38.765625 L 68.828125 38.765625 L 68.828125 27.230469 Z M 84.382812 27.230469 " fill-opacity="1" fill-rule="nonzero"/></g><g clip-path="url(#65bccfbcd4)"><path fill="#ffffff" d="M 72.554688 108.015625 L 72.554688 119.550781 L 67.40625 119.550781 L 67.40625 108.015625 Z M 72.554688 108.015625 " fill-opacity="1" fill-rule="nonzero"/></g><g clip-path="url(#53b16f03bf)"><path fill="#ffffff" d="M 8.097656 84.972656 L 8.097656 81.242188 L 18.441406 81.242188 L 18.441406 84.972656 Z M 8.097656 84.972656 " fill-opacity="1" fill-rule="nonzero"/></g><g clip-path="url(#11fb118d66)"><path fill="#ffffff" d="M 22.527344 89.019531 L 22.527344 100.554688 L 6.976562 100.554688 L 6.976562 89.019531 Z M 22.527344 89.019531 " fill-opacity="1" fill-rule="nonzero"/></g></svg>