<svg xmlns="http://www.w3.org/2000/svg" xmlns:xlink="http://www.w3.org/1999/xlink" width="122" zoomAndPan="magnify" viewBox="0 0 91.5 127.499994" height="170" preserveAspectRatio="xMidYMid meet" version="1.0"><defs><g/><clipPath id="d0a57f8d8c"><path d="M 0.597656 0.808594 L 90.402344 0.808594 L 90.402344 126.191406 L 0.597656 126.191406 Z M 0.597656 0.808594 " clip-rule="nonzero"/></clipPath><clipPath id="9cf29de987"><path d="M 7.3125 0.808594 L 83.691406 0.808594 C 85.472656 0.808594 87.179688 1.515625 88.4375 2.777344 C 89.695312 4.035156 90.402344 5.742188 90.402344 7.523438 L 90.402344 119.480469 C 90.402344 121.261719 89.695312 122.96875 88.4375 124.226562 C 87.179688 125.484375 85.472656 126.191406 83.691406 126.191406 L 7.3125 126.191406 C 3.605469 126.191406 0.597656 123.1875 0.597656 119.480469 L 0.597656 7.523438 C 0.597656 3.816406 3.605469 0.808594 7.3125 0.808594 Z M 7.3125 0.808594 " clip-rule="nonzero"/></clipPath><clipPath id="50d1298a7d"><path d="M 0.601562 0.808594 L 90.109375 0.808594 L 90.109375 126.125 L 0.601562 126.125 Z M 0.601562 0.808594 " clip-rule="nonzero"/></clipPath><clipPath id="ed4a782aa0"><path d="M 7.3125 0.808594 L 83.6875 0.808594 C 85.464844 0.808594 87.171875 1.515625 88.433594 2.777344 C 89.691406 4.035156 90.398438 5.742188 90.398438 7.523438 L 90.398438 119.46875 C 90.398438 121.25 89.691406 122.957031 88.433594 124.214844 C 87.171875 125.476562 85.464844 126.183594 83.6875 126.183594 L 7.3125 126.183594 C 3.605469 126.183594 0.601562 123.175781 0.601562 119.46875 L 0.601562 7.523438 C 0.601562 3.816406 3.605469 0.808594 7.3125 0.808594 Z M 7.3125 0.808594 " clip-rule="nonzero"/></clipPath><clipPath id="89dcbae63d"><path d="M 6.175781 19.128906 L 19.601562 19.128906 L 19.601562 32.558594 L 6.175781 32.558594 Z M 6.175781 19.128906 " clip-rule="nonzero"/></clipPath><clipPath id="880cdb4cd5"><path d="M 70.730469 95.054688 L 84.15625 95.054688 L 84.15625 108.484375 L 70.730469 108.484375 Z M 70.730469 95.054688 " clip-rule="nonzero"/></clipPath><clipPath id="867deb923d"><path d="M 38.605469 32.925781 L 52.03125 32.925781 L 52.03125 46.351562 L 38.605469 46.351562 Z M 38.605469 32.925781 " clip-rule="nonzero"/></clipPath><clipPath id="44304a4c8a"><path d="M 38.964844 81.261719 L 52.390625 81.261719 L 52.390625 94.6875 L 38.964844 94.6875 Z M 38.964844 81.261719 " clip-rule="nonzero"/></clipPath></defs><g clip-path="url(#d0a57f8d8c)"><g clip-path="url(#9cf29de987)"><path fill="#ffffff" d="M 0.597656 0.808594 L 90.402344 0.808594 L 90.402344 126.191406 L 0.597656 126.191406 Z M 0.597656 0.808594 " fill-opacity="1" fill-rule="nonzero"/></g></g><g clip-path="url(#50d1298a7d)"><g clip-path="url(#ed4a782aa0)"><path stroke-linecap="butt" transform="matrix(0.745924, 0, 0, 0.745924, 0.600905, 0.809393)" fill="none" stroke-linejoin="miter" d="M 8.997694 -0.00107172 L 111.387498 -0.00107172 C 113.77024 -0.00107172 116.058719 0.946788 117.750203 2.638273 C 119.436451 4.32452 120.384311 6.613 120.384311 9.000978 L 120.384311 159.077031 C 120.384311 161.46501 119.436451 163.753489 117.750203 165.439737 C 116.058719 167.131221 113.77024 168.079081 111.387498 168.079081 L 8.997694 168.079081 C 4.027976 168.079081 0.000881536 164.046749 0.000881536 159.077031 L 0.000881536 9.000978 C 0.000881536 4.03126 4.027976 -0.00107172 8.997694 -0.00107172 Z M 8.997694 -0.00107172 " stroke="#463f57" stroke-width="12" stroke-opacity="1" stroke-miterlimit="4"/></g></g><g clip-path="url(#89dcbae63d)"><path fill="#463f57" d="M 13.070312 19.128906 C 11.4375 19.128906 10.113281 20.519531 10.113281 22.234375 C 10.128906 23.3125 10.683594 24.222656 11.261719 25.085938 C 10.617188 24.597656 9.902344 24.304688 9.128906 24.300781 C 7.496094 24.300781 6.175781 25.691406 6.175781 27.402344 C 6.175781 29.117188 7.496094 30.503906 9.128906 30.503906 C 10.449219 30.484375 11.507812 29.558594 12.546875 28.78125 C 12.359375 31.101562 11.980469 32.40625 9.785156 32.917969 L 16.351562 32.917969 C 14.15625 32.40625 13.777344 31.101562 13.589844 28.78125 C 14.617188 29.660156 15.695312 30.410156 17.007812 30.503906 C 18.640625 30.503906 19.960938 29.117188 19.960938 27.402344 C 19.960938 25.691406 18.640625 24.300781 17.007812 24.300781 C 16.214844 24.300781 15.53125 24.664062 14.875 25.085938 C 15.527344 24.230469 15.960938 23.304688 16.023438 22.234375 C 16.023438 20.519531 14.699219 19.128906 13.070312 19.128906 Z M 13.070312 19.128906 " fill-opacity="1" fill-rule="nonzero"/></g><g fill="#000000" fill-opacity="1"><g transform="translate(9.25197, 17.04217)"><g><path d="M 2.238281 -4.941406 L 2.238281 -5.128906 C 2.238281 -5.476562 2.417969 -5.65625 2.765625 -5.65625 L 4.859375 -5.65625 C 5.210938 -5.65625 5.386719 -5.476562 5.386719 -5.128906 L 5.386719 -4.324219 C 5.386719 -3.972656 5.210938 -3.804688 4.859375 -3.804688 L 1.925781 -3.804688 C 0.761719 -3.804688 0.179688 -3.214844 0.179688 -2.050781 L 0.179688 0.234375 C 0.179688 0.457031 0.285156 0.5625 0.527344 0.5625 L 7.097656 0.5625 C 7.332031 0.5625 7.449219 0.457031 7.449219 0.234375 L 7.449219 -0.75 C 7.449219 -0.964844 7.332031 -1.074219 7.097656 -1.074219 L 2.417969 -1.074219 C 2.300781 -1.074219 2.238281 -1.136719 2.238281 -1.253906 L 2.238281 -1.648438 C 2.238281 -1.996094 2.417969 -2.167969 2.765625 -2.167969 L 5.703125 -2.167969 C 6.867188 -2.167969 7.4375 -2.757812 7.449219 -3.921875 L 7.449219 -5.539062 C 7.4375 -6.703125 6.867188 -7.285156 5.703125 -7.285156 L 1.925781 -7.285156 C 0.761719 -7.285156 0.179688 -6.703125 0.179688 -5.539062 L 0.179688 -4.941406 C 0.179688 -4.71875 0.285156 -4.617188 0.527344 -4.617188 L 1.890625 -4.617188 C 2.121094 -4.617188 2.238281 -4.71875 2.238281 -4.941406 Z M 2.238281 -4.941406 "/></g></g></g><g fill="#000000" fill-opacity="1"><g transform="translate(81.075092, 110.57376)"><g><path d="M -2.238281 4.941406 L -2.238281 5.128906 C -2.238281 5.476562 -2.417969 5.65625 -2.765625 5.65625 L -4.859375 5.65625 C -5.210938 5.65625 -5.386719 5.476562 -5.386719 5.128906 L -5.386719 4.324219 C -5.386719 3.972656 -5.210938 3.804688 -4.859375 3.804688 L -1.925781 3.804688 C -0.761719 3.804688 -0.179688 3.214844 -0.179688 2.050781 L -0.179688 -0.234375 C -0.179688 -0.457031 -0.285156 -0.5625 -0.527344 -0.5625 L -7.097656 -0.5625 C -7.332031 -0.5625 -7.449219 -0.457031 -7.449219 -0.234375 L -7.449219 0.75 C -7.449219 0.964844 -7.332031 1.074219 -7.097656 1.074219 L -2.417969 1.074219 C -2.300781 1.074219 -2.238281 1.136719 -2.238281 1.253906 L -2.238281 1.648438 C -2.238281 1.996094 -2.417969 2.167969 -2.765625 2.167969 L -5.703125 2.167969 C -6.867188 2.167969 -7.4375 2.757812 -7.449219 3.921875 L -7.449219 5.539062 C -7.4375 6.703125 -6.867188 7.285156 -5.703125 7.285156 L -1.925781 7.285156 C -0.761719 7.285156 -0.179688 6.703125 -0.179688 5.539062 L -0.179688 4.941406 C -0.179688 4.71875 -0.285156 4.617188 -0.527344 4.617188 L -1.890625 4.617188 C -2.121094 4.617188 -2.238281 4.71875 -2.238281 4.941406 Z M -2.238281 4.941406 "/></g></g></g><g clip-path="url(#880cdb4cd5)"><path fill="#463f57" d="M 77.261719 108.484375 C 78.894531 108.484375 80.21875 107.09375 80.21875 105.378906 C 80.203125 104.304688 79.648438 103.390625 79.070312 102.527344 C 79.714844 103.015625 80.429688 103.308594 81.203125 103.3125 C 82.832031 103.3125 84.15625 101.921875 84.15625 100.210938 C 84.15625 98.496094 82.832031 97.109375 81.203125 97.109375 C 79.882812 97.128906 78.824219 98.054688 77.785156 98.832031 C 77.972656 96.511719 78.351562 95.207031 80.546875 94.695312 L 73.980469 94.695312 C 76.175781 95.207031 76.554688 96.511719 76.738281 98.832031 C 75.714844 97.953125 74.636719 97.207031 73.324219 97.109375 C 71.691406 97.109375 70.367188 98.496094 70.367188 100.210938 C 70.367188 101.921875 71.691406 103.3125 73.324219 103.3125 C 74.113281 103.3125 74.800781 102.949219 75.457031 102.527344 C 74.800781 103.382812 74.371094 104.308594 74.308594 105.378906 C 74.308594 107.09375 75.632812 108.484375 77.261719 108.484375 Z M 77.261719 108.484375 " fill-opacity="1" fill-rule="nonzero"/></g><g clip-path="url(#867deb923d)"><path fill="#463f57" d="M 45.496094 32.925781 C 43.867188 32.925781 42.542969 34.316406 42.542969 36.027344 C 42.558594 37.105469 43.113281 38.015625 43.691406 38.882812 C 43.046875 38.394531 42.332031 38.097656 41.558594 38.097656 C 39.925781 38.097656 38.605469 39.484375 38.605469 41.199219 C 38.605469 42.910156 39.925781 44.300781 41.558594 44.300781 C 42.878906 44.277344 43.9375 43.355469 44.972656 42.578125 C 44.789062 44.898438 44.410156 46.203125 42.214844 46.714844 L 48.78125 46.714844 C 46.585938 46.203125 46.207031 44.898438 46.019531 42.578125 C 47.046875 43.457031 48.125 44.203125 49.4375 44.300781 C 51.066406 44.300781 52.390625 42.910156 52.390625 41.199219 C 52.390625 39.484375 51.066406 38.097656 49.4375 38.097656 C 48.644531 38.097656 47.960938 38.460938 47.304688 38.882812 C 47.957031 38.023438 48.390625 37.101562 48.453125 36.027344 C 48.453125 34.316406 47.128906 32.925781 45.496094 32.925781 Z M 45.496094 32.925781 " fill-opacity="1" fill-rule="nonzero"/></g><g clip-path="url(#44304a4c8a)"><path fill="#463f57" d="M 45.496094 94.6875 C 47.128906 94.6875 48.453125 93.296875 48.453125 91.585938 C 48.4375 90.507812 47.882812 89.597656 47.304688 88.730469 C 47.949219 89.21875 48.664062 89.515625 49.4375 89.515625 C 51.066406 89.515625 52.390625 88.128906 52.390625 86.414062 C 52.390625 84.703125 51.066406 83.3125 49.4375 83.3125 C 48.117188 83.335938 47.058594 84.257812 46.019531 85.035156 C 46.207031 82.714844 46.585938 81.410156 48.78125 80.898438 L 42.214844 80.898438 C 44.410156 81.414062 44.789062 82.714844 44.972656 85.035156 C 43.949219 84.15625 42.871094 83.410156 41.558594 83.3125 C 39.925781 83.3125 38.605469 84.703125 38.605469 86.414062 C 38.605469 88.128906 39.925781 89.515625 41.558594 89.515625 C 42.351562 89.515625 43.035156 89.152344 43.691406 88.730469 C 43.039062 89.589844 42.605469 90.511719 42.542969 91.585938 C 42.542969 93.296875 43.867188 94.6875 45.496094 94.6875 Z M 45.496094 94.6875 " fill-opacity="1" fill-rule="nonzero"/></g></svg>