<svg xmlns="http://www.w3.org/2000/svg" xmlns:xlink="http://www.w3.org/1999/xlink" width="122" zoomAndPan="magnify" viewBox="0 0 91.5 127.499994" height="170" preserveAspectRatio="xMidYMid meet" version="1.0"><defs><g/><clipPath id="c1063942f6"><path d="M 0.597656 0.808594 L 90.402344 0.808594 L 90.402344 126.191406 L 0.597656 126.191406 Z M 0.597656 0.808594 " clip-rule="nonzero"/></clipPath><clipPath id="5e685bc64d"><path d="M 7.3125 0.808594 L 83.691406 0.808594 C 85.472656 0.808594 87.179688 1.515625 88.4375 2.777344 C 89.695312 4.035156 90.402344 5.742188 90.402344 7.523438 L 90.402344 119.480469 C 90.402344 121.261719 89.695312 122.96875 88.4375 124.226562 C 87.179688 125.484375 85.472656 126.191406 83.691406 126.191406 L 7.3125 126.191406 C 3.605469 126.191406 0.597656 123.1875 0.597656 119.480469 L 0.597656 7.523438 C 0.597656 3.816406 3.605469 0.808594 7.3125 0.808594 Z M 7.3125 0.808594 " clip-rule="nonzero"/></clipPath><clipPath id="7d033c6ce3"><path d="M 0.601562 0.808594 L 90.109375 0.808594 L 90.109375 126.125 L 0.601562 126.125 Z M 0.601562 0.808594 " clip-rule="nonzero"/></clipPath><clipPath id="fc1c6c9497"><path d="M 7.3125 0.808594 L 83.6875 0.808594 C 85.464844 0.808594 87.171875 1.515625 88.433594 2.777344 C 89.691406 4.035156 90.398438 5.742188 90.398438 7.523438 L 90.398438 119.46875 C 90.398438 121.25 89.691406 122.957031 88.433594 124.214844 C 87.171875 125.476562 85.464844 126.183594 83.6875 126.183594 L 7.3125 126.183594 C 3.605469 126.183594 0.601562 123.175781 0.601562 119.46875 L 0.601562 7.523438 C 0.601562 3.816406 3.605469 0.808594 7.3125 0.808594 Z M 7.3125 0.808594 " clip-rule="nonzero"/></clipPath><clipPath id="619c160297"><path d="M 19.886719 27.023438 L 33.316406 27.023438 L 33.316406 42.6875 L 19.886719 42.6875 Z M 19.886719 27.023438 " clip-rule="nonzero"/></clipPath><clipPath id="8d192dda75"><path d="M 6.253906 19.128906 L 19.683594 19.128906 L 19.683594 34.796875 L 6.253906 34.796875 Z M 6.253906 19.128906 " clip-rule="nonzero"/></clipPath><clipPath id="d829bbb7fc"><path d="M 70.449219 92.707031 L 83.875 92.707031 L 83.875 108.371094 L 70.449219 108.371094 Z M 70.449219 92.707031 " clip-rule="nonzero"/></clipPath><clipPath id="0a2c6ca9de"><path d="M 56.816406 84.8125 L 70.242188 84.8125 L 70.242188 100.480469 L 56.816406 100.480469 Z M 56.816406 84.8125 " clip-rule="nonzero"/></clipPath><clipPath id="1c65156cad"><path d="M 56.816406 27.023438 L 70.242188 27.023438 L 70.242188 42.6875 L 56.816406 42.6875 Z M 56.816406 27.023438 " clip-rule="nonzero"/></clipPath><clipPath id="56cda484b5"><path d="M 19.886719 84.8125 L 33.316406 84.8125 L 33.316406 100.480469 L 19.886719 100.480469 Z M 19.886719 84.8125 " clip-rule="nonzero"/></clipPath><clipPath id="0e96c84769"><path d="M 19.886719 65.117188 L 33.316406 65.117188 L 33.316406 80.78125 L 19.886719 80.78125 Z M 19.886719 65.117188 " clip-rule="nonzero"/></clipPath><clipPath id="5f3706980a"><path d="M 19.886719 46.070312 L 33.316406 46.070312 L 33.316406 61.734375 L 19.886719 61.734375 Z M 19.886719 46.070312 " clip-rule="nonzero"/></clipPath><clipPath id="8c8a052272"><path d="M 38.351562 55.609375 L 51.777344 55.609375 L 51.777344 71.273438 L 38.351562 71.273438 Z M 38.351562 55.609375 " clip-rule="nonzero"/></clipPath><clipPath id="56343aa812"><path d="M 56.816406 65.117188 L 70.242188 65.117188 L 70.242188 80.78125 L 56.816406 80.78125 Z M 56.816406 65.117188 " clip-rule="nonzero"/></clipPath><clipPath id="b58014d124"><path d="M 56.816406 46.070312 L 70.242188 46.070312 L 70.242188 61.734375 L 56.816406 61.734375 Z M 56.816406 46.070312 " clip-rule="nonzero"/></clipPath></defs><g clip-path="url(#c1063942f6)"><g clip-path="url(#5e685bc64d)"><path fill="#ffffff" d="M 0.597656 0.808594 L 90.402344 0.808594 L 90.402344 126.191406 L 0.597656 126.191406 Z M 0.597656 0.808594 " fill-opacity="1" fill-rule="nonzero"/></g></g><g clip-path="url(#7d033c6ce3)"><g clip-path="url(#fc1c6c9497)"><path stroke-linecap="butt" transform="matrix(0.745924, 0, 0, 0.745924, 0.600905, 0.809393)" fill="none" stroke-linejoin="miter" d="M 8.997694 -0.00107172 L 111.387498 -0.00107172 C 113.77024 -0.00107172 116.058719 0.946788 117.750203 2.638273 C 119.436451 4.32452 120.384311 6.613 120.384311 9.000978 L 120.384311 159.077031 C 120.384311 161.46501 119.436451 163.753489 117.750203 165.439737 C 116.058719 167.131221 113.77024 168.079081 111.387498 168.079081 L 8.997694 168.079081 C 4.027976 168.079081 0.000881536 164.046749 0.000881536 159.077031 L 0.000881536 9.000978 C 0.000881536 4.03126 4.027976 -0.00107172 8.997694 -0.00107172 Z M 8.997694 -0.00107172 " stroke="#463f57" stroke-width="12" stroke-opacity="1" stroke-miterlimit="4"/></g></g><g clip-path="url(#619c160297)"><path fill="#463f57" d="M 26.699219 27.027344 C 24.835938 29.953125 22.578125 32.59375 19.886719 34.914062 C 22.574219 37.316406 24.816406 39.960938 26.699219 42.800781 C 28.5625 39.871094 30.820312 37.234375 33.511719 34.914062 C 30.828125 32.507812 28.582031 29.867188 26.699219 27.027344 " fill-opacity="1" fill-rule="nonzero"/></g><g fill="#000000" fill-opacity="1"><g transform="translate(9.254884, 17.04217)"><g><path d="M 5.386719 -5.128906 L 5.386719 -4.671875 C 5.386719 -4.324219 5.210938 -4.152344 4.859375 -4.152344 L 2.765625 -4.152344 C 2.417969 -4.152344 2.238281 -4.324219 2.238281 -4.671875 L 2.238281 -5.128906 C 2.238281 -5.476562 2.417969 -5.65625 2.765625 -5.65625 L 4.859375 -5.65625 C 5.210938 -5.65625 5.386719 -5.476562 5.386719 -5.128906 Z M 7.449219 -1.191406 L 7.449219 -5.539062 C 7.449219 -6.703125 6.867188 -7.285156 5.703125 -7.285156 L 1.925781 -7.285156 C 0.761719 -7.285156 0.1875 -6.703125 0.179688 -5.539062 L 0.179688 -4.269531 C 0.1875 -3.105469 0.761719 -2.515625 1.925781 -2.515625 L 5.210938 -2.515625 C 5.324219 -2.515625 5.386719 -2.453125 5.386719 -2.34375 L 5.386719 -1.601562 C 5.386719 -1.253906 5.210938 -1.074219 4.859375 -1.074219 L 2.765625 -1.074219 C 2.417969 -1.074219 2.238281 -1.253906 2.238281 -1.601562 L 2.238281 -1.621094 C 2.238281 -1.835938 2.121094 -1.941406 1.890625 -1.941406 L 0.527344 -1.941406 C 0.285156 -1.941406 0.179688 -1.835938 0.179688 -1.621094 L 0.179688 -1.191406 C 0.1875 -0.0273438 0.761719 0.5625 1.925781 0.5625 L 5.703125 0.5625 C 6.867188 0.5625 7.449219 -0.0273438 7.449219 -1.191406 Z M 7.449219 -1.191406 "/></g></g></g><g fill="#000000" fill-opacity="1"><g transform="translate(81.075092, 110.576672)"><g><path d="M -5.386719 5.128906 L -5.386719 4.671875 C -5.386719 4.324219 -5.210938 4.152344 -4.859375 4.152344 L -2.765625 4.152344 C -2.417969 4.152344 -2.238281 4.324219 -2.238281 4.671875 L -2.238281 5.128906 C -2.238281 5.476562 -2.417969 5.65625 -2.765625 5.65625 L -4.859375 5.65625 C -5.210938 5.65625 -5.386719 5.476562 -5.386719 5.128906 Z M -7.449219 1.191406 L -7.449219 5.539062 C -7.449219 6.703125 -6.867188 7.285156 -5.703125 7.285156 L -1.925781 7.285156 C -0.761719 7.285156 -0.1875 6.703125 -0.179688 5.539062 L -0.179688 4.269531 C -0.1875 3.105469 -0.761719 2.515625 -1.925781 2.515625 L -5.210938 2.515625 C -5.324219 2.515625 -5.386719 2.453125 -5.386719 2.34375 L -5.386719 1.601562 C -5.386719 1.253906 -5.210938 1.074219 -4.859375 1.074219 L -2.765625 1.074219 C -2.417969 1.074219 -2.238281 1.253906 -2.238281 1.601562 L -2.238281 1.621094 C -2.238281 1.835938 -2.121094 1.941406 -1.890625 1.941406 L -0.527344 1.941406 C -0.285156 1.941406 -0.179688 1.835938 -0.179688 1.621094 L -0.179688 1.191406 C -0.1875 0.0273438 -0.761719 -0.5625 -1.925781 -0.5625 L -5.703125 -0.5625 C -6.867188 -0.5625 -7.449219 0.0273438 -7.449219 1.191406 Z M -7.449219 1.191406 "/></g></g></g><g clip-path="url(#8d192dda75)"><path fill="#463f57" d="M 13.066406 19.132812 C 11.203125 22.0625 8.945312 24.703125 6.253906 27.019531 C 8.9375 29.425781 11.183594 32.070312 13.066406 34.90625 C 14.929688 31.980469 17.183594 29.339844 19.878906 27.019531 C 17.191406 24.617188 14.949219 21.972656 13.066406 19.132812 " fill-opacity="1" fill-rule="nonzero"/></g><g clip-path="url(#d829bbb7fc)"><path fill="#463f57" d="M 77.261719 92.710938 C 75.398438 95.636719 73.140625 98.277344 70.449219 100.597656 C 73.132812 103 75.375 105.644531 77.261719 108.484375 C 79.125 105.554688 81.378906 102.917969 84.074219 100.597656 C 81.386719 98.191406 79.144531 95.546875 77.261719 92.710938 " fill-opacity="1" fill-rule="nonzero"/></g><g clip-path="url(#0a2c6ca9de)"><path fill="#463f57" d="M 63.628906 84.816406 C 61.765625 87.746094 59.507812 90.386719 56.816406 92.703125 C 59.5 95.109375 61.742188 97.753906 63.628906 100.589844 C 65.492188 97.664062 67.746094 95.023438 70.4375 92.703125 C 67.753906 90.300781 65.511719 87.65625 63.628906 84.816406 " fill-opacity="1" fill-rule="nonzero"/></g><g clip-path="url(#1c65156cad)"><path fill="#463f57" d="M 63.628906 27.027344 C 61.765625 29.953125 59.507812 32.59375 56.816406 34.914062 C 59.5 37.316406 61.742188 39.960938 63.628906 42.800781 C 65.492188 39.871094 67.746094 37.234375 70.4375 34.914062 C 67.753906 32.507812 65.511719 29.867188 63.628906 27.027344 " fill-opacity="1" fill-rule="nonzero"/></g><g clip-path="url(#56cda484b5)"><path fill="#463f57" d="M 26.699219 84.816406 C 24.835938 87.746094 22.578125 90.386719 19.886719 92.703125 C 22.574219 95.109375 24.816406 97.753906 26.699219 100.589844 C 28.5625 97.664062 30.820312 95.023438 33.511719 92.703125 C 30.828125 90.300781 28.582031 87.65625 26.699219 84.816406 " fill-opacity="1" fill-rule="nonzero"/></g><g clip-path="url(#0e96c84769)"><path fill="#463f57" d="M 26.699219 65.121094 C 24.835938 68.046875 22.578125 70.6875 19.886719 73.003906 C 22.574219 75.410156 24.816406 78.054688 26.699219 80.890625 C 28.5625 77.964844 30.820312 75.324219 33.511719 73.003906 C 30.828125 70.601562 28.582031 67.957031 26.699219 65.121094 " fill-opacity="1" fill-rule="nonzero"/></g><g clip-path="url(#5f3706980a)"><path fill="#463f57" d="M 26.699219 46.074219 C 24.835938 49 22.578125 51.640625 19.886719 53.960938 C 22.574219 56.363281 24.816406 59.007812 26.699219 61.847656 C 28.5625 58.917969 30.820312 56.277344 33.511719 53.960938 C 30.828125 51.554688 28.582031 48.910156 26.699219 46.074219 " fill-opacity="1" fill-rule="nonzero"/></g><g clip-path="url(#8c8a052272)"><path fill="#5271ff" d="M 45.164062 55.613281 C 43.300781 58.539062 41.042969 61.179688 38.351562 63.5 C 41.035156 65.902344 43.28125 68.546875 45.164062 71.386719 C 47.027344 68.460938 49.28125 65.820312 51.976562 63.5 C 49.289062 61.097656 47.046875 58.453125 45.164062 55.613281 " fill-opacity="1" fill-rule="nonzero"/></g><g clip-path="url(#56343aa812)"><path fill="#463f57" d="M 63.628906 65.121094 C 61.765625 68.046875 59.507812 70.6875 56.816406 73.003906 C 59.5 75.410156 61.742188 78.054688 63.628906 80.890625 C 65.492188 77.964844 67.746094 75.324219 70.4375 73.003906 C 67.753906 70.601562 65.511719 67.957031 63.628906 65.121094 " fill-opacity="1" fill-rule="nonzero"/></g><g clip-path="url(#b58014d124)"><path fill="#463f57" d="M 63.628906 46.074219 C 61.765625 49 59.507812 51.640625 56.816406 53.960938 C 59.5 56.363281 61.742188 59.007812 63.628906 61.847656 C 65.492188 58.917969 67.746094 56.277344 70.4375 53.960938 C 67.753906 51.554688 65.511719 48.910156 63.628906 46.074219 " fill-opacity="1" fill-rule="nonzero"/></g></svg>