<svg xmlns="http://www.w3.org/2000/svg" xmlns:xlink="http://www.w3.org/1999/xlink" width="122" zoomAndPan="magnify" viewBox="0 0 91.5 127.499994" height="170" preserveAspectRatio="xMidYMid meet" version="1.0"><defs><g/><clipPath id="6afa878cf0"><path d="M 0.597656 0.808594 L 90.402344 0.808594 L 90.402344 126.191406 L 0.597656 126.191406 Z M 0.597656 0.808594 " clip-rule="nonzero"/></clipPath><clipPath id="7c3862882d"><path d="M 7.3125 0.808594 L 83.691406 0.808594 C 85.472656 0.808594 87.179688 1.515625 88.4375 2.777344 C 89.695312 4.035156 90.402344 5.742188 90.402344 7.523438 L 90.402344 119.480469 C 90.402344 121.261719 89.695312 122.96875 88.4375 124.226562 C 87.179688 125.484375 85.472656 126.191406 83.691406 126.191406 L 7.3125 126.191406 C 3.605469 126.191406 0.597656 123.1875 0.597656 119.480469 L 0.597656 7.523438 C 0.597656 3.816406 3.605469 0.808594 7.3125 0.808594 Z M 7.3125 0.808594 " clip-rule="nonzero"/></clipPath><clipPath id="29df918b14"><path d="M 0.601562 0.808594 L 90.109375 0.808594 L 90.109375 126.125 L 0.601562 126.125 Z M 0.601562 0.808594 " clip-rule="nonzero"/></clipPath><clipPath id="3b913d439a"><path d="M 7.3125 0.808594 L 83.6875 0.808594 C 85.464844 0.808594 87.171875 1.515625 88.433594 2.777344 C 89.691406 4.035156 90.398438 5.742188 90.398438 7.523438 L 90.398438 119.46875 C 90.398438 121.25 89.691406 122.957031 88.433594 124.214844 C 87.171875 125.476562 85.464844 126.183594 83.6875 126.183594 L 7.3125 126.183594 C 3.605469 126.183594 0.601562 123.175781 0.601562 119.46875 L 0.601562 7.523438 C 0.601562 3.816406 3.605469 0.808594 7.3125 0.808594 Z M 7.3125 0.808594 " clip-rule="nonzero"/></clipPath><clipPath id="aaf288ae7c"><path d="M 38.683594 55.609375 L 52.113281 55.609375 L 52.113281 71.273438 L 38.683594 71.273438 Z M 38.683594 55.609375 " clip-rule="nonzero"/></clipPath><clipPath id="71836ab69b"><path d="M 6.253906 19.128906 L 19.683594 19.128906 L 19.683594 34.796875 L 6.253906 34.796875 Z M 6.253906 19.128906 " clip-rule="nonzero"/></clipPath><clipPath id="dce903f9c3"><path d="M 70.449219 92.707031 L 83.875 92.707031 L 83.875 108.371094 L 70.449219 108.371094 Z M 70.449219 92.707031 " clip-rule="nonzero"/></clipPath></defs><g clip-path="url(#6afa878cf0)"><g clip-path="url(#7c3862882d)"><path fill="#ffffff" d="M 0.597656 0.808594 L 90.402344 0.808594 L 90.402344 126.191406 L 0.597656 126.191406 Z M 0.597656 0.808594 " fill-opacity="1" fill-rule="nonzero"/></g></g><g clip-path="url(#29df918b14)"><g clip-path="url(#3b913d439a)"><path stroke-linecap="butt" transform="matrix(0.745924, 0, 0, 0.745924, 0.600905, 0.809393)" fill="none" stroke-linejoin="miter" d="M 8.997694 -0.00107172 L 111.387498 -0.00107172 C 113.77024 -0.00107172 116.058719 0.946788 117.750203 2.638273 C 119.436451 4.32452 120.384311 6.613 120.384311 9.000978 L 120.384311 159.077031 C 120.384311 161.46501 119.436451 163.753489 117.750203 165.439737 C 116.058719 167.131221 113.77024 168.079081 111.387498 168.079081 L 8.997694 168.079081 C 4.027976 168.079081 0.000881536 164.046749 0.000881536 159.077031 L 0.000881536 9.000978 C 0.000881536 4.03126 4.027976 -0.00107172 8.997694 -0.00107172 Z M 8.997694 -0.00107172 " stroke="#463f57" stroke-width="12" stroke-opacity="1" stroke-miterlimit="4"/></g></g><g clip-path="url(#aaf288ae7c)"><path fill="#463f57" d="M 45.496094 55.613281 C 43.632812 58.539062 41.375 61.179688 38.683594 63.5 C 41.367188 65.902344 43.613281 68.546875 45.496094 71.386719 C 47.359375 68.460938 49.613281 65.820312 52.308594 63.5 C 49.621094 61.097656 47.378906 58.453125 45.496094 55.613281 " fill-opacity="1" fill-rule="nonzero"/></g><g fill="#000000" fill-opacity="1"><g transform="translate(9.266539, 17.04217)"><g><path d="M 4.332031 -7.296875 L 3.265625 -7.296875 C 2.945312 -7.304688 2.730469 -7.257812 2.613281 -7.144531 C 2.488281 -7.027344 2.390625 -6.828125 2.300781 -6.542969 L 0.195312 -0.527344 C 0.125 -0.320312 0.0703125 -0.144531 0.0429688 0.0195312 C 0.0351562 0.25 0.0976562 0.429688 0.207031 0.546875 C 0.320312 0.644531 0.519531 0.699219 0.789062 0.707031 L 1.460938 0.707031 C 1.726562 0.714844 1.933594 0.664062 2.050781 0.554688 C 2.167969 0.4375 2.265625 0.25 2.335938 0.0195312 L 2.558594 -0.636719 L 5.039062 -0.636719 L 5.273438 0.0195312 C 5.34375 0.25 5.433594 0.4375 5.558594 0.554688 C 5.675781 0.664062 5.871094 0.714844 6.148438 0.707031 L 6.820312 0.707031 C 7.089844 0.699219 7.285156 0.644531 7.402344 0.546875 C 7.519531 0.429688 7.574219 0.25 7.5625 0.0195312 C 7.535156 -0.144531 7.484375 -0.320312 7.402344 -0.527344 L 5.308594 -6.542969 C 5.21875 -6.828125 5.109375 -7.027344 5.003906 -7.144531 C 4.878906 -7.257812 4.664062 -7.304688 4.332031 -7.296875 Z M 3.804688 -4.207031 L 4.304688 -2.757812 L 3.292969 -2.757812 Z M 3.804688 -4.207031 "/></g></g></g><g fill="#000000" fill-opacity="1"><g transform="translate(81.075092, 110.57376)"><g><path d="M -4.332031 7.296875 L -3.265625 7.296875 C -2.945312 7.304688 -2.730469 7.257812 -2.613281 7.144531 C -2.488281 7.027344 -2.390625 6.828125 -2.300781 6.542969 L -0.195312 0.527344 C -0.125 0.320312 -0.0703125 0.144531 -0.0429688 -0.0195312 C -0.0351562 -0.25 -0.0976562 -0.429688 -0.207031 -0.546875 C -0.320312 -0.644531 -0.519531 -0.699219 -0.789062 -0.707031 L -1.460938 -0.707031 C -1.726562 -0.714844 -1.933594 -0.664062 -2.050781 -0.554688 C -2.167969 -0.4375 -2.265625 -0.25 -2.335938 -0.0195312 L -2.558594 0.636719 L -5.039062 0.636719 L -5.273438 -0.0195312 C -5.34375 -0.25 -5.433594 -0.4375 -5.558594 -0.554688 C -5.675781 -0.664062 -5.871094 -0.714844 -6.148438 -0.707031 L -6.820312 -0.707031 C -7.089844 -0.699219 -7.285156 -0.644531 -7.402344 -0.546875 C -7.519531 -0.429688 -7.574219 -0.25 -7.5625 -0.0195312 C -7.535156 0.144531 -7.484375 0.320312 -7.402344 0.527344 L -5.308594 6.542969 C -5.21875 6.828125 -5.109375 7.027344 -5.003906 7.144531 C -4.878906 7.257812 -4.664062 7.304688 -4.332031 7.296875 Z M -3.804688 4.207031 L -4.304688 2.757812 L -3.292969 2.757812 Z M -3.804688 4.207031 "/></g></g></g><g clip-path="url(#71836ab69b)"><path fill="#463f57" d="M 13.066406 19.132812 C 11.203125 22.0625 8.945312 24.703125 6.253906 27.019531 C 8.9375 29.425781 11.183594 32.070312 13.066406 34.90625 C 14.929688 31.980469 17.183594 29.339844 19.878906 27.019531 C 17.191406 24.617188 14.949219 21.972656 13.066406 19.132812 " fill-opacity="1" fill-rule="nonzero"/></g><g clip-path="url(#dce903f9c3)"><path fill="#463f57" d="M 77.261719 92.710938 C 75.398438 95.636719 73.140625 98.277344 70.449219 100.597656 C 73.132812 103 75.375 105.644531 77.261719 108.484375 C 79.125 105.554688 81.378906 102.917969 84.074219 100.597656 C 81.386719 98.191406 79.144531 95.546875 77.261719 92.710938 " fill-opacity="1" fill-rule="nonzero"/></g></svg>