<svg xmlns="http://www.w3.org/2000/svg" xmlns:xlink="http://www.w3.org/1999/xlink" width="122" zoomAndPan="magnify" viewBox="0 0 91.5 127.499994" height="170" preserveAspectRatio="xMidYMid meet" version="1.0"><defs><g/><clipPath id="561bffcec9"><path d="M 0.597656 0.808594 L 90.402344 0.808594 L 90.402344 126.191406 L 0.597656 126.191406 Z M 0.597656 0.808594 " clip-rule="nonzero"/></clipPath><clipPath id="ec7543ca29"><path d="M 7.3125 0.808594 L 83.691406 0.808594 C 85.472656 0.808594 87.179688 1.515625 88.4375 2.777344 C 89.695312 4.035156 90.402344 5.742188 90.402344 7.523438 L 90.402344 119.480469 C 90.402344 121.261719 89.695312 122.96875 88.4375 124.226562 C 87.179688 125.484375 85.472656 126.191406 83.691406 126.191406 L 7.3125 126.191406 C 3.605469 126.191406 0.597656 123.1875 0.597656 119.480469 L 0.597656 7.523438 C 0.597656 3.816406 3.605469 0.808594 7.3125 0.808594 Z M 7.3125 0.808594 " clip-rule="nonzero"/></clipPath><clipPath id="de0be38633"><path d="M 0.601562 0.808594 L 90.109375 0.808594 L 90.109375 126.125 L 0.601562 126.125 Z M 0.601562 0.808594 " clip-rule="nonzero"/></clipPath><clipPath id="827091c37e"><path d="M 7.3125 0.808594 L 83.6875 0.808594 C 85.464844 0.808594 87.171875 1.515625 88.433594 2.777344 C 89.691406 4.035156 90.398438 5.742188 90.398438 7.523438 L 90.398438 119.46875 C 90.398438 121.25 89.691406 122.957031 88.433594 124.214844 C 87.171875 125.476562 85.464844 126.183594 83.6875 126.183594 L 7.3125 126.183594 C 3.605469 126.183594 0.601562 123.175781 0.601562 119.46875 L 0.601562 7.523438 C 0.601562 3.816406 3.605469 0.808594 7.3125 0.808594 Z M 7.3125 0.808594 " clip-rule="nonzero"/></clipPath><clipPath id="b3576c6dc8"><path d="M 71.042969 95.050781 L 83.726562 95.050781 L 83.726562 107 L 71.042969 107 Z M 71.042969 95.050781 " clip-rule="nonzero"/></clipPath><clipPath id="7ed1469f38"><path d="M 39.035156 34 L 51.714844 34 L 51.714844 46.296875 L 39.035156 46.296875 Z M 39.035156 34 " clip-rule="nonzero"/></clipPath><clipPath id="a9d502ef88"><path d="M 6.605469 20 L 19.285156 20 L 19.285156 32.558594 L 6.605469 32.558594 Z M 6.605469 20 " clip-rule="nonzero"/></clipPath><clipPath id="d9ad8989e7"><path d="M 39.28125 81.3125 L 51.960938 81.3125 L 51.960938 94 L 39.28125 94 Z M 39.28125 81.3125 " clip-rule="nonzero"/></clipPath></defs><g clip-path="url(#561bffcec9)"><g clip-path="url(#ec7543ca29)"><path fill="#ffffff" d="M 0.597656 0.808594 L 90.402344 0.808594 L 90.402344 126.191406 L 0.597656 126.191406 Z M 0.597656 0.808594 " fill-opacity="1" fill-rule="nonzero"/></g></g><g clip-path="url(#de0be38633)"><g clip-path="url(#827091c37e)"><path stroke-linecap="butt" transform="matrix(0.745924, 0, 0, 0.745924, 0.600905, 0.809393)" fill="none" stroke-linejoin="miter" d="M 8.997694 -0.00107172 L 111.387498 -0.00107172 C 113.77024 -0.00107172 116.058719 0.946788 117.750203 2.638273 C 119.436451 4.32452 120.384311 6.613 120.384311 9.000978 L 120.384311 159.077031 C 120.384311 161.46501 119.436451 163.753489 117.750203 165.439737 C 116.058719 167.131221 113.77024 168.079081 111.387498 168.079081 L 8.997694 168.079081 C 4.027976 168.079081 0.000881536 164.046749 0.000881536 159.077031 L 0.000881536 9.000978 C 0.000881536 4.03126 4.027976 -0.00107172 8.997694 -0.00107172 Z M 8.997694 -0.00107172 " stroke="#463f57" stroke-width="12" stroke-opacity="1" stroke-miterlimit="4"/></g></g><g fill="#000000" fill-opacity="1"><g transform="translate(9.254884, 17.04217)"><g><path d="M 2.238281 -4.941406 L 2.238281 -5.128906 C 2.238281 -5.476562 2.417969 -5.65625 2.765625 -5.65625 L 4.859375 -5.65625 C 5.210938 -5.65625 5.386719 -5.476562 5.386719 -5.128906 L 5.386719 -4.324219 C 5.386719 -3.972656 5.210938 -3.804688 4.859375 -3.804688 L 1.925781 -3.804688 C 0.761719 -3.804688 0.179688 -3.214844 0.179688 -2.050781 L 0.179688 0.234375 C 0.179688 0.457031 0.285156 0.5625 0.527344 0.5625 L 7.097656 0.5625 C 7.332031 0.5625 7.449219 0.457031 7.449219 0.234375 L 7.449219 -0.75 C 7.449219 -0.964844 7.332031 -1.074219 7.097656 -1.074219 L 2.417969 -1.074219 C 2.300781 -1.074219 2.238281 -1.136719 2.238281 -1.253906 L 2.238281 -1.648438 C 2.238281 -1.996094 2.417969 -2.167969 2.765625 -2.167969 L 5.703125 -2.167969 C 6.867188 -2.167969 7.4375 -2.757812 7.449219 -3.921875 L 7.449219 -5.539062 C 7.4375 -6.703125 6.867188 -7.285156 5.703125 -7.285156 L 1.925781 -7.285156 C 0.761719 -7.285156 0.179688 -6.703125 0.179688 -5.539062 L 0.179688 -4.941406 C 0.179688 -4.71875 0.285156 -4.617188 0.527344 -4.617188 L 1.890625 -4.617188 C 2.121094 -4.617188 2.238281 -4.71875 2.238281 -4.941406 Z M 2.238281 -4.941406 "/></g></g></g><g fill="#000000" fill-opacity="1"><g transform="translate(81.075092, 110.57376)"><g><path d="M -2.238281 4.941406 L -2.238281 5.128906 C -2.238281 5.476562 -2.417969 5.65625 -2.765625 5.65625 L -4.859375 5.65625 C -5.210938 5.65625 -5.386719 5.476562 -5.386719 5.128906 L -5.386719 4.324219 C -5.386719 3.972656 -5.210938 3.804688 -4.859375 3.804688 L -1.925781 3.804688 C -0.761719 3.804688 -0.179688 3.214844 -0.179688 2.050781 L -0.179688 -0.234375 C -0.179688 -0.457031 -0.285156 -0.5625 -0.527344 -0.5625 L -7.097656 -0.5625 C -7.332031 -0.5625 -7.449219 -0.457031 -7.449219 -0.234375 L -7.449219 0.75 C -7.449219 0.964844 -7.332031 1.074219 -7.097656 1.074219 L -2.417969 1.074219 C -2.300781 1.074219 -2.238281 1.136719 -2.238281 1.253906 L -2.238281 1.648438 C -2.238281 1.996094 -2.417969 2.167969 -2.765625 2.167969 L -5.703125 2.167969 C -6.867188 2.167969 -7.4375 2.757812 -7.449219 3.921875 L -7.449219 5.539062 C -7.4375 6.703125 -6.867188 7.285156 -5.703125 7.285156 L -1.925781 7.285156 C -0.761719 7.285156 -0.179688 6.703125 -0.179688 5.539062 L -0.179688 4.941406 C -0.179688 4.71875 -0.285156 4.617188 -0.527344 4.617188 L -1.890625 4.617188 C -2.121094 4.617188 -2.238281 4.71875 -2.238281 4.941406 Z M -2.238281 4.941406 "/></g></g></g><g clip-path="url(#b3576c6dc8)"><path fill="#463f57" d="M 83.738281 103.570312 C 83.738281 107.136719 78.800781 108.457031 77.28125 104.332031 C 75.765625 108.457031 70.828125 107.136719 70.828125 103.570312 C 70.828125 99.699219 77.28125 94.785156 77.28125 94.785156 C 77.28125 94.785156 83.738281 99.699219 83.738281 103.570312 Z M 83.738281 103.570312 " fill-opacity="1" fill-rule="nonzero"/></g><g clip-path="url(#7ed1469f38)"><path fill="#463f57" d="M 39.019531 37.777344 C 39.019531 34.214844 43.957031 32.894531 45.476562 37.019531 C 46.996094 32.890625 51.933594 34.214844 51.933594 37.777344 C 51.933594 41.652344 45.476562 46.5625 45.476562 46.5625 C 45.476562 46.5625 39.019531 41.652344 39.019531 37.777344 Z M 39.019531 37.777344 " fill-opacity="1" fill-rule="nonzero"/></g><g clip-path="url(#a9d502ef88)"><path fill="#463f57" d="M 6.59375 24.039062 C 6.59375 20.472656 11.527344 19.152344 13.046875 23.277344 C 14.566406 19.152344 19.503906 20.472656 19.503906 24.039062 C 19.503906 27.910156 13.046875 32.824219 13.046875 32.824219 C 13.046875 32.824219 6.59375 27.910156 6.59375 24.039062 Z M 6.59375 24.039062 " fill-opacity="1" fill-rule="nonzero"/></g><g clip-path="url(#d9ad8989e7)"><path fill="#463f57" d="M 51.972656 89.832031 C 51.972656 93.394531 47.035156 94.71875 45.519531 90.589844 C 44 94.71875 39.0625 93.394531 39.0625 89.832031 C 39.0625 85.957031 45.519531 81.046875 45.519531 81.046875 C 45.519531 81.046875 51.972656 85.957031 51.972656 89.832031 Z M 51.972656 89.832031 " fill-opacity="1" fill-rule="nonzero"/></g></svg>