<svg xmlns="http://www.w3.org/2000/svg" xmlns:xlink="http://www.w3.org/1999/xlink" width="122" zoomAndPan="magnify" viewBox="0 0 91.5 127.499994" height="170" preserveAspectRatio="xMidYMid meet" version="1.0"><defs><g/><clipPath id="3fa2378067"><path d="M 0.597656 0.808594 L 90.402344 0.808594 L 90.402344 126.191406 L 0.597656 126.191406 Z M 0.597656 0.808594 " clip-rule="nonzero"/></clipPath><clipPath id="3725e55dd2"><path d="M 7.3125 0.808594 L 83.691406 0.808594 C 85.472656 0.808594 87.179688 1.515625 88.4375 2.777344 C 89.695312 4.035156 90.402344 5.742188 90.402344 7.523438 L 90.402344 119.480469 C 90.402344 121.261719 89.695312 122.96875 88.4375 124.226562 C 87.179688 125.484375 85.472656 126.191406 83.691406 126.191406 L 7.3125 126.191406 C 3.605469 126.191406 0.597656 123.1875 0.597656 119.480469 L 0.597656 7.523438 C 0.597656 3.816406 3.605469 0.808594 7.3125 0.808594 Z M 7.3125 0.808594 " clip-rule="nonzero"/></clipPath><clipPath id="27621a5315"><path d="M 0.601562 0.808594 L 90.109375 0.808594 L 90.109375 126.125 L 0.601562 126.125 Z M 0.601562 0.808594 " clip-rule="nonzero"/></clipPath><clipPath id="0a78805396"><path d="M 7.3125 0.808594 L 83.6875 0.808594 C 85.464844 0.808594 87.171875 1.515625 88.433594 2.777344 C 89.691406 4.035156 90.398438 5.742188 90.398438 7.523438 L 90.398438 119.46875 C 90.398438 121.25 89.691406 122.957031 88.433594 124.214844 C 87.171875 125.476562 85.464844 126.183594 83.6875 126.183594 L 7.3125 126.183594 C 3.605469 126.183594 0.601562 123.175781 0.601562 119.46875 L 0.601562 7.523438 C 0.601562 3.816406 3.605469 0.808594 7.3125 0.808594 Z M 7.3125 0.808594 " clip-rule="nonzero"/></clipPath><clipPath id="024c08803f"><path d="M 71.042969 95.050781 L 83.726562 95.050781 L 83.726562 107 L 71.042969 107 Z M 71.042969 95.050781 " clip-rule="nonzero"/></clipPath><clipPath id="2e187d4dd0"><path d="M 39.035156 58 L 51.714844 58 L 51.714844 70.058594 L 39.035156 70.058594 Z M 39.035156 58 " clip-rule="nonzero"/></clipPath><clipPath id="157a3a75cf"><path d="M 6.605469 20 L 19.285156 20 L 19.285156 32.558594 L 6.605469 32.558594 Z M 6.605469 20 " clip-rule="nonzero"/></clipPath></defs><g clip-path="url(#3fa2378067)"><g clip-path="url(#3725e55dd2)"><path fill="#ffffff" d="M 0.597656 0.808594 L 90.402344 0.808594 L 90.402344 126.191406 L 0.597656 126.191406 Z M 0.597656 0.808594 " fill-opacity="1" fill-rule="nonzero"/></g></g><g clip-path="url(#27621a5315)"><g clip-path="url(#0a78805396)"><path stroke-linecap="butt" transform="matrix(0.745924, 0, 0, 0.745924, 0.600905, 0.809393)" fill="none" stroke-linejoin="miter" d="M 8.997694 -0.00107172 L 111.387498 -0.00107172 C 113.77024 -0.00107172 116.058719 0.946788 117.750203 2.638273 C 119.436451 4.32452 120.384311 6.613 120.384311 9.000978 L 120.384311 159.077031 C 120.384311 161.46501 119.436451 163.753489 117.750203 165.439737 C 116.058719 167.131221 113.77024 168.079081 111.387498 168.079081 L 8.997694 168.079081 C 4.027976 168.079081 0.000881536 164.046749 0.000881536 159.077031 L 0.000881536 9.000978 C 0.000881536 4.03126 4.027976 -0.00107172 8.997694 -0.00107172 Z M 8.997694 -0.00107172 " stroke="#463f57" stroke-width="12" stroke-opacity="1" stroke-miterlimit="4"/></g></g><g fill="#000000" fill-opacity="1"><g transform="translate(9.266539, 17.04217)"><g><path d="M 4.332031 -7.296875 L 3.265625 -7.296875 C 2.945312 -7.304688 2.730469 -7.257812 2.613281 -7.144531 C 2.488281 -7.027344 2.390625 -6.828125 2.300781 -6.542969 L 0.195312 -0.527344 C 0.125 -0.320312 0.0703125 -0.144531 0.0429688 0.0195312 C 0.0351562 0.25 0.0976562 0.429688 0.207031 0.546875 C 0.320312 0.644531 0.519531 0.699219 0.789062 0.707031 L 1.460938 0.707031 C 1.726562 0.714844 1.933594 0.664062 2.050781 0.554688 C 2.167969 0.4375 2.265625 0.25 2.335938 0.0195312 L 2.558594 -0.636719 L 5.039062 -0.636719 L 5.273438 0.0195312 C 5.34375 0.25 5.433594 0.4375 5.558594 0.554688 C 5.675781 0.664062 5.871094 0.714844 6.148438 0.707031 L 6.820312 0.707031 C 7.089844 0.699219 7.285156 0.644531 7.402344 0.546875 C 7.519531 0.429688 7.574219 0.25 7.5625 0.0195312 C 7.535156 -0.144531 7.484375 -0.320312 7.402344 -0.527344 L 5.308594 -6.542969 C 5.21875 -6.828125 5.109375 -7.027344 5.003906 -7.144531 C 4.878906 -7.257812 4.664062 -7.304688 4.332031 -7.296875 Z M 3.804688 -4.207031 L 4.304688 -2.757812 L 3.292969 -2.757812 Z M 3.804688 -4.207031 "/></g></g></g><g fill="#000000" fill-opacity="1"><g transform="translate(81.075092, 110.57376)"><g><path d="M -4.332031 7.296875 L -3.265625 7.296875 C -2.945312 7.304688 -2.730469 7.257812 -2.613281 7.144531 C -2.488281 7.027344 -2.390625 6.828125 -2.300781 6.542969 L -0.195312 0.527344 C -0.125 0.320312 -0.0703125 0.144531 -0.0429688 -0.0195312 C -0.0351562 -0.25 -0.0976562 -0.429688 -0.207031 -0.546875 C -0.320312 -0.644531 -0.519531 -0.699219 -0.789062 -0.707031 L -1.460938 -0.707031 C -1.726562 -0.714844 -1.933594 -0.664062 -2.050781 -0.554688 C -2.167969 -0.4375 -2.265625 -0.25 -2.335938 -0.0195312 L -2.558594 0.636719 L -5.039062 0.636719 L -5.273438 -0.0195312 C -5.34375 -0.25 -5.433594 -0.4375 -5.558594 -0.554688 C -5.675781 -0.664062 -5.871094 -0.714844 -6.148438 -0.707031 L -6.820312 -0.707031 C -7.089844 -0.699219 -7.285156 -0.644531 -7.402344 -0.546875 C -7.519531 -0.429688 -7.574219 -0.25 -7.5625 -0.0195312 C -7.535156 0.144531 -7.484375 0.320312 -7.402344 0.527344 L -5.308594 6.542969 C -5.21875 6.828125 -5.109375 7.027344 -5.003906 7.144531 C -4.878906 7.257812 -4.664062 7.304688 -4.332031 7.296875 Z M -3.804688 4.207031 L -4.304688 2.757812 L -3.292969 2.757812 Z M -3.804688 4.207031 "/></g></g></g><g clip-path="url(#024c08803f)"><path fill="#463f57" d="M 83.738281 103.570312 C 83.738281 107.136719 78.800781 108.457031 77.28125 104.332031 C 75.765625 108.457031 70.828125 107.136719 70.828125 103.570312 C 70.828125 99.699219 77.28125 94.785156 77.28125 94.785156 C 77.28125 94.785156 83.738281 99.699219 83.738281 103.570312 Z M 83.738281 103.570312 " fill-opacity="1" fill-rule="nonzero"/></g><g clip-path="url(#2e187d4dd0)"><path fill="#463f57" d="M 39.019531 61.539062 C 39.019531 57.972656 43.957031 56.652344 45.476562 60.777344 C 46.996094 56.652344 51.933594 57.972656 51.933594 61.539062 C 51.933594 65.410156 45.476562 70.324219 45.476562 70.324219 C 45.476562 70.324219 39.019531 65.410156 39.019531 61.539062 Z M 39.019531 61.539062 " fill-opacity="1" fill-rule="nonzero"/></g><g clip-path="url(#157a3a75cf)"><path fill="#463f57" d="M 6.59375 24.039062 C 6.59375 20.472656 11.527344 19.152344 13.046875 23.277344 C 14.566406 19.152344 19.503906 20.472656 19.503906 24.039062 C 19.503906 27.910156 13.046875 32.824219 13.046875 32.824219 C 13.046875 32.824219 6.59375 27.910156 6.59375 24.039062 Z M 6.59375 24.039062 " fill-opacity="1" fill-rule="nonzero"/></g></svg>