<svg xmlns="http://www.w3.org/2000/svg" xmlns:xlink="http://www.w3.org/1999/xlink" width="122" zoomAndPan="magnify" viewBox="0 0 91.5 127.499994" height="170" preserveAspectRatio="xMidYMid meet" version="1.0"><defs><g/><clipPath id="f0cdb2389f"><path d="M 0.597656 0.808594 L 90.402344 0.808594 L 90.402344 126.191406 L 0.597656 126.191406 Z M 0.597656 0.808594 " clip-rule="nonzero"/></clipPath><clipPath id="17325651e2"><path d="M 7.3125 0.808594 L 83.691406 0.808594 C 85.472656 0.808594 87.179688 1.515625 88.4375 2.777344 C 89.695312 4.035156 90.402344 5.742188 90.402344 7.523438 L 90.402344 119.480469 C 90.402344 121.261719 89.695312 122.96875 88.4375 124.226562 C 87.179688 125.484375 85.472656 126.191406 83.691406 126.191406 L 7.3125 126.191406 C 3.605469 126.191406 0.597656 123.1875 0.597656 119.480469 L 0.597656 7.523438 C 0.597656 3.816406 3.605469 0.808594 7.3125 0.808594 Z M 7.3125 0.808594 " clip-rule="nonzero"/></clipPath><clipPath id="9223d129fc"><path d="M 0.601562 0.808594 L 90.109375 0.808594 L 90.109375 126.125 L 0.601562 126.125 Z M 0.601562 0.808594 " clip-rule="nonzero"/></clipPath><clipPath id="fdf259910c"><path d="M 7.3125 0.808594 L 83.6875 0.808594 C 85.464844 0.808594 87.171875 1.515625 88.433594 2.777344 C 89.691406 4.035156 90.398438 5.742188 90.398438 7.523438 L 90.398438 119.46875 C 90.398438 121.25 89.691406 122.957031 88.433594 124.214844 C 87.171875 125.476562 85.464844 126.183594 83.6875 126.183594 L 7.3125 126.183594 C 3.605469 126.183594 0.601562 123.175781 0.601562 119.46875 L 0.601562 7.523438 C 0.601562 3.816406 3.605469 0.808594 7.3125 0.808594 Z M 7.3125 0.808594 " clip-rule="nonzero"/></clipPath><clipPath id="1a1e743ef7"><path d="M 21.1875 39.824219 L 69.671875 39.824219 L 69.671875 86.816406 L 21.1875 86.816406 Z M 21.1875 39.824219 " clip-rule="nonzero"/></clipPath><clipPath id="4ef5940311"><path d="M 6.605469 19 L 19.285156 19 L 19.285156 31.578125 L 6.605469 31.578125 Z M 6.605469 19 " clip-rule="nonzero"/></clipPath><clipPath id="9056acd2c7"><path d="M 71.042969 96.769531 L 83.726562 96.769531 L 83.726562 109 L 71.042969 109 Z M 71.042969 96.769531 " clip-rule="nonzero"/></clipPath></defs><g clip-path="url(#f0cdb2389f)"><g clip-path="url(#17325651e2)"><path fill="#ffffff" d="M 0.597656 0.808594 L 90.402344 0.808594 L 90.402344 126.191406 L 0.597656 126.191406 Z M 0.597656 0.808594 " fill-opacity="1" fill-rule="nonzero"/></g></g><g clip-path="url(#9223d129fc)"><g clip-path="url(#fdf259910c)"><path stroke-linecap="butt" transform="matrix(0.745924, 0, 0, 0.745924, 0.600905, 0.809393)" fill="none" stroke-linejoin="miter" d="M 8.997694 -0.00107172 L 111.387498 -0.00107172 C 113.77024 -0.00107172 116.058719 0.946788 117.750203 2.638273 C 119.436451 4.32452 120.384311 6.613 120.384311 9.000978 L 120.384311 159.077031 C 120.384311 161.46501 119.436451 163.753489 117.750203 165.439737 C 116.058719 167.131221 113.77024 168.079081 111.387498 168.079081 L 8.997694 168.079081 C 4.027976 168.079081 0.000881536 164.046749 0.000881536 159.077031 L 0.000881536 9.000978 C 0.000881536 4.03126 4.027976 -0.00107172 8.997694 -0.00107172 Z M 8.997694 -0.00107172 " stroke="#463f57" stroke-width="12" stroke-opacity="1" stroke-miterlimit="4"/></g></g><g clip-path="url(#1a1e743ef7)"><path fill="#463f57" d="M 24.273438 39.863281 C 23.550781 39.863281 22.832031 40.140625 22.285156 40.6875 C 21.183594 41.789062 21.183594 43.566406 22.285156 44.664062 C 22.875 45.253906 23.660156 45.527344 24.429688 45.484375 L 31.566406 52.628906 L 24.464844 59.730469 L 30.761719 57.59375 L 32.511719 55.84375 L 40.582031 63.910156 L 23.296875 81.195312 L 22.300781 87.109375 L 28.21875 86.117188 L 45.5 68.835938 L 62.796875 86.128906 L 68.714844 87.117188 L 67.722656 81.195312 L 50.433594 63.902344 L 58.496094 55.839844 L 60.253906 57.59375 L 66.550781 59.730469 L 59.4375 52.617188 L 66.574219 45.484375 C 67.34375 45.527344 68.128906 45.253906 68.71875 44.664062 C 69.816406 43.566406 69.816406 41.789062 68.71875 40.6875 C 68.171875 40.140625 67.453125 39.863281 66.730469 39.863281 C 66.011719 39.863281 65.292969 40.140625 64.742188 40.6875 C 64.152344 41.277344 63.878906 42.0625 63.921875 42.835938 L 56.785156 49.964844 L 49.683594 42.859375 L 51.820312 49.160156 L 53.574219 50.917969 L 45.511719 58.980469 L 37.445312 50.917969 L 39.191406 49.167969 L 41.324219 42.871094 L 34.226562 49.964844 L 27.082031 42.820312 C 27.117188 42.050781 26.851562 41.273438 26.265625 40.6875 C 25.714844 40.140625 24.992188 39.863281 24.273438 39.863281 Z M 24.273438 39.863281 " fill-opacity="1" fill-rule="evenodd"/></g><g fill="#000000" fill-opacity="1"><g transform="translate(9.266539, 17.04217)"><g><path d="M 5.058594 -2.738281 C 5.058594 -2.335938 4.996094 -2.058594 4.859375 -1.914062 C 4.71875 -1.761719 4.457031 -1.691406 4.074219 -1.691406 L 3.554688 -1.691406 C 3.167969 -1.691406 2.890625 -1.746094 2.765625 -1.851562 C 2.632812 -1.960938 2.550781 -2.101562 2.542969 -2.308594 C 2.542969 -2.558594 2.488281 -2.757812 2.382812 -2.863281 C 2.265625 -2.980469 2.078125 -3.042969 1.808594 -3.042969 L 0.902344 -3.042969 C 0.617188 -3.042969 0.429688 -2.980469 0.320312 -2.863281 C 0.214844 -2.757812 0.171875 -2.558594 0.171875 -2.308594 C 0.171875 -1.164062 0.429688 -0.375 0.941406 0.0546875 C 1.460938 0.484375 2.292969 0.699219 3.417969 0.699219 L 4.1875 0.699219 C 5.335938 0.6875 6.160156 0.472656 6.667969 0.0429688 C 7.1875 -0.386719 7.4375 -1.164062 7.4375 -2.308594 L 7.4375 -6.515625 C 7.429688 -6.792969 7.367188 -6.992188 7.257812 -7.105469 C 7.132812 -7.222656 6.910156 -7.277344 6.589844 -7.269531 L 5.800781 -7.269531 C 5.53125 -7.257812 5.34375 -7.207031 5.226562 -7.097656 C 5.109375 -6.980469 5.046875 -6.792969 5.058594 -6.515625 Z M 5.058594 -2.738281 "/></g></g></g><g fill="#000000" fill-opacity="1"><g transform="translate(81.072872, 110.581524)"><g><path d="M -5.058594 2.738281 C -5.058594 2.335938 -4.996094 2.058594 -4.859375 1.914062 C -4.71875 1.761719 -4.457031 1.691406 -4.074219 1.691406 L -3.554688 1.691406 C -3.167969 1.691406 -2.890625 1.746094 -2.765625 1.851562 C -2.632812 1.960938 -2.550781 2.101562 -2.542969 2.308594 C -2.542969 2.558594 -2.488281 2.757812 -2.382812 2.863281 C -2.265625 2.980469 -2.078125 3.042969 -1.808594 3.042969 L -0.902344 3.042969 C -0.617188 3.042969 -0.429688 2.980469 -0.320312 2.863281 C -0.214844 2.757812 -0.171875 2.558594 -0.171875 2.308594 C -0.171875 1.164062 -0.429688 0.375 -0.941406 -0.0546875 C -1.460938 -0.484375 -2.292969 -0.699219 -3.417969 -0.699219 L -4.1875 -0.699219 C -5.335938 -0.6875 -6.160156 -0.472656 -6.667969 -0.0429688 C -7.1875 0.386719 -7.4375 1.164062 -7.4375 2.308594 L -7.4375 6.515625 C -7.429688 6.792969 -7.367188 6.992188 -7.257812 7.105469 C -7.132812 7.222656 -6.910156 7.277344 -6.589844 7.269531 L -5.800781 7.269531 C -5.53125 7.257812 -5.34375 7.207031 -5.226562 7.097656 C -5.109375 6.980469 -5.046875 6.792969 -5.058594 6.515625 Z M -5.058594 2.738281 "/></g></g></g><g clip-path="url(#4ef5940311)"><path fill="#463f57" d="M 6.59375 23.0625 C 6.59375 19.496094 11.527344 18.175781 13.046875 22.300781 C 14.566406 18.175781 19.503906 19.496094 19.503906 23.0625 C 19.503906 26.933594 13.046875 31.84375 13.046875 31.84375 C 13.046875 31.84375 6.59375 26.933594 6.59375 23.0625 Z M 6.59375 23.0625 " fill-opacity="1" fill-rule="nonzero"/></g><g clip-path="url(#9056acd2c7)"><path fill="#463f57" d="M 83.738281 105.289062 C 83.738281 108.851562 78.800781 110.171875 77.28125 106.046875 C 75.765625 110.171875 70.828125 108.851562 70.828125 105.289062 C 70.828125 101.414062 77.28125 96.503906 77.28125 96.503906 C 77.28125 96.503906 83.738281 101.414062 83.738281 105.289062 Z M 83.738281 105.289062 " fill-opacity="1" fill-rule="nonzero"/></g></svg>