<svg xmlns="http://www.w3.org/2000/svg" xmlns:xlink="http://www.w3.org/1999/xlink" width="122" zoomAndPan="magnify" viewBox="0 0 91.5 127.499994" height="170" preserveAspectRatio="xMidYMid meet" version="1.0"><defs><g/><clipPath id="4a17611473"><path d="M 0.597656 0.808594 L 90.402344 0.808594 L 90.402344 126.191406 L 0.597656 126.191406 Z M 0.597656 0.808594 " clip-rule="nonzero"/></clipPath><clipPath id="be83afd3e7"><path d="M 7.3125 0.808594 L 83.691406 0.808594 C 85.472656 0.808594 87.179688 1.515625 88.4375 2.777344 C 89.695312 4.035156 90.402344 5.742188 90.402344 7.523438 L 90.402344 119.480469 C 90.402344 121.261719 89.695312 122.96875 88.4375 124.226562 C 87.179688 125.484375 85.472656 126.191406 83.691406 126.191406 L 7.3125 126.191406 C 3.605469 126.191406 0.597656 123.1875 0.597656 119.480469 L 0.597656 7.523438 C 0.597656 3.816406 3.605469 0.808594 7.3125 0.808594 Z M 7.3125 0.808594 " clip-rule="nonzero"/></clipPath><clipPath id="a123dc5b08"><path d="M 0.601562 0.808594 L 90.109375 0.808594 L 90.109375 126.125 L 0.601562 126.125 Z M 0.601562 0.808594 " clip-rule="nonzero"/></clipPath><clipPath id="678b5c2412"><path d="M 7.3125 0.808594 L 83.6875 0.808594 C 85.464844 0.808594 87.171875 1.515625 88.433594 2.777344 C 89.691406 4.035156 90.398438 5.742188 90.398438 7.523438 L 90.398438 119.46875 C 90.398438 121.25 89.691406 122.957031 88.433594 124.214844 C 87.171875 125.476562 85.464844 126.183594 83.6875 126.183594 L 7.3125 126.183594 C 3.605469 126.183594 0.601562 123.175781 0.601562 119.46875 L 0.601562 7.523438 C 0.601562 3.816406 3.605469 0.808594 7.3125 0.808594 Z M 7.3125 0.808594 " clip-rule="nonzero"/></clipPath><clipPath id="0064d83162"><path d="M 7 19.121094 L 19.285156 19.121094 L 19.285156 34 L 7 34 Z M 7 19.121094 " clip-rule="nonzero"/></clipPath><clipPath id="afe23a7264"><path d="M 71 93.902344 L 83.480469 93.902344 L 83.480469 108.496094 L 71 108.496094 Z M 71 93.902344 " clip-rule="nonzero"/></clipPath><clipPath id="d6b014e605"><path d="M 20 26.417969 L 32 26.417969 L 32 41 L 20 41 Z M 20 26.417969 " clip-rule="nonzero"/></clipPath><clipPath id="7e287a85a9"><path d="M 20.046875 85.351562 L 32.726562 85.351562 L 32.726562 100.269531 L 20.046875 100.269531 Z M 20.046875 85.351562 " clip-rule="nonzero"/></clipPath><clipPath id="e743b04473"><path d="M 20.046875 65.535156 L 32.726562 65.535156 L 32.726562 80.453125 L 20.046875 80.453125 Z M 20.046875 65.535156 " clip-rule="nonzero"/></clipPath><clipPath id="088ffe620b"><path d="M 20 46.140625 L 32.484375 46.140625 L 32.484375 61 L 20 61 Z M 20 46.140625 " clip-rule="nonzero"/></clipPath><clipPath id="12def83424"><path d="M 39.035156 33.875 L 51.714844 33.875 L 51.714844 48.792969 L 39.035156 48.792969 Z M 39.035156 33.875 " clip-rule="nonzero"/></clipPath><clipPath id="558dd9c9b8"><path d="M 39.28125 78.054688 L 51.960938 78.054688 L 51.960938 92.972656 L 39.28125 92.972656 Z M 39.28125 78.054688 " clip-rule="nonzero"/></clipPath><clipPath id="20bb36850a"><path d="M 58 26.578125 L 70.285156 26.578125 L 70.285156 41.496094 L 58 41.496094 Z M 58 26.578125 " clip-rule="nonzero"/></clipPath><clipPath id="9d37274c9e"><path d="M 58.109375 86.28125 L 70.792969 86.28125 L 70.792969 101.199219 L 58.109375 101.199219 Z M 58.109375 86.28125 " clip-rule="nonzero"/></clipPath><clipPath id="1e5955cce0"><path d="M 58.109375 66 L 70.792969 66 L 70.792969 80.609375 L 58.109375 80.609375 Z M 58.109375 66 " clip-rule="nonzero"/></clipPath><clipPath id="00ca079290"><path d="M 58 46.296875 L 70.546875 46.296875 L 70.546875 61 L 58 61 Z M 58 46.296875 " clip-rule="nonzero"/></clipPath></defs><g clip-path="url(#4a17611473)"><g clip-path="url(#be83afd3e7)"><path fill="#ffffff" d="M 0.597656 0.808594 L 90.402344 0.808594 L 90.402344 126.191406 L 0.597656 126.191406 Z M 0.597656 0.808594 " fill-opacity="1" fill-rule="nonzero"/></g></g><g clip-path="url(#a123dc5b08)"><g clip-path="url(#678b5c2412)"><path stroke-linecap="butt" transform="matrix(0.745924, 0, 0, 0.745924, 0.600905, 0.809393)" fill="none" stroke-linejoin="miter" d="M 8.997694 -0.00107172 L 111.387498 -0.00107172 C 113.77024 -0.00107172 116.058719 0.946788 117.750203 2.638273 C 119.436451 4.32452 120.384311 6.613 120.384311 9.000978 L 120.384311 159.077031 C 120.384311 161.46501 119.436451 163.753489 117.750203 165.439737 C 116.058719 167.131221 113.77024 168.079081 111.387498 168.079081 L 8.997694 168.079081 C 4.027976 168.079081 0.000881536 164.046749 0.000881536 159.077031 L 0.000881536 9.000978 C 0.000881536 4.03126 4.027976 -0.00107172 8.997694 -0.00107172 Z M 8.997694 -0.00107172 " stroke="#463f57" stroke-width="12" stroke-opacity="1" stroke-miterlimit="4"/></g></g><g clip-path="url(#0064d83162)"><path fill="#463f57" d="M 17.632812 24.949219 C 15.09375 22.5 13.421875 19.9375 13.066406 19.203125 C 12.707031 19.9375 11.039062 22.5 8.5 24.949219 C 6.804688 26.730469 6.605469 29.070312 8.121094 30.515625 C 9.566406 31.945312 11.304688 30.941406 12.308594 30.160156 C 12.285156 30.671875 12.109375 32.1875 10.703125 33.636719 L 15.472656 33.636719 C 14.046875 32.1875 13.867188 30.652344 13.867188 30.160156 C 14.847656 30.941406 16.585938 31.945312 18.054688 30.515625 C 19.527344 29.070312 19.328125 26.707031 17.632812 24.949219 " fill-opacity="1" fill-rule="nonzero"/></g><g clip-path="url(#afe23a7264)"><path fill="#463f57" d="M 81.828125 102.671875 C 79.285156 105.121094 77.617188 107.683594 77.257812 108.417969 C 76.902344 107.683594 75.234375 105.121094 72.695312 102.671875 C 71 100.886719 70.800781 98.550781 72.316406 97.101562 C 73.761719 95.675781 75.5 96.679688 76.503906 97.457031 C 76.480469 96.945312 76.300781 95.429688 74.898438 93.984375 L 79.667969 93.984375 C 78.238281 95.429688 78.0625 96.96875 78.0625 97.457031 C 79.042969 96.679688 80.78125 95.675781 82.25 97.101562 C 83.722656 98.550781 83.519531 100.910156 81.828125 102.671875 " fill-opacity="1" fill-rule="nonzero"/></g><g fill="#000000" fill-opacity="1"><g transform="translate(7.578497, 17.04217)"><g><path d="M 3.175781 0.234375 L 3.175781 -6.613281 C 3.175781 -7.0625 2.945312 -7.285156 2.480469 -7.285156 L 0.527344 -7.285156 C 0.285156 -7.285156 0.179688 -7.1875 0.179688 -6.964844 L 0.179688 -5.980469 C 0.179688 -5.765625 0.285156 -5.65625 0.527344 -5.65625 L 0.941406 -5.65625 C 1.054688 -5.65625 1.117188 -5.59375 1.117188 -5.476562 L 1.117188 0.234375 C 1.117188 0.457031 1.234375 0.5625 1.46875 0.5625 L 2.828125 0.5625 C 3.070312 0.5625 3.175781 0.457031 3.175781 0.234375 Z M 3.175781 0.234375 "/></g></g></g><g fill="#000000" fill-opacity="1"><g transform="translate(10.935178, 17.04217)"><g><path d="M 5.386719 -1.601562 C 5.386719 -1.253906 5.210938 -1.074219 4.859375 -1.074219 L 2.765625 -1.074219 C 2.417969 -1.074219 2.238281 -1.253906 2.238281 -1.601562 L 2.238281 -5.128906 C 2.238281 -5.476562 2.417969 -5.65625 2.765625 -5.65625 L 4.859375 -5.65625 C 5.210938 -5.65625 5.386719 -5.476562 5.386719 -5.128906 Z M 0.179688 -1.191406 C 0.179688 -0.0273438 0.761719 0.5625 1.925781 0.5625 L 5.703125 0.5625 C 6.867188 0.5625 7.4375 -0.0273438 7.449219 -1.191406 L 7.449219 -5.539062 C 7.4375 -6.703125 6.867188 -7.285156 5.703125 -7.285156 L 1.925781 -7.285156 C 0.761719 -7.285156 0.179688 -6.703125 0.179688 -5.539062 Z M 0.179688 -1.191406 "/></g></g></g><g fill="#000000" fill-opacity="1"><g transform="translate(82.762855, 110.581524)"><g><path d="M -3.175781 -0.234375 L -3.175781 6.613281 C -3.175781 7.0625 -2.945312 7.285156 -2.480469 7.285156 L -0.527344 7.285156 C -0.285156 7.285156 -0.179688 7.1875 -0.179688 6.964844 L -0.179688 5.980469 C -0.179688 5.765625 -0.285156 5.65625 -0.527344 5.65625 L -0.941406 5.65625 C -1.054688 5.65625 -1.117188 5.59375 -1.117188 5.476562 L -1.117188 -0.234375 C -1.117188 -0.457031 -1.234375 -0.5625 -1.46875 -0.5625 L -2.828125 -0.5625 C -3.070312 -0.5625 -3.175781 -0.457031 -3.175781 -0.234375 Z M -3.175781 -0.234375 "/></g></g></g><g fill="#000000" fill-opacity="1"><g transform="translate(79.406175, 110.581524)"><g><path d="M -5.386719 1.601562 C -5.386719 1.253906 -5.210938 1.074219 -4.859375 1.074219 L -2.765625 1.074219 C -2.417969 1.074219 -2.238281 1.253906 -2.238281 1.601562 L -2.238281 5.128906 C -2.238281 5.476562 -2.417969 5.65625 -2.765625 5.65625 L -4.859375 5.65625 C -5.210938 5.65625 -5.386719 5.476562 -5.386719 5.128906 Z M -0.179688 1.191406 C -0.179688 0.0273438 -0.761719 -0.5625 -1.925781 -0.5625 L -5.703125 -0.5625 C -6.867188 -0.5625 -7.4375 0.0273438 -7.449219 1.191406 L -7.449219 5.539062 C -7.4375 6.703125 -6.867188 7.285156 -5.703125 7.285156 L -1.925781 7.285156 C -0.761719 7.285156 -0.179688 6.703125 -0.179688 5.539062 Z M -0.179688 1.191406 "/></g></g></g><g clip-path="url(#d6b014e605)"><path fill="#463f57" d="M 30.566406 32.246094 C 28.027344 29.796875 26.355469 27.234375 26 26.5 C 25.640625 27.234375 23.972656 29.796875 21.433594 32.246094 C 19.738281 34.027344 19.539062 36.367188 21.054688 37.8125 C 22.5 39.238281 24.238281 38.238281 25.242188 37.457031 C 25.21875 37.96875 25.042969 39.484375 23.636719 40.933594 L 28.40625 40.933594 C 26.980469 39.484375 26.800781 37.945312 26.800781 37.457031 C 27.78125 38.238281 29.519531 39.238281 30.988281 37.8125 C 32.460938 36.367188 32.261719 34.003906 30.566406 32.246094 " fill-opacity="1" fill-rule="nonzero"/></g><g clip-path="url(#7e287a85a9)"><path fill="#463f57" d="M 21.699219 94.441406 C 24.238281 96.890625 25.910156 99.453125 26.265625 100.1875 C 26.625 99.453125 28.292969 96.890625 30.832031 94.441406 C 32.527344 92.660156 32.726562 90.320312 31.210938 88.875 C 29.765625 87.449219 28.027344 88.449219 27.023438 89.230469 C 27.046875 88.71875 27.222656 87.203125 28.628906 85.753906 L 23.859375 85.753906 C 25.285156 87.203125 25.464844 88.742188 25.464844 89.230469 C 24.484375 88.449219 22.746094 87.449219 21.277344 88.875 C 19.804688 90.320312 20.007812 92.683594 21.699219 94.441406 " fill-opacity="1" fill-rule="nonzero"/></g><g clip-path="url(#e743b04473)"><path fill="#463f57" d="M 21.699219 74.628906 C 24.238281 77.078125 25.910156 79.640625 26.265625 80.375 C 26.625 79.640625 28.292969 77.078125 30.832031 74.628906 C 32.527344 72.84375 32.726562 70.507812 31.210938 69.058594 C 29.765625 67.632812 28.027344 68.636719 27.023438 69.414062 C 27.046875 68.902344 27.222656 67.386719 28.628906 65.941406 L 23.859375 65.941406 C 25.285156 67.386719 25.464844 68.925781 25.464844 69.414062 C 24.484375 68.636719 22.746094 67.632812 21.277344 69.058594 C 19.804688 70.507812 20.007812 72.867188 21.699219 74.628906 " fill-opacity="1" fill-rule="nonzero"/></g><g clip-path="url(#088ffe620b)"><path fill="#463f57" d="M 30.828125 51.964844 C 28.289062 49.515625 26.621094 46.953125 26.261719 46.21875 C 25.90625 46.953125 24.234375 49.515625 21.695312 51.964844 C 20.003906 53.75 19.800781 56.089844 21.316406 57.535156 C 22.765625 58.960938 24.503906 57.957031 25.503906 57.179688 C 25.484375 57.691406 25.304688 59.207031 23.902344 60.652344 L 28.667969 60.652344 C 27.242188 59.207031 27.066406 57.667969 27.066406 57.179688 C 28.046875 57.957031 29.78125 58.960938 31.253906 57.535156 C 32.722656 56.089844 32.523438 53.726562 30.828125 51.964844 " fill-opacity="1" fill-rule="nonzero"/></g><g clip-path="url(#12def83424)"><path fill="#5271ff" d="M 50.0625 39.699219 C 47.523438 37.25 45.851562 34.6875 45.496094 33.953125 C 45.136719 34.6875 43.46875 37.25 40.929688 39.699219 C 39.234375 41.480469 39.035156 43.820312 40.550781 45.265625 C 41.996094 46.695312 43.734375 45.691406 44.738281 44.910156 C 44.714844 45.421875 44.539062 46.9375 43.132812 48.386719 L 47.902344 48.386719 C 46.476562 46.9375 46.296875 45.402344 46.296875 44.910156 C 47.277344 45.691406 49.015625 46.695312 50.484375 45.265625 C 51.957031 43.820312 51.753906 41.457031 50.0625 39.699219 " fill-opacity="1" fill-rule="nonzero"/></g><g clip-path="url(#558dd9c9b8)"><path fill="#5271ff" d="M 40.933594 87.144531 C 43.472656 89.59375 45.144531 92.15625 45.5 92.894531 C 45.855469 92.15625 47.527344 89.59375 50.066406 87.144531 C 51.757812 85.363281 51.960938 83.023438 50.445312 81.578125 C 48.996094 80.152344 47.257812 81.152344 46.257812 81.933594 C 46.28125 81.421875 46.457031 79.90625 47.859375 78.457031 L 43.09375 78.457031 C 44.519531 79.90625 44.695312 81.445312 44.695312 81.933594 C 43.714844 81.152344 41.980469 80.152344 40.507812 81.578125 C 39.039062 83.023438 39.238281 85.386719 40.933594 87.144531 " fill-opacity="1" fill-rule="nonzero"/></g><g clip-path="url(#20bb36850a)"><path fill="#463f57" d="M 68.628906 32.402344 C 66.089844 29.953125 64.421875 27.390625 64.0625 26.65625 C 63.707031 27.390625 62.039062 29.953125 59.496094 32.402344 C 57.804688 34.183594 57.601562 36.523438 59.121094 37.96875 C 60.566406 39.398438 62.304688 38.394531 63.308594 37.613281 C 63.285156 38.128906 63.105469 39.640625 61.703125 41.089844 L 66.46875 41.089844 C 65.042969 39.640625 64.867188 38.105469 64.867188 37.613281 C 65.847656 38.394531 67.582031 39.398438 69.054688 37.96875 C 70.523438 36.523438 70.324219 34.164062 68.628906 32.402344 " fill-opacity="1" fill-rule="nonzero"/></g><g clip-path="url(#9d37274c9e)"><path fill="#463f57" d="M 59.765625 95.375 C 62.304688 97.824219 63.972656 100.386719 64.332031 101.121094 C 64.6875 100.386719 66.359375 97.824219 68.898438 95.375 C 70.589844 93.589844 70.792969 91.253906 69.277344 89.804688 C 67.828125 88.378906 66.089844 89.382812 65.089844 90.160156 C 65.109375 89.648438 65.289062 88.132812 66.691406 86.6875 L 61.925781 86.6875 C 63.351562 88.132812 63.527344 89.671875 63.527344 90.160156 C 62.546875 89.382812 60.8125 88.378906 59.339844 89.804688 C 57.871094 91.253906 58.070312 93.613281 59.765625 95.375 " fill-opacity="1" fill-rule="nonzero"/></g><g clip-path="url(#1e5955cce0)"><path fill="#463f57" d="M 59.765625 74.785156 C 62.304688 77.234375 63.972656 79.796875 64.332031 80.53125 C 64.6875 79.796875 66.359375 77.234375 68.898438 74.785156 C 70.589844 73 70.792969 70.664062 69.277344 69.214844 C 67.828125 67.789062 66.089844 68.792969 65.089844 69.570312 C 65.109375 69.058594 65.289062 67.542969 66.691406 66.097656 L 61.925781 66.097656 C 63.351562 67.542969 63.527344 69.082031 63.527344 69.570312 C 62.546875 68.792969 60.8125 67.789062 59.339844 69.214844 C 57.871094 70.664062 58.070312 73.023438 59.765625 74.785156 " fill-opacity="1" fill-rule="nonzero"/></g><g clip-path="url(#00ca079290)"><path fill="#463f57" d="M 68.894531 52.125 C 66.355469 49.671875 64.683594 47.113281 64.328125 46.375 C 63.96875 47.113281 62.300781 49.671875 59.761719 52.125 C 58.066406 53.90625 57.867188 56.246094 59.382812 57.691406 C 60.828125 59.117188 62.566406 58.117188 63.570312 57.335938 C 63.546875 57.847656 63.367188 59.363281 61.964844 60.8125 L 66.734375 60.8125 C 65.308594 59.363281 65.128906 57.824219 65.128906 57.335938 C 66.109375 58.117188 67.847656 59.117188 69.316406 57.691406 C 70.789062 56.246094 70.585938 53.882812 68.894531 52.125 " fill-opacity="1" fill-rule="nonzero"/></g></svg>