<svg xmlns="http://www.w3.org/2000/svg" xmlns:xlink="http://www.w3.org/1999/xlink" width="122" zoomAndPan="magnify" viewBox="0 0 91.5 127.499994" height="170" preserveAspectRatio="xMidYMid meet" version="1.0"><defs><g/><clipPath id="939badd386"><path d="M 0.597656 0.808594 L 90.402344 0.808594 L 90.402344 126.191406 L 0.597656 126.191406 Z M 0.597656 0.808594 " clip-rule="nonzero"/></clipPath><clipPath id="a5755c778a"><path d="M 7.3125 0.808594 L 83.691406 0.808594 C 85.472656 0.808594 87.179688 1.515625 88.4375 2.777344 C 89.695312 4.035156 90.402344 5.742188 90.402344 7.523438 L 90.402344 119.480469 C 90.402344 121.261719 89.695312 122.96875 88.4375 124.226562 C 87.179688 125.484375 85.472656 126.191406 83.691406 126.191406 L 7.3125 126.191406 C 3.605469 126.191406 0.597656 123.1875 0.597656 119.480469 L 0.597656 7.523438 C 0.597656 3.816406 3.605469 0.808594 7.3125 0.808594 Z M 7.3125 0.808594 " clip-rule="nonzero"/></clipPath><clipPath id="00199e1a25"><path d="M 0.601562 0.808594 L 90.109375 0.808594 L 90.109375 126.125 L 0.601562 126.125 Z M 0.601562 0.808594 " clip-rule="nonzero"/></clipPath><clipPath id="1e67c8821b"><path d="M 7.3125 0.808594 L 83.6875 0.808594 C 85.464844 0.808594 87.171875 1.515625 88.433594 2.777344 C 89.691406 4.035156 90.398438 5.742188 90.398438 7.523438 L 90.398438 119.46875 C 90.398438 121.25 89.691406 122.957031 88.433594 124.214844 C 87.171875 125.476562 85.464844 126.183594 83.6875 126.183594 L 7.3125 126.183594 C 3.605469 126.183594 0.601562 123.175781 0.601562 119.46875 L 0.601562 7.523438 C 0.601562 3.816406 3.605469 0.808594 7.3125 0.808594 Z M 7.3125 0.808594 " clip-rule="nonzero"/></clipPath><clipPath id="756fe3580b"><path d="M 7 19.121094 L 19.285156 19.121094 L 19.285156 34 L 7 34 Z M 7 19.121094 " clip-rule="nonzero"/></clipPath><clipPath id="b1f7229641"><path d="M 71 93.902344 L 83.480469 93.902344 L 83.480469 108.496094 L 71 108.496094 Z M 71 93.902344 " clip-rule="nonzero"/></clipPath><clipPath id="514eb1b96b"><path d="M 20 33.714844 L 32 33.714844 L 32 48.636719 L 20 48.636719 Z M 20 33.714844 " clip-rule="nonzero"/></clipPath><clipPath id="eea8b2cbeb"><path d="M 20 79 L 32 79 L 32 93.902344 L 20 93.902344 Z M 20 79 " clip-rule="nonzero"/></clipPath><clipPath id="cc5ada7765"><path d="M 58 33.714844 L 70.546875 33.714844 L 70.546875 48.636719 L 58 48.636719 Z M 58 33.714844 " clip-rule="nonzero"/></clipPath><clipPath id="f845235bc1"><path d="M 58.109375 79 L 70.792969 79 L 70.792969 93.902344 L 58.109375 93.902344 Z M 58.109375 79 " clip-rule="nonzero"/></clipPath><clipPath id="d4ccebc20b"><path d="M 20 56.203125 L 32 56.203125 L 32 71 L 20 71 Z M 20 56.203125 " clip-rule="nonzero"/></clipPath><clipPath id="0c6bea8045"><path d="M 58 56.511719 L 70.546875 56.511719 L 70.546875 71.433594 L 58 71.433594 Z M 58 56.511719 " clip-rule="nonzero"/></clipPath><clipPath id="ec57b0d515"><path d="M 39 44.160156 L 51.382812 44.160156 L 51.382812 59 L 39 59 Z M 39 44.160156 " clip-rule="nonzero"/></clipPath></defs><g clip-path="url(#939badd386)"><g clip-path="url(#a5755c778a)"><path fill="#ffffff" d="M 0.597656 0.808594 L 90.402344 0.808594 L 90.402344 126.191406 L 0.597656 126.191406 Z M 0.597656 0.808594 " fill-opacity="1" fill-rule="nonzero"/></g></g><g clip-path="url(#00199e1a25)"><g clip-path="url(#1e67c8821b)"><path stroke-linecap="butt" transform="matrix(0.745924, 0, 0, 0.745924, 0.600905, 0.809393)" fill="none" stroke-linejoin="miter" d="M 8.997694 -0.00107172 L 111.387498 -0.00107172 C 113.77024 -0.00107172 116.058719 0.946788 117.750203 2.638273 C 119.436451 4.32452 120.384311 6.613 120.384311 9.000978 L 120.384311 159.077031 C 120.384311 161.46501 119.436451 163.753489 117.750203 165.439737 C 116.058719 167.131221 113.77024 168.079081 111.387498 168.079081 L 8.997694 168.079081 C 4.027976 168.079081 0.000881536 164.046749 0.000881536 159.077031 L 0.000881536 9.000978 C 0.000881536 4.03126 4.027976 -0.00107172 8.997694 -0.00107172 Z M 8.997694 -0.00107172 " stroke="#463f57" stroke-width="12" stroke-opacity="1" stroke-miterlimit="4"/></g></g><g clip-path="url(#756fe3580b)"><path fill="#463f57" d="M 17.632812 24.949219 C 15.09375 22.5 13.421875 19.9375 13.066406 19.203125 C 12.707031 19.9375 11.039062 22.5 8.5 24.949219 C 6.804688 26.730469 6.605469 29.070312 8.121094 30.515625 C 9.566406 31.945312 11.304688 30.941406 12.308594 30.160156 C 12.285156 30.671875 12.109375 32.1875 10.703125 33.636719 L 15.472656 33.636719 C 14.046875 32.1875 13.867188 30.652344 13.867188 30.160156 C 14.847656 30.941406 16.585938 31.945312 18.054688 30.515625 C 19.527344 29.070312 19.328125 26.707031 17.632812 24.949219 " fill-opacity="1" fill-rule="nonzero"/></g><g clip-path="url(#b1f7229641)"><path fill="#463f57" d="M 81.828125 102.671875 C 79.285156 105.121094 77.617188 107.683594 77.257812 108.417969 C 76.902344 107.683594 75.234375 105.121094 72.695312 102.671875 C 71 100.886719 70.800781 98.550781 72.316406 97.101562 C 73.761719 95.675781 75.5 96.679688 76.503906 97.457031 C 76.480469 96.945312 76.300781 95.429688 74.898438 93.984375 L 79.667969 93.984375 C 78.238281 95.429688 78.0625 96.96875 78.0625 97.457031 C 79.042969 96.679688 80.78125 95.675781 82.25 97.101562 C 83.722656 98.550781 83.519531 100.910156 81.828125 102.671875 " fill-opacity="1" fill-rule="nonzero"/></g><g fill="#000000" fill-opacity="1"><g transform="translate(9.256826, 17.04217)"><g><path d="M 2.238281 -4.0625 L 2.238281 -5.476562 C 2.238281 -5.59375 2.300781 -5.65625 2.417969 -5.65625 L 5.039062 -5.65625 C 5.148438 -5.65625 5.210938 -5.59375 5.210938 -5.476562 L 5.210938 -5.238281 C 5.210938 -5.058594 5.164062 -4.90625 5.085938 -4.769531 L 2.050781 0.234375 C 1.914062 0.457031 1.960938 0.5625 2.191406 0.5625 L 3.839844 0.5625 C 4.074219 0.5625 4.261719 0.457031 4.386719 0.234375 L 7.269531 -4.511719 C 7.382812 -4.699219 7.449219 -4.914062 7.449219 -5.136719 L 7.449219 -6.417969 C 7.4375 -7 7.152344 -7.285156 6.570312 -7.285156 L 1.046875 -7.285156 C 0.464844 -7.285156 0.179688 -7 0.179688 -6.417969 L 0.179688 -4.0625 C 0.179688 -3.847656 0.285156 -3.742188 0.527344 -3.742188 L 1.890625 -3.742188 C 2.121094 -3.742188 2.238281 -3.847656 2.238281 -4.0625 Z M 2.238281 -4.0625 "/></g></g></g><g fill="#000000" fill-opacity="1"><g transform="translate(81.075092, 110.57376)"><g><path d="M -2.238281 4.0625 L -2.238281 5.476562 C -2.238281 5.59375 -2.300781 5.65625 -2.417969 5.65625 L -5.039062 5.65625 C -5.148438 5.65625 -5.210938 5.59375 -5.210938 5.476562 L -5.210938 5.238281 C -5.210938 5.058594 -5.164062 4.90625 -5.085938 4.769531 L -2.050781 -0.234375 C -1.914062 -0.457031 -1.960938 -0.5625 -2.191406 -0.5625 L -3.839844 -0.5625 C -4.074219 -0.5625 -4.261719 -0.457031 -4.386719 -0.234375 L -7.269531 4.511719 C -7.382812 4.699219 -7.449219 4.914062 -7.449219 5.136719 L -7.449219 6.417969 C -7.4375 7 -7.152344 7.285156 -6.570312 7.285156 L -1.046875 7.285156 C -0.464844 7.285156 -0.179688 7 -0.179688 6.417969 L -0.179688 4.0625 C -0.179688 3.847656 -0.285156 3.742188 -0.527344 3.742188 L -1.890625 3.742188 C -2.121094 3.742188 -2.238281 3.847656 -2.238281 4.0625 Z M -2.238281 4.0625 "/></g></g></g><g clip-path="url(#514eb1b96b)"><path fill="#463f57" d="M 30.566406 39.542969 C 28.027344 37.09375 26.355469 34.53125 26 33.796875 C 25.640625 34.53125 23.972656 37.09375 21.433594 39.542969 C 19.738281 41.324219 19.539062 43.664062 21.054688 45.109375 C 22.5 46.535156 24.238281 45.535156 25.242188 44.753906 C 25.21875 45.265625 25.042969 46.78125 23.636719 48.230469 L 28.40625 48.230469 C 26.980469 46.78125 26.800781 45.242188 26.800781 44.753906 C 27.78125 45.535156 29.519531 46.535156 30.988281 45.109375 C 32.460938 43.664062 32.261719 41.300781 30.566406 39.542969 " fill-opacity="1" fill-rule="nonzero"/></g><g clip-path="url(#eea8b2cbeb)"><path fill="#463f57" d="M 21.4375 88.078125 C 23.976562 90.527344 25.648438 93.089844 26.003906 93.824219 C 26.359375 93.089844 28.03125 90.527344 30.570312 88.078125 C 32.261719 86.292969 32.464844 83.957031 30.949219 82.507812 C 29.5 81.082031 27.761719 82.085938 26.761719 82.863281 C 26.785156 82.351562 26.960938 80.835938 28.363281 79.390625 L 23.597656 79.390625 C 25.023438 80.835938 25.199219 82.375 25.199219 82.863281 C 24.21875 82.085938 22.484375 81.082031 21.011719 82.507812 C 19.542969 83.957031 19.742188 86.316406 21.4375 88.078125 " fill-opacity="1" fill-rule="nonzero"/></g><g clip-path="url(#cc5ada7765)"><path fill="#463f57" d="M 68.894531 39.542969 C 66.355469 37.09375 64.683594 34.53125 64.328125 33.796875 C 63.96875 34.53125 62.300781 37.09375 59.761719 39.542969 C 58.066406 41.324219 57.867188 43.664062 59.382812 45.109375 C 60.828125 46.535156 62.566406 45.535156 63.570312 44.753906 C 63.546875 45.265625 63.367188 46.78125 61.964844 48.230469 L 66.734375 48.230469 C 65.308594 46.78125 65.128906 45.242188 65.128906 44.753906 C 66.109375 45.535156 67.847656 46.535156 69.316406 45.109375 C 70.789062 43.664062 70.585938 41.300781 68.894531 39.542969 " fill-opacity="1" fill-rule="nonzero"/></g><g clip-path="url(#f845235bc1)"><path fill="#463f57" d="M 59.765625 88.078125 C 62.304688 90.527344 63.972656 93.089844 64.332031 93.824219 C 64.6875 93.089844 66.359375 90.527344 68.898438 88.078125 C 70.589844 86.292969 70.792969 83.957031 69.277344 82.507812 C 67.828125 81.082031 66.089844 82.085938 65.089844 82.863281 C 65.109375 82.351562 65.289062 80.835938 66.691406 79.390625 L 61.925781 79.390625 C 63.351562 80.835938 63.527344 82.375 63.527344 82.863281 C 62.546875 82.085938 60.8125 81.082031 59.339844 82.507812 C 57.871094 83.957031 58.070312 86.316406 59.765625 88.078125 " fill-opacity="1" fill-rule="nonzero"/></g><g clip-path="url(#d4ccebc20b)"><path fill="#463f57" d="M 30.566406 62.03125 C 28.027344 59.582031 26.355469 57.019531 26 56.285156 C 25.640625 57.019531 23.972656 59.582031 21.433594 62.03125 C 19.738281 63.8125 19.539062 66.152344 21.054688 67.597656 C 22.5 69.023438 24.238281 68.023438 25.242188 67.242188 C 25.21875 67.753906 25.042969 69.269531 23.636719 70.71875 L 28.40625 70.71875 C 26.980469 69.269531 26.800781 67.730469 26.800781 67.242188 C 27.78125 68.023438 29.519531 69.023438 30.988281 67.597656 C 32.460938 66.152344 32.261719 63.789062 30.566406 62.03125 " fill-opacity="1" fill-rule="nonzero"/></g><g clip-path="url(#0c6bea8045)"><path fill="#463f57" d="M 68.894531 62.339844 C 66.355469 59.890625 64.683594 57.328125 64.328125 56.59375 C 63.96875 57.328125 62.300781 59.890625 59.761719 62.339844 C 58.066406 64.121094 57.867188 66.460938 59.382812 67.90625 C 60.828125 69.335938 62.566406 68.332031 63.570312 67.550781 C 63.546875 68.0625 63.367188 69.578125 61.964844 71.027344 L 66.734375 71.027344 C 65.308594 69.578125 65.128906 68.042969 65.128906 67.550781 C 66.109375 68.332031 67.847656 69.335938 69.316406 67.90625 C 70.789062 66.460938 70.585938 64.097656 68.894531 62.339844 " fill-opacity="1" fill-rule="nonzero"/></g><g clip-path="url(#ec57b0d515)"><path fill="#5271ff" d="M 49.730469 49.984375 C 47.191406 47.535156 45.519531 44.972656 45.164062 44.238281 C 44.804688 44.972656 43.136719 47.535156 40.597656 49.984375 C 38.902344 51.769531 38.703125 54.105469 40.21875 55.554688 C 41.664062 56.980469 43.402344 55.976562 44.40625 55.199219 C 44.382812 55.710938 44.207031 57.222656 42.800781 58.671875 L 47.570312 58.671875 C 46.144531 57.222656 45.964844 55.6875 45.964844 55.199219 C 46.945312 55.976562 48.683594 56.980469 50.152344 55.554688 C 51.625 54.105469 51.421875 51.746094 49.730469 49.984375 " fill-opacity="1" fill-rule="nonzero"/></g></svg>