<svg xmlns="http://www.w3.org/2000/svg" xmlns:xlink="http://www.w3.org/1999/xlink" width="500" zoomAndPan="magnify" viewBox="0 0 375 374.999991" height="500" preserveAspectRatio="xMidYMid meet" version="1.0"><defs><g/><clipPath id="14d829c14e"><path d="M 142.351562 124.464844 L 232.648438 124.464844 L 232.648438 250.535156 L 142.351562 250.535156 Z M 142.351562 124.464844 " clip-rule="nonzero"/></clipPath><clipPath id="9eab73424e"><path d="M 149.101562 124.464844 L 225.898438 124.464844 C 227.6875 124.464844 229.40625 125.175781 230.671875 126.441406 C 231.9375 127.707031 232.648438 129.425781 232.648438 131.214844 L 232.648438 243.785156 C 232.648438 245.574219 231.9375 247.292969 230.671875 248.558594 C 229.40625 249.824219 227.6875 250.535156 225.898438 250.535156 L 149.101562 250.535156 C 145.375 250.535156 142.351562 247.511719 142.351562 243.785156 L 142.351562 131.214844 C 142.351562 127.488281 145.375 124.464844 149.101562 124.464844 Z M 149.101562 124.464844 " clip-rule="nonzero"/></clipPath><clipPath id="201fc9b789"><path d="M 142.355469 124.464844 L 232.351562 124.464844 L 232.351562 250.464844 L 142.355469 250.464844 Z M 142.355469 124.464844 " clip-rule="nonzero"/></clipPath><clipPath id="60f8de47af"><path d="M 149.105469 124.464844 L 225.894531 124.464844 C 227.683594 124.464844 229.398438 125.175781 230.664062 126.441406 C 231.929688 127.707031 232.644531 129.425781 232.644531 131.214844 L 232.644531 243.773438 C 232.644531 245.566406 231.929688 247.28125 230.664062 248.546875 C 229.398438 249.8125 227.683594 250.523438 225.894531 250.523438 L 149.105469 250.523438 C 145.375 250.523438 142.355469 247.503906 142.355469 243.773438 L 142.355469 131.214844 C 142.355469 127.488281 145.375 124.464844 149.105469 124.464844 Z M 149.105469 124.464844 " clip-rule="nonzero"/></clipPath><clipPath id="501d133c09"><path d="M 213.183594 219.222656 L 225.933594 219.222656 L 225.933594 232 L 213.183594 232 Z M 213.183594 219.222656 " clip-rule="nonzero"/></clipPath><clipPath id="0bd879379a"><path d="M 161.394531 158 L 174.144531 158 L 174.144531 170.203125 L 161.394531 170.203125 Z M 161.394531 158 " clip-rule="nonzero"/></clipPath><clipPath id="ae105b9f87"><path d="M 148.390625 144 L 161.140625 144 L 161.140625 156.386719 L 148.390625 156.386719 Z M 148.390625 144 " clip-rule="nonzero"/></clipPath><clipPath id="cdc4696446"><path d="M 161.640625 205.40625 L 174.390625 205.40625 L 174.390625 218 L 161.640625 218 Z M 161.640625 205.40625 " clip-rule="nonzero"/></clipPath><clipPath id="6c9d3b721b"><path d="M 199.933594 158 L 212.683594 158 L 212.683594 170.203125 L 199.933594 170.203125 Z M 199.933594 158 " clip-rule="nonzero"/></clipPath><clipPath id="bb7e239b76"><path d="M 200.179688 205.40625 L 212.929688 205.40625 L 212.929688 218 L 200.179688 218 Z M 200.179688 205.40625 " clip-rule="nonzero"/></clipPath><clipPath id="3d603ae31c"><path d="M 161.394531 182 L 174.144531 182 L 174.144531 194.402344 L 161.394531 194.402344 Z M 161.394531 182 " clip-rule="nonzero"/></clipPath><clipPath id="db7be3c954"><path d="M 199.933594 182 L 212.683594 182 L 212.683594 194.402344 L 199.933594 194.402344 Z M 199.933594 182 " clip-rule="nonzero"/></clipPath><clipPath id="ff881fe3e8"><path d="M 180.996094 168 L 193.746094 168 L 193.746094 180.585938 L 180.996094 180.585938 Z M 180.996094 168 " clip-rule="nonzero"/></clipPath><clipPath id="3db1a0b087"><path d="M 181.242188 195.023438 L 193.992188 195.023438 L 193.992188 207 L 181.242188 207 Z M 181.242188 195.023438 " clip-rule="nonzero"/></clipPath></defs><g clip-path="url(#14d829c14e)"><g clip-path="url(#9eab73424e)"><path fill="#ffffff" d="M 142.351562 124.464844 L 232.648438 124.464844 L 232.648438 250.535156 L 142.351562 250.535156 Z M 142.351562 124.464844 " fill-opacity="1" fill-rule="nonzero"/></g></g><g clip-path="url(#201fc9b789)"><g clip-path="url(#60f8de47af)"><path stroke-linecap="butt" transform="matrix(0.75, 0, 0, 0.75, 142.354186, 124.46548)" fill="none" stroke-linejoin="miter" d="M 9.001712 -0.000848102 L 111.387135 -0.000848102 C 113.772552 -0.000848102 116.05901 0.947069 117.74651 2.634569 C 119.43401 4.322069 120.387136 6.613736 120.387136 8.999152 L 120.387136 159.077287 C 120.387136 161.467913 119.43401 163.754371 117.74651 165.441871 C 116.05901 167.129371 113.772552 168.077288 111.387135 168.077288 L 9.001712 168.077288 C 4.027753 168.077288 0.00171093 164.051246 0.00171093 159.077287 L 0.00171093 8.999152 C 0.00171093 4.030402 4.027753 -0.000848102 9.001712 -0.000848102 Z M 9.001712 -0.000848102 " stroke="#463f57" stroke-width="12" stroke-opacity="1" stroke-miterlimit="4"/></g></g><g fill="#000000" fill-opacity="1"><g transform="translate(151.057406, 140.786943)"><g><path d="M 5.734375 -7.324219 L 1.933594 -7.324219 C 0.765625 -7.324219 0.1875 -6.742188 0.179688 -5.570312 L 0.179688 -4.609375 C 0.1875 -4.078125 0.359375 -3.664062 0.703125 -3.375 C 0.359375 -3.085938 0.1875 -2.671875 0.179688 -2.140625 L 0.179688 -1.195312 C 0.1875 -0.0273438 0.765625 0.566406 1.933594 0.566406 L 5.734375 0.566406 C 6.902344 0.566406 7.480469 -0.0273438 7.488281 -1.195312 L 7.488281 -2.140625 C 7.480469 -2.671875 7.308594 -3.085938 6.957031 -3.375 C 7.308594 -3.664062 7.480469 -4.078125 7.488281 -4.609375 L 7.488281 -5.570312 C 7.480469 -6.742188 6.902344 -7.324219 5.734375 -7.324219 Z M 4.886719 -1.078125 L 2.78125 -1.078125 C 2.429688 -1.078125 2.25 -1.261719 2.25 -1.609375 L 2.25 -2.035156 C 2.25 -2.386719 2.429688 -2.554688 2.78125 -2.554688 L 4.886719 -2.554688 C 5.238281 -2.554688 5.417969 -2.386719 5.417969 -2.035156 L 5.417969 -1.609375 C 5.417969 -1.261719 5.238281 -1.078125 4.886719 -1.078125 Z M 4.886719 -4.203125 L 2.78125 -4.203125 C 2.429688 -4.203125 2.25 -4.375 2.25 -4.726562 L 2.25 -5.15625 C 2.25 -5.507812 2.429688 -5.6875 2.78125 -5.6875 L 4.886719 -5.6875 C 5.238281 -5.6875 5.417969 -5.507812 5.417969 -5.15625 L 5.417969 -4.726562 C 5.417969 -4.375 5.238281 -4.203125 4.886719 -4.203125 Z M 4.886719 -4.203125 "/></g></g></g><g fill="#000000" fill-opacity="1"><g transform="translate(223.268135, 234.829672)"><g><path d="M -5.734375 7.324219 L -1.933594 7.324219 C -0.765625 7.324219 -0.1875 6.742188 -0.179688 5.570312 L -0.179688 4.609375 C -0.1875 4.078125 -0.359375 3.664062 -0.703125 3.375 C -0.359375 3.085938 -0.1875 2.671875 -0.179688 2.140625 L -0.179688 1.195312 C -0.1875 0.0273438 -0.765625 -0.566406 -1.933594 -0.566406 L -5.734375 -0.566406 C -6.902344 -0.566406 -7.480469 0.0273438 -7.488281 1.195312 L -7.488281 2.140625 C -7.480469 2.671875 -7.308594 3.085938 -6.957031 3.375 C -7.308594 3.664062 -7.480469 4.078125 -7.488281 4.609375 L -7.488281 5.570312 C -7.480469 6.742188 -6.902344 7.324219 -5.734375 7.324219 Z M -4.886719 1.078125 L -2.78125 1.078125 C -2.429688 1.078125 -2.25 1.261719 -2.25 1.609375 L -2.25 2.035156 C -2.25 2.386719 -2.429688 2.554688 -2.78125 2.554688 L -4.886719 2.554688 C -5.238281 2.554688 -5.417969 2.386719 -5.417969 2.035156 L -5.417969 1.609375 C -5.417969 1.261719 -5.238281 1.078125 -4.886719 1.078125 Z M -4.886719 4.203125 L -2.78125 4.203125 C -2.429688 4.203125 -2.25 4.375 -2.25 4.726562 L -2.25 5.15625 C -2.25 5.507812 -2.429688 5.6875 -2.78125 5.6875 L -4.886719 5.6875 C -5.238281 5.6875 -5.417969 5.507812 -5.417969 5.15625 L -5.417969 4.726562 C -5.417969 4.375 -5.238281 4.203125 -4.886719 4.203125 Z M -4.886719 4.203125 "/></g></g></g><g clip-path="url(#501d133c09)"><path fill="#463f57" d="M 225.945312 227.789062 C 225.945312 231.375 220.984375 232.703125 219.457031 228.550781 C 217.925781 232.703125 212.964844 231.375 212.964844 227.789062 C 212.964844 223.894531 219.457031 218.957031 219.457031 218.957031 C 219.457031 218.957031 225.945312 223.894531 225.945312 227.789062 Z M 225.945312 227.789062 " fill-opacity="1" fill-rule="nonzero"/></g><g clip-path="url(#0bd879379a)"><path fill="#463f57" d="M 161.382812 161.636719 C 161.382812 158.050781 166.34375 156.722656 167.871094 160.875 C 169.398438 156.722656 174.363281 158.050781 174.363281 161.636719 C 174.363281 165.53125 167.871094 170.46875 167.871094 170.46875 C 167.871094 170.46875 161.382812 165.53125 161.382812 161.636719 Z M 161.382812 161.636719 " fill-opacity="1" fill-rule="nonzero"/></g><g clip-path="url(#ae105b9f87)"><path fill="#463f57" d="M 148.378906 147.820312 C 148.378906 144.238281 153.339844 142.910156 154.867188 147.058594 C 156.394531 142.90625 161.359375 144.238281 161.359375 147.820312 C 161.359375 151.714844 154.867188 156.652344 154.867188 156.652344 C 154.867188 156.652344 148.378906 151.714844 148.378906 147.820312 Z M 148.378906 147.820312 " fill-opacity="1" fill-rule="nonzero"/></g><g clip-path="url(#cdc4696446)"><path fill="#463f57" d="M 174.40625 213.972656 C 174.40625 217.558594 169.441406 218.886719 167.914062 214.738281 C 166.386719 218.886719 161.421875 217.558594 161.421875 213.972656 C 161.421875 210.078125 167.914062 205.140625 167.914062 205.140625 C 167.914062 205.140625 174.40625 210.078125 174.40625 213.972656 Z M 174.40625 213.972656 " fill-opacity="1" fill-rule="nonzero"/></g><g clip-path="url(#6c9d3b721b)"><path fill="#463f57" d="M 199.917969 161.636719 C 199.917969 158.050781 204.882812 156.722656 206.410156 160.875 C 207.9375 156.722656 212.902344 158.050781 212.902344 161.636719 C 212.902344 165.53125 206.410156 170.46875 206.410156 170.46875 C 206.410156 170.46875 199.917969 165.53125 199.917969 161.636719 Z M 199.917969 161.636719 " fill-opacity="1" fill-rule="nonzero"/></g><g clip-path="url(#bb7e239b76)"><path fill="#463f57" d="M 212.941406 213.972656 C 212.941406 217.558594 207.976562 218.886719 206.449219 214.738281 C 204.921875 218.886719 199.960938 217.558594 199.960938 213.972656 C 199.960938 210.078125 206.449219 205.140625 206.449219 205.140625 C 206.449219 205.140625 212.941406 210.078125 212.941406 213.972656 Z M 212.941406 213.972656 " fill-opacity="1" fill-rule="nonzero"/></g><g clip-path="url(#3d603ae31c)"><path fill="#463f57" d="M 161.382812 185.835938 C 161.382812 182.253906 166.34375 180.925781 167.871094 185.074219 C 169.398438 180.921875 174.363281 182.253906 174.363281 185.835938 C 174.363281 189.730469 167.871094 194.667969 167.871094 194.667969 C 167.871094 194.667969 161.382812 189.730469 161.382812 185.835938 Z M 161.382812 185.835938 " fill-opacity="1" fill-rule="nonzero"/></g><g clip-path="url(#db7be3c954)"><path fill="#463f57" d="M 199.917969 185.835938 C 199.917969 182.253906 204.882812 180.925781 206.410156 185.074219 C 207.9375 180.921875 212.902344 182.253906 212.902344 185.835938 C 212.902344 189.730469 206.410156 194.667969 206.410156 194.667969 C 206.410156 194.667969 199.917969 189.730469 199.917969 185.835938 Z M 199.917969 185.835938 " fill-opacity="1" fill-rule="nonzero"/></g><g clip-path="url(#ff881fe3e8)"><path fill="#5271ff" d="M 180.984375 172.019531 C 180.984375 168.4375 185.949219 167.109375 187.476562 171.257812 C 189.003906 167.109375 193.964844 168.4375 193.964844 172.019531 C 193.964844 175.914062 187.476562 180.855469 187.476562 180.855469 C 187.476562 180.855469 180.984375 175.914062 180.984375 172.019531 Z M 180.984375 172.019531 " fill-opacity="1" fill-rule="nonzero"/></g><g clip-path="url(#3db1a0b087)"><path fill="#5271ff" d="M 194.007812 203.589844 C 194.007812 207.171875 189.042969 208.5 187.515625 204.351562 C 185.988281 208.503906 181.023438 207.171875 181.023438 203.589844 C 181.023438 199.695312 187.515625 194.757812 187.515625 194.757812 C 187.515625 194.757812 194.007812 199.695312 194.007812 203.589844 Z M 194.007812 203.589844 " fill-opacity="1" fill-rule="nonzero"/></g></svg>