<svg xmlns="http://www.w3.org/2000/svg" xmlns:xlink="http://www.w3.org/1999/xlink" width="500" zoomAndPan="magnify" viewBox="0 0 375 374.999991" height="500" preserveAspectRatio="xMidYMid meet" version="1.0"><defs><g/><clipPath id="9c9afd538f"><path d="M 142.351562 124.464844 L 232.648438 124.464844 L 232.648438 250.535156 L 142.351562 250.535156 Z M 142.351562 124.464844 " clip-rule="nonzero"/></clipPath><clipPath id="c3daab425c"><path d="M 149.101562 124.464844 L 225.898438 124.464844 C 227.6875 124.464844 229.40625 125.175781 230.671875 126.441406 C 231.9375 127.707031 232.648438 129.425781 232.648438 131.214844 L 232.648438 243.785156 C 232.648438 245.574219 231.9375 247.292969 230.671875 248.558594 C 229.40625 249.824219 227.6875 250.535156 225.898438 250.535156 L 149.101562 250.535156 C 145.375 250.535156 142.351562 247.511719 142.351562 243.785156 L 142.351562 131.214844 C 142.351562 127.488281 145.375 124.464844 149.101562 124.464844 Z M 149.101562 124.464844 " clip-rule="nonzero"/></clipPath><clipPath id="f401a8ea01"><path d="M 142.355469 124.464844 L 232.351562 124.464844 L 232.351562 250.464844 L 142.355469 250.464844 Z M 142.355469 124.464844 " clip-rule="nonzero"/></clipPath><clipPath id="4bd32faa88"><path d="M 149.105469 124.464844 L 225.894531 124.464844 C 227.683594 124.464844 229.398438 125.175781 230.664062 126.441406 C 231.929688 127.707031 232.644531 129.425781 232.644531 131.214844 L 232.644531 243.773438 C 232.644531 245.566406 231.929688 247.28125 230.664062 248.546875 C 229.398438 249.8125 227.683594 250.523438 225.894531 250.523438 L 149.105469 250.523438 C 145.375 250.523438 142.355469 247.503906 142.355469 243.773438 L 142.355469 131.214844 C 142.355469 127.488281 145.375 124.464844 149.105469 124.464844 Z M 149.105469 124.464844 " clip-rule="nonzero"/></clipPath><clipPath id="bc357f7f0d"><path d="M 213.183594 219.222656 L 225.933594 219.222656 L 225.933594 232 L 213.183594 232 Z M 213.183594 219.222656 " clip-rule="nonzero"/></clipPath><clipPath id="340b59226f"><path d="M 161.394531 158 L 174.144531 158 L 174.144531 170.203125 L 161.394531 170.203125 Z M 161.394531 158 " clip-rule="nonzero"/></clipPath><clipPath id="186f05a835"><path d="M 148.390625 144 L 161.140625 144 L 161.140625 156.386719 L 148.390625 156.386719 Z M 148.390625 144 " clip-rule="nonzero"/></clipPath><clipPath id="dec9a3ad08"><path d="M 161.640625 205.40625 L 174.390625 205.40625 L 174.390625 218 L 161.640625 218 Z M 161.640625 205.40625 " clip-rule="nonzero"/></clipPath><clipPath id="a69a362d9e"><path d="M 199.933594 158 L 212.683594 158 L 212.683594 170.203125 L 199.933594 170.203125 Z M 199.933594 158 " clip-rule="nonzero"/></clipPath><clipPath id="bf8a4e1882"><path d="M 200.179688 205.40625 L 212.929688 205.40625 L 212.929688 218 L 200.179688 218 Z M 200.179688 205.40625 " clip-rule="nonzero"/></clipPath><clipPath id="b38653218c"><path d="M 180.996094 182 L 193.746094 182 L 193.746094 194.09375 L 180.996094 194.09375 Z M 180.996094 182 " clip-rule="nonzero"/></clipPath></defs><g clip-path="url(#9c9afd538f)"><g clip-path="url(#c3daab425c)"><path fill="#ffffff" d="M 142.351562 124.464844 L 232.648438 124.464844 L 232.648438 250.535156 L 142.351562 250.535156 Z M 142.351562 124.464844 " fill-opacity="1" fill-rule="nonzero"/></g></g><g clip-path="url(#f401a8ea01)"><g clip-path="url(#4bd32faa88)"><path stroke-linecap="butt" transform="matrix(0.75, 0, 0, 0.75, 142.354186, 124.465422)" fill="none" stroke-linejoin="miter" d="M 9.001712 -0.000771302 L 111.387135 -0.000771302 C 113.772552 -0.000771302 116.05901 0.947145 117.74651 2.634646 C 119.43401 4.322146 120.387136 6.613812 120.387136 8.999229 L 120.387136 159.077364 C 120.387136 161.467989 119.43401 163.754448 117.74651 165.441948 C 116.05901 167.129448 113.772552 168.077365 111.387135 168.077365 L 9.001712 168.077365 C 4.027753 168.077365 0.00171093 164.051323 0.00171093 159.077364 L 0.00171093 8.999229 C 0.00171093 4.030479 4.027753 -0.000771302 9.001712 -0.000771302 Z M 9.001712 -0.000771302 " stroke="#463f57" stroke-width="12" stroke-opacity="1" stroke-miterlimit="4"/></g></g><g fill="#000000" fill-opacity="1"><g transform="translate(151.055445, 140.78706)"><g><path d="M 2.25 -1.800781 C 2.25 -2.023438 2.132812 -2.125 1.898438 -2.125 L 0.53125 -2.125 C 0.289062 -2.125 0.179688 -2.023438 0.179688 -1.800781 L 0.179688 -1.195312 C 0.179688 -0.0273438 0.765625 0.566406 1.933594 0.566406 L 5.734375 0.566406 C 6.902344 0.566406 7.480469 -0.0273438 7.488281 -1.195312 L 7.488281 -2.824219 C 7.480469 -3.996094 6.902344 -4.589844 5.734375 -4.589844 L 2.429688 -4.589844 C 2.3125 -4.589844 2.25 -4.652344 2.25 -4.761719 L 2.25 -5.507812 C 2.25 -5.625 2.3125 -5.6875 2.429688 -5.6875 L 7.136719 -5.6875 C 7.371094 -5.6875 7.488281 -5.796875 7.488281 -6.011719 L 7.488281 -7.003906 C 7.488281 -7.226562 7.371094 -7.324219 7.136719 -7.324219 L 0.53125 -7.324219 C 0.289062 -7.324219 0.179688 -7.226562 0.179688 -7.003906 L 0.179688 -3.292969 C 0.179688 -3.058594 0.289062 -2.941406 0.53125 -2.941406 L 4.886719 -2.941406 C 5.238281 -2.941406 5.417969 -2.773438 5.417969 -2.421875 L 5.417969 -1.609375 C 5.417969 -1.261719 5.238281 -1.078125 4.886719 -1.078125 L 2.78125 -1.078125 C 2.429688 -1.078125 2.25 -1.261719 2.25 -1.609375 Z M 2.25 -1.800781 "/></g></g></g><g fill="#000000" fill-opacity="1"><g transform="translate(223.268135, 234.829672)"><g><path d="M -2.25 1.800781 C -2.25 2.023438 -2.132812 2.125 -1.898438 2.125 L -0.53125 2.125 C -0.289062 2.125 -0.179688 2.023438 -0.179688 1.800781 L -0.179688 1.195312 C -0.179688 0.0273438 -0.765625 -0.566406 -1.933594 -0.566406 L -5.734375 -0.566406 C -6.902344 -0.566406 -7.480469 0.0273438 -7.488281 1.195312 L -7.488281 2.824219 C -7.480469 3.996094 -6.902344 4.589844 -5.734375 4.589844 L -2.429688 4.589844 C -2.3125 4.589844 -2.25 4.652344 -2.25 4.761719 L -2.25 5.507812 C -2.25 5.625 -2.3125 5.6875 -2.429688 5.6875 L -7.136719 5.6875 C -7.371094 5.6875 -7.488281 5.796875 -7.488281 6.011719 L -7.488281 7.003906 C -7.488281 7.226562 -7.371094 7.324219 -7.136719 7.324219 L -0.53125 7.324219 C -0.289062 7.324219 -0.179688 7.226562 -0.179688 7.003906 L -0.179688 3.292969 C -0.179688 3.058594 -0.289062 2.941406 -0.53125 2.941406 L -4.886719 2.941406 C -5.238281 2.941406 -5.417969 2.773438 -5.417969 2.421875 L -5.417969 1.609375 C -5.417969 1.261719 -5.238281 1.078125 -4.886719 1.078125 L -2.78125 1.078125 C -2.429688 1.078125 -2.25 1.261719 -2.25 1.609375 Z M -2.25 1.800781 "/></g></g></g><g clip-path="url(#bc357f7f0d)"><path fill="#463f57" d="M 225.945312 227.789062 C 225.945312 231.375 220.984375 232.703125 219.457031 228.550781 C 217.925781 232.703125 212.964844 231.375 212.964844 227.789062 C 212.964844 223.894531 219.457031 218.957031 219.457031 218.957031 C 219.457031 218.957031 225.945312 223.894531 225.945312 227.789062 Z M 225.945312 227.789062 " fill-opacity="1" fill-rule="nonzero"/></g><g clip-path="url(#340b59226f)"><path fill="#463f57" d="M 161.382812 161.636719 C 161.382812 158.050781 166.34375 156.722656 167.871094 160.875 C 169.398438 156.722656 174.363281 158.050781 174.363281 161.636719 C 174.363281 165.53125 167.871094 170.46875 167.871094 170.46875 C 167.871094 170.46875 161.382812 165.53125 161.382812 161.636719 Z M 161.382812 161.636719 " fill-opacity="1" fill-rule="nonzero"/></g><g clip-path="url(#186f05a835)"><path fill="#463f57" d="M 148.378906 147.820312 C 148.378906 144.238281 153.339844 142.910156 154.867188 147.058594 C 156.394531 142.90625 161.359375 144.238281 161.359375 147.820312 C 161.359375 151.714844 154.867188 156.652344 154.867188 156.652344 C 154.867188 156.652344 148.378906 151.714844 148.378906 147.820312 Z M 148.378906 147.820312 " fill-opacity="1" fill-rule="nonzero"/></g><g clip-path="url(#dec9a3ad08)"><path fill="#463f57" d="M 174.40625 213.972656 C 174.40625 217.558594 169.441406 218.886719 167.914062 214.738281 C 166.386719 218.886719 161.421875 217.558594 161.421875 213.972656 C 161.421875 210.078125 167.914062 205.140625 167.914062 205.140625 C 167.914062 205.140625 174.40625 210.078125 174.40625 213.972656 Z M 174.40625 213.972656 " fill-opacity="1" fill-rule="nonzero"/></g><g clip-path="url(#a69a362d9e)"><path fill="#463f57" d="M 199.917969 161.636719 C 199.917969 158.050781 204.882812 156.722656 206.410156 160.875 C 207.9375 156.722656 212.902344 158.050781 212.902344 161.636719 C 212.902344 165.53125 206.410156 170.46875 206.410156 170.46875 C 206.410156 170.46875 199.917969 165.53125 199.917969 161.636719 Z M 199.917969 161.636719 " fill-opacity="1" fill-rule="nonzero"/></g><g clip-path="url(#bf8a4e1882)"><path fill="#463f57" d="M 212.941406 213.972656 C 212.941406 217.558594 207.976562 218.886719 206.449219 214.738281 C 204.921875 218.886719 199.960938 217.558594 199.960938 213.972656 C 199.960938 210.078125 206.449219 205.140625 206.449219 205.140625 C 206.449219 205.140625 212.941406 210.078125 212.941406 213.972656 Z M 212.941406 213.972656 " fill-opacity="1" fill-rule="nonzero"/></g><g clip-path="url(#b38653218c)"><path fill="#5271ff" d="M 180.984375 185.527344 C 180.984375 181.941406 185.949219 180.613281 187.476562 184.761719 C 189.003906 180.613281 193.964844 181.941406 193.964844 185.527344 C 193.964844 189.421875 187.476562 194.359375 187.476562 194.359375 C 187.476562 194.359375 180.984375 189.421875 180.984375 185.527344 Z M 180.984375 185.527344 " fill-opacity="1" fill-rule="nonzero"/></g></svg>