<svg xmlns="http://www.w3.org/2000/svg" xmlns:xlink="http://www.w3.org/1999/xlink" width="500" zoomAndPan="magnify" viewBox="0 0 375 374.999991" height="500" preserveAspectRatio="xMidYMid meet" version="1.0"><defs><g/><clipPath id="cfb0d7ffc3"><path d="M 142.351562 124.464844 L 232.648438 124.464844 L 232.648438 250.535156 L 142.351562 250.535156 Z M 142.351562 124.464844 " clip-rule="nonzero"/></clipPath><clipPath id="173aade648"><path d="M 149.101562 124.464844 L 225.898438 124.464844 C 227.6875 124.464844 229.40625 125.175781 230.671875 126.441406 C 231.9375 127.707031 232.648438 129.425781 232.648438 131.214844 L 232.648438 243.785156 C 232.648438 245.574219 231.9375 247.292969 230.671875 248.558594 C 229.40625 249.824219 227.6875 250.535156 225.898438 250.535156 L 149.101562 250.535156 C 145.375 250.535156 142.351562 247.511719 142.351562 243.785156 L 142.351562 131.214844 C 142.351562 127.488281 145.375 124.464844 149.101562 124.464844 Z M 149.101562 124.464844 " clip-rule="nonzero"/></clipPath><clipPath id="e904983ba7"><path d="M 142.355469 124.464844 L 232.351562 124.464844 L 232.351562 250.464844 L 142.355469 250.464844 Z M 142.355469 124.464844 " clip-rule="nonzero"/></clipPath><clipPath id="64f6b1553e"><path d="M 149.105469 124.464844 L 225.894531 124.464844 C 227.683594 124.464844 229.398438 125.175781 230.664062 126.441406 C 231.929688 127.707031 232.644531 129.425781 232.644531 131.214844 L 232.644531 243.773438 C 232.644531 245.566406 231.929688 247.28125 230.664062 248.546875 C 229.398438 249.8125 227.683594 250.523438 225.894531 250.523438 L 149.105469 250.523438 C 145.375 250.523438 142.355469 247.503906 142.355469 243.773438 L 142.355469 131.214844 C 142.355469 127.488281 145.375 124.464844 149.105469 124.464844 Z M 149.105469 124.464844 " clip-rule="nonzero"/></clipPath><clipPath id="80ff21ac3c"><path d="M 213.183594 219.222656 L 225.933594 219.222656 L 225.933594 232 L 213.183594 232 Z M 213.183594 219.222656 " clip-rule="nonzero"/></clipPath><clipPath id="44484115ff"><path d="M 161.394531 158 L 174.144531 158 L 174.144531 170.203125 L 161.394531 170.203125 Z M 161.394531 158 " clip-rule="nonzero"/></clipPath><clipPath id="a2894b50df"><path d="M 148.390625 144 L 161.140625 144 L 161.140625 156.386719 L 148.390625 156.386719 Z M 148.390625 144 " clip-rule="nonzero"/></clipPath><clipPath id="092cfabc18"><path d="M 161.640625 205.40625 L 174.390625 205.40625 L 174.390625 218 L 161.640625 218 Z M 161.640625 205.40625 " clip-rule="nonzero"/></clipPath><clipPath id="22e1dd1c65"><path d="M 199.933594 158 L 212.683594 158 L 212.683594 170.203125 L 199.933594 170.203125 Z M 199.933594 158 " clip-rule="nonzero"/></clipPath><clipPath id="13a1c6ffe0"><path d="M 200.179688 205.40625 L 212.929688 205.40625 L 212.929688 218 L 200.179688 218 Z M 200.179688 205.40625 " clip-rule="nonzero"/></clipPath></defs><g clip-path="url(#cfb0d7ffc3)"><g clip-path="url(#173aade648)"><path fill="#ffffff" d="M 142.351562 124.464844 L 232.648438 124.464844 L 232.648438 250.535156 L 142.351562 250.535156 Z M 142.351562 124.464844 " fill-opacity="1" fill-rule="nonzero"/></g></g><g clip-path="url(#e904983ba7)"><g clip-path="url(#64f6b1553e)"><path stroke-linecap="butt" transform="matrix(0.75, 0, 0, 0.75, 142.354186, 124.465422)" fill="none" stroke-linejoin="miter" d="M 9.001712 -0.000771302 L 111.387135 -0.000771302 C 113.772552 -0.000771302 116.05901 0.947145 117.74651 2.634646 C 119.43401 4.322146 120.387136 6.613812 120.387136 8.999229 L 120.387136 159.077364 C 120.387136 161.467989 119.43401 163.754448 117.74651 165.441948 C 116.05901 167.129448 113.772552 168.077365 111.387135 168.077365 L 9.001712 168.077365 C 4.027753 168.077365 0.00171093 164.051323 0.00171093 159.077364 L 0.00171093 8.999229 C 0.00171093 4.030479 4.027753 -0.000771302 9.001712 -0.000771302 Z M 9.001712 -0.000771302 " stroke="#463f57" stroke-width="12" stroke-opacity="1" stroke-miterlimit="4"/></g></g><g fill="#000000" fill-opacity="1"><g transform="translate(151.055445, 140.786943)"><g><path d="M 6.085938 0.234375 L 6.085938 -1.078125 C 6.085938 -1.195312 6.148438 -1.261719 6.253906 -1.261719 L 7.136719 -1.261719 C 7.371094 -1.261719 7.488281 -1.359375 7.488281 -1.585938 L 7.488281 -2.574219 C 7.488281 -2.800781 7.371094 -2.898438 7.136719 -2.898438 L 6.253906 -2.898438 C 6.148438 -2.898438 6.085938 -2.960938 6.085938 -3.078125 L 6.085938 -7.003906 C 6.085938 -7.226562 5.96875 -7.324219 5.734375 -7.324219 L 3.761719 -7.324219 C 3.535156 -7.324219 3.347656 -7.246094 3.214844 -7.066406 L 0.296875 -3.445312 C 0.214844 -3.339844 0.179688 -3.222656 0.179688 -3.113281 L 0.179688 -1.585938 C 0.179688 -1.359375 0.289062 -1.261719 0.53125 -1.261719 L 3.835938 -1.261719 C 3.941406 -1.261719 4.003906 -1.195312 4.003906 -1.078125 L 4.003906 0.234375 C 4.003906 0.460938 4.121094 0.566406 4.355469 0.566406 L 5.734375 0.566406 C 5.96875 0.566406 6.085938 0.460938 6.085938 0.234375 Z M 3.90625 -5.113281 C 3.96875 -5.203125 4.003906 -5.183594 4.003906 -5.066406 L 4.003906 -3.078125 C 4.003906 -2.960938 3.941406 -2.898438 3.835938 -2.898438 L 2.296875 -2.898438 C 2.179688 -2.898438 2.160156 -2.953125 2.25 -3.058594 Z M 3.90625 -5.113281 "/></g></g></g><g fill="#000000" fill-opacity="1"><g transform="translate(223.268135, 234.829672)"><g><path d="M -6.085938 -0.234375 L -6.085938 1.078125 C -6.085938 1.195312 -6.148438 1.261719 -6.253906 1.261719 L -7.136719 1.261719 C -7.371094 1.261719 -7.488281 1.359375 -7.488281 1.585938 L -7.488281 2.574219 C -7.488281 2.800781 -7.371094 2.898438 -7.136719 2.898438 L -6.253906 2.898438 C -6.148438 2.898438 -6.085938 2.960938 -6.085938 3.078125 L -6.085938 7.003906 C -6.085938 7.226562 -5.96875 7.324219 -5.734375 7.324219 L -3.761719 7.324219 C -3.535156 7.324219 -3.347656 7.246094 -3.214844 7.066406 L -0.296875 3.445312 C -0.214844 3.339844 -0.179688 3.222656 -0.179688 3.113281 L -0.179688 1.585938 C -0.179688 1.359375 -0.289062 1.261719 -0.53125 1.261719 L -3.835938 1.261719 C -3.941406 1.261719 -4.003906 1.195312 -4.003906 1.078125 L -4.003906 -0.234375 C -4.003906 -0.460938 -4.121094 -0.566406 -4.355469 -0.566406 L -5.734375 -0.566406 C -5.96875 -0.566406 -6.085938 -0.460938 -6.085938 -0.234375 Z M -3.90625 5.113281 C -3.96875 5.203125 -4.003906 5.183594 -4.003906 5.066406 L -4.003906 3.078125 C -4.003906 2.960938 -3.941406 2.898438 -3.835938 2.898438 L -2.296875 2.898438 C -2.179688 2.898438 -2.160156 2.953125 -2.25 3.058594 Z M -3.90625 5.113281 "/></g></g></g><g clip-path="url(#80ff21ac3c)"><path fill="#463f57" d="M 225.945312 227.789062 C 225.945312 231.375 220.984375 232.703125 219.457031 228.550781 C 217.925781 232.703125 212.964844 231.375 212.964844 227.789062 C 212.964844 223.894531 219.457031 218.957031 219.457031 218.957031 C 219.457031 218.957031 225.945312 223.894531 225.945312 227.789062 Z M 225.945312 227.789062 " fill-opacity="1" fill-rule="nonzero"/></g><g clip-path="url(#44484115ff)"><path fill="#463f57" d="M 161.382812 161.636719 C 161.382812 158.050781 166.34375 156.722656 167.871094 160.875 C 169.398438 156.722656 174.363281 158.050781 174.363281 161.636719 C 174.363281 165.53125 167.871094 170.46875 167.871094 170.46875 C 167.871094 170.46875 161.382812 165.53125 161.382812 161.636719 Z M 161.382812 161.636719 " fill-opacity="1" fill-rule="nonzero"/></g><g clip-path="url(#a2894b50df)"><path fill="#463f57" d="M 148.378906 147.820312 C 148.378906 144.238281 153.339844 142.910156 154.867188 147.058594 C 156.394531 142.90625 161.359375 144.238281 161.359375 147.820312 C 161.359375 151.714844 154.867188 156.652344 154.867188 156.652344 C 154.867188 156.652344 148.378906 151.714844 148.378906 147.820312 Z M 148.378906 147.820312 " fill-opacity="1" fill-rule="nonzero"/></g><g clip-path="url(#092cfabc18)"><path fill="#463f57" d="M 174.40625 213.972656 C 174.40625 217.558594 169.441406 218.886719 167.914062 214.738281 C 166.386719 218.886719 161.421875 217.558594 161.421875 213.972656 C 161.421875 210.078125 167.914062 205.140625 167.914062 205.140625 C 167.914062 205.140625 174.40625 210.078125 174.40625 213.972656 Z M 174.40625 213.972656 " fill-opacity="1" fill-rule="nonzero"/></g><g clip-path="url(#22e1dd1c65)"><path fill="#463f57" d="M 199.917969 161.636719 C 199.917969 158.050781 204.882812 156.722656 206.410156 160.875 C 207.9375 156.722656 212.902344 158.050781 212.902344 161.636719 C 212.902344 165.53125 206.410156 170.46875 206.410156 170.46875 C 206.410156 170.46875 199.917969 165.53125 199.917969 161.636719 Z M 199.917969 161.636719 " fill-opacity="1" fill-rule="nonzero"/></g><g clip-path="url(#13a1c6ffe0)"><path fill="#463f57" d="M 212.941406 213.972656 C 212.941406 217.558594 207.976562 218.886719 206.449219 214.738281 C 204.921875 218.886719 199.960938 217.558594 199.960938 213.972656 C 199.960938 210.078125 206.449219 205.140625 206.449219 205.140625 C 206.449219 205.140625 212.941406 210.078125 212.941406 213.972656 Z M 212.941406 213.972656 " fill-opacity="1" fill-rule="nonzero"/></g></svg>