<svg xmlns="http://www.w3.org/2000/svg" xmlns:xlink="http://www.w3.org/1999/xlink" width="500" zoomAndPan="magnify" viewBox="0 0 375 374.999991" height="500" preserveAspectRatio="xMidYMid meet" version="1.0"><defs><g/><clipPath id="0a3ce3e804"><path d="M 142.351562 124.464844 L 232.648438 124.464844 L 232.648438 250.535156 L 142.351562 250.535156 Z M 142.351562 124.464844 " clip-rule="nonzero"/></clipPath><clipPath id="fcb97b732f"><path d="M 149.101562 124.464844 L 225.898438 124.464844 C 227.6875 124.464844 229.40625 125.175781 230.671875 126.441406 C 231.9375 127.707031 232.648438 129.425781 232.648438 131.214844 L 232.648438 243.785156 C 232.648438 245.574219 231.9375 247.292969 230.671875 248.558594 C 229.40625 249.824219 227.6875 250.535156 225.898438 250.535156 L 149.101562 250.535156 C 145.375 250.535156 142.351562 247.511719 142.351562 243.785156 L 142.351562 131.214844 C 142.351562 127.488281 145.375 124.464844 149.101562 124.464844 Z M 149.101562 124.464844 " clip-rule="nonzero"/></clipPath><clipPath id="92e9194099"><path d="M 142.355469 124.464844 L 232.351562 124.464844 L 232.351562 250.464844 L 142.355469 250.464844 Z M 142.355469 124.464844 " clip-rule="nonzero"/></clipPath><clipPath id="949c9de9ca"><path d="M 149.105469 124.464844 L 225.894531 124.464844 C 227.683594 124.464844 229.398438 125.175781 230.664062 126.441406 C 231.929688 127.707031 232.644531 129.425781 232.644531 131.214844 L 232.644531 243.773438 C 232.644531 245.566406 231.929688 247.28125 230.664062 248.546875 C 229.398438 249.8125 227.683594 250.523438 225.894531 250.523438 L 149.105469 250.523438 C 145.375 250.523438 142.355469 247.503906 142.355469 243.773438 L 142.355469 131.214844 C 142.355469 127.488281 145.375 124.464844 149.105469 124.464844 Z M 149.105469 124.464844 " clip-rule="nonzero"/></clipPath><clipPath id="2ed742d2c7"><path d="M 163.050781 163.695312 L 211.800781 163.695312 L 211.800781 210.945312 L 163.050781 210.945312 Z M 163.050781 163.695312 " clip-rule="nonzero"/></clipPath><clipPath id="7484295c49"><path d="M 148.390625 143 L 161.140625 143 L 161.140625 155.402344 L 148.390625 155.402344 Z M 148.390625 143 " clip-rule="nonzero"/></clipPath><clipPath id="c643b5a253"><path d="M 213.183594 220.949219 L 225.933594 220.949219 L 225.933594 233 L 213.183594 233 Z M 213.183594 220.949219 " clip-rule="nonzero"/></clipPath></defs><g clip-path="url(#0a3ce3e804)"><g clip-path="url(#fcb97b732f)"><path fill="#ffffff" d="M 142.351562 124.464844 L 232.648438 124.464844 L 232.648438 250.535156 L 142.351562 250.535156 Z M 142.351562 124.464844 " fill-opacity="1" fill-rule="nonzero"/></g></g><g clip-path="url(#92e9194099)"><g clip-path="url(#949c9de9ca)"><path stroke-linecap="butt" transform="matrix(0.75, 0, 0, 0.75, 142.354186, 124.465451)" fill="none" stroke-linejoin="miter" d="M 9.001712 -0.000809702 L 111.387135 -0.000809702 C 113.772552 -0.000809702 116.05901 0.947107 117.74651 2.634607 C 119.43401 4.322107 120.387136 6.613774 120.387136 8.999191 L 120.387136 159.077326 C 120.387136 161.467951 119.43401 163.754409 117.74651 165.441909 C 116.05901 167.12941 113.772552 168.077326 111.387135 168.077326 L 9.001712 168.077326 C 4.027753 168.077326 0.00171093 164.051284 0.00171093 159.077326 L 0.00171093 8.999191 C 0.00171093 4.030441 4.027753 -0.000809702 9.001712 -0.000809702 Z M 9.001712 -0.000809702 " stroke="#463f57" stroke-width="12" stroke-opacity="1" stroke-miterlimit="4"/></g></g><g clip-path="url(#2ed742d2c7)"><path fill="#463f57" d="M 166.15625 163.730469 C 165.429688 163.730469 164.707031 164.011719 164.15625 164.5625 C 163.050781 165.667969 163.050781 167.457031 164.15625 168.5625 C 164.75 169.152344 165.539062 169.429688 166.3125 169.386719 L 173.488281 176.566406 L 166.347656 183.707031 L 172.679688 181.5625 L 174.441406 179.800781 L 182.554688 187.910156 L 165.175781 205.289062 L 164.171875 211.234375 L 170.125 210.238281 L 187.496094 192.863281 L 204.886719 210.25 L 210.839844 211.246094 L 209.84375 205.289062 L 192.457031 187.90625 L 200.566406 179.796875 L 202.332031 181.5625 L 208.664062 183.707031 L 201.511719 176.554688 L 208.6875 169.386719 C 209.460938 169.429688 210.253906 169.152344 210.84375 168.5625 C 211.949219 167.457031 211.949219 165.667969 210.84375 164.5625 C 210.292969 164.011719 209.570312 163.730469 208.847656 163.730469 C 208.121094 163.730469 207.398438 164.011719 206.847656 164.5625 C 206.253906 165.15625 205.976562 165.945312 206.023438 166.722656 L 198.847656 173.890625 L 191.707031 166.742188 L 193.851562 173.082031 L 195.617188 174.847656 L 187.507812 182.957031 L 179.398438 174.847656 L 181.152344 173.085938 L 183.300781 166.753906 L 176.164062 173.890625 L 168.980469 166.703125 C 169.015625 165.933594 168.746094 165.152344 168.160156 164.5625 C 167.605469 164.011719 166.878906 163.730469 166.15625 163.730469 Z M 166.15625 163.730469 " fill-opacity="1" fill-rule="evenodd"/></g><g fill="#000000" fill-opacity="1"><g transform="translate(151.067162, 140.786928)"><g><path d="M 5.085938 -2.753906 C 5.085938 -2.347656 5.023438 -2.070312 4.886719 -1.925781 C 4.742188 -1.773438 4.480469 -1.699219 4.09375 -1.699219 L 3.574219 -1.699219 C 3.1875 -1.699219 2.90625 -1.753906 2.78125 -1.863281 C 2.644531 -1.972656 2.566406 -2.113281 2.554688 -2.320312 C 2.554688 -2.574219 2.503906 -2.773438 2.394531 -2.878906 C 2.277344 -2.996094 2.089844 -3.058594 1.816406 -3.058594 L 0.910156 -3.058594 C 0.621094 -3.058594 0.433594 -2.996094 0.324219 -2.878906 C 0.214844 -2.773438 0.171875 -2.574219 0.171875 -2.320312 C 0.171875 -1.171875 0.433594 -0.378906 0.945312 0.0546875 C 1.46875 0.484375 2.304688 0.703125 3.4375 0.703125 L 4.210938 0.703125 C 5.363281 0.691406 6.191406 0.476562 6.703125 0.046875 C 7.226562 -0.386719 7.480469 -1.171875 7.480469 -2.320312 L 7.480469 -6.550781 C 7.46875 -6.832031 7.40625 -7.027344 7.300781 -7.144531 C 7.171875 -7.261719 6.949219 -7.316406 6.625 -7.308594 L 5.832031 -7.308594 C 5.5625 -7.300781 5.371094 -7.246094 5.257812 -7.136719 C 5.140625 -7.019531 5.074219 -6.832031 5.085938 -6.550781 Z M 5.085938 -2.753906 "/></g></g></g><g fill="#000000" fill-opacity="1"><g transform="translate(223.265893, 234.837436)"><g><path d="M -5.085938 2.753906 C -5.085938 2.347656 -5.023438 2.070312 -4.886719 1.925781 C -4.742188 1.773438 -4.480469 1.699219 -4.09375 1.699219 L -3.574219 1.699219 C -3.1875 1.699219 -2.90625 1.753906 -2.78125 1.863281 C -2.644531 1.972656 -2.566406 2.113281 -2.554688 2.320312 C -2.554688 2.574219 -2.503906 2.773438 -2.394531 2.878906 C -2.277344 2.996094 -2.089844 3.058594 -1.816406 3.058594 L -0.910156 3.058594 C -0.621094 3.058594 -0.433594 2.996094 -0.324219 2.878906 C -0.214844 2.773438 -0.171875 2.574219 -0.171875 2.320312 C -0.171875 1.171875 -0.433594 0.378906 -0.945312 -0.0546875 C -1.46875 -0.484375 -2.304688 -0.703125 -3.4375 -0.703125 L -4.210938 -0.703125 C -5.363281 -0.691406 -6.191406 -0.476562 -6.703125 -0.046875 C -7.226562 0.386719 -7.480469 1.171875 -7.480469 2.320312 L -7.480469 6.550781 C -7.46875 6.832031 -7.40625 7.027344 -7.300781 7.144531 C -7.171875 7.261719 -6.949219 7.316406 -6.625 7.308594 L -5.832031 7.308594 C -5.5625 7.300781 -5.371094 7.246094 -5.257812 7.136719 C -5.140625 7.019531 -5.074219 6.832031 -5.085938 6.550781 Z M -5.085938 2.753906 "/></g></g></g><g clip-path="url(#7484295c49)"><path fill="#463f57" d="M 148.378906 146.839844 C 148.378906 143.253906 153.339844 141.925781 154.867188 146.074219 C 156.394531 141.925781 161.359375 143.253906 161.359375 146.839844 C 161.359375 150.734375 154.867188 155.671875 154.867188 155.671875 C 154.867188 155.671875 148.378906 150.734375 148.378906 146.839844 Z M 148.378906 146.839844 " fill-opacity="1" fill-rule="nonzero"/></g><g clip-path="url(#c643b5a253)"><path fill="#463f57" d="M 225.945312 229.515625 C 225.945312 233.097656 220.984375 234.425781 219.457031 230.277344 C 217.925781 234.425781 212.964844 233.097656 212.964844 229.515625 C 212.964844 225.621094 219.457031 220.679688 219.457031 220.679688 C 219.457031 220.679688 225.945312 225.621094 225.945312 229.515625 Z M 225.945312 229.515625 " fill-opacity="1" fill-rule="nonzero"/></g></svg>