<svg xmlns="http://www.w3.org/2000/svg" xmlns:xlink="http://www.w3.org/1999/xlink" width="500" zoomAndPan="magnify" viewBox="0 0 375 374.999991" height="500" preserveAspectRatio="xMidYMid meet" version="1.0"><defs><g/><clipPath id="97c425da1e"><path d="M 142.351562 124.464844 L 232.648438 124.464844 L 232.648438 250.535156 L 142.351562 250.535156 Z M 142.351562 124.464844 " clip-rule="nonzero"/></clipPath><clipPath id="388f15b9c2"><path d="M 149.101562 124.464844 L 225.898438 124.464844 C 227.6875 124.464844 229.40625 125.175781 230.671875 126.441406 C 231.9375 127.707031 232.648438 129.425781 232.648438 131.214844 L 232.648438 243.785156 C 232.648438 245.574219 231.9375 247.292969 230.671875 248.558594 C 229.40625 249.824219 227.6875 250.535156 225.898438 250.535156 L 149.101562 250.535156 C 145.375 250.535156 142.351562 247.511719 142.351562 243.785156 L 142.351562 131.214844 C 142.351562 127.488281 145.375 124.464844 149.101562 124.464844 Z M 149.101562 124.464844 " clip-rule="nonzero"/></clipPath><clipPath id="0d3f9010de"><path d="M 142.355469 124.464844 L 232.351562 124.464844 L 232.351562 250.464844 L 142.355469 250.464844 Z M 142.355469 124.464844 " clip-rule="nonzero"/></clipPath><clipPath id="8dca08fe3c"><path d="M 149.105469 124.464844 L 225.894531 124.464844 C 227.683594 124.464844 229.398438 125.175781 230.664062 126.441406 C 231.929688 127.707031 232.644531 129.425781 232.644531 131.214844 L 232.644531 243.773438 C 232.644531 245.566406 231.929688 247.28125 230.664062 248.546875 C 229.398438 249.8125 227.683594 250.523438 225.894531 250.523438 L 149.105469 250.523438 C 145.375 250.523438 142.355469 247.503906 142.355469 243.773438 L 142.355469 131.214844 C 142.355469 127.488281 145.375 124.464844 149.105469 124.464844 Z M 149.105469 124.464844 " clip-rule="nonzero"/></clipPath><clipPath id="b969033289"><path d="M 213.183594 219.222656 L 225.933594 219.222656 L 225.933594 232 L 213.183594 232 Z M 213.183594 219.222656 " clip-rule="nonzero"/></clipPath><clipPath id="45c31673bb"><path d="M 161.394531 158 L 174.144531 158 L 174.144531 170.203125 L 161.394531 170.203125 Z M 161.394531 158 " clip-rule="nonzero"/></clipPath><clipPath id="f97f22beb5"><path d="M 148.390625 144 L 161.140625 144 L 161.140625 156.386719 L 148.390625 156.386719 Z M 148.390625 144 " clip-rule="nonzero"/></clipPath><clipPath id="752cc4133d"><path d="M 161.640625 205.40625 L 174.390625 205.40625 L 174.390625 218 L 161.640625 218 Z M 161.640625 205.40625 " clip-rule="nonzero"/></clipPath><clipPath id="b0a91305e6"><path d="M 199.933594 158 L 212.683594 158 L 212.683594 170.203125 L 199.933594 170.203125 Z M 199.933594 158 " clip-rule="nonzero"/></clipPath><clipPath id="64bcf50a67"><path d="M 200.179688 205.40625 L 212.929688 205.40625 L 212.929688 218 L 200.179688 218 Z M 200.179688 205.40625 " clip-rule="nonzero"/></clipPath><clipPath id="4ee851178a"><path d="M 161.394531 182 L 174.144531 182 L 174.144531 194.402344 L 161.394531 194.402344 Z M 161.394531 182 " clip-rule="nonzero"/></clipPath><clipPath id="736e4fd9fa"><path d="M 199.933594 182 L 212.683594 182 L 212.683594 194.402344 L 199.933594 194.402344 Z M 199.933594 182 " clip-rule="nonzero"/></clipPath><clipPath id="a13dad4a09"><path d="M 180.996094 168 L 193.746094 168 L 193.746094 180.585938 L 180.996094 180.585938 Z M 180.996094 168 " clip-rule="nonzero"/></clipPath></defs><g clip-path="url(#97c425da1e)"><g clip-path="url(#388f15b9c2)"><path fill="#ffffff" d="M 142.351562 124.464844 L 232.648438 124.464844 L 232.648438 250.535156 L 142.351562 250.535156 Z M 142.351562 124.464844 " fill-opacity="1" fill-rule="nonzero"/></g></g><g clip-path="url(#0d3f9010de)"><g clip-path="url(#8dca08fe3c)"><path stroke-linecap="butt" transform="matrix(0.75, 0, 0, 0.75, 142.354186, 124.46548)" fill="none" stroke-linejoin="miter" d="M 9.001712 -0.000848102 L 111.387135 -0.000848102 C 113.772552 -0.000848102 116.05901 0.947069 117.74651 2.634569 C 119.43401 4.322069 120.387136 6.613736 120.387136 8.999152 L 120.387136 159.077287 C 120.387136 161.467913 119.43401 163.754371 117.74651 165.441871 C 116.05901 167.129371 113.772552 168.077288 111.387135 168.077288 L 9.001712 168.077288 C 4.027753 168.077288 0.00171093 164.051246 0.00171093 159.077287 L 0.00171093 8.999152 C 0.00171093 4.030402 4.027753 -0.000848102 9.001712 -0.000848102 Z M 9.001712 -0.000848102 " stroke="#463f57" stroke-width="12" stroke-opacity="1" stroke-miterlimit="4"/></g></g><g fill="#000000" fill-opacity="1"><g transform="translate(151.055445, 140.786885)"><g><path d="M 2.25 -4.085938 L 2.25 -5.507812 C 2.25 -5.625 2.3125 -5.6875 2.429688 -5.6875 L 5.066406 -5.6875 C 5.175781 -5.6875 5.238281 -5.625 5.238281 -5.507812 L 5.238281 -5.265625 C 5.238281 -5.085938 5.191406 -4.933594 5.113281 -4.796875 L 2.0625 0.234375 C 1.925781 0.460938 1.972656 0.566406 2.203125 0.566406 L 3.859375 0.566406 C 4.09375 0.566406 4.285156 0.460938 4.410156 0.234375 L 7.308594 -4.535156 C 7.425781 -4.726562 7.488281 -4.941406 7.488281 -5.164062 L 7.488281 -6.453125 C 7.480469 -7.039062 7.191406 -7.324219 6.605469 -7.324219 L 1.054688 -7.324219 C 0.46875 -7.324219 0.179688 -7.039062 0.179688 -6.453125 L 0.179688 -4.085938 C 0.179688 -3.871094 0.289062 -3.761719 0.53125 -3.761719 L 1.898438 -3.761719 C 2.132812 -3.761719 2.25 -3.871094 2.25 -4.085938 Z M 2.25 -4.085938 "/></g></g></g><g fill="#000000" fill-opacity="1"><g transform="translate(223.268135, 234.829614)"><g><path d="M -2.25 4.085938 L -2.25 5.507812 C -2.25 5.625 -2.3125 5.6875 -2.429688 5.6875 L -5.066406 5.6875 C -5.175781 5.6875 -5.238281 5.625 -5.238281 5.507812 L -5.238281 5.265625 C -5.238281 5.085938 -5.191406 4.933594 -5.113281 4.796875 L -2.0625 -0.234375 C -1.925781 -0.460938 -1.972656 -0.566406 -2.203125 -0.566406 L -3.859375 -0.566406 C -4.09375 -0.566406 -4.285156 -0.460938 -4.410156 -0.234375 L -7.308594 4.535156 C -7.425781 4.726562 -7.488281 4.941406 -7.488281 5.164062 L -7.488281 6.453125 C -7.480469 7.039062 -7.191406 7.324219 -6.605469 7.324219 L -1.054688 7.324219 C -0.46875 7.324219 -0.179688 7.039062 -0.179688 6.453125 L -0.179688 4.085938 C -0.179688 3.871094 -0.289062 3.761719 -0.53125 3.761719 L -1.898438 3.761719 C -2.132812 3.761719 -2.25 3.871094 -2.25 4.085938 Z M -2.25 4.085938 "/></g></g></g><g clip-path="url(#b969033289)"><path fill="#463f57" d="M 225.945312 227.789062 C 225.945312 231.375 220.984375 232.703125 219.457031 228.550781 C 217.925781 232.703125 212.964844 231.375 212.964844 227.789062 C 212.964844 223.894531 219.457031 218.957031 219.457031 218.957031 C 219.457031 218.957031 225.945312 223.894531 225.945312 227.789062 Z M 225.945312 227.789062 " fill-opacity="1" fill-rule="nonzero"/></g><g clip-path="url(#45c31673bb)"><path fill="#463f57" d="M 161.382812 161.636719 C 161.382812 158.050781 166.34375 156.722656 167.871094 160.875 C 169.398438 156.722656 174.363281 158.050781 174.363281 161.636719 C 174.363281 165.53125 167.871094 170.46875 167.871094 170.46875 C 167.871094 170.46875 161.382812 165.53125 161.382812 161.636719 Z M 161.382812 161.636719 " fill-opacity="1" fill-rule="nonzero"/></g><g clip-path="url(#f97f22beb5)"><path fill="#463f57" d="M 148.378906 147.820312 C 148.378906 144.238281 153.339844 142.910156 154.867188 147.058594 C 156.394531 142.90625 161.359375 144.238281 161.359375 147.820312 C 161.359375 151.714844 154.867188 156.652344 154.867188 156.652344 C 154.867188 156.652344 148.378906 151.714844 148.378906 147.820312 Z M 148.378906 147.820312 " fill-opacity="1" fill-rule="nonzero"/></g><g clip-path="url(#752cc4133d)"><path fill="#463f57" d="M 174.40625 213.972656 C 174.40625 217.558594 169.441406 218.886719 167.914062 214.738281 C 166.386719 218.886719 161.421875 217.558594 161.421875 213.972656 C 161.421875 210.078125 167.914062 205.140625 167.914062 205.140625 C 167.914062 205.140625 174.40625 210.078125 174.40625 213.972656 Z M 174.40625 213.972656 " fill-opacity="1" fill-rule="nonzero"/></g><g clip-path="url(#b0a91305e6)"><path fill="#463f57" d="M 199.917969 161.636719 C 199.917969 158.050781 204.882812 156.722656 206.410156 160.875 C 207.9375 156.722656 212.902344 158.050781 212.902344 161.636719 C 212.902344 165.53125 206.410156 170.46875 206.410156 170.46875 C 206.410156 170.46875 199.917969 165.53125 199.917969 161.636719 Z M 199.917969 161.636719 " fill-opacity="1" fill-rule="nonzero"/></g><g clip-path="url(#64bcf50a67)"><path fill="#463f57" d="M 212.941406 213.972656 C 212.941406 217.558594 207.976562 218.886719 206.449219 214.738281 C 204.921875 218.886719 199.960938 217.558594 199.960938 213.972656 C 199.960938 210.078125 206.449219 205.140625 206.449219 205.140625 C 206.449219 205.140625 212.941406 210.078125 212.941406 213.972656 Z M 212.941406 213.972656 " fill-opacity="1" fill-rule="nonzero"/></g><g clip-path="url(#4ee851178a)"><path fill="#463f57" d="M 161.382812 185.835938 C 161.382812 182.253906 166.34375 180.925781 167.871094 185.074219 C 169.398438 180.921875 174.363281 182.253906 174.363281 185.835938 C 174.363281 189.730469 167.871094 194.667969 167.871094 194.667969 C 167.871094 194.667969 161.382812 189.730469 161.382812 185.835938 Z M 161.382812 185.835938 " fill-opacity="1" fill-rule="nonzero"/></g><g clip-path="url(#736e4fd9fa)"><path fill="#463f57" d="M 199.917969 185.835938 C 199.917969 182.253906 204.882812 180.925781 206.410156 185.074219 C 207.9375 180.921875 212.902344 182.253906 212.902344 185.835938 C 212.902344 189.730469 206.410156 194.667969 206.410156 194.667969 C 206.410156 194.667969 199.917969 189.730469 199.917969 185.835938 Z M 199.917969 185.835938 " fill-opacity="1" fill-rule="nonzero"/></g><g clip-path="url(#a13dad4a09)"><path fill="#5271ff" d="M 180.984375 172.019531 C 180.984375 168.4375 185.949219 167.109375 187.476562 171.257812 C 189.003906 167.109375 193.964844 168.4375 193.964844 172.019531 C 193.964844 175.914062 187.476562 180.855469 187.476562 180.855469 C 187.476562 180.855469 180.984375 175.914062 180.984375 172.019531 Z M 180.984375 172.019531 " fill-opacity="1" fill-rule="nonzero"/></g></svg>