<svg xmlns="http://www.w3.org/2000/svg" xmlns:xlink="http://www.w3.org/1999/xlink" width="500" zoomAndPan="magnify" viewBox="0 0 375 374.999991" height="500" preserveAspectRatio="xMidYMid meet" version="1.0"><defs><g/><clipPath id="ae7e39851f"><path d="M 142.351562 124.464844 L 232.648438 124.464844 L 232.648438 250.535156 L 142.351562 250.535156 Z M 142.351562 124.464844 " clip-rule="nonzero"/></clipPath><clipPath id="b9e8d0692c"><path d="M 149.101562 124.464844 L 225.898438 124.464844 C 227.6875 124.464844 229.40625 125.175781 230.671875 126.441406 C 231.9375 127.707031 232.648438 129.425781 232.648438 131.214844 L 232.648438 243.785156 C 232.648438 245.574219 231.9375 247.292969 230.671875 248.558594 C 229.40625 249.824219 227.6875 250.535156 225.898438 250.535156 L 149.101562 250.535156 C 145.375 250.535156 142.351562 247.511719 142.351562 243.785156 L 142.351562 131.214844 C 142.351562 127.488281 145.375 124.464844 149.101562 124.464844 Z M 149.101562 124.464844 " clip-rule="nonzero"/></clipPath><clipPath id="b37c7e0394"><path d="M 142.355469 124.464844 L 232.351562 124.464844 L 232.351562 250.464844 L 142.355469 250.464844 Z M 142.355469 124.464844 " clip-rule="nonzero"/></clipPath><clipPath id="091dbef28f"><path d="M 149.105469 124.464844 L 225.894531 124.464844 C 227.683594 124.464844 229.398438 125.175781 230.664062 126.441406 C 231.929688 127.707031 232.644531 129.425781 232.644531 131.214844 L 232.644531 243.773438 C 232.644531 245.566406 231.929688 247.28125 230.664062 248.546875 C 229.398438 249.8125 227.683594 250.523438 225.894531 250.523438 L 149.105469 250.523438 C 145.375 250.523438 142.355469 247.503906 142.355469 243.773438 L 142.355469 131.214844 C 142.355469 127.488281 145.375 124.464844 149.105469 124.464844 Z M 149.105469 124.464844 " clip-rule="nonzero"/></clipPath><clipPath id="9368988e5a"><path d="M 213.183594 219.222656 L 225.933594 219.222656 L 225.933594 232 L 213.183594 232 Z M 213.183594 219.222656 " clip-rule="nonzero"/></clipPath><clipPath id="05f410cc7c"><path d="M 161.394531 151 L 174.144531 151 L 174.144531 163.292969 L 161.394531 163.292969 Z M 161.394531 151 " clip-rule="nonzero"/></clipPath><clipPath id="4b43180150"><path d="M 148.390625 144 L 161.140625 144 L 161.140625 156.386719 L 148.390625 156.386719 Z M 148.390625 144 " clip-rule="nonzero"/></clipPath><clipPath id="46e67131b4"><path d="M 161.640625 212.316406 L 174.390625 212.316406 L 174.390625 225 L 161.640625 225 Z M 161.640625 212.316406 " clip-rule="nonzero"/></clipPath><clipPath id="5d2d4c9834"><path d="M 199.933594 151 L 212.683594 151 L 212.683594 163.292969 L 199.933594 163.292969 Z M 199.933594 151 " clip-rule="nonzero"/></clipPath><clipPath id="354f48e4d6"><path d="M 200.179688 212.316406 L 212.929688 212.316406 L 212.929688 225 L 200.179688 225 Z M 200.179688 212.316406 " clip-rule="nonzero"/></clipPath><clipPath id="dfe8d9089c"><path d="M 161.394531 170 L 174.144531 170 L 174.144531 182.792969 L 161.394531 182.792969 Z M 161.394531 170 " clip-rule="nonzero"/></clipPath><clipPath id="d6e6fd66ce"><path d="M 199.933594 170 L 212.683594 170 L 212.683594 182.792969 L 199.933594 182.792969 Z M 199.933594 170 " clip-rule="nonzero"/></clipPath><clipPath id="0f3361bd7c"><path d="M 180.996094 162 L 193.746094 162 L 193.746094 174.402344 L 180.996094 174.402344 Z M 180.996094 162 " clip-rule="nonzero"/></clipPath><clipPath id="e4cd9f2de3"><path d="M 181.242188 198.5 L 193.992188 198.5 L 193.992188 211 L 181.242188 211 Z M 181.242188 198.5 " clip-rule="nonzero"/></clipPath><clipPath id="be20020763"><path d="M 161.640625 190.957031 L 174.390625 190.957031 L 174.390625 203 L 161.640625 203 Z M 161.640625 190.957031 " clip-rule="nonzero"/></clipPath><clipPath id="79aa1c92f3"><path d="M 200.179688 190.957031 L 212.929688 190.957031 L 212.929688 203 L 200.179688 203 Z M 200.179688 190.957031 " clip-rule="nonzero"/></clipPath></defs><g clip-path="url(#ae7e39851f)"><g clip-path="url(#b9e8d0692c)"><path fill="#ffffff" d="M 142.351562 124.464844 L 232.648438 124.464844 L 232.648438 250.535156 L 142.351562 250.535156 Z M 142.351562 124.464844 " fill-opacity="1" fill-rule="nonzero"/></g></g><g clip-path="url(#b37c7e0394)"><g clip-path="url(#091dbef28f)"><path stroke-linecap="butt" transform="matrix(0.75, 0, 0, 0.75, 142.354186, 124.465422)" fill="none" stroke-linejoin="miter" d="M 9.001712 -0.000771302 L 111.387135 -0.000771302 C 113.772552 -0.000771302 116.05901 0.947145 117.74651 2.634646 C 119.43401 4.322146 120.387136 6.613812 120.387136 8.999229 L 120.387136 159.077364 C 120.387136 161.467989 119.43401 163.754448 117.74651 165.441948 C 116.05901 167.129448 113.772552 168.077365 111.387135 168.077365 L 9.001712 168.077365 C 4.027753 168.077365 0.00171093 164.051323 0.00171093 159.077364 L 0.00171093 8.999229 C 0.00171093 4.030479 4.027753 -0.000771302 9.001712 -0.000771302 Z M 9.001712 -0.000771302 " stroke="#463f57" stroke-width="12" stroke-opacity="1" stroke-miterlimit="4"/></g></g><g fill="#000000" fill-opacity="1"><g transform="translate(149.369906, 140.78706)"><g><path d="M 3.195312 0.234375 L 3.195312 -6.652344 C 3.195312 -7.101562 2.960938 -7.324219 2.492188 -7.324219 L 0.53125 -7.324219 C 0.289062 -7.324219 0.179688 -7.226562 0.179688 -7.003906 L 0.179688 -6.011719 C 0.179688 -5.796875 0.289062 -5.6875 0.53125 -5.6875 L 0.945312 -5.6875 C 1.0625 -5.6875 1.125 -5.625 1.125 -5.507812 L 1.125 0.234375 C 1.125 0.460938 1.242188 0.566406 1.476562 0.566406 L 2.84375 0.566406 C 3.085938 0.566406 3.195312 0.460938 3.195312 0.234375 Z M 3.195312 0.234375 "/></g></g></g><g fill="#000000" fill-opacity="1"><g transform="translate(152.744929, 140.78706)"><g><path d="M 5.417969 -1.609375 C 5.417969 -1.261719 5.238281 -1.078125 4.886719 -1.078125 L 2.78125 -1.078125 C 2.429688 -1.078125 2.25 -1.261719 2.25 -1.609375 L 2.25 -5.15625 C 2.25 -5.507812 2.429688 -5.6875 2.78125 -5.6875 L 4.886719 -5.6875 C 5.238281 -5.6875 5.417969 -5.507812 5.417969 -5.15625 Z M 0.179688 -1.195312 C 0.179688 -0.0273438 0.765625 0.566406 1.933594 0.566406 L 5.734375 0.566406 C 6.902344 0.566406 7.480469 -0.0273438 7.488281 -1.195312 L 7.488281 -5.570312 C 7.480469 -6.742188 6.902344 -7.324219 5.734375 -7.324219 L 1.933594 -7.324219 C 0.765625 -7.324219 0.179688 -6.742188 0.179688 -5.570312 Z M 0.179688 -1.195312 "/></g></g></g><g fill="#000000" fill-opacity="1"><g transform="translate(224.831196, 234.829672)"><g><path d="M -3.195312 -0.234375 L -3.195312 6.652344 C -3.195312 7.101562 -2.960938 7.324219 -2.492188 7.324219 L -0.53125 7.324219 C -0.289062 7.324219 -0.179688 7.226562 -0.179688 7.003906 L -0.179688 6.011719 C -0.179688 5.796875 -0.289062 5.6875 -0.53125 5.6875 L -0.945312 5.6875 C -1.0625 5.6875 -1.125 5.625 -1.125 5.507812 L -1.125 -0.234375 C -1.125 -0.460938 -1.242188 -0.566406 -1.476562 -0.566406 L -2.84375 -0.566406 C -3.085938 -0.566406 -3.195312 -0.460938 -3.195312 -0.234375 Z M -3.195312 -0.234375 "/></g></g></g><g fill="#000000" fill-opacity="1"><g transform="translate(221.456173, 234.829672)"><g><path d="M -5.417969 1.609375 C -5.417969 1.261719 -5.238281 1.078125 -4.886719 1.078125 L -2.78125 1.078125 C -2.429688 1.078125 -2.25 1.261719 -2.25 1.609375 L -2.25 5.15625 C -2.25 5.507812 -2.429688 5.6875 -2.78125 5.6875 L -4.886719 5.6875 C -5.238281 5.6875 -5.417969 5.507812 -5.417969 5.15625 Z M -0.179688 1.195312 C -0.179688 0.0273438 -0.765625 -0.566406 -1.933594 -0.566406 L -5.734375 -0.566406 C -6.902344 -0.566406 -7.480469 0.0273438 -7.488281 1.195312 L -7.488281 5.570312 C -7.480469 6.742188 -6.902344 7.324219 -5.734375 7.324219 L -1.933594 7.324219 C -0.765625 7.324219 -0.179688 6.742188 -0.179688 5.570312 Z M -0.179688 1.195312 "/></g></g></g><g clip-path="url(#9368988e5a)"><path fill="#463f57" d="M 225.945312 227.789062 C 225.945312 231.375 220.984375 232.703125 219.457031 228.550781 C 217.925781 232.703125 212.964844 231.375 212.964844 227.789062 C 212.964844 223.894531 219.457031 218.957031 219.457031 218.957031 C 219.457031 218.957031 225.945312 223.894531 225.945312 227.789062 Z M 225.945312 227.789062 " fill-opacity="1" fill-rule="nonzero"/></g><g clip-path="url(#05f410cc7c)"><path fill="#463f57" d="M 161.382812 154.730469 C 161.382812 151.144531 166.34375 149.816406 167.871094 153.964844 C 169.398438 149.816406 174.363281 151.144531 174.363281 154.730469 C 174.363281 158.625 167.871094 163.5625 167.871094 163.5625 C 167.871094 163.5625 161.382812 158.625 161.382812 154.730469 Z M 161.382812 154.730469 " fill-opacity="1" fill-rule="nonzero"/></g><g clip-path="url(#4b43180150)"><path fill="#463f57" d="M 148.378906 147.820312 C 148.378906 144.238281 153.339844 142.910156 154.867188 147.058594 C 156.394531 142.90625 161.359375 144.238281 161.359375 147.820312 C 161.359375 151.714844 154.867188 156.652344 154.867188 156.652344 C 154.867188 156.652344 148.378906 151.714844 148.378906 147.820312 Z M 148.378906 147.820312 " fill-opacity="1" fill-rule="nonzero"/></g><g clip-path="url(#46e67131b4)"><path fill="#463f57" d="M 174.40625 220.882812 C 174.40625 224.464844 169.441406 225.792969 167.914062 221.644531 C 166.386719 225.792969 161.421875 224.464844 161.421875 220.882812 C 161.421875 216.988281 167.914062 212.046875 167.914062 212.046875 C 167.914062 212.046875 174.40625 216.988281 174.40625 220.882812 Z M 174.40625 220.882812 " fill-opacity="1" fill-rule="nonzero"/></g><g clip-path="url(#5d2d4c9834)"><path fill="#463f57" d="M 199.917969 154.730469 C 199.917969 151.144531 204.882812 149.816406 206.410156 153.964844 C 207.9375 149.816406 212.902344 151.144531 212.902344 154.730469 C 212.902344 158.625 206.410156 163.5625 206.410156 163.5625 C 206.410156 163.5625 199.917969 158.625 199.917969 154.730469 Z M 199.917969 154.730469 " fill-opacity="1" fill-rule="nonzero"/></g><g clip-path="url(#354f48e4d6)"><path fill="#463f57" d="M 212.941406 220.882812 C 212.941406 224.464844 207.976562 225.792969 206.449219 221.644531 C 204.921875 225.792969 199.960938 224.464844 199.960938 220.882812 C 199.960938 216.988281 206.449219 212.046875 206.449219 212.046875 C 206.449219 212.046875 212.941406 216.988281 212.941406 220.882812 Z M 212.941406 220.882812 " fill-opacity="1" fill-rule="nonzero"/></g><g clip-path="url(#dfe8d9089c)"><path fill="#463f57" d="M 161.382812 174.226562 C 161.382812 170.640625 166.34375 169.3125 167.871094 173.460938 C 169.398438 169.3125 174.363281 170.640625 174.363281 174.226562 C 174.363281 178.121094 167.871094 183.058594 167.871094 183.058594 C 167.871094 183.058594 161.382812 178.121094 161.382812 174.226562 Z M 161.382812 174.226562 " fill-opacity="1" fill-rule="nonzero"/></g><g clip-path="url(#d6e6fd66ce)"><path fill="#463f57" d="M 199.917969 174.226562 C 199.917969 170.640625 204.882812 169.3125 206.410156 173.460938 C 207.9375 169.3125 212.902344 170.640625 212.902344 174.226562 C 212.902344 178.121094 206.410156 183.058594 206.410156 183.058594 C 206.410156 183.058594 199.917969 178.121094 199.917969 174.226562 Z M 199.917969 174.226562 " fill-opacity="1" fill-rule="nonzero"/></g><g clip-path="url(#0f3361bd7c)"><path fill="#5271ff" d="M 180.984375 165.835938 C 180.984375 162.253906 185.949219 160.925781 187.476562 165.074219 C 189.003906 160.921875 193.964844 162.253906 193.964844 165.835938 C 193.964844 169.730469 187.476562 174.667969 187.476562 174.667969 C 187.476562 174.667969 180.984375 169.730469 180.984375 165.835938 Z M 180.984375 165.835938 " fill-opacity="1" fill-rule="nonzero"/></g><g clip-path="url(#e4cd9f2de3)"><path fill="#5271ff" d="M 194.007812 207.066406 C 194.007812 210.648438 189.042969 211.976562 187.515625 207.828125 C 185.988281 211.980469 181.023438 210.648438 181.023438 207.066406 C 181.023438 203.171875 187.515625 198.234375 187.515625 198.234375 C 187.515625 198.234375 194.007812 203.171875 194.007812 207.066406 Z M 194.007812 207.066406 " fill-opacity="1" fill-rule="nonzero"/></g><g clip-path="url(#be20020763)"><path fill="#463f57" d="M 174.40625 199.519531 C 174.40625 203.105469 169.441406 204.433594 167.914062 200.285156 C 166.386719 204.433594 161.421875 203.105469 161.421875 199.519531 C 161.421875 195.625 167.914062 190.6875 167.914062 190.6875 C 167.914062 190.6875 174.40625 195.625 174.40625 199.519531 Z M 174.40625 199.519531 " fill-opacity="1" fill-rule="nonzero"/></g><g clip-path="url(#79aa1c92f3)"><path fill="#463f57" d="M 212.941406 199.519531 C 212.941406 203.105469 207.976562 204.433594 206.449219 200.285156 C 204.921875 204.433594 199.960938 203.105469 199.960938 199.519531 C 199.960938 195.625 206.449219 190.6875 206.449219 190.6875 C 206.449219 190.6875 212.941406 195.625 212.941406 199.519531 Z M 212.941406 199.519531 " fill-opacity="1" fill-rule="nonzero"/></g></svg>