<svg xmlns="http://www.w3.org/2000/svg" xmlns:xlink="http://www.w3.org/1999/xlink" width="500" zoomAndPan="magnify" viewBox="0 0 375 374.999991" height="500" preserveAspectRatio="xMidYMid meet" version="1.0"><defs><g/><clipPath id="980b20f629"><path d="M 142.351562 124.464844 L 232.648438 124.464844 L 232.648438 250.535156 L 142.351562 250.535156 Z M 142.351562 124.464844 " clip-rule="nonzero"/></clipPath><clipPath id="c8a874ddd4"><path d="M 149.101562 124.464844 L 225.898438 124.464844 C 227.6875 124.464844 229.40625 125.175781 230.671875 126.441406 C 231.9375 127.707031 232.648438 129.425781 232.648438 131.214844 L 232.648438 243.785156 C 232.648438 245.574219 231.9375 247.292969 230.671875 248.558594 C 229.40625 249.824219 227.6875 250.535156 225.898438 250.535156 L 149.101562 250.535156 C 145.375 250.535156 142.351562 247.511719 142.351562 243.785156 L 142.351562 131.214844 C 142.351562 127.488281 145.375 124.464844 149.101562 124.464844 Z M 149.101562 124.464844 " clip-rule="nonzero"/></clipPath><clipPath id="2699139561"><path d="M 142.355469 124.464844 L 232.351562 124.464844 L 232.351562 250.464844 L 142.355469 250.464844 Z M 142.355469 124.464844 " clip-rule="nonzero"/></clipPath><clipPath id="7915c8135a"><path d="M 149.105469 124.464844 L 225.894531 124.464844 C 227.683594 124.464844 229.398438 125.175781 230.664062 126.441406 C 231.929688 127.707031 232.644531 129.425781 232.644531 131.214844 L 232.644531 243.773438 C 232.644531 245.566406 231.929688 247.28125 230.664062 248.546875 C 229.398438 249.8125 227.683594 250.523438 225.894531 250.523438 L 149.105469 250.523438 C 145.375 250.523438 142.355469 247.503906 142.355469 243.773438 L 142.355469 131.214844 C 142.355469 127.488281 145.375 124.464844 149.105469 124.464844 Z M 149.105469 124.464844 " clip-rule="nonzero"/></clipPath><clipPath id="3a85ecc679"><path d="M 213.183594 219.222656 L 225.933594 219.222656 L 225.933594 232 L 213.183594 232 Z M 213.183594 219.222656 " clip-rule="nonzero"/></clipPath><clipPath id="383c21dbf3"><path d="M 180.996094 158 L 193.746094 158 L 193.746094 170.203125 L 180.996094 170.203125 Z M 180.996094 158 " clip-rule="nonzero"/></clipPath><clipPath id="24bada5cb1"><path d="M 148.390625 144 L 161.140625 144 L 161.140625 156.386719 L 148.390625 156.386719 Z M 148.390625 144 " clip-rule="nonzero"/></clipPath><clipPath id="90b184e3bd"><path d="M 181.242188 205.40625 L 193.992188 205.40625 L 193.992188 218 L 181.242188 218 Z M 181.242188 205.40625 " clip-rule="nonzero"/></clipPath><clipPath id="2fb6dcddac"><path d="M 180.996094 182 L 193.746094 182 L 193.746094 194.09375 L 180.996094 194.09375 Z M 180.996094 182 " clip-rule="nonzero"/></clipPath></defs><g clip-path="url(#980b20f629)"><g clip-path="url(#c8a874ddd4)"><path fill="#ffffff" d="M 142.351562 124.464844 L 232.648438 124.464844 L 232.648438 250.535156 L 142.351562 250.535156 Z M 142.351562 124.464844 " fill-opacity="1" fill-rule="nonzero"/></g></g><g clip-path="url(#2699139561)"><g clip-path="url(#7915c8135a)"><path stroke-linecap="butt" transform="matrix(0.75, 0, 0, 0.75, 142.354186, 124.46548)" fill="none" stroke-linejoin="miter" d="M 9.001712 -0.000848102 L 111.387135 -0.000848102 C 113.772552 -0.000848102 116.05901 0.947069 117.74651 2.634569 C 119.43401 4.322069 120.387136 6.613736 120.387136 8.999152 L 120.387136 159.077287 C 120.387136 161.467913 119.43401 163.754371 117.74651 165.441871 C 116.05901 167.129371 113.772552 168.077288 111.387135 168.077288 L 9.001712 168.077288 C 4.027753 168.077288 0.00171093 164.051246 0.00171093 159.077287 L 0.00171093 8.999152 C 0.00171093 4.030402 4.027753 -0.000848102 9.001712 -0.000848102 Z M 9.001712 -0.000848102 " stroke="#463f57" stroke-width="12" stroke-opacity="1" stroke-miterlimit="4"/></g></g><g fill="#000000" fill-opacity="1"><g transform="translate(151.055445, 140.786943)"><g><path d="M 2.25 -4.96875 L 2.25 -5.15625 C 2.25 -5.507812 2.429688 -5.6875 2.78125 -5.6875 L 4.886719 -5.6875 C 5.238281 -5.6875 5.417969 -5.507812 5.417969 -5.15625 L 5.417969 -4.726562 C 5.417969 -4.375 5.238281 -4.203125 4.886719 -4.203125 L 3.132812 -4.203125 C 2.890625 -4.203125 2.78125 -4.09375 2.78125 -3.878906 L 2.78125 -2.878906 C 2.78125 -2.664062 2.890625 -2.554688 3.132812 -2.554688 L 4.886719 -2.554688 C 5.238281 -2.554688 5.417969 -2.386719 5.417969 -2.035156 L 5.417969 -1.609375 C 5.417969 -1.261719 5.238281 -1.078125 4.886719 -1.078125 L 2.78125 -1.078125 C 2.429688 -1.078125 2.25 -1.261719 2.25 -1.609375 L 2.25 -1.800781 C 2.25 -2.023438 2.132812 -2.125 1.898438 -2.125 L 0.53125 -2.125 C 0.289062 -2.125 0.179688 -2.023438 0.179688 -1.800781 L 0.179688 -1.195312 C 0.179688 -0.0273438 0.765625 0.566406 1.933594 0.566406 L 5.734375 0.566406 C 6.902344 0.566406 7.480469 -0.0273438 7.488281 -1.195312 L 7.488281 -2.140625 C 7.480469 -2.671875 7.308594 -3.085938 6.957031 -3.375 C 7.308594 -3.664062 7.480469 -4.078125 7.488281 -4.609375 L 7.488281 -5.570312 C 7.480469 -6.742188 6.902344 -7.324219 5.734375 -7.324219 L 1.933594 -7.324219 C 0.765625 -7.324219 0.179688 -6.742188 0.179688 -5.570312 L 0.179688 -4.96875 C 0.179688 -4.742188 0.289062 -4.644531 0.53125 -4.644531 L 1.898438 -4.644531 C 2.132812 -4.644531 2.25 -4.742188 2.25 -4.96875 Z M 2.25 -4.96875 "/></g></g></g><g fill="#000000" fill-opacity="1"><g transform="translate(223.268135, 234.829672)"><g><path d="M -2.25 4.96875 L -2.25 5.15625 C -2.25 5.507812 -2.429688 5.6875 -2.78125 5.6875 L -4.886719 5.6875 C -5.238281 5.6875 -5.417969 5.507812 -5.417969 5.15625 L -5.417969 4.726562 C -5.417969 4.375 -5.238281 4.203125 -4.886719 4.203125 L -3.132812 4.203125 C -2.890625 4.203125 -2.78125 4.09375 -2.78125 3.878906 L -2.78125 2.878906 C -2.78125 2.664062 -2.890625 2.554688 -3.132812 2.554688 L -4.886719 2.554688 C -5.238281 2.554688 -5.417969 2.386719 -5.417969 2.035156 L -5.417969 1.609375 C -5.417969 1.261719 -5.238281 1.078125 -4.886719 1.078125 L -2.78125 1.078125 C -2.429688 1.078125 -2.25 1.261719 -2.25 1.609375 L -2.25 1.800781 C -2.25 2.023438 -2.132812 2.125 -1.898438 2.125 L -0.53125 2.125 C -0.289062 2.125 -0.179688 2.023438 -0.179688 1.800781 L -0.179688 1.195312 C -0.179688 0.0273438 -0.765625 -0.566406 -1.933594 -0.566406 L -5.734375 -0.566406 C -6.902344 -0.566406 -7.480469 0.0273438 -7.488281 1.195312 L -7.488281 2.140625 C -7.480469 2.671875 -7.308594 3.085938 -6.957031 3.375 C -7.308594 3.664062 -7.480469 4.078125 -7.488281 4.609375 L -7.488281 5.570312 C -7.480469 6.742188 -6.902344 7.324219 -5.734375 7.324219 L -1.933594 7.324219 C -0.765625 7.324219 -0.179688 6.742188 -0.179688 5.570312 L -0.179688 4.96875 C -0.179688 4.742188 -0.289062 4.644531 -0.53125 4.644531 L -1.898438 4.644531 C -2.132812 4.644531 -2.25 4.742188 -2.25 4.96875 Z M -2.25 4.96875 "/></g></g></g><g clip-path="url(#3a85ecc679)"><path fill="#463f57" d="M 225.945312 227.789062 C 225.945312 231.375 220.984375 232.703125 219.457031 228.550781 C 217.925781 232.703125 212.964844 231.375 212.964844 227.789062 C 212.964844 223.894531 219.457031 218.957031 219.457031 218.957031 C 219.457031 218.957031 225.945312 223.894531 225.945312 227.789062 Z M 225.945312 227.789062 " fill-opacity="1" fill-rule="nonzero"/></g><g clip-path="url(#383c21dbf3)"><path fill="#463f57" d="M 180.984375 161.636719 C 180.984375 158.050781 185.949219 156.722656 187.476562 160.875 C 189.003906 156.722656 193.964844 158.050781 193.964844 161.636719 C 193.964844 165.53125 187.476562 170.46875 187.476562 170.46875 C 187.476562 170.46875 180.984375 165.53125 180.984375 161.636719 Z M 180.984375 161.636719 " fill-opacity="1" fill-rule="nonzero"/></g><g clip-path="url(#24bada5cb1)"><path fill="#463f57" d="M 148.378906 147.820312 C 148.378906 144.238281 153.339844 142.910156 154.867188 147.058594 C 156.394531 142.90625 161.359375 144.238281 161.359375 147.820312 C 161.359375 151.714844 154.867188 156.652344 154.867188 156.652344 C 154.867188 156.652344 148.378906 151.714844 148.378906 147.820312 Z M 148.378906 147.820312 " fill-opacity="1" fill-rule="nonzero"/></g><g clip-path="url(#90b184e3bd)"><path fill="#463f57" d="M 194.007812 213.972656 C 194.007812 217.558594 189.042969 218.886719 187.515625 214.738281 C 185.988281 218.886719 181.023438 217.558594 181.023438 213.972656 C 181.023438 210.078125 187.515625 205.140625 187.515625 205.140625 C 187.515625 205.140625 194.007812 210.078125 194.007812 213.972656 Z M 194.007812 213.972656 " fill-opacity="1" fill-rule="nonzero"/></g><g clip-path="url(#2fb6dcddac)"><path fill="#5271ff" d="M 180.984375 185.527344 C 180.984375 181.941406 185.949219 180.613281 187.476562 184.761719 C 189.003906 180.613281 193.964844 181.941406 193.964844 185.527344 C 193.964844 189.421875 187.476562 194.359375 187.476562 194.359375 C 187.476562 194.359375 180.984375 189.421875 180.984375 185.527344 Z M 180.984375 185.527344 " fill-opacity="1" fill-rule="nonzero"/></g></svg>