<svg xmlns="http://www.w3.org/2000/svg" xmlns:xlink="http://www.w3.org/1999/xlink" width="500" zoomAndPan="magnify" viewBox="0 0 375 374.999991" height="500" preserveAspectRatio="xMidYMid meet" version="1.0"><defs><g/><clipPath id="ac5412e40b"><path d="M 142.351562 124.464844 L 232.648438 124.464844 L 232.648438 250.535156 L 142.351562 250.535156 Z M 142.351562 124.464844 " clip-rule="nonzero"/></clipPath><clipPath id="332c4060d3"><path d="M 149.101562 124.464844 L 225.898438 124.464844 C 227.6875 124.464844 229.40625 125.175781 230.671875 126.441406 C 231.9375 127.707031 232.648438 129.425781 232.648438 131.214844 L 232.648438 243.785156 C 232.648438 245.574219 231.9375 247.292969 230.671875 248.558594 C 229.40625 249.824219 227.6875 250.535156 225.898438 250.535156 L 149.101562 250.535156 C 145.375 250.535156 142.351562 247.511719 142.351562 243.785156 L 142.351562 131.214844 C 142.351562 127.488281 145.375 124.464844 149.101562 124.464844 Z M 149.101562 124.464844 " clip-rule="nonzero"/></clipPath><clipPath id="65b6e67990"><path d="M 142.355469 124.464844 L 232.351562 124.464844 L 232.351562 250.464844 L 142.355469 250.464844 Z M 142.355469 124.464844 " clip-rule="nonzero"/></clipPath><clipPath id="ed7e5cf928"><path d="M 149.105469 124.464844 L 225.894531 124.464844 C 227.683594 124.464844 229.398438 125.175781 230.664062 126.441406 C 231.929688 127.707031 232.644531 129.425781 232.644531 131.214844 L 232.644531 243.773438 C 232.644531 245.566406 231.929688 247.28125 230.664062 248.546875 C 229.398438 249.8125 227.683594 250.523438 225.894531 250.523438 L 149.105469 250.523438 C 145.375 250.523438 142.355469 247.503906 142.355469 243.773438 L 142.355469 131.214844 C 142.355469 127.488281 145.375 124.464844 149.105469 124.464844 Z M 149.105469 124.464844 " clip-rule="nonzero"/></clipPath><clipPath id="b877268e53"><path d="M 213.183594 219.222656 L 225.933594 219.222656 L 225.933594 232 L 213.183594 232 Z M 213.183594 219.222656 " clip-rule="nonzero"/></clipPath><clipPath id="5cc9db4e2f"><path d="M 180.996094 158 L 193.746094 158 L 193.746094 170.203125 L 180.996094 170.203125 Z M 180.996094 158 " clip-rule="nonzero"/></clipPath><clipPath id="11401a7825"><path d="M 148.390625 144 L 161.140625 144 L 161.140625 156.386719 L 148.390625 156.386719 Z M 148.390625 144 " clip-rule="nonzero"/></clipPath><clipPath id="6d2fd6cf03"><path d="M 181.242188 205.40625 L 193.992188 205.40625 L 193.992188 218 L 181.242188 218 Z M 181.242188 205.40625 " clip-rule="nonzero"/></clipPath></defs><g clip-path="url(#ac5412e40b)"><g clip-path="url(#332c4060d3)"><path fill="#ffffff" d="M 142.351562 124.464844 L 232.648438 124.464844 L 232.648438 250.535156 L 142.351562 250.535156 Z M 142.351562 124.464844 " fill-opacity="1" fill-rule="nonzero"/></g></g><g clip-path="url(#65b6e67990)"><g clip-path="url(#ed7e5cf928)"><path stroke-linecap="butt" transform="matrix(0.75, 0, 0, 0.75, 142.354186, 124.46548)" fill="none" stroke-linejoin="miter" d="M 9.001712 -0.000848102 L 111.387135 -0.000848102 C 113.772552 -0.000848102 116.05901 0.947069 117.74651 2.634569 C 119.43401 4.322069 120.387136 6.613736 120.387136 8.999152 L 120.387136 159.077287 C 120.387136 161.467913 119.43401 163.754371 117.74651 165.441871 C 116.05901 167.129371 113.772552 168.077288 111.387135 168.077288 L 9.001712 168.077288 C 4.027753 168.077288 0.00171093 164.051246 0.00171093 159.077287 L 0.00171093 8.999152 C 0.00171093 4.030402 4.027753 -0.000848102 9.001712 -0.000848102 Z M 9.001712 -0.000848102 " stroke="#463f57" stroke-width="12" stroke-opacity="1" stroke-miterlimit="4"/></g></g><g fill="#000000" fill-opacity="1"><g transform="translate(151.055445, 140.786885)"><g><path d="M 2.25 -4.96875 L 2.25 -5.15625 C 2.25 -5.507812 2.429688 -5.6875 2.78125 -5.6875 L 4.886719 -5.6875 C 5.238281 -5.6875 5.417969 -5.507812 5.417969 -5.15625 L 5.417969 -4.347656 C 5.417969 -3.996094 5.238281 -3.824219 4.886719 -3.824219 L 1.933594 -3.824219 C 0.765625 -3.824219 0.179688 -3.230469 0.179688 -2.0625 L 0.179688 0.234375 C 0.179688 0.460938 0.289062 0.566406 0.53125 0.566406 L 7.136719 0.566406 C 7.371094 0.566406 7.488281 0.460938 7.488281 0.234375 L 7.488281 -0.757812 C 7.488281 -0.972656 7.371094 -1.078125 7.136719 -1.078125 L 2.429688 -1.078125 C 2.3125 -1.078125 2.25 -1.144531 2.25 -1.261719 L 2.25 -1.65625 C 2.25 -2.007812 2.429688 -2.179688 2.78125 -2.179688 L 5.734375 -2.179688 C 6.902344 -2.179688 7.480469 -2.773438 7.488281 -3.941406 L 7.488281 -5.570312 C 7.480469 -6.742188 6.902344 -7.324219 5.734375 -7.324219 L 1.933594 -7.324219 C 0.765625 -7.324219 0.179688 -6.742188 0.179688 -5.570312 L 0.179688 -4.96875 C 0.179688 -4.742188 0.289062 -4.644531 0.53125 -4.644531 L 1.898438 -4.644531 C 2.132812 -4.644531 2.25 -4.742188 2.25 -4.96875 Z M 2.25 -4.96875 "/></g></g></g><g fill="#000000" fill-opacity="1"><g transform="translate(223.268135, 234.829614)"><g><path d="M -2.25 4.96875 L -2.25 5.15625 C -2.25 5.507812 -2.429688 5.6875 -2.78125 5.6875 L -4.886719 5.6875 C -5.238281 5.6875 -5.417969 5.507812 -5.417969 5.15625 L -5.417969 4.347656 C -5.417969 3.996094 -5.238281 3.824219 -4.886719 3.824219 L -1.933594 3.824219 C -0.765625 3.824219 -0.179688 3.230469 -0.179688 2.0625 L -0.179688 -0.234375 C -0.179688 -0.460938 -0.289062 -0.566406 -0.53125 -0.566406 L -7.136719 -0.566406 C -7.371094 -0.566406 -7.488281 -0.460938 -7.488281 -0.234375 L -7.488281 0.757812 C -7.488281 0.972656 -7.371094 1.078125 -7.136719 1.078125 L -2.429688 1.078125 C -2.3125 1.078125 -2.25 1.144531 -2.25 1.261719 L -2.25 1.65625 C -2.25 2.007812 -2.429688 2.179688 -2.78125 2.179688 L -5.734375 2.179688 C -6.902344 2.179688 -7.480469 2.773438 -7.488281 3.941406 L -7.488281 5.570312 C -7.480469 6.742188 -6.902344 7.324219 -5.734375 7.324219 L -1.933594 7.324219 C -0.765625 7.324219 -0.179688 6.742188 -0.179688 5.570312 L -0.179688 4.96875 C -0.179688 4.742188 -0.289062 4.644531 -0.53125 4.644531 L -1.898438 4.644531 C -2.132812 4.644531 -2.25 4.742188 -2.25 4.96875 Z M -2.25 4.96875 "/></g></g></g><g clip-path="url(#b877268e53)"><path fill="#463f57" d="M 225.945312 227.789062 C 225.945312 231.375 220.984375 232.703125 219.457031 228.550781 C 217.925781 232.703125 212.964844 231.375 212.964844 227.789062 C 212.964844 223.894531 219.457031 218.957031 219.457031 218.957031 C 219.457031 218.957031 225.945312 223.894531 225.945312 227.789062 Z M 225.945312 227.789062 " fill-opacity="1" fill-rule="nonzero"/></g><g clip-path="url(#5cc9db4e2f)"><path fill="#463f57" d="M 180.984375 161.636719 C 180.984375 158.050781 185.949219 156.722656 187.476562 160.875 C 189.003906 156.722656 193.964844 158.050781 193.964844 161.636719 C 193.964844 165.53125 187.476562 170.46875 187.476562 170.46875 C 187.476562 170.46875 180.984375 165.53125 180.984375 161.636719 Z M 180.984375 161.636719 " fill-opacity="1" fill-rule="nonzero"/></g><g clip-path="url(#11401a7825)"><path fill="#463f57" d="M 148.378906 147.820312 C 148.378906 144.238281 153.339844 142.910156 154.867188 147.058594 C 156.394531 142.90625 161.359375 144.238281 161.359375 147.820312 C 161.359375 151.714844 154.867188 156.652344 154.867188 156.652344 C 154.867188 156.652344 148.378906 151.714844 148.378906 147.820312 Z M 148.378906 147.820312 " fill-opacity="1" fill-rule="nonzero"/></g><g clip-path="url(#6d2fd6cf03)"><path fill="#463f57" d="M 194.007812 213.972656 C 194.007812 217.558594 189.042969 218.886719 187.515625 214.738281 C 185.988281 218.886719 181.023438 217.558594 181.023438 213.972656 C 181.023438 210.078125 187.515625 205.140625 187.515625 205.140625 C 187.515625 205.140625 194.007812 210.078125 194.007812 213.972656 Z M 194.007812 213.972656 " fill-opacity="1" fill-rule="nonzero"/></g></svg>