<svg xmlns="http://www.w3.org/2000/svg" xmlns:xlink="http://www.w3.org/1999/xlink" width="500" zoomAndPan="magnify" viewBox="0 0 375 374.999991" height="500" preserveAspectRatio="xMidYMid meet" version="1.0"><defs><g/><clipPath id="761248813b"><path d="M 142.351562 124.464844 L 232.648438 124.464844 L 232.648438 250.535156 L 142.351562 250.535156 Z M 142.351562 124.464844 " clip-rule="nonzero"/></clipPath><clipPath id="3fda47b8cb"><path d="M 149.101562 124.464844 L 225.898438 124.464844 C 227.6875 124.464844 229.40625 125.175781 230.671875 126.441406 C 231.9375 127.707031 232.648438 129.425781 232.648438 131.214844 L 232.648438 243.785156 C 232.648438 245.574219 231.9375 247.292969 230.671875 248.558594 C 229.40625 249.824219 227.6875 250.535156 225.898438 250.535156 L 149.101562 250.535156 C 145.375 250.535156 142.351562 247.511719 142.351562 243.785156 L 142.351562 131.214844 C 142.351562 127.488281 145.375 124.464844 149.101562 124.464844 Z M 149.101562 124.464844 " clip-rule="nonzero"/></clipPath><clipPath id="faee64e576"><path d="M 142.355469 124.464844 L 232.351562 124.464844 L 232.351562 250.464844 L 142.355469 250.464844 Z M 142.355469 124.464844 " clip-rule="nonzero"/></clipPath><clipPath id="0737d10325"><path d="M 149.105469 124.464844 L 225.894531 124.464844 C 227.683594 124.464844 229.398438 125.175781 230.664062 126.441406 C 231.929688 127.707031 232.644531 129.425781 232.644531 131.214844 L 232.644531 243.773438 C 232.644531 245.566406 231.929688 247.28125 230.664062 248.546875 C 229.398438 249.8125 227.683594 250.523438 225.894531 250.523438 L 149.105469 250.523438 C 145.375 250.523438 142.355469 247.503906 142.355469 243.773438 L 142.355469 131.214844 C 142.355469 127.488281 145.375 124.464844 149.105469 124.464844 Z M 149.105469 124.464844 " clip-rule="nonzero"/></clipPath><clipPath id="77d9747b88"><path d="M 180.644531 179.566406 L 194.144531 179.566406 L 194.144531 195.316406 L 180.644531 195.316406 Z M 180.644531 179.566406 " clip-rule="nonzero"/></clipPath><clipPath id="4377fed699"><path d="M 148.039062 142.886719 L 161.539062 142.886719 L 161.539062 158.636719 L 148.039062 158.636719 Z M 148.039062 142.886719 " clip-rule="nonzero"/></clipPath><clipPath id="46f07eebfe"><path d="M 212.585938 216.863281 L 226.085938 216.863281 L 226.085938 232.613281 L 212.585938 232.613281 Z M 212.585938 216.863281 " clip-rule="nonzero"/></clipPath></defs><g clip-path="url(#761248813b)"><g clip-path="url(#3fda47b8cb)"><path fill="#ffffff" d="M 142.351562 124.464844 L 232.648438 124.464844 L 232.648438 250.535156 L 142.351562 250.535156 Z M 142.351562 124.464844 " fill-opacity="1" fill-rule="nonzero"/></g></g><g clip-path="url(#faee64e576)"><g clip-path="url(#0737d10325)"><path stroke-linecap="butt" transform="matrix(0.75, 0, 0, 0.75, 142.354186, 124.465451)" fill="none" stroke-linejoin="miter" d="M 9.001712 -0.000809702 L 111.387135 -0.000809702 C 113.772552 -0.000809702 116.05901 0.947107 117.74651 2.634607 C 119.43401 4.322107 120.387136 6.613774 120.387136 8.999191 L 120.387136 159.077326 C 120.387136 161.467951 119.43401 163.754409 117.74651 165.441909 C 116.05901 167.12941 113.772552 168.077326 111.387135 168.077326 L 9.001712 168.077326 C 4.027753 168.077326 0.00171093 164.051284 0.00171093 159.077326 L 0.00171093 8.999191 C 0.00171093 4.030441 4.027753 -0.000809702 9.001712 -0.000809702 Z M 9.001712 -0.000809702 " stroke="#463f57" stroke-width="12" stroke-opacity="1" stroke-miterlimit="4"/></g></g><g clip-path="url(#77d9747b88)"><path fill="#463f57" d="M 187.496094 179.570312 C 185.621094 182.511719 183.351562 185.167969 180.644531 187.5 C 183.34375 189.914062 185.601562 192.574219 187.496094 195.429688 C 189.367188 192.484375 191.636719 189.832031 194.34375 187.5 C 191.644531 185.082031 189.386719 182.421875 187.496094 179.570312 " fill-opacity="1" fill-rule="nonzero"/></g><g fill="#000000" fill-opacity="1"><g transform="translate(151.067162, 140.786928)"><g><path d="M 4.355469 -7.335938 L 3.285156 -7.335938 C 2.960938 -7.34375 2.746094 -7.300781 2.628906 -7.183594 C 2.503906 -7.066406 2.402344 -6.867188 2.3125 -6.578125 L 0.199219 -0.53125 C 0.125 -0.324219 0.0703125 -0.144531 0.046875 0.0195312 C 0.0351562 0.253906 0.0976562 0.433594 0.207031 0.550781 C 0.324219 0.648438 0.523438 0.703125 0.792969 0.710938 L 1.46875 0.710938 C 1.738281 0.71875 1.945312 0.664062 2.0625 0.558594 C 2.179688 0.441406 2.277344 0.253906 2.347656 0.0195312 L 2.574219 -0.640625 L 5.066406 -0.640625 L 5.300781 0.0195312 C 5.371094 0.253906 5.464844 0.441406 5.589844 0.558594 C 5.707031 0.664062 5.902344 0.71875 6.183594 0.710938 L 6.859375 0.710938 C 7.128906 0.703125 7.324219 0.648438 7.441406 0.550781 C 7.558594 0.433594 7.613281 0.253906 7.605469 0.0195312 C 7.578125 -0.144531 7.523438 -0.324219 7.441406 -0.53125 L 5.335938 -6.578125 C 5.246094 -6.867188 5.140625 -7.066406 5.03125 -7.183594 C 4.90625 -7.300781 4.6875 -7.34375 4.355469 -7.335938 Z M 3.824219 -4.230469 L 4.328125 -2.773438 L 3.3125 -2.773438 Z M 3.824219 -4.230469 "/></g></g></g><g fill="#000000" fill-opacity="1"><g transform="translate(223.268135, 234.829643)"><g><path d="M -4.355469 7.335938 L -3.285156 7.335938 C -2.960938 7.34375 -2.746094 7.300781 -2.628906 7.183594 C -2.503906 7.066406 -2.402344 6.867188 -2.3125 6.578125 L -0.199219 0.53125 C -0.125 0.324219 -0.0703125 0.144531 -0.046875 -0.0195312 C -0.0351562 -0.253906 -0.0976562 -0.433594 -0.207031 -0.550781 C -0.324219 -0.648438 -0.523438 -0.703125 -0.792969 -0.710938 L -1.46875 -0.710938 C -1.738281 -0.71875 -1.945312 -0.664062 -2.0625 -0.558594 C -2.179688 -0.441406 -2.277344 -0.253906 -2.347656 -0.0195312 L -2.574219 0.640625 L -5.066406 0.640625 L -5.300781 -0.0195312 C -5.371094 -0.253906 -5.464844 -0.441406 -5.589844 -0.558594 C -5.707031 -0.664062 -5.902344 -0.71875 -6.183594 -0.710938 L -6.859375 -0.710938 C -7.128906 -0.703125 -7.324219 -0.648438 -7.441406 -0.550781 C -7.558594 -0.433594 -7.613281 -0.253906 -7.605469 -0.0195312 C -7.578125 0.144531 -7.523438 0.324219 -7.441406 0.53125 L -5.335938 6.578125 C -5.246094 6.867188 -5.140625 7.066406 -5.03125 7.183594 C -4.90625 7.300781 -4.6875 7.34375 -4.355469 7.335938 Z M -3.824219 4.230469 L -4.328125 2.773438 L -3.3125 2.773438 Z M -3.824219 4.230469 "/></g></g></g><g clip-path="url(#4377fed699)"><path fill="#463f57" d="M 154.886719 142.890625 C 153.015625 145.832031 150.746094 148.488281 148.039062 150.820312 C 150.738281 153.238281 152.992188 155.894531 154.886719 158.75 C 156.761719 155.808594 159.03125 153.152344 161.738281 150.820312 C 159.035156 148.402344 156.78125 145.746094 154.886719 142.890625 " fill-opacity="1" fill-rule="nonzero"/></g><g clip-path="url(#46f07eebfe)"><path fill="#463f57" d="M 219.433594 216.867188 C 217.558594 219.8125 215.289062 222.464844 212.582031 224.796875 C 215.285156 227.214844 217.539062 229.875 219.433594 232.726562 C 221.304688 229.785156 223.574219 227.128906 226.28125 224.796875 C 223.582031 222.378906 221.328125 219.722656 219.433594 216.867188 " fill-opacity="1" fill-rule="nonzero"/></g></svg>