<svg xmlns="http://www.w3.org/2000/svg" xmlns:xlink="http://www.w3.org/1999/xlink" width="500" zoomAndPan="magnify" viewBox="0 0 375 374.999991" height="500" preserveAspectRatio="xMidYMid meet" version="1.0"><defs><g/><clipPath id="04b5361838"><path d="M 142.351562 124.464844 L 232.648438 124.464844 L 232.648438 250.535156 L 142.351562 250.535156 Z M 142.351562 124.464844 " clip-rule="nonzero"/></clipPath><clipPath id="d96fdca290"><path d="M 149.101562 124.464844 L 225.898438 124.464844 C 227.6875 124.464844 229.40625 125.175781 230.671875 126.441406 C 231.9375 127.707031 232.648438 129.425781 232.648438 131.214844 L 232.648438 243.785156 C 232.648438 245.574219 231.9375 247.292969 230.671875 248.558594 C 229.40625 249.824219 227.6875 250.535156 225.898438 250.535156 L 149.101562 250.535156 C 145.375 250.535156 142.351562 247.511719 142.351562 243.785156 L 142.351562 131.214844 C 142.351562 127.488281 145.375 124.464844 149.101562 124.464844 Z M 149.101562 124.464844 " clip-rule="nonzero"/></clipPath><clipPath id="9cfec5eeb1"><path d="M 142.355469 124.464844 L 232.351562 124.464844 L 232.351562 250.464844 L 142.355469 250.464844 Z M 142.355469 124.464844 " clip-rule="nonzero"/></clipPath><clipPath id="3dc902baee"><path d="M 149.105469 124.464844 L 225.894531 124.464844 C 227.683594 124.464844 229.398438 125.175781 230.664062 126.441406 C 231.929688 127.707031 232.644531 129.425781 232.644531 131.214844 L 232.644531 243.773438 C 232.644531 245.566406 231.929688 247.28125 230.664062 248.546875 C 229.398438 249.8125 227.683594 250.523438 225.894531 250.523438 L 149.105469 250.523438 C 145.375 250.523438 142.355469 247.503906 142.355469 243.773438 L 142.355469 131.214844 C 142.355469 127.488281 145.375 124.464844 149.105469 124.464844 Z M 149.105469 124.464844 " clip-rule="nonzero"/></clipPath><clipPath id="401a3def8a"><path d="M 161.746094 158.757812 L 175.246094 158.757812 L 175.246094 174.507812 L 161.746094 174.507812 Z M 161.746094 158.757812 " clip-rule="nonzero"/></clipPath><clipPath id="db70d3fb3b"><path d="M 148.039062 142.886719 L 161.539062 142.886719 L 161.539062 158.636719 L 148.039062 158.636719 Z M 148.039062 142.886719 " clip-rule="nonzero"/></clipPath><clipPath id="7235d0f4dd"><path d="M 212.585938 216.863281 L 226.085938 216.863281 L 226.085938 232.613281 L 212.585938 232.613281 Z M 212.585938 216.863281 " clip-rule="nonzero"/></clipPath><clipPath id="d0a8e248ed"><path d="M 198.878906 201 L 212.378906 201 L 212.378906 216.746094 L 198.878906 216.746094 Z M 198.878906 201 " clip-rule="nonzero"/></clipPath><clipPath id="931a4bc27f"><path d="M 198.878906 158.757812 L 212.378906 158.757812 L 212.378906 174.507812 L 198.878906 174.507812 Z M 198.878906 158.757812 " clip-rule="nonzero"/></clipPath><clipPath id="59320f81c1"><path d="M 161.746094 201 L 175.246094 201 L 175.246094 216.746094 L 161.746094 216.746094 Z M 161.746094 201 " clip-rule="nonzero"/></clipPath><clipPath id="7baf0f21d1"><path d="M 180.644531 179.566406 L 194.144531 179.566406 L 194.144531 195.316406 L 180.644531 195.316406 Z M 180.644531 179.566406 " clip-rule="nonzero"/></clipPath></defs><g clip-path="url(#04b5361838)"><g clip-path="url(#d96fdca290)"><path fill="#ffffff" d="M 142.351562 124.464844 L 232.648438 124.464844 L 232.648438 250.535156 L 142.351562 250.535156 Z M 142.351562 124.464844 " fill-opacity="1" fill-rule="nonzero"/></g></g><g clip-path="url(#9cfec5eeb1)"><g clip-path="url(#3dc902baee)"><path stroke-linecap="butt" transform="matrix(0.75, 0, 0, 0.75, 142.354186, 124.465422)" fill="none" stroke-linejoin="miter" d="M 9.001712 -0.000771302 L 111.387135 -0.000771302 C 113.772552 -0.000771302 116.05901 0.947145 117.74651 2.634646 C 119.43401 4.322146 120.387136 6.613812 120.387136 8.999229 L 120.387136 159.077364 C 120.387136 161.467989 119.43401 163.754448 117.74651 165.441948 C 116.05901 167.129448 113.772552 168.077365 111.387135 168.077365 L 9.001712 168.077365 C 4.027753 168.077365 0.00171093 164.051323 0.00171093 159.077364 L 0.00171093 8.999229 C 0.00171093 4.030479 4.027753 -0.000771302 9.001712 -0.000771302 Z M 9.001712 -0.000771302 " stroke="#463f57" stroke-width="12" stroke-opacity="1" stroke-miterlimit="4"/></g></g><g clip-path="url(#401a3def8a)"><path fill="#463f57" d="M 168.59375 158.761719 C 166.722656 161.703125 164.453125 164.359375 161.746094 166.691406 C 164.445312 169.109375 166.699219 171.765625 168.59375 174.621094 C 170.46875 171.675781 172.738281 169.023438 175.445312 166.691406 C 172.746094 164.273438 170.488281 161.613281 168.59375 158.761719 " fill-opacity="1" fill-rule="nonzero"/></g><g fill="#000000" fill-opacity="1"><g transform="translate(151.055445, 140.78706)"><g><path d="M 2.25 -1.800781 C 2.25 -2.023438 2.132812 -2.125 1.898438 -2.125 L 0.53125 -2.125 C 0.289062 -2.125 0.179688 -2.023438 0.179688 -1.800781 L 0.179688 -1.195312 C 0.179688 -0.0273438 0.765625 0.566406 1.933594 0.566406 L 5.734375 0.566406 C 6.902344 0.566406 7.480469 -0.0273438 7.488281 -1.195312 L 7.488281 -2.824219 C 7.480469 -3.996094 6.902344 -4.589844 5.734375 -4.589844 L 2.429688 -4.589844 C 2.3125 -4.589844 2.25 -4.652344 2.25 -4.761719 L 2.25 -5.507812 C 2.25 -5.625 2.3125 -5.6875 2.429688 -5.6875 L 7.136719 -5.6875 C 7.371094 -5.6875 7.488281 -5.796875 7.488281 -6.011719 L 7.488281 -7.003906 C 7.488281 -7.226562 7.371094 -7.324219 7.136719 -7.324219 L 0.53125 -7.324219 C 0.289062 -7.324219 0.179688 -7.226562 0.179688 -7.003906 L 0.179688 -3.292969 C 0.179688 -3.058594 0.289062 -2.941406 0.53125 -2.941406 L 4.886719 -2.941406 C 5.238281 -2.941406 5.417969 -2.773438 5.417969 -2.421875 L 5.417969 -1.609375 C 5.417969 -1.261719 5.238281 -1.078125 4.886719 -1.078125 L 2.78125 -1.078125 C 2.429688 -1.078125 2.25 -1.261719 2.25 -1.609375 Z M 2.25 -1.800781 "/></g></g></g><g fill="#000000" fill-opacity="1"><g transform="translate(223.268135, 234.832602)"><g><path d="M -2.25 1.800781 C -2.25 2.023438 -2.132812 2.125 -1.898438 2.125 L -0.53125 2.125 C -0.289062 2.125 -0.179688 2.023438 -0.179688 1.800781 L -0.179688 1.195312 C -0.179688 0.0273438 -0.765625 -0.566406 -1.933594 -0.566406 L -5.734375 -0.566406 C -6.902344 -0.566406 -7.480469 0.0273438 -7.488281 1.195312 L -7.488281 2.824219 C -7.480469 3.996094 -6.902344 4.589844 -5.734375 4.589844 L -2.429688 4.589844 C -2.3125 4.589844 -2.25 4.652344 -2.25 4.761719 L -2.25 5.507812 C -2.25 5.625 -2.3125 5.6875 -2.429688 5.6875 L -7.136719 5.6875 C -7.371094 5.6875 -7.488281 5.796875 -7.488281 6.011719 L -7.488281 7.003906 C -7.488281 7.226562 -7.371094 7.324219 -7.136719 7.324219 L -0.53125 7.324219 C -0.289062 7.324219 -0.179688 7.226562 -0.179688 7.003906 L -0.179688 3.292969 C -0.179688 3.058594 -0.289062 2.941406 -0.53125 2.941406 L -4.886719 2.941406 C -5.238281 2.941406 -5.417969 2.773438 -5.417969 2.421875 L -5.417969 1.609375 C -5.417969 1.261719 -5.238281 1.078125 -4.886719 1.078125 L -2.78125 1.078125 C -2.429688 1.078125 -2.25 1.261719 -2.25 1.609375 Z M -2.25 1.800781 "/></g></g></g><g clip-path="url(#db70d3fb3b)"><path fill="#463f57" d="M 154.886719 142.890625 C 153.015625 145.832031 150.746094 148.488281 148.039062 150.820312 C 150.738281 153.238281 152.992188 155.894531 154.886719 158.75 C 156.761719 155.808594 159.03125 153.152344 161.738281 150.820312 C 159.035156 148.402344 156.78125 145.746094 154.886719 142.890625 " fill-opacity="1" fill-rule="nonzero"/></g><g clip-path="url(#7235d0f4dd)"><path fill="#463f57" d="M 219.433594 216.867188 C 217.558594 219.8125 215.289062 222.464844 212.582031 224.796875 C 215.285156 227.214844 217.539062 229.875 219.433594 232.726562 C 221.304688 229.785156 223.574219 227.128906 226.28125 224.796875 C 223.582031 222.378906 221.328125 219.722656 219.433594 216.867188 " fill-opacity="1" fill-rule="nonzero"/></g><g clip-path="url(#d0a8e248ed)"><path fill="#463f57" d="M 205.726562 201 C 203.851562 203.941406 201.582031 206.59375 198.875 208.929688 C 201.574219 211.34375 203.832031 214.003906 205.726562 216.859375 C 207.597656 213.914062 209.867188 211.261719 212.574219 208.929688 C 209.875 206.511719 207.621094 203.851562 205.726562 201 " fill-opacity="1" fill-rule="nonzero"/></g><g clip-path="url(#931a4bc27f)"><path fill="#463f57" d="M 205.726562 158.761719 C 203.851562 161.703125 201.582031 164.359375 198.875 166.691406 C 201.574219 169.109375 203.832031 171.765625 205.726562 174.621094 C 207.597656 171.675781 209.867188 169.023438 212.574219 166.691406 C 209.875 164.273438 207.621094 161.613281 205.726562 158.761719 " fill-opacity="1" fill-rule="nonzero"/></g><g clip-path="url(#59320f81c1)"><path fill="#463f57" d="M 168.59375 201 C 166.722656 203.941406 164.453125 206.59375 161.746094 208.929688 C 164.445312 211.34375 166.699219 214.003906 168.59375 216.859375 C 170.46875 213.914062 172.738281 211.261719 175.445312 208.929688 C 172.746094 206.511719 170.488281 203.851562 168.59375 201 " fill-opacity="1" fill-rule="nonzero"/></g><g clip-path="url(#7baf0f21d1)"><path fill="#5271ff" d="M 187.496094 179.570312 C 185.621094 182.511719 183.351562 185.167969 180.644531 187.5 C 183.34375 189.914062 185.601562 192.574219 187.496094 195.429688 C 189.367188 192.484375 191.636719 189.832031 194.34375 187.5 C 191.644531 185.082031 189.386719 182.421875 187.496094 179.570312 " fill-opacity="1" fill-rule="nonzero"/></g></svg>