<svg xmlns="http://www.w3.org/2000/svg" xmlns:xlink="http://www.w3.org/1999/xlink" width="500" zoomAndPan="magnify" viewBox="0 0 375 374.999991" height="500" preserveAspectRatio="xMidYMid meet" version="1.0"><defs><g/><clipPath id="237c0910b3"><path d="M 142.351562 124.464844 L 232.648438 124.464844 L 232.648438 250.535156 L 142.351562 250.535156 Z M 142.351562 124.464844 " clip-rule="nonzero"/></clipPath><clipPath id="690e904907"><path d="M 149.101562 124.464844 L 225.898438 124.464844 C 227.6875 124.464844 229.40625 125.175781 230.671875 126.441406 C 231.9375 127.707031 232.648438 129.425781 232.648438 131.214844 L 232.648438 243.785156 C 232.648438 245.574219 231.9375 247.292969 230.671875 248.558594 C 229.40625 249.824219 227.6875 250.535156 225.898438 250.535156 L 149.101562 250.535156 C 145.375 250.535156 142.351562 247.511719 142.351562 243.785156 L 142.351562 131.214844 C 142.351562 127.488281 145.375 124.464844 149.101562 124.464844 Z M 149.101562 124.464844 " clip-rule="nonzero"/></clipPath><clipPath id="4555633386"><path d="M 142.355469 124.464844 L 232.351562 124.464844 L 232.351562 250.464844 L 142.355469 250.464844 Z M 142.355469 124.464844 " clip-rule="nonzero"/></clipPath><clipPath id="a82ae6c1c6"><path d="M 149.105469 124.464844 L 225.894531 124.464844 C 227.683594 124.464844 229.398438 125.175781 230.664062 126.441406 C 231.929688 127.707031 232.644531 129.425781 232.644531 131.214844 L 232.644531 243.773438 C 232.644531 245.566406 231.929688 247.28125 230.664062 248.546875 C 229.398438 249.8125 227.683594 250.523438 225.894531 250.523438 L 149.105469 250.523438 C 145.375 250.523438 142.355469 247.503906 142.355469 243.773438 L 142.355469 131.214844 C 142.355469 127.488281 145.375 124.464844 149.105469 124.464844 Z M 149.105469 124.464844 " clip-rule="nonzero"/></clipPath><clipPath id="5d57039687"><path d="M 184 165.296875 L 191 165.296875 L 191 173 L 184 173 Z M 184 165.296875 " clip-rule="nonzero"/></clipPath><clipPath id="e903410616"><path d="M 152.566406 178 L 160 178 L 160 185 L 152.566406 185 Z M 152.566406 178 " clip-rule="nonzero"/></clipPath><clipPath id="cdf22b50a7"><path d="M 215 178 L 222.316406 178 L 222.316406 185 L 215 185 Z M 215 178 " clip-rule="nonzero"/></clipPath><clipPath id="84df3a7b1a"><path d="M 165 202 L 210 202 L 210 209.546875 L 165 209.546875 Z M 165 202 " clip-rule="nonzero"/></clipPath><clipPath id="67449fe04e"><path d="M 148.039062 142.886719 L 161.539062 142.886719 L 161.539062 158.636719 L 148.039062 158.636719 Z M 148.039062 142.886719 " clip-rule="nonzero"/></clipPath><clipPath id="d0804dd58b"><path d="M 212.585938 216.863281 L 226.085938 216.863281 L 226.085938 232.613281 L 212.585938 232.613281 Z M 212.585938 216.863281 " clip-rule="nonzero"/></clipPath></defs><g clip-path="url(#237c0910b3)"><g clip-path="url(#690e904907)"><path fill="#ffffff" d="M 142.351562 124.464844 L 232.648438 124.464844 L 232.648438 250.535156 L 142.351562 250.535156 Z M 142.351562 124.464844 " fill-opacity="1" fill-rule="nonzero"/></g></g><g clip-path="url(#4555633386)"><g clip-path="url(#a82ae6c1c6)"><path stroke-linecap="butt" transform="matrix(0.75, 0, 0, 0.75, 142.354186, 124.46548)" fill="none" stroke-linejoin="miter" d="M 9.001712 -0.000848102 L 111.387135 -0.000848102 C 113.772552 -0.000848102 116.05901 0.947069 117.74651 2.634569 C 119.43401 4.322069 120.387136 6.613736 120.387136 8.999152 L 120.387136 159.077287 C 120.387136 161.467913 119.43401 163.754371 117.74651 165.441871 C 116.05901 167.129371 113.772552 168.077288 111.387135 168.077288 L 9.001712 168.077288 C 4.027753 168.077288 0.00171093 164.051246 0.00171093 159.077287 L 0.00171093 8.999152 C 0.00171093 4.030402 4.027753 -0.000848102 9.001712 -0.000848102 Z M 9.001712 -0.000848102 " stroke="#463f57" stroke-width="12" stroke-opacity="1" stroke-miterlimit="4"/></g></g><g clip-path="url(#5d57039687)"><path fill="#463f57" d="M 190.886719 168.660156 C 190.886719 169.105469 190.800781 169.535156 190.632812 169.949219 C 190.460938 170.359375 190.21875 170.722656 189.902344 171.039062 C 189.585938 171.355469 189.222656 171.597656 188.8125 171.769531 C 188.398438 171.941406 187.96875 172.023438 187.523438 172.023438 C 187.078125 172.023438 186.648438 171.941406 186.234375 171.769531 C 185.824219 171.597656 185.460938 171.355469 185.144531 171.039062 C 184.828125 170.722656 184.585938 170.359375 184.414062 169.949219 C 184.246094 169.535156 184.160156 169.105469 184.160156 168.660156 C 184.160156 168.214844 184.246094 167.785156 184.414062 167.375 C 184.585938 166.960938 184.828125 166.597656 185.144531 166.28125 C 185.460938 165.964844 185.824219 165.722656 186.234375 165.554688 C 186.648438 165.382812 187.078125 165.296875 187.523438 165.296875 C 187.96875 165.296875 188.398438 165.382812 188.8125 165.554688 C 189.222656 165.722656 189.585938 165.964844 189.902344 166.28125 C 190.21875 166.597656 190.460938 166.960938 190.632812 167.375 C 190.800781 167.785156 190.886719 168.214844 190.886719 168.660156 Z M 190.886719 168.660156 " fill-opacity="1" fill-rule="nonzero"/></g><path fill="#463f57" d="M 173.929688 173.890625 C 173.929688 174.335938 173.84375 174.761719 173.671875 175.171875 C 173.503906 175.582031 173.261719 175.941406 172.949219 176.253906 C 172.636719 176.566406 172.273438 176.808594 171.867188 176.980469 C 171.457031 177.148438 171.03125 177.234375 170.585938 177.234375 C 170.144531 177.234375 169.71875 177.148438 169.308594 176.980469 C 168.898438 176.808594 168.539062 176.566406 168.222656 176.253906 C 167.910156 175.941406 167.667969 175.582031 167.5 175.171875 C 167.332031 174.761719 167.246094 174.335938 167.246094 173.890625 C 167.246094 173.449219 167.332031 173.023438 167.5 172.613281 C 167.667969 172.203125 167.910156 171.84375 168.222656 171.53125 C 168.539062 171.214844 168.898438 170.976562 169.308594 170.804688 C 169.71875 170.636719 170.144531 170.550781 170.585938 170.550781 C 171.03125 170.550781 171.457031 170.636719 171.867188 170.804688 C 172.273438 170.976562 172.636719 171.214844 172.949219 171.53125 C 173.261719 171.84375 173.503906 172.203125 173.671875 172.613281 C 173.84375 173.023438 173.929688 173.449219 173.929688 173.890625 Z M 173.929688 173.890625 " fill-opacity="1" fill-rule="nonzero"/><path fill="#463f57" d="M 207.523438 173.890625 C 207.523438 174.332031 207.4375 174.761719 207.269531 175.167969 C 207.097656 175.578125 206.859375 175.941406 206.542969 176.253906 C 206.230469 176.566406 205.871094 176.808594 205.460938 176.976562 C 205.050781 177.148438 204.625 177.234375 204.179688 177.234375 C 203.738281 177.234375 203.3125 177.148438 202.902344 176.976562 C 202.492188 176.808594 202.132812 176.566406 201.820312 176.253906 C 201.503906 175.941406 201.261719 175.578125 201.09375 175.167969 C 200.925781 174.761719 200.839844 174.332031 200.839844 173.890625 C 200.839844 173.449219 200.925781 173.019531 201.09375 172.613281 C 201.261719 172.203125 201.503906 171.839844 201.820312 171.527344 C 202.132812 171.214844 202.492188 170.972656 202.902344 170.804688 C 203.3125 170.632812 203.738281 170.546875 204.179688 170.546875 C 204.625 170.546875 205.050781 170.632812 205.460938 170.804688 C 205.871094 170.972656 206.230469 171.214844 206.542969 171.527344 C 206.859375 171.839844 207.097656 172.203125 207.269531 172.613281 C 207.4375 173.019531 207.523438 173.449219 207.523438 173.890625 Z M 207.523438 173.890625 " fill-opacity="1" fill-rule="nonzero"/><path fill="#463f57" d="M 190.542969 200.734375 C 188.753906 200.640625 186.941406 200.695312 185.148438 200.710938 C 184.726562 200.714844 184.34375 200.722656 183.890625 200.757812 C 183.183594 200.8125 182.40625 200.816406 181.769531 200.863281 C 180.828125 200.933594 179.886719 201.011719 178.945312 201.09375 C 176.609375 201.300781 174.089844 201.660156 171.386719 202.179688 C 169.296875 202.582031 167.273438 203.132812 165.21875 203.699219 C 165.179688 203.710938 165.148438 203.699219 165.128906 203.660156 C 164.78125 202.925781 164.449219 202.1875 164.136719 201.441406 C 161.367188 194.847656 159.324219 190.003906 158.007812 186.910156 C 157.886719 186.625 157.734375 186.339844 157.75 186.054688 C 157.789062 185.359375 158.527344 185.355469 159.03125 185.636719 C 159.613281 185.964844 160.191406 186.304688 160.757812 186.65625 C 162.925781 188 165.085938 189.347656 167.25 190.699219 C 167.582031 190.90625 168.769531 191.726562 169.101562 191.695312 C 169.515625 191.652344 169.597656 191.285156 169.648438 190.890625 C 170.097656 187.441406 170.566406 183.992188 171.050781 180.546875 C 171.167969 179.742188 171.09375 177.667969 172.585938 178.84375 C 172.917969 179.105469 173.351562 179.539062 173.722656 179.855469 C 176.074219 181.871094 178.421875 183.890625 180.761719 185.914062 C 181.277344 186.359375 181.519531 186.105469 181.753906 185.574219 C 183.46875 181.734375 185.1875 177.894531 186.90625 174.054688 C 187.023438 173.796875 187.164062 173.375 187.433594 173.300781 C 187.683594 173.234375 187.8125 173.40625 187.90625 173.621094 C 189.695312 177.667969 191.476562 181.71875 193.253906 185.773438 C 193.460938 186.25 193.960938 186.214844 194.304688 185.914062 C 197.058594 183.503906 199.8125 181.097656 202.574219 178.695312 C 203.085938 178.246094 203.613281 178.554688 203.691406 179.160156 C 204.160156 182.828125 204.636719 186.496094 205.113281 190.160156 C 205.171875 190.613281 205.136719 191.625 205.722656 191.722656 C 205.941406 191.761719 206.339844 191.488281 206.546875 191.363281 C 210.074219 189.199219 213.082031 187.34375 215.570312 185.789062 C 215.878906 185.59375 216.238281 185.40625 216.597656 185.453125 C 216.988281 185.503906 217.320312 185.835938 217.140625 186.265625 C 214.730469 191.996094 212.296875 197.71875 209.835938 203.425781 C 209.800781 203.507812 209.761719 203.585938 209.71875 203.664062 C 209.707031 203.6875 209.6875 203.699219 209.660156 203.695312 C 209.496094 203.675781 209.359375 203.652344 209.253906 203.621094 C 204.957031 202.347656 200.554688 201.511719 196.050781 201.113281 C 194.566406 200.984375 193.277344 200.867188 191.871094 200.800781 C 191.429688 200.78125 190.984375 200.757812 190.542969 200.734375 Z M 190.542969 200.734375 " fill-opacity="1" fill-rule="nonzero"/><g clip-path="url(#e903410616)"><path fill="#463f57" d="M 159.261719 181.59375 C 159.261719 182.039062 159.175781 182.464844 159.007812 182.875 C 158.835938 183.285156 158.59375 183.648438 158.28125 183.960938 C 157.96875 184.277344 157.605469 184.519531 157.195312 184.6875 C 156.785156 184.859375 156.355469 184.941406 155.914062 184.941406 C 155.46875 184.941406 155.039062 184.859375 154.628906 184.6875 C 154.21875 184.519531 153.859375 184.277344 153.542969 183.960938 C 153.230469 183.648438 152.988281 183.285156 152.816406 182.875 C 152.648438 182.464844 152.5625 182.039062 152.5625 181.59375 C 152.5625 181.148438 152.648438 180.722656 152.816406 180.3125 C 152.988281 179.902344 153.230469 179.539062 153.542969 179.222656 C 153.859375 178.910156 154.21875 178.667969 154.628906 178.496094 C 155.039062 178.328125 155.46875 178.242188 155.914062 178.242188 C 156.355469 178.242188 156.785156 178.328125 157.195312 178.496094 C 157.605469 178.667969 157.96875 178.910156 158.28125 179.222656 C 158.59375 179.539062 158.835938 179.902344 159.007812 180.3125 C 159.175781 180.722656 159.261719 181.148438 159.261719 181.59375 Z M 159.261719 181.59375 " fill-opacity="1" fill-rule="nonzero"/></g><g clip-path="url(#cdf22b50a7)"><path fill="#463f57" d="M 222.429688 181.601562 C 222.429688 182.046875 222.347656 182.476562 222.175781 182.886719 C 222.003906 183.296875 221.761719 183.660156 221.449219 183.976562 C 221.132812 184.289062 220.769531 184.53125 220.359375 184.703125 C 219.949219 184.871094 219.519531 184.957031 219.074219 184.957031 C 218.628906 184.957031 218.203125 184.871094 217.789062 184.703125 C 217.378906 184.53125 217.015625 184.289062 216.703125 183.976562 C 216.386719 183.660156 216.144531 183.296875 215.972656 182.886719 C 215.804688 182.476562 215.71875 182.046875 215.71875 181.601562 C 215.71875 181.15625 215.804688 180.730469 215.972656 180.316406 C 216.144531 179.90625 216.386719 179.542969 216.703125 179.230469 C 217.015625 178.914062 217.378906 178.671875 217.789062 178.5 C 218.203125 178.332031 218.628906 178.246094 219.074219 178.246094 C 219.519531 178.246094 219.949219 178.332031 220.359375 178.5 C 220.769531 178.671875 221.132812 178.914062 221.449219 179.230469 C 221.761719 179.542969 222.003906 179.90625 222.175781 180.316406 C 222.347656 180.730469 222.429688 181.15625 222.429688 181.601562 Z M 222.429688 181.601562 " fill-opacity="1" fill-rule="nonzero"/></g><g clip-path="url(#84df3a7b1a)"><path fill="#463f57" d="M 188.328125 206.5625 C 181.726562 206.449219 175.042969 207.167969 168.621094 208.695312 C 167.445312 208.972656 166.304688 209.316406 165.164062 209.6875 C 165.128906 209.699219 165.113281 209.6875 165.113281 209.652344 L 165.109375 205.753906 C 165.109375 205.726562 165.121094 205.707031 165.148438 205.699219 C 165.566406 205.539062 165.988281 205.394531 166.417969 205.273438 C 170.414062 204.125 174.488281 203.375 178.621094 202.964844 C 183.410156 202.488281 188.171875 202.355469 192.976562 202.671875 C 198.71875 203.046875 204.277344 203.914062 209.667969 205.667969 C 209.730469 205.6875 209.761719 205.730469 209.761719 205.792969 L 209.75 209.558594 C 209.75 209.597656 209.734375 209.628906 209.703125 209.652344 C 209.671875 209.675781 209.636719 209.683594 209.601562 209.671875 C 205.425781 208.390625 201.207031 207.53125 196.941406 207.09375 C 196.476562 207.046875 196.015625 206.976562 195.453125 206.949219 C 195.230469 206.9375 194.960938 206.839844 194.683594 206.839844 C 194.121094 206.835938 193.519531 206.738281 193.011719 206.71875 C 192.390625 206.695312 191.765625 206.667969 191.140625 206.625 C 190.207031 206.566406 189.304688 206.582031 188.328125 206.5625 Z M 188.328125 206.5625 " fill-opacity="1" fill-rule="nonzero"/></g><g fill="#000000" fill-opacity="1"><g transform="translate(151.067162, 140.786943)"><g><path d="M 2.664062 -6.550781 C 2.65625 -6.832031 2.59375 -7.027344 2.476562 -7.144531 C 2.359375 -7.261719 2.132812 -7.316406 1.808594 -7.308594 L 0.925781 -7.308594 C 0.648438 -7.300781 0.460938 -7.246094 0.34375 -7.136719 C 0.226562 -7.019531 0.171875 -6.832031 0.179688 -6.550781 L 0.179688 0.0195312 C 0.1875 0.253906 0.242188 0.441406 0.367188 0.558594 C 0.484375 0.664062 0.683594 0.71875 0.953125 0.710938 L 1.917969 0.710938 C 2.1875 0.703125 2.394531 0.648438 2.503906 0.550781 C 2.617188 0.433594 2.671875 0.253906 2.664062 0.0195312 L 2.664062 -2.113281 L 4.660156 0.511719 C 4.769531 0.65625 4.96875 0.71875 5.238281 0.710938 L 7.046875 0.710938 C 7.253906 0.71875 7.371094 0.683594 7.425781 0.601562 C 7.46875 0.53125 7.441406 0.414062 7.324219 0.269531 L 4.652344 -3.292969 L 7.324219 -6.867188 C 7.441406 -7.003906 7.46875 -7.117188 7.425781 -7.199219 C 7.371094 -7.28125 7.253906 -7.316406 7.046875 -7.308594 L 5.238281 -7.308594 C 4.96875 -7.316406 4.769531 -7.253906 4.660156 -7.101562 L 2.664062 -4.472656 Z M 2.664062 -6.550781 "/></g></g></g><g fill="#000000" fill-opacity="1"><g transform="translate(223.265893, 234.837407)"><g><path d="M -2.664062 6.550781 C -2.65625 6.832031 -2.59375 7.027344 -2.476562 7.144531 C -2.359375 7.261719 -2.132812 7.316406 -1.808594 7.308594 L -0.925781 7.308594 C -0.648438 7.300781 -0.460938 7.246094 -0.34375 7.136719 C -0.226562 7.019531 -0.171875 6.832031 -0.179688 6.550781 L -0.179688 -0.0195312 C -0.1875 -0.253906 -0.242188 -0.441406 -0.367188 -0.558594 C -0.484375 -0.664062 -0.683594 -0.71875 -0.953125 -0.710938 L -1.917969 -0.710938 C -2.1875 -0.703125 -2.394531 -0.648438 -2.503906 -0.550781 C -2.617188 -0.433594 -2.671875 -0.253906 -2.664062 -0.0195312 L -2.664062 2.113281 L -4.660156 -0.511719 C -4.769531 -0.65625 -4.96875 -0.71875 -5.238281 -0.710938 L -7.046875 -0.710938 C -7.253906 -0.71875 -7.371094 -0.683594 -7.425781 -0.601562 C -7.46875 -0.53125 -7.441406 -0.414062 -7.324219 -0.269531 L -4.652344 3.292969 L -7.324219 6.867188 C -7.441406 7.003906 -7.46875 7.117188 -7.425781 7.199219 C -7.371094 7.28125 -7.253906 7.316406 -7.046875 7.308594 L -5.238281 7.308594 C -4.96875 7.316406 -4.769531 7.253906 -4.660156 7.101562 L -2.664062 4.472656 Z M -2.664062 6.550781 "/></g></g></g><g clip-path="url(#67449fe04e)"><path fill="#463f57" d="M 154.886719 142.890625 C 153.015625 145.832031 150.746094 148.488281 148.039062 150.820312 C 150.738281 153.238281 152.992188 155.894531 154.886719 158.75 C 156.761719 155.808594 159.03125 153.152344 161.738281 150.820312 C 159.035156 148.402344 156.78125 145.746094 154.886719 142.890625 " fill-opacity="1" fill-rule="nonzero"/></g><g clip-path="url(#d0804dd58b)"><path fill="#463f57" d="M 219.433594 216.867188 C 217.558594 219.8125 215.289062 222.464844 212.582031 224.796875 C 215.285156 227.214844 217.539062 229.875 219.433594 232.726562 C 221.304688 229.785156 223.574219 227.128906 226.28125 224.796875 C 223.582031 222.378906 221.328125 219.722656 219.433594 216.867188 " fill-opacity="1" fill-rule="nonzero"/></g></svg>