<svg xmlns="http://www.w3.org/2000/svg" xmlns:xlink="http://www.w3.org/1999/xlink" width="500" zoomAndPan="magnify" viewBox="0 0 375 374.999991" height="500" preserveAspectRatio="xMidYMid meet" version="1.0"><defs><g/><clipPath id="96001af4b5"><path d="M 142.351562 124.464844 L 232.648438 124.464844 L 232.648438 250.535156 L 142.351562 250.535156 Z M 142.351562 124.464844 " clip-rule="nonzero"/></clipPath><clipPath id="6e9fe248e2"><path d="M 149.101562 124.464844 L 225.898438 124.464844 C 227.6875 124.464844 229.40625 125.175781 230.671875 126.441406 C 231.9375 127.707031 232.648438 129.425781 232.648438 131.214844 L 232.648438 243.785156 C 232.648438 245.574219 231.9375 247.292969 230.671875 248.558594 C 229.40625 249.824219 227.6875 250.535156 225.898438 250.535156 L 149.101562 250.535156 C 145.375 250.535156 142.351562 247.511719 142.351562 243.785156 L 142.351562 131.214844 C 142.351562 127.488281 145.375 124.464844 149.101562 124.464844 Z M 149.101562 124.464844 " clip-rule="nonzero"/></clipPath><clipPath id="c23e47db88"><path d="M 142.355469 124.464844 L 232.351562 124.464844 L 232.351562 250.464844 L 142.355469 250.464844 Z M 142.355469 124.464844 " clip-rule="nonzero"/></clipPath><clipPath id="5b9c8c2813"><path d="M 149.105469 124.464844 L 225.894531 124.464844 C 227.683594 124.464844 229.398438 125.175781 230.664062 126.441406 C 231.929688 127.707031 232.644531 129.425781 232.644531 131.214844 L 232.644531 243.773438 C 232.644531 245.566406 231.929688 247.28125 230.664062 248.546875 C 229.398438 249.8125 227.683594 250.523438 225.894531 250.523438 L 149.105469 250.523438 C 145.375 250.523438 142.355469 247.503906 142.355469 243.773438 L 142.355469 131.214844 C 142.355469 127.488281 145.375 124.464844 149.105469 124.464844 Z M 149.105469 124.464844 " clip-rule="nonzero"/></clipPath><clipPath id="96e57cd195"><path d="M 161.746094 158.757812 L 175.246094 158.757812 L 175.246094 174.507812 L 161.746094 174.507812 Z M 161.746094 158.757812 " clip-rule="nonzero"/></clipPath><clipPath id="95b88e9587"><path d="M 148.039062 142.886719 L 161.539062 142.886719 L 161.539062 158.636719 L 148.039062 158.636719 Z M 148.039062 142.886719 " clip-rule="nonzero"/></clipPath><clipPath id="77ed69623e"><path d="M 212.585938 216.863281 L 226.085938 216.863281 L 226.085938 232.613281 L 212.585938 232.613281 Z M 212.585938 216.863281 " clip-rule="nonzero"/></clipPath><clipPath id="f54fbc2a41"><path d="M 198.878906 201 L 212.378906 201 L 212.378906 216.746094 L 198.878906 216.746094 Z M 198.878906 201 " clip-rule="nonzero"/></clipPath><clipPath id="45f6fda2c8"><path d="M 198.878906 158.757812 L 212.378906 158.757812 L 212.378906 174.507812 L 198.878906 174.507812 Z M 198.878906 158.757812 " clip-rule="nonzero"/></clipPath><clipPath id="bf04e0f3bd"><path d="M 161.746094 201 L 175.246094 201 L 175.246094 216.746094 L 161.746094 216.746094 Z M 161.746094 201 " clip-rule="nonzero"/></clipPath><clipPath id="bd1c60cb19"><path d="M 161.746094 179.875 L 175.246094 179.875 L 175.246094 195.625 L 161.746094 195.625 Z M 161.746094 179.875 " clip-rule="nonzero"/></clipPath><clipPath id="f4fee937e0"><path d="M 198.878906 179.875 L 212.378906 179.875 L 212.378906 195.625 L 198.878906 195.625 Z M 198.878906 179.875 " clip-rule="nonzero"/></clipPath></defs><g clip-path="url(#96001af4b5)"><g clip-path="url(#6e9fe248e2)"><path fill="#ffffff" d="M 142.351562 124.464844 L 232.648438 124.464844 L 232.648438 250.535156 L 142.351562 250.535156 Z M 142.351562 124.464844 " fill-opacity="1" fill-rule="nonzero"/></g></g><g clip-path="url(#c23e47db88)"><g clip-path="url(#5b9c8c2813)"><path stroke-linecap="butt" transform="matrix(0.75, 0, 0, 0.75, 142.354186, 124.465451)" fill="none" stroke-linejoin="miter" d="M 9.001712 -0.000809702 L 111.387135 -0.000809702 C 113.772552 -0.000809702 116.05901 0.947107 117.74651 2.634607 C 119.43401 4.322107 120.387136 6.613774 120.387136 8.999191 L 120.387136 159.077326 C 120.387136 161.467951 119.43401 163.754409 117.74651 165.441909 C 116.05901 167.12941 113.772552 168.077326 111.387135 168.077326 L 9.001712 168.077326 C 4.027753 168.077326 0.00171093 164.051284 0.00171093 159.077326 L 0.00171093 8.999191 C 0.00171093 4.030441 4.027753 -0.000809702 9.001712 -0.000809702 Z M 9.001712 -0.000809702 " stroke="#463f57" stroke-width="12" stroke-opacity="1" stroke-miterlimit="4"/></g></g><g clip-path="url(#96e57cd195)"><path fill="#463f57" d="M 168.59375 158.761719 C 166.722656 161.703125 164.453125 164.359375 161.746094 166.691406 C 164.445312 169.109375 166.699219 171.765625 168.59375 174.621094 C 170.46875 171.675781 172.738281 169.023438 175.445312 166.691406 C 172.746094 164.273438 170.488281 161.613281 168.59375 158.761719 " fill-opacity="1" fill-rule="nonzero"/></g><g fill="#000000" fill-opacity="1"><g transform="translate(151.055445, 140.786928)"><g><path d="M 2.25 -1.609375 L 2.25 -2.0625 C 2.25 -2.421875 2.429688 -2.59375 2.78125 -2.59375 L 4.886719 -2.59375 C 5.238281 -2.59375 5.417969 -2.421875 5.417969 -2.0625 L 5.417969 -1.609375 C 5.417969 -1.261719 5.238281 -1.078125 4.886719 -1.078125 L 2.78125 -1.078125 C 2.429688 -1.078125 2.25 -1.261719 2.25 -1.609375 Z M 0.179688 -5.570312 L 0.179688 -1.195312 C 0.179688 -0.0273438 0.765625 0.566406 1.933594 0.566406 L 5.734375 0.566406 C 6.902344 0.566406 7.480469 -0.0273438 7.488281 -1.195312 L 7.488281 -2.476562 C 7.480469 -3.644531 6.902344 -4.238281 5.734375 -4.238281 L 2.429688 -4.238281 C 2.3125 -4.238281 2.25 -4.300781 2.25 -4.410156 L 2.25 -5.15625 C 2.25 -5.507812 2.429688 -5.6875 2.78125 -5.6875 L 4.886719 -5.6875 C 5.238281 -5.6875 5.417969 -5.507812 5.417969 -5.15625 L 5.417969 -5.140625 C 5.417969 -4.921875 5.527344 -4.816406 5.769531 -4.816406 L 7.136719 -4.816406 C 7.371094 -4.816406 7.488281 -4.921875 7.488281 -5.140625 L 7.488281 -5.570312 C 7.480469 -6.742188 6.902344 -7.324219 5.734375 -7.324219 L 1.933594 -7.324219 C 0.765625 -7.324219 0.179688 -6.742188 0.179688 -5.570312 Z M 0.179688 -5.570312 "/></g></g></g><g fill="#000000" fill-opacity="1"><g transform="translate(223.268135, 234.832573)"><g><path d="M -2.25 1.609375 L -2.25 2.0625 C -2.25 2.421875 -2.429688 2.59375 -2.78125 2.59375 L -4.886719 2.59375 C -5.238281 2.59375 -5.417969 2.421875 -5.417969 2.0625 L -5.417969 1.609375 C -5.417969 1.261719 -5.238281 1.078125 -4.886719 1.078125 L -2.78125 1.078125 C -2.429688 1.078125 -2.25 1.261719 -2.25 1.609375 Z M -0.179688 5.570312 L -0.179688 1.195312 C -0.179688 0.0273438 -0.765625 -0.566406 -1.933594 -0.566406 L -5.734375 -0.566406 C -6.902344 -0.566406 -7.480469 0.0273438 -7.488281 1.195312 L -7.488281 2.476562 C -7.480469 3.644531 -6.902344 4.238281 -5.734375 4.238281 L -2.429688 4.238281 C -2.3125 4.238281 -2.25 4.300781 -2.25 4.410156 L -2.25 5.15625 C -2.25 5.507812 -2.429688 5.6875 -2.78125 5.6875 L -4.886719 5.6875 C -5.238281 5.6875 -5.417969 5.507812 -5.417969 5.15625 L -5.417969 5.140625 C -5.417969 4.921875 -5.527344 4.816406 -5.769531 4.816406 L -7.136719 4.816406 C -7.371094 4.816406 -7.488281 4.921875 -7.488281 5.140625 L -7.488281 5.570312 C -7.480469 6.742188 -6.902344 7.324219 -5.734375 7.324219 L -1.933594 7.324219 C -0.765625 7.324219 -0.179688 6.742188 -0.179688 5.570312 Z M -0.179688 5.570312 "/></g></g></g><g clip-path="url(#95b88e9587)"><path fill="#463f57" d="M 154.886719 142.890625 C 153.015625 145.832031 150.746094 148.488281 148.039062 150.820312 C 150.738281 153.238281 152.992188 155.894531 154.886719 158.75 C 156.761719 155.808594 159.03125 153.152344 161.738281 150.820312 C 159.035156 148.402344 156.78125 145.746094 154.886719 142.890625 " fill-opacity="1" fill-rule="nonzero"/></g><g clip-path="url(#77ed69623e)"><path fill="#463f57" d="M 219.433594 216.867188 C 217.558594 219.8125 215.289062 222.464844 212.582031 224.796875 C 215.285156 227.214844 217.539062 229.875 219.433594 232.726562 C 221.304688 229.785156 223.574219 227.128906 226.28125 224.796875 C 223.582031 222.378906 221.328125 219.722656 219.433594 216.867188 " fill-opacity="1" fill-rule="nonzero"/></g><g clip-path="url(#f54fbc2a41)"><path fill="#463f57" d="M 205.726562 201 C 203.851562 203.941406 201.582031 206.59375 198.875 208.929688 C 201.574219 211.34375 203.832031 214.003906 205.726562 216.859375 C 207.597656 213.914062 209.867188 211.261719 212.574219 208.929688 C 209.875 206.511719 207.621094 203.851562 205.726562 201 " fill-opacity="1" fill-rule="nonzero"/></g><g clip-path="url(#45f6fda2c8)"><path fill="#463f57" d="M 205.726562 158.761719 C 203.851562 161.703125 201.582031 164.359375 198.875 166.691406 C 201.574219 169.109375 203.832031 171.765625 205.726562 174.621094 C 207.597656 171.675781 209.867188 169.023438 212.574219 166.691406 C 209.875 164.273438 207.621094 161.613281 205.726562 158.761719 " fill-opacity="1" fill-rule="nonzero"/></g><g clip-path="url(#bf04e0f3bd)"><path fill="#463f57" d="M 168.59375 201 C 166.722656 203.941406 164.453125 206.59375 161.746094 208.929688 C 164.445312 211.34375 166.699219 214.003906 168.59375 216.859375 C 170.46875 213.914062 172.738281 211.261719 175.445312 208.929688 C 172.746094 206.511719 170.488281 203.851562 168.59375 201 " fill-opacity="1" fill-rule="nonzero"/></g><g clip-path="url(#bd1c60cb19)"><path fill="#463f57" d="M 168.59375 179.878906 C 166.722656 182.824219 164.453125 185.476562 161.746094 187.808594 C 164.445312 190.226562 166.699219 192.882812 168.59375 195.738281 C 170.46875 192.796875 172.738281 190.140625 175.445312 187.808594 C 172.746094 185.390625 170.488281 182.734375 168.59375 179.878906 " fill-opacity="1" fill-rule="nonzero"/></g><g clip-path="url(#f4fee937e0)"><path fill="#463f57" d="M 205.726562 179.878906 C 203.851562 182.824219 201.582031 185.476562 198.875 187.808594 C 201.574219 190.226562 203.832031 192.882812 205.726562 195.738281 C 207.597656 192.796875 209.867188 190.140625 212.574219 187.808594 C 209.875 185.390625 207.621094 182.734375 205.726562 179.878906 " fill-opacity="1" fill-rule="nonzero"/></g></svg>