<svg xmlns="http://www.w3.org/2000/svg" xmlns:xlink="http://www.w3.org/1999/xlink" width="500" zoomAndPan="magnify" viewBox="0 0 375 374.999991" height="500" preserveAspectRatio="xMidYMid meet" version="1.0"><defs><g/><clipPath id="93b149ae03"><path d="M 142.351562 124.464844 L 232.648438 124.464844 L 232.648438 250.535156 L 142.351562 250.535156 Z M 142.351562 124.464844 " clip-rule="nonzero"/></clipPath><clipPath id="b92127d472"><path d="M 149.101562 124.464844 L 225.898438 124.464844 C 227.6875 124.464844 229.40625 125.175781 230.671875 126.441406 C 231.9375 127.707031 232.648438 129.425781 232.648438 131.214844 L 232.648438 243.785156 C 232.648438 245.574219 231.9375 247.292969 230.671875 248.558594 C 229.40625 249.824219 227.6875 250.535156 225.898438 250.535156 L 149.101562 250.535156 C 145.375 250.535156 142.351562 247.511719 142.351562 243.785156 L 142.351562 131.214844 C 142.351562 127.488281 145.375 124.464844 149.101562 124.464844 Z M 149.101562 124.464844 " clip-rule="nonzero"/></clipPath><clipPath id="b9b8cfa751"><path d="M 142.355469 124.464844 L 232.351562 124.464844 L 232.351562 250.464844 L 142.355469 250.464844 Z M 142.355469 124.464844 " clip-rule="nonzero"/></clipPath><clipPath id="49f0dfb675"><path d="M 149.105469 124.464844 L 225.894531 124.464844 C 227.683594 124.464844 229.398438 125.175781 230.664062 126.441406 C 231.929688 127.707031 232.644531 129.425781 232.644531 131.214844 L 232.644531 243.773438 C 232.644531 245.566406 231.929688 247.28125 230.664062 248.546875 C 229.398438 249.8125 227.683594 250.523438 225.894531 250.523438 L 149.105469 250.523438 C 145.375 250.523438 142.355469 247.503906 142.355469 243.773438 L 142.355469 131.214844 C 142.355469 127.488281 145.375 124.464844 149.105469 124.464844 Z M 149.105469 124.464844 " clip-rule="nonzero"/></clipPath><clipPath id="13d9047c26"><path d="M 161.746094 150.820312 L 175.246094 150.820312 L 175.246094 166.570312 L 161.746094 166.570312 Z M 161.746094 150.820312 " clip-rule="nonzero"/></clipPath><clipPath id="0498d38d19"><path d="M 148.039062 142.886719 L 161.539062 142.886719 L 161.539062 158.636719 L 148.039062 158.636719 Z M 148.039062 142.886719 " clip-rule="nonzero"/></clipPath><clipPath id="01486a14e3"><path d="M 212.585938 216.863281 L 226.085938 216.863281 L 226.085938 232.613281 L 212.585938 232.613281 Z M 212.585938 216.863281 " clip-rule="nonzero"/></clipPath><clipPath id="ea023921f3"><path d="M 198.878906 208.929688 L 212.378906 208.929688 L 212.378906 224.679688 L 198.878906 224.679688 Z M 198.878906 208.929688 " clip-rule="nonzero"/></clipPath><clipPath id="ec3ce07833"><path d="M 198.878906 150.820312 L 212.378906 150.820312 L 212.378906 166.570312 L 198.878906 166.570312 Z M 198.878906 150.820312 " clip-rule="nonzero"/></clipPath><clipPath id="d5e388d65e"><path d="M 161.746094 208.929688 L 175.246094 208.929688 L 175.246094 224.679688 L 161.746094 224.679688 Z M 161.746094 208.929688 " clip-rule="nonzero"/></clipPath><clipPath id="88e1d599f5"><path d="M 161.746094 189.121094 L 175.246094 189.121094 L 175.246094 204.871094 L 161.746094 204.871094 Z M 161.746094 189.121094 " clip-rule="nonzero"/></clipPath><clipPath id="337ec38f56"><path d="M 161.746094 169.972656 L 175.246094 169.972656 L 175.246094 185.722656 L 161.746094 185.722656 Z M 161.746094 169.972656 " clip-rule="nonzero"/></clipPath><clipPath id="0a3a086623"><path d="M 180.644531 166.691406 L 194.144531 166.691406 L 194.144531 182.441406 L 180.644531 182.441406 Z M 180.644531 166.691406 " clip-rule="nonzero"/></clipPath><clipPath id="6ae7c9ddf8"><path d="M 198.878906 189.121094 L 212.378906 189.121094 L 212.378906 204.871094 L 198.878906 204.871094 Z M 198.878906 189.121094 " clip-rule="nonzero"/></clipPath><clipPath id="edfd7d948b"><path d="M 198.878906 169.972656 L 212.378906 169.972656 L 212.378906 185.722656 L 198.878906 185.722656 Z M 198.878906 169.972656 " clip-rule="nonzero"/></clipPath><clipPath id="d98a31f2e3"><path d="M 180.3125 197.058594 L 193.8125 197.058594 L 193.8125 212.808594 L 180.3125 212.808594 Z M 180.3125 197.058594 " clip-rule="nonzero"/></clipPath></defs><g clip-path="url(#93b149ae03)"><g clip-path="url(#b92127d472)"><path fill="#ffffff" d="M 142.351562 124.464844 L 232.648438 124.464844 L 232.648438 250.535156 L 142.351562 250.535156 Z M 142.351562 124.464844 " fill-opacity="1" fill-rule="nonzero"/></g></g><g clip-path="url(#b9b8cfa751)"><g clip-path="url(#49f0dfb675)"><path stroke-linecap="butt" transform="matrix(0.75, 0, 0, 0.75, 142.354186, 124.465422)" fill="none" stroke-linejoin="miter" d="M 9.001712 -0.000771302 L 111.387135 -0.000771302 C 113.772552 -0.000771302 116.05901 0.947145 117.74651 2.634646 C 119.43401 4.322146 120.387136 6.613812 120.387136 8.999229 L 120.387136 159.077364 C 120.387136 161.467989 119.43401 163.754448 117.74651 165.441948 C 116.05901 167.129448 113.772552 168.077365 111.387135 168.077365 L 9.001712 168.077365 C 4.027753 168.077365 0.00171093 164.051323 0.00171093 159.077364 L 0.00171093 8.999229 C 0.00171093 4.030479 4.027753 -0.000771302 9.001712 -0.000771302 Z M 9.001712 -0.000771302 " stroke="#463f57" stroke-width="12" stroke-opacity="1" stroke-miterlimit="4"/></g></g><g clip-path="url(#13d9047c26)"><path fill="#463f57" d="M 168.59375 150.824219 C 166.722656 153.769531 164.453125 156.421875 161.746094 158.753906 C 164.445312 161.171875 166.699219 163.832031 168.59375 166.683594 C 170.46875 163.742188 172.738281 161.089844 175.445312 158.753906 C 172.746094 156.339844 170.488281 153.679688 168.59375 150.824219 " fill-opacity="1" fill-rule="nonzero"/></g><g fill="#000000" fill-opacity="1"><g transform="translate(149.370873, 140.78706)"><g><path d="M 3.195312 0.234375 L 3.195312 -6.652344 C 3.195312 -7.101562 2.960938 -7.324219 2.492188 -7.324219 L 0.53125 -7.324219 C 0.289062 -7.324219 0.179688 -7.226562 0.179688 -7.003906 L 0.179688 -6.011719 C 0.179688 -5.796875 0.289062 -5.6875 0.53125 -5.6875 L 0.945312 -5.6875 C 1.0625 -5.6875 1.125 -5.625 1.125 -5.507812 L 1.125 0.234375 C 1.125 0.460938 1.242188 0.566406 1.476562 0.566406 L 2.84375 0.566406 C 3.085938 0.566406 3.195312 0.460938 3.195312 0.234375 Z M 3.195312 0.234375 "/></g></g></g><g fill="#000000" fill-opacity="1"><g transform="translate(152.745896, 140.78706)"><g><path d="M 5.417969 -1.609375 C 5.417969 -1.261719 5.238281 -1.078125 4.886719 -1.078125 L 2.78125 -1.078125 C 2.429688 -1.078125 2.25 -1.261719 2.25 -1.609375 L 2.25 -5.15625 C 2.25 -5.507812 2.429688 -5.6875 2.78125 -5.6875 L 4.886719 -5.6875 C 5.238281 -5.6875 5.417969 -5.507812 5.417969 -5.15625 Z M 0.179688 -1.195312 C 0.179688 -0.0273438 0.765625 0.566406 1.933594 0.566406 L 5.734375 0.566406 C 6.902344 0.566406 7.480469 -0.0273438 7.488281 -1.195312 L 7.488281 -5.570312 C 7.480469 -6.742188 6.902344 -7.324219 5.734375 -7.324219 L 1.933594 -7.324219 C 0.765625 -7.324219 0.179688 -6.742188 0.179688 -5.570312 Z M 0.179688 -1.195312 "/></g></g></g><g fill="#000000" fill-opacity="1"><g transform="translate(224.959824, 234.832602)"><g><path d="M -3.195312 -0.234375 L -3.195312 6.652344 C -3.195312 7.101562 -2.960938 7.324219 -2.492188 7.324219 L -0.53125 7.324219 C -0.289062 7.324219 -0.179688 7.226562 -0.179688 7.003906 L -0.179688 6.011719 C -0.179688 5.796875 -0.289062 5.6875 -0.53125 5.6875 L -0.945312 5.6875 C -1.0625 5.6875 -1.125 5.625 -1.125 5.507812 L -1.125 -0.234375 C -1.125 -0.460938 -1.242188 -0.566406 -1.476562 -0.566406 L -2.84375 -0.566406 C -3.085938 -0.566406 -3.195312 -0.460938 -3.195312 -0.234375 Z M -3.195312 -0.234375 "/></g></g></g><g fill="#000000" fill-opacity="1"><g transform="translate(221.584801, 234.832602)"><g><path d="M -5.417969 1.609375 C -5.417969 1.261719 -5.238281 1.078125 -4.886719 1.078125 L -2.78125 1.078125 C -2.429688 1.078125 -2.25 1.261719 -2.25 1.609375 L -2.25 5.15625 C -2.25 5.507812 -2.429688 5.6875 -2.78125 5.6875 L -4.886719 5.6875 C -5.238281 5.6875 -5.417969 5.507812 -5.417969 5.15625 Z M -0.179688 1.195312 C -0.179688 0.0273438 -0.765625 -0.566406 -1.933594 -0.566406 L -5.734375 -0.566406 C -6.902344 -0.566406 -7.480469 0.0273438 -7.488281 1.195312 L -7.488281 5.570312 C -7.480469 6.742188 -6.902344 7.324219 -5.734375 7.324219 L -1.933594 7.324219 C -0.765625 7.324219 -0.179688 6.742188 -0.179688 5.570312 Z M -0.179688 1.195312 "/></g></g></g><g clip-path="url(#0498d38d19)"><path fill="#463f57" d="M 154.886719 142.890625 C 153.015625 145.832031 150.746094 148.488281 148.039062 150.820312 C 150.738281 153.238281 152.992188 155.894531 154.886719 158.75 C 156.761719 155.808594 159.03125 153.152344 161.738281 150.820312 C 159.035156 148.402344 156.78125 145.746094 154.886719 142.890625 " fill-opacity="1" fill-rule="nonzero"/></g><g clip-path="url(#01486a14e3)"><path fill="#463f57" d="M 219.433594 216.867188 C 217.558594 219.8125 215.289062 222.464844 212.582031 224.796875 C 215.285156 227.214844 217.539062 229.875 219.433594 232.726562 C 221.304688 229.785156 223.574219 227.128906 226.28125 224.796875 C 223.582031 222.378906 221.328125 219.722656 219.433594 216.867188 " fill-opacity="1" fill-rule="nonzero"/></g><g clip-path="url(#ea023921f3)"><path fill="#463f57" d="M 205.726562 208.933594 C 203.851562 211.875 201.582031 214.53125 198.875 216.863281 C 201.574219 219.28125 203.832031 221.9375 205.726562 224.792969 C 207.597656 221.847656 209.867188 219.195312 212.574219 216.863281 C 209.875 214.445312 207.621094 211.789062 205.726562 208.933594 " fill-opacity="1" fill-rule="nonzero"/></g><g clip-path="url(#ec3ce07833)"><path fill="#463f57" d="M 205.726562 150.824219 C 203.851562 153.769531 201.582031 156.421875 198.875 158.753906 C 201.574219 161.171875 203.832031 163.832031 205.726562 166.683594 C 207.597656 163.742188 209.867188 161.089844 212.574219 158.753906 C 209.875 156.339844 207.621094 153.679688 205.726562 150.824219 " fill-opacity="1" fill-rule="nonzero"/></g><g clip-path="url(#d5e388d65e)"><path fill="#463f57" d="M 168.59375 208.933594 C 166.722656 211.875 164.453125 214.53125 161.746094 216.863281 C 164.445312 219.28125 166.699219 221.9375 168.59375 224.792969 C 170.46875 221.847656 172.738281 219.195312 175.445312 216.863281 C 172.746094 214.445312 170.488281 211.789062 168.59375 208.933594 " fill-opacity="1" fill-rule="nonzero"/></g><g clip-path="url(#88e1d599f5)"><path fill="#463f57" d="M 168.59375 189.125 C 166.722656 192.070312 164.453125 194.722656 161.746094 197.054688 C 164.445312 199.472656 166.699219 202.132812 168.59375 204.984375 C 170.46875 202.042969 172.738281 199.390625 175.445312 197.054688 C 172.746094 194.640625 170.488281 191.980469 168.59375 189.125 " fill-opacity="1" fill-rule="nonzero"/></g><g clip-path="url(#337ec38f56)"><path fill="#463f57" d="M 168.59375 169.976562 C 166.722656 172.917969 164.453125 175.574219 161.746094 177.90625 C 164.445312 180.324219 166.699219 182.980469 168.59375 185.835938 C 170.46875 182.894531 172.738281 180.238281 175.445312 177.90625 C 172.746094 175.488281 170.488281 172.832031 168.59375 169.976562 " fill-opacity="1" fill-rule="nonzero"/></g><g clip-path="url(#0a3a086623)"><path fill="#5271ff" d="M 187.496094 166.695312 C 185.621094 169.640625 183.351562 172.292969 180.644531 174.625 C 183.34375 177.042969 185.601562 179.699219 187.496094 182.554688 C 189.367188 179.613281 191.636719 176.957031 194.34375 174.625 C 191.644531 172.207031 189.386719 169.550781 187.496094 166.695312 " fill-opacity="1" fill-rule="nonzero"/></g><g clip-path="url(#6ae7c9ddf8)"><path fill="#463f57" d="M 205.726562 189.125 C 203.851562 192.070312 201.582031 194.722656 198.875 197.054688 C 201.574219 199.472656 203.832031 202.132812 205.726562 204.984375 C 207.597656 202.042969 209.867188 199.390625 212.574219 197.054688 C 209.875 194.640625 207.621094 191.980469 205.726562 189.125 " fill-opacity="1" fill-rule="nonzero"/></g><g clip-path="url(#edfd7d948b)"><path fill="#463f57" d="M 205.726562 169.976562 C 203.851562 172.917969 201.582031 175.574219 198.875 177.90625 C 201.574219 180.324219 203.832031 182.980469 205.726562 185.835938 C 207.597656 182.894531 209.867188 180.238281 212.574219 177.90625 C 209.875 175.488281 207.621094 172.832031 205.726562 169.976562 " fill-opacity="1" fill-rule="nonzero"/></g><g clip-path="url(#d98a31f2e3)"><path fill="#5271ff" d="M 187.160156 197.0625 C 185.285156 200.003906 183.019531 202.660156 180.3125 204.992188 C 183.011719 207.410156 185.265625 210.066406 187.160156 212.921875 C 189.035156 209.976562 191.300781 207.324219 194.007812 204.992188 C 191.308594 202.574219 189.054688 199.914062 187.160156 197.0625 " fill-opacity="1" fill-rule="nonzero"/></g></svg>