<svg xmlns="http://www.w3.org/2000/svg" xmlns:xlink="http://www.w3.org/1999/xlink" width="500" zoomAndPan="magnify" viewBox="0 0 375 374.999991" height="500" preserveAspectRatio="xMidYMid meet" version="1.0"><defs><g/><clipPath id="5507aa2ddc"><path d="M 142.351562 124.464844 L 232.648438 124.464844 L 232.648438 250.535156 L 142.351562 250.535156 Z M 142.351562 124.464844 " clip-rule="nonzero"/></clipPath><clipPath id="cad284b577"><path d="M 149.101562 124.464844 L 225.898438 124.464844 C 227.6875 124.464844 229.40625 125.175781 230.671875 126.441406 C 231.9375 127.707031 232.648438 129.425781 232.648438 131.214844 L 232.648438 243.785156 C 232.648438 245.574219 231.9375 247.292969 230.671875 248.558594 C 229.40625 249.824219 227.6875 250.535156 225.898438 250.535156 L 149.101562 250.535156 C 145.375 250.535156 142.351562 247.511719 142.351562 243.785156 L 142.351562 131.214844 C 142.351562 127.488281 145.375 124.464844 149.101562 124.464844 Z M 149.101562 124.464844 " clip-rule="nonzero"/></clipPath><clipPath id="ad115dfb8a"><path d="M 142.355469 124.464844 L 232.351562 124.464844 L 232.351562 250.464844 L 142.355469 250.464844 Z M 142.355469 124.464844 " clip-rule="nonzero"/></clipPath><clipPath id="d314aa9772"><path d="M 149.105469 124.464844 L 225.894531 124.464844 C 227.683594 124.464844 229.398438 125.175781 230.664062 126.441406 C 231.929688 127.707031 232.644531 129.425781 232.644531 131.214844 L 232.644531 243.773438 C 232.644531 245.566406 231.929688 247.28125 230.664062 248.546875 C 229.398438 249.8125 227.683594 250.523438 225.894531 250.523438 L 149.105469 250.523438 C 145.375 250.523438 142.355469 247.503906 142.355469 243.773438 L 142.355469 131.214844 C 142.355469 127.488281 145.375 124.464844 149.105469 124.464844 Z M 149.105469 124.464844 " clip-rule="nonzero"/></clipPath><clipPath id="877f6a7a09"><path d="M 180.644531 158.757812 L 194.144531 158.757812 L 194.144531 174.507812 L 180.644531 174.507812 Z M 180.644531 158.757812 " clip-rule="nonzero"/></clipPath><clipPath id="d9f74935c5"><path d="M 148.039062 142.886719 L 161.539062 142.886719 L 161.539062 158.636719 L 148.039062 158.636719 Z M 148.039062 142.886719 " clip-rule="nonzero"/></clipPath><clipPath id="71aa48464d"><path d="M 212.585938 216.863281 L 226.085938 216.863281 L 226.085938 232.613281 L 212.585938 232.613281 Z M 212.585938 216.863281 " clip-rule="nonzero"/></clipPath><clipPath id="c03e1f0423"><path d="M 180.644531 201 L 194.144531 201 L 194.144531 216.746094 L 180.644531 216.746094 Z M 180.644531 201 " clip-rule="nonzero"/></clipPath><clipPath id="79b878cea5"><path d="M 180.644531 179.875 L 194.144531 179.875 L 194.144531 195.625 L 180.644531 195.625 Z M 180.644531 179.875 " clip-rule="nonzero"/></clipPath></defs><g clip-path="url(#5507aa2ddc)"><g clip-path="url(#cad284b577)"><path fill="#ffffff" d="M 142.351562 124.464844 L 232.648438 124.464844 L 232.648438 250.535156 L 142.351562 250.535156 Z M 142.351562 124.464844 " fill-opacity="1" fill-rule="nonzero"/></g></g><g clip-path="url(#ad115dfb8a)"><g clip-path="url(#d314aa9772)"><path stroke-linecap="butt" transform="matrix(0.75, 0, 0, 0.75, 142.354186, 124.46548)" fill="none" stroke-linejoin="miter" d="M 9.001712 -0.000848102 L 111.387135 -0.000848102 C 113.772552 -0.000848102 116.05901 0.947069 117.74651 2.634569 C 119.43401 4.322069 120.387136 6.613736 120.387136 8.999152 L 120.387136 159.077287 C 120.387136 161.467913 119.43401 163.754371 117.74651 165.441871 C 116.05901 167.129371 113.772552 168.077288 111.387135 168.077288 L 9.001712 168.077288 C 4.027753 168.077288 0.00171093 164.051246 0.00171093 159.077287 L 0.00171093 8.999152 C 0.00171093 4.030402 4.027753 -0.000848102 9.001712 -0.000848102 Z M 9.001712 -0.000848102 " stroke="#463f57" stroke-width="12" stroke-opacity="1" stroke-miterlimit="4"/></g></g><g clip-path="url(#877f6a7a09)"><path fill="#463f57" d="M 187.496094 158.761719 C 185.621094 161.703125 183.351562 164.359375 180.644531 166.691406 C 183.34375 169.109375 185.601562 171.765625 187.496094 174.621094 C 189.367188 171.675781 191.636719 169.023438 194.34375 166.691406 C 191.644531 164.273438 189.386719 161.613281 187.496094 158.761719 " fill-opacity="1" fill-rule="nonzero"/></g><g fill="#000000" fill-opacity="1"><g transform="translate(151.057406, 140.786943)"><g><path d="M 2.25 -4.96875 L 2.25 -5.15625 C 2.25 -5.507812 2.429688 -5.6875 2.78125 -5.6875 L 4.886719 -5.6875 C 5.238281 -5.6875 5.417969 -5.507812 5.417969 -5.15625 L 5.417969 -4.726562 C 5.417969 -4.375 5.238281 -4.203125 4.886719 -4.203125 L 3.132812 -4.203125 C 2.890625 -4.203125 2.78125 -4.09375 2.78125 -3.878906 L 2.78125 -2.878906 C 2.78125 -2.664062 2.890625 -2.554688 3.132812 -2.554688 L 4.886719 -2.554688 C 5.238281 -2.554688 5.417969 -2.386719 5.417969 -2.035156 L 5.417969 -1.609375 C 5.417969 -1.261719 5.238281 -1.078125 4.886719 -1.078125 L 2.78125 -1.078125 C 2.429688 -1.078125 2.25 -1.261719 2.25 -1.609375 L 2.25 -1.800781 C 2.25 -2.023438 2.132812 -2.125 1.898438 -2.125 L 0.53125 -2.125 C 0.289062 -2.125 0.179688 -2.023438 0.179688 -1.800781 L 0.179688 -1.195312 C 0.179688 -0.0273438 0.765625 0.566406 1.933594 0.566406 L 5.734375 0.566406 C 6.902344 0.566406 7.480469 -0.0273438 7.488281 -1.195312 L 7.488281 -2.140625 C 7.480469 -2.671875 7.308594 -3.085938 6.957031 -3.375 C 7.308594 -3.664062 7.480469 -4.078125 7.488281 -4.609375 L 7.488281 -5.570312 C 7.480469 -6.742188 6.902344 -7.324219 5.734375 -7.324219 L 1.933594 -7.324219 C 0.765625 -7.324219 0.179688 -6.742188 0.179688 -5.570312 L 0.179688 -4.96875 C 0.179688 -4.742188 0.289062 -4.644531 0.53125 -4.644531 L 1.898438 -4.644531 C 2.132812 -4.644531 2.25 -4.742188 2.25 -4.96875 Z M 2.25 -4.96875 "/></g></g></g><g fill="#000000" fill-opacity="1"><g transform="translate(223.268135, 234.829672)"><g><path d="M -2.25 4.96875 L -2.25 5.15625 C -2.25 5.507812 -2.429688 5.6875 -2.78125 5.6875 L -4.886719 5.6875 C -5.238281 5.6875 -5.417969 5.507812 -5.417969 5.15625 L -5.417969 4.726562 C -5.417969 4.375 -5.238281 4.203125 -4.886719 4.203125 L -3.132812 4.203125 C -2.890625 4.203125 -2.78125 4.09375 -2.78125 3.878906 L -2.78125 2.878906 C -2.78125 2.664062 -2.890625 2.554688 -3.132812 2.554688 L -4.886719 2.554688 C -5.238281 2.554688 -5.417969 2.386719 -5.417969 2.035156 L -5.417969 1.609375 C -5.417969 1.261719 -5.238281 1.078125 -4.886719 1.078125 L -2.78125 1.078125 C -2.429688 1.078125 -2.25 1.261719 -2.25 1.609375 L -2.25 1.800781 C -2.25 2.023438 -2.132812 2.125 -1.898438 2.125 L -0.53125 2.125 C -0.289062 2.125 -0.179688 2.023438 -0.179688 1.800781 L -0.179688 1.195312 C -0.179688 0.0273438 -0.765625 -0.566406 -1.933594 -0.566406 L -5.734375 -0.566406 C -6.902344 -0.566406 -7.480469 0.0273438 -7.488281 1.195312 L -7.488281 2.140625 C -7.480469 2.671875 -7.308594 3.085938 -6.957031 3.375 C -7.308594 3.664062 -7.480469 4.078125 -7.488281 4.609375 L -7.488281 5.570312 C -7.480469 6.742188 -6.902344 7.324219 -5.734375 7.324219 L -1.933594 7.324219 C -0.765625 7.324219 -0.179688 6.742188 -0.179688 5.570312 L -0.179688 4.96875 C -0.179688 4.742188 -0.289062 4.644531 -0.53125 4.644531 L -1.898438 4.644531 C -2.132812 4.644531 -2.25 4.742188 -2.25 4.96875 Z M -2.25 4.96875 "/></g></g></g><g clip-path="url(#d9f74935c5)"><path fill="#463f57" d="M 154.886719 142.890625 C 153.015625 145.832031 150.746094 148.488281 148.039062 150.820312 C 150.738281 153.238281 152.992188 155.894531 154.886719 158.75 C 156.761719 155.808594 159.03125 153.152344 161.738281 150.820312 C 159.035156 148.402344 156.78125 145.746094 154.886719 142.890625 " fill-opacity="1" fill-rule="nonzero"/></g><g clip-path="url(#71aa48464d)"><path fill="#463f57" d="M 219.433594 216.867188 C 217.558594 219.8125 215.289062 222.464844 212.582031 224.796875 C 215.285156 227.214844 217.539062 229.875 219.433594 232.726562 C 221.304688 229.785156 223.574219 227.128906 226.28125 224.796875 C 223.582031 222.378906 221.328125 219.722656 219.433594 216.867188 " fill-opacity="1" fill-rule="nonzero"/></g><g clip-path="url(#c03e1f0423)"><path fill="#463f57" d="M 187.496094 201 C 185.621094 203.941406 183.351562 206.59375 180.644531 208.929688 C 183.34375 211.34375 185.601562 214.003906 187.496094 216.859375 C 189.367188 213.914062 191.636719 211.261719 194.34375 208.929688 C 191.644531 206.511719 189.386719 203.851562 187.496094 201 " fill-opacity="1" fill-rule="nonzero"/></g><g clip-path="url(#79b878cea5)"><path fill="#5271ff" d="M 187.496094 179.878906 C 185.621094 182.824219 183.351562 185.476562 180.644531 187.808594 C 183.34375 190.226562 185.601562 192.882812 187.496094 195.738281 C 189.367188 192.796875 191.636719 190.140625 194.34375 187.808594 C 191.644531 185.390625 189.386719 182.734375 187.496094 179.878906 " fill-opacity="1" fill-rule="nonzero"/></g></svg>