<svg xmlns="http://www.w3.org/2000/svg" xmlns:xlink="http://www.w3.org/1999/xlink" width="500" zoomAndPan="magnify" viewBox="0 0 375 374.999991" height="500" preserveAspectRatio="xMidYMid meet" version="1.0"><defs><g/><clipPath id="90d62e914b"><path d="M 142.351562 124.464844 L 232.648438 124.464844 L 232.648438 250.535156 L 142.351562 250.535156 Z M 142.351562 124.464844 " clip-rule="nonzero"/></clipPath><clipPath id="b5f7a35c56"><path d="M 149.101562 124.464844 L 225.898438 124.464844 C 227.6875 124.464844 229.40625 125.175781 230.671875 126.441406 C 231.9375 127.707031 232.648438 129.425781 232.648438 131.214844 L 232.648438 243.785156 C 232.648438 245.574219 231.9375 247.292969 230.671875 248.558594 C 229.40625 249.824219 227.6875 250.535156 225.898438 250.535156 L 149.101562 250.535156 C 145.375 250.535156 142.351562 247.511719 142.351562 243.785156 L 142.351562 131.214844 C 142.351562 127.488281 145.375 124.464844 149.101562 124.464844 Z M 149.101562 124.464844 " clip-rule="nonzero"/></clipPath><clipPath id="5223583214"><path d="M 142.355469 124.464844 L 232.351562 124.464844 L 232.351562 250.464844 L 142.355469 250.464844 Z M 142.355469 124.464844 " clip-rule="nonzero"/></clipPath><clipPath id="e1f047ce60"><path d="M 149.105469 124.464844 L 225.894531 124.464844 C 227.683594 124.464844 229.398438 125.175781 230.664062 126.441406 C 231.929688 127.707031 232.644531 129.425781 232.644531 131.214844 L 232.644531 243.773438 C 232.644531 245.566406 231.929688 247.28125 230.664062 248.546875 C 229.398438 249.8125 227.683594 250.523438 225.894531 250.523438 L 149.105469 250.523438 C 145.375 250.523438 142.355469 247.503906 142.355469 243.773438 L 142.355469 131.214844 C 142.355469 127.488281 145.375 124.464844 149.105469 124.464844 Z M 149.105469 124.464844 " clip-rule="nonzero"/></clipPath><clipPath id="d6792d8478"><path d="M 147.957031 142.886719 L 161.457031 142.886719 L 161.457031 156.386719 L 147.957031 156.386719 Z M 147.957031 142.886719 " clip-rule="nonzero"/></clipPath><clipPath id="e0141d8e61"><path d="M 212.867188 219.226562 L 226.367188 219.226562 L 226.367188 232.726562 L 212.867188 232.726562 Z M 212.867188 219.226562 " clip-rule="nonzero"/></clipPath><clipPath id="f86045dcdb"><path d="M 180.566406 180.566406 L 194.066406 180.566406 L 194.066406 194.066406 L 180.566406 194.066406 Z M 180.566406 180.566406 " clip-rule="nonzero"/></clipPath></defs><g clip-path="url(#90d62e914b)"><g clip-path="url(#b5f7a35c56)"><path fill="#ffffff" d="M 142.351562 124.464844 L 232.648438 124.464844 L 232.648438 250.535156 L 142.351562 250.535156 Z M 142.351562 124.464844 " fill-opacity="1" fill-rule="nonzero"/></g></g><g clip-path="url(#5223583214)"><g clip-path="url(#e1f047ce60)"><path stroke-linecap="butt" transform="matrix(0.75, 0, 0, 0.75, 142.354186, 124.465451)" fill="none" stroke-linejoin="miter" d="M 9.001712 -0.000809702 L 111.387135 -0.000809702 C 113.772552 -0.000809702 116.05901 0.947107 117.74651 2.634607 C 119.43401 4.322107 120.387136 6.613774 120.387136 8.999191 L 120.387136 159.077326 C 120.387136 161.467951 119.43401 163.754409 117.74651 165.441909 C 116.05901 167.12941 113.772552 168.077326 111.387135 168.077326 L 9.001712 168.077326 C 4.027753 168.077326 0.00171093 164.051284 0.00171093 159.077326 L 0.00171093 8.999191 C 0.00171093 4.030441 4.027753 -0.000809702 9.001712 -0.000809702 Z M 9.001712 -0.000809702 " stroke="#463f57" stroke-width="12" stroke-opacity="1" stroke-miterlimit="4"/></g></g><g clip-path="url(#d6792d8478)"><path fill="#463f57" d="M 154.890625 142.886719 C 153.25 142.886719 151.917969 144.285156 151.917969 146.007812 C 151.933594 147.089844 152.492188 148.003906 153.074219 148.875 C 152.425781 148.386719 151.703125 148.089844 150.929688 148.085938 C 149.289062 148.085938 147.957031 149.484375 147.957031 151.203125 C 147.957031 152.925781 149.289062 154.324219 150.929688 154.324219 C 152.257812 154.300781 153.320312 153.371094 154.363281 152.589844 C 154.175781 154.925781 153.796875 156.234375 151.589844 156.75 L 158.191406 156.75 C 155.984375 156.234375 155.601562 154.925781 155.414062 152.589844 C 156.449219 153.476562 157.53125 154.226562 158.851562 154.324219 C 160.492188 154.324219 161.820312 152.925781 161.820312 151.203125 C 161.820312 149.484375 160.492188 148.085938 158.851562 148.085938 C 158.054688 148.085938 157.367188 148.453125 156.707031 148.875 C 157.363281 148.015625 157.796875 147.085938 157.859375 146.007812 C 157.859375 144.285156 156.53125 142.886719 154.890625 142.886719 Z M 154.890625 142.886719 " fill-opacity="1" fill-rule="nonzero"/></g><g fill="#000000" fill-opacity="1"><g transform="translate(151.067162, 140.786928)"><g><path d="M 4.355469 -7.335938 L 3.285156 -7.335938 C 2.960938 -7.34375 2.746094 -7.300781 2.628906 -7.183594 C 2.503906 -7.066406 2.402344 -6.867188 2.3125 -6.578125 L 0.199219 -0.53125 C 0.125 -0.324219 0.0703125 -0.144531 0.046875 0.0195312 C 0.0351562 0.253906 0.0976562 0.433594 0.207031 0.550781 C 0.324219 0.648438 0.523438 0.703125 0.792969 0.710938 L 1.46875 0.710938 C 1.738281 0.71875 1.945312 0.664062 2.0625 0.558594 C 2.179688 0.441406 2.277344 0.253906 2.347656 0.0195312 L 2.574219 -0.640625 L 5.066406 -0.640625 L 5.300781 0.0195312 C 5.371094 0.253906 5.464844 0.441406 5.589844 0.558594 C 5.707031 0.664062 5.902344 0.71875 6.183594 0.710938 L 6.859375 0.710938 C 7.128906 0.703125 7.324219 0.648438 7.441406 0.550781 C 7.558594 0.433594 7.613281 0.253906 7.605469 0.0195312 C 7.578125 -0.144531 7.523438 -0.324219 7.441406 -0.53125 L 5.335938 -6.578125 C 5.246094 -6.867188 5.140625 -7.066406 5.03125 -7.183594 C 4.90625 -7.300781 4.6875 -7.34375 4.355469 -7.335938 Z M 3.824219 -4.230469 L 4.328125 -2.773438 L 3.3125 -2.773438 Z M 3.824219 -4.230469 "/></g></g></g><g fill="#000000" fill-opacity="1"><g transform="translate(223.268135, 234.829643)"><g><path d="M -4.355469 7.335938 L -3.285156 7.335938 C -2.960938 7.34375 -2.746094 7.300781 -2.628906 7.183594 C -2.503906 7.066406 -2.402344 6.867188 -2.3125 6.578125 L -0.199219 0.53125 C -0.125 0.324219 -0.0703125 0.144531 -0.046875 -0.0195312 C -0.0351562 -0.253906 -0.0976562 -0.433594 -0.207031 -0.550781 C -0.324219 -0.648438 -0.523438 -0.703125 -0.792969 -0.710938 L -1.46875 -0.710938 C -1.738281 -0.71875 -1.945312 -0.664062 -2.0625 -0.558594 C -2.179688 -0.441406 -2.277344 -0.253906 -2.347656 -0.0195312 L -2.574219 0.640625 L -5.066406 0.640625 L -5.300781 -0.0195312 C -5.371094 -0.253906 -5.464844 -0.441406 -5.589844 -0.558594 C -5.707031 -0.664062 -5.902344 -0.71875 -6.183594 -0.710938 L -6.859375 -0.710938 C -7.128906 -0.703125 -7.324219 -0.648438 -7.441406 -0.550781 C -7.558594 -0.433594 -7.613281 -0.253906 -7.605469 -0.0195312 C -7.578125 0.144531 -7.523438 0.324219 -7.441406 0.53125 L -5.335938 6.578125 C -5.246094 6.867188 -5.140625 7.066406 -5.03125 7.183594 C -4.90625 7.300781 -4.6875 7.34375 -4.355469 7.335938 Z M -3.824219 4.230469 L -4.328125 2.773438 L -3.3125 2.773438 Z M -3.824219 4.230469 "/></g></g></g><g clip-path="url(#e0141d8e61)"><path fill="#463f57" d="M 219.433594 232.726562 C 221.074219 232.726562 222.40625 231.328125 222.40625 229.609375 C 222.390625 228.523438 221.832031 227.609375 221.25 226.738281 C 221.898438 227.230469 222.621094 227.527344 223.394531 227.527344 C 225.035156 227.527344 226.367188 226.132812 226.367188 224.410156 C 226.367188 222.6875 225.035156 221.289062 223.394531 221.289062 C 222.066406 221.3125 221.003906 222.242188 219.960938 223.023438 C 220.148438 220.6875 220.527344 219.378906 222.734375 218.863281 L 216.132812 218.863281 C 218.34375 219.378906 218.722656 220.6875 218.910156 223.023438 C 217.878906 222.136719 216.792969 221.386719 215.472656 221.289062 C 213.835938 221.289062 212.503906 222.6875 212.503906 224.410156 C 212.503906 226.132812 213.835938 227.527344 215.472656 227.527344 C 216.269531 227.527344 216.957031 227.164062 217.621094 226.738281 C 216.960938 227.601562 216.527344 228.53125 216.464844 229.609375 C 216.464844 231.328125 217.796875 232.726562 219.433594 232.726562 Z M 219.433594 232.726562 " fill-opacity="1" fill-rule="nonzero"/></g><g clip-path="url(#f86045dcdb)"><path fill="#463f57" d="M 187.496094 180.566406 C 185.855469 180.566406 184.527344 181.960938 184.527344 183.683594 C 184.539062 184.769531 185.097656 185.683594 185.679688 186.554688 C 185.03125 186.0625 184.3125 185.765625 183.535156 185.761719 C 181.894531 185.761719 180.566406 187.160156 180.566406 188.882812 C 180.566406 190.605469 181.894531 192.003906 183.535156 192.003906 C 184.863281 191.980469 185.925781 191.050781 186.96875 190.269531 C 186.785156 192.601562 186.402344 193.914062 184.195312 194.429688 L 190.796875 194.429688 C 188.589844 193.914062 188.210938 192.601562 188.023438 190.269531 C 189.054688 191.152344 190.136719 191.902344 191.457031 192.003906 C 193.097656 192.003906 194.429688 190.605469 194.429688 188.882812 C 194.429688 187.160156 193.097656 185.761719 191.457031 185.761719 C 190.660156 185.761719 189.972656 186.128906 189.3125 186.554688 C 189.96875 185.691406 190.402344 184.761719 190.46875 183.683594 C 190.46875 181.960938 189.136719 180.566406 187.496094 180.566406 Z M 187.496094 180.566406 " fill-opacity="1" fill-rule="nonzero"/></g></svg>