<svg xmlns="http://www.w3.org/2000/svg" xmlns:xlink="http://www.w3.org/1999/xlink" width="500" zoomAndPan="magnify" viewBox="0 0 375 374.999991" height="500" preserveAspectRatio="xMidYMid meet" version="1.0"><defs><g/><clipPath id="0e8f795c15"><path d="M 142.351562 124.464844 L 232.648438 124.464844 L 232.648438 250.535156 L 142.351562 250.535156 Z M 142.351562 124.464844 " clip-rule="nonzero"/></clipPath><clipPath id="85e6cfcb89"><path d="M 149.101562 124.464844 L 225.898438 124.464844 C 227.6875 124.464844 229.40625 125.175781 230.671875 126.441406 C 231.9375 127.707031 232.648438 129.425781 232.648438 131.214844 L 232.648438 243.785156 C 232.648438 245.574219 231.9375 247.292969 230.671875 248.558594 C 229.40625 249.824219 227.6875 250.535156 225.898438 250.535156 L 149.101562 250.535156 C 145.375 250.535156 142.351562 247.511719 142.351562 243.785156 L 142.351562 131.214844 C 142.351562 127.488281 145.375 124.464844 149.101562 124.464844 Z M 149.101562 124.464844 " clip-rule="nonzero"/></clipPath><clipPath id="c1b31e624d"><path d="M 142.355469 124.464844 L 232.351562 124.464844 L 232.351562 250.464844 L 142.355469 250.464844 Z M 142.355469 124.464844 " clip-rule="nonzero"/></clipPath><clipPath id="d4fbf5e276"><path d="M 149.105469 124.464844 L 225.894531 124.464844 C 227.683594 124.464844 229.398438 125.175781 230.664062 126.441406 C 231.929688 127.707031 232.644531 129.425781 232.644531 131.214844 L 232.644531 243.773438 C 232.644531 245.566406 231.929688 247.28125 230.664062 248.546875 C 229.398438 249.8125 227.683594 250.523438 225.894531 250.523438 L 149.105469 250.523438 C 145.375 250.523438 142.355469 247.503906 142.355469 243.773438 L 142.355469 131.214844 C 142.355469 127.488281 145.375 124.464844 149.105469 124.464844 Z M 149.105469 124.464844 " clip-rule="nonzero"/></clipPath><clipPath id="da21249f39"><path d="M 147.957031 142.886719 L 161.457031 142.886719 L 161.457031 156.386719 L 147.957031 156.386719 Z M 147.957031 142.886719 " clip-rule="nonzero"/></clipPath><clipPath id="ca70be70b2"><path d="M 212.867188 219.226562 L 226.367188 219.226562 L 226.367188 232.726562 L 212.867188 232.726562 Z M 212.867188 219.226562 " clip-rule="nonzero"/></clipPath><clipPath id="e4962bd010"><path d="M 161.828125 156.757812 L 175.328125 156.757812 L 175.328125 170.257812 L 161.828125 170.257812 Z M 161.828125 156.757812 " clip-rule="nonzero"/></clipPath><clipPath id="2a487d611b"><path d="M 198.996094 205.355469 L 212.496094 205.355469 L 212.496094 218.855469 L 198.996094 218.855469 Z M 198.996094 205.355469 " clip-rule="nonzero"/></clipPath><clipPath id="f382aecf81"><path d="M 198.632812 156.757812 L 212.132812 156.757812 L 212.132812 170.257812 L 198.632812 170.257812 Z M 198.632812 156.757812 " clip-rule="nonzero"/></clipPath><clipPath id="3329b615a7"><path d="M 162.191406 205.355469 L 175.691406 205.355469 L 175.691406 218.855469 L 162.191406 218.855469 Z M 162.191406 205.355469 " clip-rule="nonzero"/></clipPath><clipPath id="39bbe4c8ef"><path d="M 161.828125 180.875 L 175.328125 180.875 L 175.328125 194.375 L 161.828125 194.375 Z M 161.828125 180.875 " clip-rule="nonzero"/></clipPath><clipPath id="e505a5b72f"><path d="M 198.632812 180.875 L 212.132812 180.875 L 212.132812 194.375 L 198.632812 194.375 Z M 198.632812 180.875 " clip-rule="nonzero"/></clipPath></defs><g clip-path="url(#0e8f795c15)"><g clip-path="url(#85e6cfcb89)"><path fill="#ffffff" d="M 142.351562 124.464844 L 232.648438 124.464844 L 232.648438 250.535156 L 142.351562 250.535156 Z M 142.351562 124.464844 " fill-opacity="1" fill-rule="nonzero"/></g></g><g clip-path="url(#c1b31e624d)"><g clip-path="url(#d4fbf5e276)"><path stroke-linecap="butt" transform="matrix(0.75, 0, 0, 0.75, 142.354186, 124.465451)" fill="none" stroke-linejoin="miter" d="M 9.001712 -0.000809702 L 111.387135 -0.000809702 C 113.772552 -0.000809702 116.05901 0.947107 117.74651 2.634607 C 119.43401 4.322107 120.387136 6.613774 120.387136 8.999191 L 120.387136 159.077326 C 120.387136 161.467951 119.43401 163.754409 117.74651 165.441909 C 116.05901 167.12941 113.772552 168.077326 111.387135 168.077326 L 9.001712 168.077326 C 4.027753 168.077326 0.00171093 164.051284 0.00171093 159.077326 L 0.00171093 8.999191 C 0.00171093 4.030441 4.027753 -0.000809702 9.001712 -0.000809702 Z M 9.001712 -0.000809702 " stroke="#463f57" stroke-width="12" stroke-opacity="1" stroke-miterlimit="4"/></g></g><g clip-path="url(#da21249f39)"><path fill="#463f57" d="M 154.890625 142.886719 C 153.25 142.886719 151.917969 144.285156 151.917969 146.007812 C 151.933594 147.089844 152.492188 148.003906 153.074219 148.875 C 152.425781 148.386719 151.703125 148.089844 150.929688 148.085938 C 149.289062 148.085938 147.957031 149.484375 147.957031 151.203125 C 147.957031 152.925781 149.289062 154.324219 150.929688 154.324219 C 152.257812 154.300781 153.320312 153.371094 154.363281 152.589844 C 154.175781 154.925781 153.796875 156.234375 151.589844 156.75 L 158.191406 156.75 C 155.984375 156.234375 155.601562 154.925781 155.414062 152.589844 C 156.449219 153.476562 157.53125 154.226562 158.851562 154.324219 C 160.492188 154.324219 161.820312 152.925781 161.820312 151.203125 C 161.820312 149.484375 160.492188 148.085938 158.851562 148.085938 C 158.054688 148.085938 157.367188 148.453125 156.707031 148.875 C 157.363281 148.015625 157.796875 147.085938 157.859375 146.007812 C 157.859375 144.285156 156.53125 142.886719 154.890625 142.886719 Z M 154.890625 142.886719 " fill-opacity="1" fill-rule="nonzero"/></g><g fill="#000000" fill-opacity="1"><g transform="translate(151.052515, 140.786928)"><g><path d="M 2.25 -1.609375 L 2.25 -2.0625 C 2.25 -2.421875 2.429688 -2.59375 2.78125 -2.59375 L 4.886719 -2.59375 C 5.238281 -2.59375 5.417969 -2.421875 5.417969 -2.0625 L 5.417969 -1.609375 C 5.417969 -1.261719 5.238281 -1.078125 4.886719 -1.078125 L 2.78125 -1.078125 C 2.429688 -1.078125 2.25 -1.261719 2.25 -1.609375 Z M 0.179688 -5.570312 L 0.179688 -1.195312 C 0.179688 -0.0273438 0.765625 0.566406 1.933594 0.566406 L 5.734375 0.566406 C 6.902344 0.566406 7.480469 -0.0273438 7.488281 -1.195312 L 7.488281 -2.476562 C 7.480469 -3.644531 6.902344 -4.238281 5.734375 -4.238281 L 2.429688 -4.238281 C 2.3125 -4.238281 2.25 -4.300781 2.25 -4.410156 L 2.25 -5.15625 C 2.25 -5.507812 2.429688 -5.6875 2.78125 -5.6875 L 4.886719 -5.6875 C 5.238281 -5.6875 5.417969 -5.507812 5.417969 -5.15625 L 5.417969 -5.140625 C 5.417969 -4.921875 5.527344 -4.816406 5.769531 -4.816406 L 7.136719 -4.816406 C 7.371094 -4.816406 7.488281 -4.921875 7.488281 -5.140625 L 7.488281 -5.570312 C 7.480469 -6.742188 6.902344 -7.324219 5.734375 -7.324219 L 1.933594 -7.324219 C 0.765625 -7.324219 0.179688 -6.742188 0.179688 -5.570312 Z M 0.179688 -5.570312 "/></g></g></g><g fill="#000000" fill-opacity="1"><g transform="translate(223.268135, 234.829643)"><g><path d="M -2.25 1.609375 L -2.25 2.0625 C -2.25 2.421875 -2.429688 2.59375 -2.78125 2.59375 L -4.886719 2.59375 C -5.238281 2.59375 -5.417969 2.421875 -5.417969 2.0625 L -5.417969 1.609375 C -5.417969 1.261719 -5.238281 1.078125 -4.886719 1.078125 L -2.78125 1.078125 C -2.429688 1.078125 -2.25 1.261719 -2.25 1.609375 Z M -0.179688 5.570312 L -0.179688 1.195312 C -0.179688 0.0273438 -0.765625 -0.566406 -1.933594 -0.566406 L -5.734375 -0.566406 C -6.902344 -0.566406 -7.480469 0.0273438 -7.488281 1.195312 L -7.488281 2.476562 C -7.480469 3.644531 -6.902344 4.238281 -5.734375 4.238281 L -2.429688 4.238281 C -2.3125 4.238281 -2.25 4.300781 -2.25 4.410156 L -2.25 5.15625 C -2.25 5.507812 -2.429688 5.6875 -2.78125 5.6875 L -4.886719 5.6875 C -5.238281 5.6875 -5.417969 5.507812 -5.417969 5.15625 L -5.417969 5.140625 C -5.417969 4.921875 -5.527344 4.816406 -5.769531 4.816406 L -7.136719 4.816406 C -7.371094 4.816406 -7.488281 4.921875 -7.488281 5.140625 L -7.488281 5.570312 C -7.480469 6.742188 -6.902344 7.324219 -5.734375 7.324219 L -1.933594 7.324219 C -0.765625 7.324219 -0.179688 6.742188 -0.179688 5.570312 Z M -0.179688 5.570312 "/></g></g></g><g clip-path="url(#ca70be70b2)"><path fill="#463f57" d="M 219.433594 232.726562 C 221.074219 232.726562 222.40625 231.328125 222.40625 229.609375 C 222.390625 228.523438 221.832031 227.609375 221.25 226.738281 C 221.898438 227.230469 222.621094 227.527344 223.394531 227.527344 C 225.035156 227.527344 226.367188 226.132812 226.367188 224.410156 C 226.367188 222.6875 225.035156 221.289062 223.394531 221.289062 C 222.066406 221.3125 221.003906 222.242188 219.960938 223.023438 C 220.148438 220.6875 220.527344 219.378906 222.734375 218.863281 L 216.132812 218.863281 C 218.34375 219.378906 218.722656 220.6875 218.910156 223.023438 C 217.878906 222.136719 216.792969 221.386719 215.472656 221.289062 C 213.835938 221.289062 212.503906 222.6875 212.503906 224.410156 C 212.503906 226.132812 213.835938 227.527344 215.472656 227.527344 C 216.269531 227.527344 216.957031 227.164062 217.621094 226.738281 C 216.960938 227.601562 216.527344 228.53125 216.464844 229.609375 C 216.464844 231.328125 217.796875 232.726562 219.433594 232.726562 Z M 219.433594 232.726562 " fill-opacity="1" fill-rule="nonzero"/></g><g clip-path="url(#e4962bd010)"><path fill="#463f57" d="M 168.761719 156.757812 C 167.121094 156.757812 165.789062 158.15625 165.789062 159.875 C 165.804688 160.960938 166.363281 161.875 166.945312 162.746094 C 166.296875 162.257812 165.574219 161.960938 164.800781 161.957031 C 163.160156 161.957031 161.828125 163.351562 161.828125 165.074219 C 161.828125 166.796875 163.160156 168.195312 164.800781 168.195312 C 166.128906 168.171875 167.191406 167.242188 168.234375 166.460938 C 168.046875 168.796875 167.667969 170.105469 165.460938 170.621094 L 172.0625 170.621094 C 169.851562 170.105469 169.472656 168.796875 169.285156 166.460938 C 170.316406 167.347656 171.402344 168.097656 172.722656 168.195312 C 174.359375 168.195312 175.691406 166.796875 175.691406 165.074219 C 175.691406 163.351562 174.359375 161.957031 172.722656 161.957031 C 171.925781 161.957031 171.238281 162.324219 170.574219 162.746094 C 171.234375 161.886719 171.667969 160.953125 171.730469 159.875 C 171.730469 158.15625 170.398438 156.757812 168.761719 156.757812 Z M 168.761719 156.757812 " fill-opacity="1" fill-rule="nonzero"/></g><g clip-path="url(#2a487d611b)"><path fill="#463f57" d="M 205.566406 218.855469 C 207.203125 218.855469 208.535156 217.460938 208.535156 215.738281 C 208.519531 214.652344 207.960938 213.738281 207.378906 212.867188 C 208.027344 213.359375 208.75 213.65625 209.527344 213.65625 C 211.164062 213.65625 212.496094 212.261719 212.496094 210.539062 C 212.496094 208.816406 211.164062 207.417969 209.527344 207.417969 C 208.199219 207.441406 207.136719 208.371094 206.089844 209.152344 C 206.277344 206.820312 206.65625 205.507812 208.867188 204.992188 L 202.265625 204.992188 C 204.472656 205.507812 204.851562 206.820312 205.039062 209.152344 C 204.007812 208.269531 202.925781 207.519531 201.605469 207.417969 C 199.964844 207.417969 198.632812 208.816406 198.632812 210.539062 C 198.632812 212.261719 199.964844 213.65625 201.605469 213.65625 C 202.398438 213.65625 203.085938 213.292969 203.75 212.867188 C 203.089844 213.730469 202.65625 214.660156 202.59375 215.738281 C 202.59375 217.460938 203.925781 218.855469 205.566406 218.855469 Z M 205.566406 218.855469 " fill-opacity="1" fill-rule="nonzero"/></g><g clip-path="url(#f382aecf81)"><path fill="#463f57" d="M 205.566406 156.757812 C 203.925781 156.757812 202.59375 158.15625 202.59375 159.875 C 202.609375 160.960938 203.167969 161.875 203.75 162.746094 C 203.101562 162.257812 202.378906 161.960938 201.605469 161.957031 C 199.964844 161.957031 198.632812 163.351562 198.632812 165.074219 C 198.632812 166.796875 199.964844 168.195312 201.605469 168.195312 C 202.933594 168.171875 203.996094 167.242188 205.039062 166.460938 C 204.851562 168.796875 204.472656 170.105469 202.265625 170.621094 L 208.867188 170.621094 C 206.65625 170.105469 206.277344 168.796875 206.089844 166.460938 C 207.121094 167.347656 208.203125 168.097656 209.527344 168.195312 C 211.164062 168.195312 212.496094 166.796875 212.496094 165.074219 C 212.496094 163.351562 211.164062 161.957031 209.527344 161.957031 C 208.730469 161.957031 208.042969 162.324219 207.378906 162.746094 C 208.039062 161.886719 208.472656 160.953125 208.535156 159.875 C 208.535156 158.15625 207.203125 156.757812 205.566406 156.757812 Z M 205.566406 156.757812 " fill-opacity="1" fill-rule="nonzero"/></g><g clip-path="url(#3329b615a7)"><path fill="#463f57" d="M 168.761719 218.855469 C 170.398438 218.855469 171.730469 217.460938 171.730469 215.738281 C 171.714844 214.652344 171.15625 213.738281 170.574219 212.867188 C 171.222656 213.359375 171.945312 213.65625 172.722656 213.65625 C 174.359375 213.65625 175.691406 212.261719 175.691406 210.539062 C 175.691406 208.816406 174.359375 207.417969 172.722656 207.417969 C 171.394531 207.441406 170.332031 208.371094 169.285156 209.152344 C 169.472656 206.820312 169.851562 205.507812 172.0625 204.992188 L 165.460938 204.992188 C 167.667969 205.507812 168.046875 206.820312 168.234375 209.152344 C 167.203125 208.269531 166.121094 207.519531 164.800781 207.417969 C 163.160156 207.417969 161.828125 208.816406 161.828125 210.539062 C 161.828125 212.261719 163.160156 213.65625 164.800781 213.65625 C 165.59375 213.65625 166.28125 213.292969 166.945312 212.867188 C 166.285156 213.730469 165.851562 214.660156 165.789062 215.738281 C 165.789062 217.460938 167.121094 218.855469 168.761719 218.855469 Z M 168.761719 218.855469 " fill-opacity="1" fill-rule="nonzero"/></g><g clip-path="url(#39bbe4c8ef)"><path fill="#463f57" d="M 168.761719 180.875 C 167.121094 180.875 165.789062 182.273438 165.789062 183.996094 C 165.804688 185.078125 166.363281 185.992188 166.945312 186.863281 C 166.296875 186.375 165.574219 186.078125 164.800781 186.074219 C 163.160156 186.074219 161.828125 187.472656 161.828125 189.195312 C 161.828125 190.914062 163.160156 192.3125 164.800781 192.3125 C 166.128906 192.289062 167.191406 191.359375 168.234375 190.578125 C 168.046875 192.914062 167.667969 194.222656 165.460938 194.738281 L 172.0625 194.738281 C 169.851562 194.222656 169.472656 192.914062 169.285156 190.578125 C 170.316406 191.464844 171.402344 192.214844 172.722656 192.3125 C 174.359375 192.3125 175.691406 190.914062 175.691406 189.195312 C 175.691406 187.472656 174.359375 186.074219 172.722656 186.074219 C 171.925781 186.074219 171.238281 186.441406 170.574219 186.863281 C 171.234375 186.003906 171.667969 185.074219 171.730469 183.996094 C 171.730469 182.273438 170.398438 180.875 168.761719 180.875 Z M 168.761719 180.875 " fill-opacity="1" fill-rule="nonzero"/></g><g clip-path="url(#e505a5b72f)"><path fill="#463f57" d="M 205.566406 180.875 C 203.925781 180.875 202.59375 182.273438 202.59375 183.996094 C 202.609375 185.078125 203.167969 185.992188 203.75 186.863281 C 203.101562 186.375 202.378906 186.078125 201.605469 186.074219 C 199.964844 186.074219 198.632812 187.472656 198.632812 189.195312 C 198.632812 190.914062 199.964844 192.3125 201.605469 192.3125 C 202.933594 192.289062 203.996094 191.359375 205.039062 190.578125 C 204.851562 192.914062 204.472656 194.222656 202.265625 194.738281 L 208.867188 194.738281 C 206.65625 194.222656 206.277344 192.914062 206.089844 190.578125 C 207.121094 191.464844 208.203125 192.214844 209.527344 192.3125 C 211.164062 192.3125 212.496094 190.914062 212.496094 189.195312 C 212.496094 187.472656 211.164062 186.074219 209.527344 186.074219 C 208.730469 186.074219 208.042969 186.441406 207.378906 186.863281 C 208.039062 186.003906 208.472656 185.074219 208.535156 183.996094 C 208.535156 182.273438 207.203125 180.875 205.566406 180.875 Z M 205.566406 180.875 " fill-opacity="1" fill-rule="nonzero"/></g></svg>