<svg xmlns="http://www.w3.org/2000/svg" xmlns:xlink="http://www.w3.org/1999/xlink" width="500" zoomAndPan="magnify" viewBox="0 0 375 374.999991" height="500" preserveAspectRatio="xMidYMid meet" version="1.0"><defs><g/><clipPath id="5d5f5dd45d"><path d="M 142.351562 124.464844 L 232.648438 124.464844 L 232.648438 250.535156 L 142.351562 250.535156 Z M 142.351562 124.464844 " clip-rule="nonzero"/></clipPath><clipPath id="b563647ee6"><path d="M 149.101562 124.464844 L 225.898438 124.464844 C 227.6875 124.464844 229.40625 125.175781 230.671875 126.441406 C 231.9375 127.707031 232.648438 129.425781 232.648438 131.214844 L 232.648438 243.785156 C 232.648438 245.574219 231.9375 247.292969 230.671875 248.558594 C 229.40625 249.824219 227.6875 250.535156 225.898438 250.535156 L 149.101562 250.535156 C 145.375 250.535156 142.351562 247.511719 142.351562 243.785156 L 142.351562 131.214844 C 142.351562 127.488281 145.375 124.464844 149.101562 124.464844 Z M 149.101562 124.464844 " clip-rule="nonzero"/></clipPath><clipPath id="6ebe7de19e"><path d="M 142.355469 124.464844 L 232.351562 124.464844 L 232.351562 250.464844 L 142.355469 250.464844 Z M 142.355469 124.464844 " clip-rule="nonzero"/></clipPath><clipPath id="7578a00f28"><path d="M 149.105469 124.464844 L 225.894531 124.464844 C 227.683594 124.464844 229.398438 125.175781 230.664062 126.441406 C 231.929688 127.707031 232.644531 129.425781 232.644531 131.214844 L 232.644531 243.773438 C 232.644531 245.566406 231.929688 247.28125 230.664062 248.546875 C 229.398438 249.8125 227.683594 250.523438 225.894531 250.523438 L 149.105469 250.523438 C 145.375 250.523438 142.355469 247.503906 142.355469 243.773438 L 142.355469 131.214844 C 142.355469 127.488281 145.375 124.464844 149.105469 124.464844 Z M 149.105469 124.464844 " clip-rule="nonzero"/></clipPath><clipPath id="4b2baaadeb"><path d="M 147.957031 142.886719 L 161.457031 142.886719 L 161.457031 156.386719 L 147.957031 156.386719 Z M 147.957031 142.886719 " clip-rule="nonzero"/></clipPath><clipPath id="f3ab60a845"><path d="M 212.867188 219.226562 L 226.367188 219.226562 L 226.367188 232.726562 L 212.867188 232.726562 Z M 212.867188 219.226562 " clip-rule="nonzero"/></clipPath><clipPath id="badf5e256c"><path d="M 161.828125 149.820312 L 175.328125 149.820312 L 175.328125 163.320312 L 161.828125 163.320312 Z M 161.828125 149.820312 " clip-rule="nonzero"/></clipPath><clipPath id="012a2a2102"><path d="M 162.191406 212.292969 L 175.691406 212.292969 L 175.691406 225.792969 L 162.191406 225.792969 Z M 162.191406 212.292969 " clip-rule="nonzero"/></clipPath><clipPath id="61a85c624a"><path d="M 198.632812 149.820312 L 212.132812 149.820312 L 212.132812 163.320312 L 198.632812 163.320312 Z M 198.632812 149.820312 " clip-rule="nonzero"/></clipPath><clipPath id="e858125ea2"><path d="M 161.828125 170.996094 L 175.328125 170.996094 L 175.328125 184.496094 L 161.828125 184.496094 Z M 161.828125 170.996094 " clip-rule="nonzero"/></clipPath><clipPath id="ecd105d22e"><path d="M 198.632812 170.996094 L 212.132812 170.996094 L 212.132812 184.496094 L 198.632812 184.496094 Z M 198.632812 170.996094 " clip-rule="nonzero"/></clipPath><clipPath id="eadee085e4"><path d="M 180.566406 156.757812 L 194.066406 156.757812 L 194.066406 170.257812 L 180.566406 170.257812 Z M 180.566406 156.757812 " clip-rule="nonzero"/></clipPath><clipPath id="d8cf8025a1"><path d="M 198.996094 191.976562 L 212.496094 191.976562 L 212.496094 205.476562 L 198.996094 205.476562 Z M 198.996094 191.976562 " clip-rule="nonzero"/></clipPath><clipPath id="4947a6ecab"><path d="M 162.191406 191.976562 L 175.691406 191.976562 L 175.691406 205.476562 L 162.191406 205.476562 Z M 162.191406 191.976562 " clip-rule="nonzero"/></clipPath><clipPath id="23dd4a45fc"><path d="M 198.996094 212.292969 L 212.496094 212.292969 L 212.496094 225.792969 L 198.996094 225.792969 Z M 198.996094 212.292969 " clip-rule="nonzero"/></clipPath><clipPath id="1c0ba57761"><path d="M 180.929688 205.355469 L 194.429688 205.355469 L 194.429688 218.855469 L 180.929688 218.855469 Z M 180.929688 205.355469 " clip-rule="nonzero"/></clipPath></defs><g clip-path="url(#5d5f5dd45d)"><g clip-path="url(#b563647ee6)"><path fill="#ffffff" d="M 142.351562 124.464844 L 232.648438 124.464844 L 232.648438 250.535156 L 142.351562 250.535156 Z M 142.351562 124.464844 " fill-opacity="1" fill-rule="nonzero"/></g></g><g clip-path="url(#6ebe7de19e)"><g clip-path="url(#7578a00f28)"><path stroke-linecap="butt" transform="matrix(0.75, 0, 0, 0.75, 142.354186, 124.465422)" fill="none" stroke-linejoin="miter" d="M 9.001712 -0.000771302 L 111.387135 -0.000771302 C 113.772552 -0.000771302 116.05901 0.947145 117.74651 2.634646 C 119.43401 4.322146 120.387136 6.613812 120.387136 8.999229 L 120.387136 159.077364 C 120.387136 161.467989 119.43401 163.754448 117.74651 165.441948 C 116.05901 167.129448 113.772552 168.077365 111.387135 168.077365 L 9.001712 168.077365 C 4.027753 168.077365 0.00171093 164.051323 0.00171093 159.077364 L 0.00171093 8.999229 C 0.00171093 4.030479 4.027753 -0.000771302 9.001712 -0.000771302 Z M 9.001712 -0.000771302 " stroke="#463f57" stroke-width="12" stroke-opacity="1" stroke-miterlimit="4"/></g></g><g clip-path="url(#4b2baaadeb)"><path fill="#463f57" d="M 154.890625 142.886719 C 153.25 142.886719 151.917969 144.285156 151.917969 146.007812 C 151.933594 147.089844 152.492188 148.003906 153.074219 148.875 C 152.425781 148.386719 151.703125 148.089844 150.929688 148.085938 C 149.289062 148.085938 147.957031 149.484375 147.957031 151.203125 C 147.957031 152.925781 149.289062 154.324219 150.929688 154.324219 C 152.257812 154.300781 153.320312 153.371094 154.363281 152.589844 C 154.175781 154.925781 153.796875 156.234375 151.589844 156.75 L 158.191406 156.75 C 155.984375 156.234375 155.601562 154.925781 155.414062 152.589844 C 156.449219 153.476562 157.53125 154.226562 158.851562 154.324219 C 160.492188 154.324219 161.820312 152.925781 161.820312 151.203125 C 161.820312 149.484375 160.492188 148.085938 158.851562 148.085938 C 158.054688 148.085938 157.367188 148.453125 156.707031 148.875 C 157.363281 148.015625 157.796875 147.085938 157.859375 146.007812 C 157.859375 144.285156 156.53125 142.886719 154.890625 142.886719 Z M 154.890625 142.886719 " fill-opacity="1" fill-rule="nonzero"/></g><g fill="#000000" fill-opacity="1"><g transform="translate(149.369906, 140.78706)"><g><path d="M 3.195312 0.234375 L 3.195312 -6.652344 C 3.195312 -7.101562 2.960938 -7.324219 2.492188 -7.324219 L 0.53125 -7.324219 C 0.289062 -7.324219 0.179688 -7.226562 0.179688 -7.003906 L 0.179688 -6.011719 C 0.179688 -5.796875 0.289062 -5.6875 0.53125 -5.6875 L 0.945312 -5.6875 C 1.0625 -5.6875 1.125 -5.625 1.125 -5.507812 L 1.125 0.234375 C 1.125 0.460938 1.242188 0.566406 1.476562 0.566406 L 2.84375 0.566406 C 3.085938 0.566406 3.195312 0.460938 3.195312 0.234375 Z M 3.195312 0.234375 "/></g></g></g><g fill="#000000" fill-opacity="1"><g transform="translate(152.744929, 140.78706)"><g><path d="M 5.417969 -1.609375 C 5.417969 -1.261719 5.238281 -1.078125 4.886719 -1.078125 L 2.78125 -1.078125 C 2.429688 -1.078125 2.25 -1.261719 2.25 -1.609375 L 2.25 -5.15625 C 2.25 -5.507812 2.429688 -5.6875 2.78125 -5.6875 L 4.886719 -5.6875 C 5.238281 -5.6875 5.417969 -5.507812 5.417969 -5.15625 Z M 0.179688 -1.195312 C 0.179688 -0.0273438 0.765625 0.566406 1.933594 0.566406 L 5.734375 0.566406 C 6.902344 0.566406 7.480469 -0.0273438 7.488281 -1.195312 L 7.488281 -5.570312 C 7.480469 -6.742188 6.902344 -7.324219 5.734375 -7.324219 L 1.933594 -7.324219 C 0.765625 -7.324219 0.179688 -6.742188 0.179688 -5.570312 Z M 0.179688 -1.195312 "/></g></g></g><g fill="#000000" fill-opacity="1"><g transform="translate(224.96627, 235.879554)"><g><path d="M -3.195312 -0.234375 L -3.195312 6.652344 C -3.195312 7.101562 -2.960938 7.324219 -2.492188 7.324219 L -0.53125 7.324219 C -0.289062 7.324219 -0.179688 7.226562 -0.179688 7.003906 L -0.179688 6.011719 C -0.179688 5.796875 -0.289062 5.6875 -0.53125 5.6875 L -0.945312 5.6875 C -1.0625 5.6875 -1.125 5.625 -1.125 5.507812 L -1.125 -0.234375 C -1.125 -0.460938 -1.242188 -0.566406 -1.476562 -0.566406 L -2.84375 -0.566406 C -3.085938 -0.566406 -3.195312 -0.460938 -3.195312 -0.234375 Z M -3.195312 -0.234375 "/></g></g></g><g fill="#000000" fill-opacity="1"><g transform="translate(221.591247, 235.879554)"><g><path d="M -5.417969 1.609375 C -5.417969 1.261719 -5.238281 1.078125 -4.886719 1.078125 L -2.78125 1.078125 C -2.429688 1.078125 -2.25 1.261719 -2.25 1.609375 L -2.25 5.15625 C -2.25 5.507812 -2.429688 5.6875 -2.78125 5.6875 L -4.886719 5.6875 C -5.238281 5.6875 -5.417969 5.507812 -5.417969 5.15625 Z M -0.179688 1.195312 C -0.179688 0.0273438 -0.765625 -0.566406 -1.933594 -0.566406 L -5.734375 -0.566406 C -6.902344 -0.566406 -7.480469 0.0273438 -7.488281 1.195312 L -7.488281 5.570312 C -7.480469 6.742188 -6.902344 7.324219 -5.734375 7.324219 L -1.933594 7.324219 C -0.765625 7.324219 -0.179688 6.742188 -0.179688 5.570312 Z M -0.179688 1.195312 "/></g></g></g><g clip-path="url(#f3ab60a845)"><path fill="#463f57" d="M 219.433594 232.726562 C 221.074219 232.726562 222.40625 231.328125 222.40625 229.609375 C 222.390625 228.523438 221.832031 227.609375 221.25 226.738281 C 221.898438 227.230469 222.621094 227.527344 223.394531 227.527344 C 225.035156 227.527344 226.367188 226.132812 226.367188 224.410156 C 226.367188 222.6875 225.035156 221.289062 223.394531 221.289062 C 222.066406 221.3125 221.003906 222.242188 219.960938 223.023438 C 220.148438 220.6875 220.527344 219.378906 222.734375 218.863281 L 216.132812 218.863281 C 218.34375 219.378906 218.722656 220.6875 218.910156 223.023438 C 217.878906 222.136719 216.792969 221.386719 215.472656 221.289062 C 213.835938 221.289062 212.503906 222.6875 212.503906 224.410156 C 212.503906 226.132812 213.835938 227.527344 215.472656 227.527344 C 216.269531 227.527344 216.957031 227.164062 217.621094 226.738281 C 216.960938 227.601562 216.527344 228.53125 216.464844 229.609375 C 216.464844 231.328125 217.796875 232.726562 219.433594 232.726562 Z M 219.433594 232.726562 " fill-opacity="1" fill-rule="nonzero"/></g><g clip-path="url(#badf5e256c)"><path fill="#463f57" d="M 168.761719 149.820312 C 167.121094 149.820312 165.789062 151.21875 165.789062 152.941406 C 165.804688 154.023438 166.363281 154.941406 166.945312 155.8125 C 166.296875 155.320312 165.574219 155.023438 164.800781 155.019531 C 163.160156 155.019531 161.828125 156.417969 161.828125 158.140625 C 161.828125 159.863281 163.160156 161.257812 164.800781 161.257812 C 166.128906 161.238281 167.191406 160.308594 168.234375 159.527344 C 168.046875 161.859375 167.667969 163.171875 165.460938 163.683594 L 172.0625 163.683594 C 169.851562 163.171875 169.472656 161.859375 169.285156 159.527344 C 170.316406 160.410156 171.402344 161.160156 172.722656 161.257812 C 174.359375 161.257812 175.691406 159.863281 175.691406 158.140625 C 175.691406 156.417969 174.359375 155.019531 172.722656 155.019531 C 171.925781 155.019531 171.238281 155.386719 170.574219 155.8125 C 171.234375 154.949219 171.667969 154.019531 171.730469 152.941406 C 171.730469 151.21875 170.398438 149.820312 168.761719 149.820312 Z M 168.761719 149.820312 " fill-opacity="1" fill-rule="nonzero"/></g><g clip-path="url(#012a2a2102)"><path fill="#463f57" d="M 168.761719 225.792969 C 170.398438 225.792969 171.730469 224.394531 171.730469 222.671875 C 171.714844 221.589844 171.15625 220.671875 170.574219 219.800781 C 171.222656 220.292969 171.945312 220.589844 172.722656 220.59375 C 174.359375 220.59375 175.691406 219.195312 175.691406 217.472656 C 175.691406 215.753906 174.359375 214.355469 172.722656 214.355469 C 171.394531 214.378906 170.332031 215.304688 169.285156 216.085938 C 169.472656 213.753906 169.851562 212.445312 172.0625 211.929688 L 165.460938 211.929688 C 167.667969 212.445312 168.046875 213.753906 168.234375 216.085938 C 167.203125 215.203125 166.121094 214.453125 164.800781 214.355469 C 163.160156 214.355469 161.828125 215.753906 161.828125 217.472656 C 161.828125 219.195312 163.160156 220.59375 164.800781 220.59375 C 165.59375 220.59375 166.28125 220.226562 166.945312 219.800781 C 166.285156 220.664062 165.851562 221.59375 165.789062 222.671875 C 165.789062 224.394531 167.121094 225.792969 168.761719 225.792969 Z M 168.761719 225.792969 " fill-opacity="1" fill-rule="nonzero"/></g><g clip-path="url(#61a85c624a)"><path fill="#463f57" d="M 205.566406 149.820312 C 203.925781 149.820312 202.59375 151.21875 202.59375 152.941406 C 202.609375 154.023438 203.167969 154.941406 203.75 155.8125 C 203.101562 155.320312 202.378906 155.023438 201.605469 155.019531 C 199.964844 155.019531 198.632812 156.417969 198.632812 158.140625 C 198.632812 159.863281 199.964844 161.257812 201.605469 161.257812 C 202.933594 161.238281 203.996094 160.308594 205.039062 159.527344 C 204.851562 161.859375 204.472656 163.171875 202.265625 163.683594 L 208.867188 163.683594 C 206.65625 163.171875 206.277344 161.859375 206.089844 159.527344 C 207.121094 160.410156 208.203125 161.160156 209.527344 161.257812 C 211.164062 161.257812 212.496094 159.863281 212.496094 158.140625 C 212.496094 156.417969 211.164062 155.019531 209.527344 155.019531 C 208.730469 155.019531 208.042969 155.386719 207.378906 155.8125 C 208.039062 154.949219 208.472656 154.019531 208.535156 152.941406 C 208.535156 151.21875 207.203125 149.820312 205.566406 149.820312 Z M 205.566406 149.820312 " fill-opacity="1" fill-rule="nonzero"/></g><g clip-path="url(#e858125ea2)"><path fill="#463f57" d="M 168.761719 170.996094 C 167.121094 170.996094 165.789062 172.390625 165.789062 174.113281 C 165.804688 175.195312 166.363281 176.113281 166.945312 176.984375 C 166.296875 176.492188 165.574219 176.195312 164.800781 176.191406 C 163.160156 176.191406 161.828125 177.589844 161.828125 179.3125 C 161.828125 181.035156 163.160156 182.429688 164.800781 182.429688 C 166.128906 182.410156 167.191406 181.480469 168.234375 180.699219 C 168.046875 183.03125 167.667969 184.34375 165.460938 184.859375 L 172.0625 184.859375 C 169.851562 184.34375 169.472656 183.03125 169.285156 180.699219 C 170.316406 181.582031 171.402344 182.332031 172.722656 182.429688 C 174.359375 182.429688 175.691406 181.035156 175.691406 179.3125 C 175.691406 177.589844 174.359375 176.191406 172.722656 176.191406 C 171.925781 176.191406 171.238281 176.558594 170.574219 176.984375 C 171.234375 176.121094 171.667969 175.191406 171.730469 174.113281 C 171.730469 172.390625 170.398438 170.996094 168.761719 170.996094 Z M 168.761719 170.996094 " fill-opacity="1" fill-rule="nonzero"/></g><g clip-path="url(#ecd105d22e)"><path fill="#463f57" d="M 205.566406 170.996094 C 203.925781 170.996094 202.59375 172.390625 202.59375 174.113281 C 202.609375 175.195312 203.167969 176.113281 203.75 176.984375 C 203.101562 176.492188 202.378906 176.195312 201.605469 176.191406 C 199.964844 176.191406 198.632812 177.589844 198.632812 179.3125 C 198.632812 181.035156 199.964844 182.429688 201.605469 182.429688 C 202.933594 182.410156 203.996094 181.480469 205.039062 180.699219 C 204.851562 183.03125 204.472656 184.34375 202.265625 184.859375 L 208.867188 184.859375 C 206.65625 184.34375 206.277344 183.03125 206.089844 180.699219 C 207.121094 181.582031 208.203125 182.332031 209.527344 182.429688 C 211.164062 182.429688 212.496094 181.035156 212.496094 179.3125 C 212.496094 177.589844 211.164062 176.191406 209.527344 176.191406 C 208.730469 176.191406 208.042969 176.558594 207.378906 176.984375 C 208.039062 176.121094 208.472656 175.191406 208.535156 174.113281 C 208.535156 172.390625 207.203125 170.996094 205.566406 170.996094 Z M 205.566406 170.996094 " fill-opacity="1" fill-rule="nonzero"/></g><g clip-path="url(#eadee085e4)"><path fill="#5271ff" d="M 187.496094 156.757812 C 185.855469 156.757812 184.527344 158.15625 184.527344 159.875 C 184.539062 160.960938 185.097656 161.875 185.679688 162.746094 C 185.03125 162.253906 184.3125 161.960938 183.535156 161.957031 C 181.894531 161.957031 180.566406 163.351562 180.566406 165.074219 C 180.566406 166.796875 181.894531 168.195312 183.535156 168.195312 C 184.863281 168.171875 185.925781 167.242188 186.96875 166.460938 C 186.785156 168.796875 186.402344 170.105469 184.195312 170.621094 L 190.796875 170.621094 C 188.589844 170.105469 188.210938 168.796875 188.023438 166.460938 C 189.054688 167.347656 190.136719 168.097656 191.457031 168.195312 C 193.097656 168.195312 194.429688 166.796875 194.429688 165.074219 C 194.429688 163.351562 193.097656 161.957031 191.457031 161.957031 C 190.660156 161.957031 189.972656 162.320312 189.3125 162.746094 C 189.96875 161.882812 190.402344 160.953125 190.46875 159.875 C 190.46875 158.15625 189.136719 156.757812 187.496094 156.757812 Z M 187.496094 156.757812 " fill-opacity="1" fill-rule="nonzero"/></g><g clip-path="url(#d8cf8025a1)"><path fill="#463f57" d="M 205.566406 205.476562 C 207.203125 205.476562 208.535156 204.082031 208.535156 202.359375 C 208.519531 201.273438 207.960938 200.359375 207.378906 199.488281 C 208.027344 199.980469 208.75 200.277344 209.527344 200.277344 C 211.164062 200.277344 212.496094 198.882812 212.496094 197.160156 C 212.496094 195.4375 211.164062 194.039062 209.527344 194.039062 C 208.199219 194.0625 207.136719 194.992188 206.089844 195.773438 C 206.277344 193.441406 206.65625 192.128906 208.867188 191.613281 L 202.265625 191.613281 C 204.472656 192.128906 204.851562 193.441406 205.039062 195.773438 C 204.007812 194.890625 202.925781 194.140625 201.605469 194.039062 C 199.964844 194.039062 198.632812 195.4375 198.632812 197.160156 C 198.632812 198.882812 199.964844 200.277344 201.605469 200.277344 C 202.398438 200.28125 203.085938 199.914062 203.75 199.488281 C 203.089844 200.351562 202.65625 201.28125 202.59375 202.359375 C 202.59375 204.082031 203.925781 205.476562 205.566406 205.476562 Z M 205.566406 205.476562 " fill-opacity="1" fill-rule="nonzero"/></g><g clip-path="url(#4947a6ecab)"><path fill="#463f57" d="M 168.761719 205.476562 C 170.398438 205.476562 171.730469 204.082031 171.730469 202.359375 C 171.714844 201.273438 171.15625 200.359375 170.574219 199.488281 C 171.222656 199.980469 171.945312 200.277344 172.722656 200.277344 C 174.359375 200.277344 175.691406 198.882812 175.691406 197.160156 C 175.691406 195.4375 174.359375 194.039062 172.722656 194.039062 C 171.394531 194.0625 170.332031 194.992188 169.285156 195.773438 C 169.472656 193.441406 169.851562 192.128906 172.0625 191.613281 L 165.460938 191.613281 C 167.667969 192.128906 168.046875 193.441406 168.234375 195.773438 C 167.203125 194.890625 166.121094 194.140625 164.800781 194.039062 C 163.160156 194.039062 161.828125 195.4375 161.828125 197.160156 C 161.828125 198.882812 163.160156 200.277344 164.800781 200.277344 C 165.59375 200.28125 166.28125 199.914062 166.945312 199.488281 C 166.285156 200.351562 165.851562 201.28125 165.789062 202.359375 C 165.789062 204.082031 167.121094 205.476562 168.761719 205.476562 Z M 168.761719 205.476562 " fill-opacity="1" fill-rule="nonzero"/></g><g clip-path="url(#23dd4a45fc)"><path fill="#463f57" d="M 205.566406 225.792969 C 207.203125 225.792969 208.535156 224.394531 208.535156 222.671875 C 208.519531 221.589844 207.960938 220.671875 207.378906 219.800781 C 208.027344 220.292969 208.75 220.589844 209.527344 220.59375 C 211.164062 220.59375 212.496094 219.195312 212.496094 217.472656 C 212.496094 215.753906 211.164062 214.355469 209.527344 214.355469 C 208.199219 214.378906 207.136719 215.304688 206.089844 216.085938 C 206.277344 213.753906 206.65625 212.445312 208.867188 211.929688 L 202.265625 211.929688 C 204.472656 212.445312 204.851562 213.753906 205.039062 216.085938 C 204.007812 215.203125 202.925781 214.453125 201.605469 214.355469 C 199.964844 214.355469 198.632812 215.753906 198.632812 217.472656 C 198.632812 219.195312 199.964844 220.59375 201.605469 220.59375 C 202.398438 220.59375 203.085938 220.226562 203.75 219.800781 C 203.089844 220.664062 202.65625 221.59375 202.59375 222.671875 C 202.59375 224.394531 203.925781 225.792969 205.566406 225.792969 Z M 205.566406 225.792969 " fill-opacity="1" fill-rule="nonzero"/></g><g clip-path="url(#1c0ba57761)"><path fill="#5271ff" d="M 187.496094 218.855469 C 189.136719 218.855469 190.46875 217.460938 190.46875 215.738281 C 190.453125 214.652344 189.894531 213.738281 189.3125 212.867188 C 189.960938 213.359375 190.679688 213.65625 191.457031 213.65625 C 193.097656 213.65625 194.429688 212.261719 194.429688 210.539062 C 194.429688 208.816406 193.097656 207.417969 191.457031 207.417969 C 190.128906 207.441406 189.066406 208.371094 188.023438 209.152344 C 188.210938 206.820312 188.589844 205.507812 190.796875 204.992188 L 184.195312 204.992188 C 186.402344 205.507812 186.785156 206.820312 186.96875 209.152344 C 185.9375 208.269531 184.855469 207.519531 183.535156 207.417969 C 181.894531 207.417969 180.566406 208.816406 180.566406 210.539062 C 180.566406 212.261719 181.894531 213.65625 183.535156 213.65625 C 184.332031 213.65625 185.019531 213.292969 185.679688 212.867188 C 185.023438 213.730469 184.589844 214.660156 184.527344 215.738281 C 184.527344 217.460938 185.855469 218.855469 187.496094 218.855469 Z M 187.496094 218.855469 " fill-opacity="1" fill-rule="nonzero"/></g></svg>