<svg xmlns="http://www.w3.org/2000/svg" xmlns:xlink="http://www.w3.org/1999/xlink" width="500" zoomAndPan="magnify" viewBox="0 0 375 374.999991" height="500" preserveAspectRatio="xMidYMid meet" version="1.0"><defs><g/><clipPath id="07272672d4"><path d="M 142.351562 124.464844 L 232.648438 124.464844 L 232.648438 250.535156 L 142.351562 250.535156 Z M 142.351562 124.464844 " clip-rule="nonzero"/></clipPath><clipPath id="e22939e605"><path d="M 149.101562 124.464844 L 225.898438 124.464844 C 227.6875 124.464844 229.40625 125.175781 230.671875 126.441406 C 231.9375 127.707031 232.648438 129.425781 232.648438 131.214844 L 232.648438 243.785156 C 232.648438 245.574219 231.9375 247.292969 230.671875 248.558594 C 229.40625 249.824219 227.6875 250.535156 225.898438 250.535156 L 149.101562 250.535156 C 145.375 250.535156 142.351562 247.511719 142.351562 243.785156 L 142.351562 131.214844 C 142.351562 127.488281 145.375 124.464844 149.101562 124.464844 Z M 149.101562 124.464844 " clip-rule="nonzero"/></clipPath><clipPath id="94e1ca147e"><path d="M 142.355469 124.464844 L 232.351562 124.464844 L 232.351562 250.464844 L 142.355469 250.464844 Z M 142.355469 124.464844 " clip-rule="nonzero"/></clipPath><clipPath id="8b7495cb91"><path d="M 149.105469 124.464844 L 225.894531 124.464844 C 227.683594 124.464844 229.398438 125.175781 230.664062 126.441406 C 231.929688 127.707031 232.644531 129.425781 232.644531 131.214844 L 232.644531 243.773438 C 232.644531 245.566406 231.929688 247.28125 230.664062 248.546875 C 229.398438 249.8125 227.683594 250.523438 225.894531 250.523438 L 149.105469 250.523438 C 145.375 250.523438 142.355469 247.503906 142.355469 243.773438 L 142.355469 131.214844 C 142.355469 127.488281 145.375 124.464844 149.105469 124.464844 Z M 149.105469 124.464844 " clip-rule="nonzero"/></clipPath><clipPath id="e108eebf38"><path d="M 147.957031 142.886719 L 161.457031 142.886719 L 161.457031 156.386719 L 147.957031 156.386719 Z M 147.957031 142.886719 " clip-rule="nonzero"/></clipPath><clipPath id="aba6daae67"><path d="M 212.867188 219.226562 L 226.367188 219.226562 L 226.367188 232.726562 L 212.867188 232.726562 Z M 212.867188 219.226562 " clip-rule="nonzero"/></clipPath><clipPath id="f8df9665cf"><path d="M 180.566406 156.757812 L 194.066406 156.757812 L 194.066406 170.257812 L 180.566406 170.257812 Z M 180.566406 156.757812 " clip-rule="nonzero"/></clipPath><clipPath id="38b19226ff"><path d="M 180.929688 205.355469 L 194.429688 205.355469 L 194.429688 218.855469 L 180.929688 218.855469 Z M 180.929688 205.355469 " clip-rule="nonzero"/></clipPath></defs><g clip-path="url(#07272672d4)"><g clip-path="url(#e22939e605)"><path fill="#ffffff" d="M 142.351562 124.464844 L 232.648438 124.464844 L 232.648438 250.535156 L 142.351562 250.535156 Z M 142.351562 124.464844 " fill-opacity="1" fill-rule="nonzero"/></g></g><g clip-path="url(#94e1ca147e)"><g clip-path="url(#8b7495cb91)"><path stroke-linecap="butt" transform="matrix(0.75, 0, 0, 0.75, 142.354186, 124.46548)" fill="none" stroke-linejoin="miter" d="M 9.001712 -0.000848102 L 111.387135 -0.000848102 C 113.772552 -0.000848102 116.05901 0.947069 117.74651 2.634569 C 119.43401 4.322069 120.387136 6.613736 120.387136 8.999152 L 120.387136 159.077287 C 120.387136 161.467913 119.43401 163.754371 117.74651 165.441871 C 116.05901 167.129371 113.772552 168.077288 111.387135 168.077288 L 9.001712 168.077288 C 4.027753 168.077288 0.00171093 164.051246 0.00171093 159.077287 L 0.00171093 8.999152 C 0.00171093 4.030402 4.027753 -0.000848102 9.001712 -0.000848102 Z M 9.001712 -0.000848102 " stroke="#463f57" stroke-width="12" stroke-opacity="1" stroke-miterlimit="4"/></g></g><g clip-path="url(#e108eebf38)"><path fill="#463f57" d="M 154.890625 142.886719 C 153.25 142.886719 151.917969 144.285156 151.917969 146.007812 C 151.933594 147.089844 152.492188 148.003906 153.074219 148.875 C 152.425781 148.386719 151.703125 148.089844 150.929688 148.085938 C 149.289062 148.085938 147.957031 149.484375 147.957031 151.203125 C 147.957031 152.925781 149.289062 154.324219 150.929688 154.324219 C 152.257812 154.300781 153.320312 153.371094 154.363281 152.589844 C 154.175781 154.925781 153.796875 156.234375 151.589844 156.75 L 158.191406 156.75 C 155.984375 156.234375 155.601562 154.925781 155.414062 152.589844 C 156.449219 153.476562 157.53125 154.226562 158.851562 154.324219 C 160.492188 154.324219 161.820312 152.925781 161.820312 151.203125 C 161.820312 149.484375 160.492188 148.085938 158.851562 148.085938 C 158.054688 148.085938 157.367188 148.453125 156.707031 148.875 C 157.363281 148.015625 157.796875 147.085938 157.859375 146.007812 C 157.859375 144.285156 156.53125 142.886719 154.890625 142.886719 Z M 154.890625 142.886719 " fill-opacity="1" fill-rule="nonzero"/></g><g fill="#000000" fill-opacity="1"><g transform="translate(151.052515, 140.786885)"><g><path d="M 2.25 -4.96875 L 2.25 -5.15625 C 2.25 -5.507812 2.429688 -5.6875 2.78125 -5.6875 L 4.886719 -5.6875 C 5.238281 -5.6875 5.417969 -5.507812 5.417969 -5.15625 L 5.417969 -4.347656 C 5.417969 -3.996094 5.238281 -3.824219 4.886719 -3.824219 L 1.933594 -3.824219 C 0.765625 -3.824219 0.179688 -3.230469 0.179688 -2.0625 L 0.179688 0.234375 C 0.179688 0.460938 0.289062 0.566406 0.53125 0.566406 L 7.136719 0.566406 C 7.371094 0.566406 7.488281 0.460938 7.488281 0.234375 L 7.488281 -0.757812 C 7.488281 -0.972656 7.371094 -1.078125 7.136719 -1.078125 L 2.429688 -1.078125 C 2.3125 -1.078125 2.25 -1.144531 2.25 -1.261719 L 2.25 -1.65625 C 2.25 -2.007812 2.429688 -2.179688 2.78125 -2.179688 L 5.734375 -2.179688 C 6.902344 -2.179688 7.480469 -2.773438 7.488281 -3.941406 L 7.488281 -5.570312 C 7.480469 -6.742188 6.902344 -7.324219 5.734375 -7.324219 L 1.933594 -7.324219 C 0.765625 -7.324219 0.179688 -6.742188 0.179688 -5.570312 L 0.179688 -4.96875 C 0.179688 -4.742188 0.289062 -4.644531 0.53125 -4.644531 L 1.898438 -4.644531 C 2.132812 -4.644531 2.25 -4.742188 2.25 -4.96875 Z M 2.25 -4.96875 "/></g></g></g><g fill="#000000" fill-opacity="1"><g transform="translate(223.268135, 234.829614)"><g><path d="M -2.25 4.96875 L -2.25 5.15625 C -2.25 5.507812 -2.429688 5.6875 -2.78125 5.6875 L -4.886719 5.6875 C -5.238281 5.6875 -5.417969 5.507812 -5.417969 5.15625 L -5.417969 4.347656 C -5.417969 3.996094 -5.238281 3.824219 -4.886719 3.824219 L -1.933594 3.824219 C -0.765625 3.824219 -0.179688 3.230469 -0.179688 2.0625 L -0.179688 -0.234375 C -0.179688 -0.460938 -0.289062 -0.566406 -0.53125 -0.566406 L -7.136719 -0.566406 C -7.371094 -0.566406 -7.488281 -0.460938 -7.488281 -0.234375 L -7.488281 0.757812 C -7.488281 0.972656 -7.371094 1.078125 -7.136719 1.078125 L -2.429688 1.078125 C -2.3125 1.078125 -2.25 1.144531 -2.25 1.261719 L -2.25 1.65625 C -2.25 2.007812 -2.429688 2.179688 -2.78125 2.179688 L -5.734375 2.179688 C -6.902344 2.179688 -7.480469 2.773438 -7.488281 3.941406 L -7.488281 5.570312 C -7.480469 6.742188 -6.902344 7.324219 -5.734375 7.324219 L -1.933594 7.324219 C -0.765625 7.324219 -0.179688 6.742188 -0.179688 5.570312 L -0.179688 4.96875 C -0.179688 4.742188 -0.289062 4.644531 -0.53125 4.644531 L -1.898438 4.644531 C -2.132812 4.644531 -2.25 4.742188 -2.25 4.96875 Z M -2.25 4.96875 "/></g></g></g><g clip-path="url(#aba6daae67)"><path fill="#463f57" d="M 219.433594 232.726562 C 221.074219 232.726562 222.40625 231.328125 222.40625 229.609375 C 222.390625 228.523438 221.832031 227.609375 221.25 226.738281 C 221.898438 227.230469 222.621094 227.527344 223.394531 227.527344 C 225.035156 227.527344 226.367188 226.132812 226.367188 224.410156 C 226.367188 222.6875 225.035156 221.289062 223.394531 221.289062 C 222.066406 221.3125 221.003906 222.242188 219.960938 223.023438 C 220.148438 220.6875 220.527344 219.378906 222.734375 218.863281 L 216.132812 218.863281 C 218.34375 219.378906 218.722656 220.6875 218.910156 223.023438 C 217.878906 222.136719 216.792969 221.386719 215.472656 221.289062 C 213.835938 221.289062 212.503906 222.6875 212.503906 224.410156 C 212.503906 226.132812 213.835938 227.527344 215.472656 227.527344 C 216.269531 227.527344 216.957031 227.164062 217.621094 226.738281 C 216.960938 227.601562 216.527344 228.53125 216.464844 229.609375 C 216.464844 231.328125 217.796875 232.726562 219.433594 232.726562 Z M 219.433594 232.726562 " fill-opacity="1" fill-rule="nonzero"/></g><g clip-path="url(#f8df9665cf)"><path fill="#463f57" d="M 187.496094 156.757812 C 185.855469 156.757812 184.527344 158.15625 184.527344 159.875 C 184.539062 160.960938 185.097656 161.875 185.679688 162.746094 C 185.03125 162.257812 184.3125 161.960938 183.535156 161.957031 C 181.894531 161.957031 180.566406 163.351562 180.566406 165.074219 C 180.566406 166.796875 181.894531 168.195312 183.535156 168.195312 C 184.863281 168.171875 185.925781 167.242188 186.96875 166.460938 C 186.785156 168.796875 186.402344 170.105469 184.195312 170.621094 L 190.796875 170.621094 C 188.589844 170.105469 188.210938 168.796875 188.023438 166.460938 C 189.054688 167.347656 190.136719 168.097656 191.457031 168.195312 C 193.097656 168.195312 194.429688 166.796875 194.429688 165.074219 C 194.429688 163.351562 193.097656 161.957031 191.457031 161.957031 C 190.660156 161.957031 189.972656 162.324219 189.3125 162.746094 C 189.96875 161.882812 190.402344 160.953125 190.46875 159.875 C 190.46875 158.15625 189.136719 156.757812 187.496094 156.757812 Z M 187.496094 156.757812 " fill-opacity="1" fill-rule="nonzero"/></g><g clip-path="url(#38b19226ff)"><path fill="#463f57" d="M 187.496094 218.855469 C 189.136719 218.855469 190.46875 217.460938 190.46875 215.738281 C 190.453125 214.652344 189.894531 213.738281 189.3125 212.867188 C 189.960938 213.359375 190.679688 213.65625 191.457031 213.65625 C 193.097656 213.65625 194.429688 212.261719 194.429688 210.539062 C 194.429688 208.816406 193.097656 207.417969 191.457031 207.417969 C 190.128906 207.441406 189.066406 208.371094 188.023438 209.152344 C 188.210938 206.820312 188.589844 205.507812 190.796875 204.992188 L 184.195312 204.992188 C 186.402344 205.507812 186.785156 206.820312 186.96875 209.152344 C 185.9375 208.269531 184.855469 207.519531 183.535156 207.417969 C 181.894531 207.417969 180.566406 208.816406 180.566406 210.539062 C 180.566406 212.261719 181.894531 213.65625 183.535156 213.65625 C 184.332031 213.65625 185.019531 213.292969 185.679688 212.867188 C 185.023438 213.730469 184.589844 214.660156 184.527344 215.738281 C 184.527344 217.460938 185.855469 218.855469 187.496094 218.855469 Z M 187.496094 218.855469 " fill-opacity="1" fill-rule="nonzero"/></g></svg>