<svg xmlns="http://www.w3.org/2000/svg" xmlns:xlink="http://www.w3.org/1999/xlink" width="500" zoomAndPan="magnify" viewBox="0 0 375 374.999991" height="500" preserveAspectRatio="xMidYMid meet" version="1.0"><defs><g/><clipPath id="98415e11dd"><path d="M 142.351562 124.464844 L 232.648438 124.464844 L 232.648438 250.535156 L 142.351562 250.535156 Z M 142.351562 124.464844 " clip-rule="nonzero"/></clipPath><clipPath id="2347d066f8"><path d="M 149.101562 124.464844 L 225.898438 124.464844 C 227.6875 124.464844 229.40625 125.175781 230.671875 126.441406 C 231.9375 127.707031 232.648438 129.425781 232.648438 131.214844 L 232.648438 243.785156 C 232.648438 245.574219 231.9375 247.292969 230.671875 248.558594 C 229.40625 249.824219 227.6875 250.535156 225.898438 250.535156 L 149.101562 250.535156 C 145.375 250.535156 142.351562 247.511719 142.351562 243.785156 L 142.351562 131.214844 C 142.351562 127.488281 145.375 124.464844 149.101562 124.464844 Z M 149.101562 124.464844 " clip-rule="nonzero"/></clipPath><clipPath id="8c04edceec"><path d="M 142.355469 124.464844 L 232.351562 124.464844 L 232.351562 250.464844 L 142.355469 250.464844 Z M 142.355469 124.464844 " clip-rule="nonzero"/></clipPath><clipPath id="55c0b58fbd"><path d="M 149.105469 124.464844 L 225.894531 124.464844 C 227.683594 124.464844 229.398438 125.175781 230.664062 126.441406 C 231.929688 127.707031 232.644531 129.425781 232.644531 131.214844 L 232.644531 243.773438 C 232.644531 245.566406 231.929688 247.28125 230.664062 248.546875 C 229.398438 249.8125 227.683594 250.523438 225.894531 250.523438 L 149.105469 250.523438 C 145.375 250.523438 142.355469 247.503906 142.355469 243.773438 L 142.355469 131.214844 C 142.355469 127.488281 145.375 124.464844 149.105469 124.464844 Z M 149.105469 124.464844 " clip-rule="nonzero"/></clipPath><clipPath id="727a66258e"><path d="M 148.390625 142.878906 L 161 142.878906 L 161 157.878906 L 148.390625 157.878906 Z M 148.390625 142.878906 " clip-rule="nonzero"/></clipPath><clipPath id="5c89c87539"><path d="M 213 218.070312 L 225.6875 218.070312 L 225.6875 232.742188 L 213 232.742188 Z M 213 218.070312 " clip-rule="nonzero"/></clipPath><clipPath id="256d12af9f"><path d="M 181 180.164062 L 193.746094 180.164062 L 193.746094 195 L 181 195 Z M 181 180.164062 " clip-rule="nonzero"/></clipPath></defs><g clip-path="url(#98415e11dd)"><g clip-path="url(#2347d066f8)"><path fill="#ffffff" d="M 142.351562 124.464844 L 232.648438 124.464844 L 232.648438 250.535156 L 142.351562 250.535156 Z M 142.351562 124.464844 " fill-opacity="1" fill-rule="nonzero"/></g></g><g clip-path="url(#8c04edceec)"><g clip-path="url(#55c0b58fbd)"><path stroke-linecap="butt" transform="matrix(0.75, 0, 0, 0.75, 142.354186, 124.465451)" fill="none" stroke-linejoin="miter" d="M 9.001712 -0.000809702 L 111.387135 -0.000809702 C 113.772552 -0.000809702 116.05901 0.947107 117.74651 2.634607 C 119.43401 4.322107 120.387136 6.613774 120.387136 8.999191 L 120.387136 159.077326 C 120.387136 161.467951 119.43401 163.754409 117.74651 165.441909 C 116.05901 167.12941 113.772552 168.077326 111.387135 168.077326 L 9.001712 168.077326 C 4.027753 168.077326 0.00171093 164.051284 0.00171093 159.077326 L 0.00171093 8.999191 C 0.00171093 4.030441 4.027753 -0.000809702 9.001712 -0.000809702 Z M 9.001712 -0.000809702 " stroke="#463f57" stroke-width="12" stroke-opacity="1" stroke-miterlimit="4"/></g></g><g clip-path="url(#727a66258e)"><path fill="#463f57" d="M 159.480469 148.738281 C 156.925781 146.273438 155.246094 143.699219 154.886719 142.957031 C 154.527344 143.699219 152.847656 146.273438 150.296875 148.738281 C 148.59375 150.53125 148.390625 152.882812 149.914062 154.335938 C 151.371094 155.769531 153.117188 154.761719 154.125 153.976562 C 154.101562 154.492188 153.925781 156.015625 152.511719 157.472656 L 157.304688 157.472656 C 155.871094 156.015625 155.695312 154.46875 155.695312 153.976562 C 156.679688 154.761719 158.425781 155.769531 159.90625 154.335938 C 161.382812 152.882812 161.183594 150.507812 159.480469 148.738281 " fill-opacity="1" fill-rule="nonzero"/></g><g clip-path="url(#5c89c87539)"><path fill="#463f57" d="M 224.023438 226.882812 C 221.46875 229.347656 219.792969 231.921875 219.433594 232.660156 C 219.074219 231.921875 217.394531 229.347656 214.839844 226.882812 C 213.140625 225.089844 212.9375 222.738281 214.460938 221.285156 C 215.914062 219.851562 217.664062 220.859375 218.671875 221.640625 C 218.648438 221.128906 218.46875 219.605469 217.058594 218.148438 L 221.851562 218.148438 C 220.417969 219.605469 220.238281 221.148438 220.238281 221.640625 C 221.226562 220.859375 222.972656 219.851562 224.449219 221.285156 C 225.929688 222.738281 225.726562 225.113281 224.023438 226.882812 " fill-opacity="1" fill-rule="nonzero"/></g><g fill="#000000" fill-opacity="1"><g transform="translate(151.067162, 140.786928)"><g><path d="M 4.355469 -7.335938 L 3.285156 -7.335938 C 2.960938 -7.34375 2.746094 -7.300781 2.628906 -7.183594 C 2.503906 -7.066406 2.402344 -6.867188 2.3125 -6.578125 L 0.199219 -0.53125 C 0.125 -0.324219 0.0703125 -0.144531 0.046875 0.0195312 C 0.0351562 0.253906 0.0976562 0.433594 0.207031 0.550781 C 0.324219 0.648438 0.523438 0.703125 0.792969 0.710938 L 1.46875 0.710938 C 1.738281 0.71875 1.945312 0.664062 2.0625 0.558594 C 2.179688 0.441406 2.277344 0.253906 2.347656 0.0195312 L 2.574219 -0.640625 L 5.066406 -0.640625 L 5.300781 0.0195312 C 5.371094 0.253906 5.464844 0.441406 5.589844 0.558594 C 5.707031 0.664062 5.902344 0.71875 6.183594 0.710938 L 6.859375 0.710938 C 7.128906 0.703125 7.324219 0.648438 7.441406 0.550781 C 7.558594 0.433594 7.613281 0.253906 7.605469 0.0195312 C 7.578125 -0.144531 7.523438 -0.324219 7.441406 -0.53125 L 5.335938 -6.578125 C 5.246094 -6.867188 5.140625 -7.066406 5.03125 -7.183594 C 4.90625 -7.300781 4.6875 -7.34375 4.355469 -7.335938 Z M 3.824219 -4.230469 L 4.328125 -2.773438 L 3.3125 -2.773438 Z M 3.824219 -4.230469 "/></g></g></g><g fill="#000000" fill-opacity="1"><g transform="translate(223.268135, 234.829643)"><g><path d="M -4.355469 7.335938 L -3.285156 7.335938 C -2.960938 7.34375 -2.746094 7.300781 -2.628906 7.183594 C -2.503906 7.066406 -2.402344 6.867188 -2.3125 6.578125 L -0.199219 0.53125 C -0.125 0.324219 -0.0703125 0.144531 -0.046875 -0.0195312 C -0.0351562 -0.253906 -0.0976562 -0.433594 -0.207031 -0.550781 C -0.324219 -0.648438 -0.523438 -0.703125 -0.792969 -0.710938 L -1.46875 -0.710938 C -1.738281 -0.71875 -1.945312 -0.664062 -2.0625 -0.558594 C -2.179688 -0.441406 -2.277344 -0.253906 -2.347656 -0.0195312 L -2.574219 0.640625 L -5.066406 0.640625 L -5.300781 -0.0195312 C -5.371094 -0.253906 -5.464844 -0.441406 -5.589844 -0.558594 C -5.707031 -0.664062 -5.902344 -0.71875 -6.183594 -0.710938 L -6.859375 -0.710938 C -7.128906 -0.703125 -7.324219 -0.648438 -7.441406 -0.550781 C -7.558594 -0.433594 -7.613281 -0.253906 -7.605469 -0.0195312 C -7.578125 0.144531 -7.523438 0.324219 -7.441406 0.53125 L -5.335938 6.578125 C -5.246094 6.867188 -5.140625 7.066406 -5.03125 7.183594 C -4.90625 7.300781 -4.6875 7.34375 -4.355469 7.335938 Z M -3.824219 4.230469 L -4.328125 2.773438 L -3.3125 2.773438 Z M -3.824219 4.230469 "/></g></g></g><g clip-path="url(#256d12af9f)"><path fill="#463f57" d="M 192.085938 186.019531 C 189.53125 183.558594 187.851562 180.980469 187.492188 180.242188 C 187.136719 180.980469 185.457031 183.558594 182.902344 186.019531 C 181.199219 187.8125 180.996094 190.164062 182.523438 191.621094 C 183.976562 193.054688 185.722656 192.046875 186.734375 191.261719 C 186.710938 191.777344 186.53125 193.300781 185.121094 194.757812 L 189.914062 194.757812 C 188.480469 193.300781 188.300781 191.753906 188.300781 191.261719 C 189.285156 192.046875 191.03125 193.054688 192.511719 191.621094 C 193.988281 190.164062 193.789062 187.789062 192.085938 186.019531 " fill-opacity="1" fill-rule="nonzero"/></g></svg>