<svg xmlns="http://www.w3.org/2000/svg" xmlns:xlink="http://www.w3.org/1999/xlink" width="500" zoomAndPan="magnify" viewBox="0 0 375 374.999991" height="500" preserveAspectRatio="xMidYMid meet" version="1.0"><defs><g/><clipPath id="ec5ab7adaa"><path d="M 142.351562 124.464844 L 232.648438 124.464844 L 232.648438 250.535156 L 142.351562 250.535156 Z M 142.351562 124.464844 " clip-rule="nonzero"/></clipPath><clipPath id="1960215293"><path d="M 149.101562 124.464844 L 225.898438 124.464844 C 227.6875 124.464844 229.40625 125.175781 230.671875 126.441406 C 231.9375 127.707031 232.648438 129.425781 232.648438 131.214844 L 232.648438 243.785156 C 232.648438 245.574219 231.9375 247.292969 230.671875 248.558594 C 229.40625 249.824219 227.6875 250.535156 225.898438 250.535156 L 149.101562 250.535156 C 145.375 250.535156 142.351562 247.511719 142.351562 243.785156 L 142.351562 131.214844 C 142.351562 127.488281 145.375 124.464844 149.101562 124.464844 Z M 149.101562 124.464844 " clip-rule="nonzero"/></clipPath><clipPath id="86722efded"><path d="M 142.355469 124.464844 L 232.351562 124.464844 L 232.351562 250.464844 L 142.355469 250.464844 Z M 142.355469 124.464844 " clip-rule="nonzero"/></clipPath><clipPath id="8f08b0e5d0"><path d="M 149.105469 124.464844 L 225.894531 124.464844 C 227.683594 124.464844 229.398438 125.175781 230.664062 126.441406 C 231.929688 127.707031 232.644531 129.425781 232.644531 131.214844 L 232.644531 243.773438 C 232.644531 245.566406 231.929688 247.28125 230.664062 248.546875 C 229.398438 249.8125 227.683594 250.523438 225.894531 250.523438 L 149.105469 250.523438 C 145.375 250.523438 142.355469 247.503906 142.355469 243.773438 L 142.355469 131.214844 C 142.355469 127.488281 145.375 124.464844 149.105469 124.464844 Z M 149.105469 124.464844 " clip-rule="nonzero"/></clipPath><clipPath id="38b58ad204"><path d="M 148.390625 142.878906 L 161 142.878906 L 161 157.878906 L 148.390625 157.878906 Z M 148.390625 142.878906 " clip-rule="nonzero"/></clipPath><clipPath id="2aec34f26f"><path d="M 213 218.070312 L 225.6875 218.070312 L 225.6875 232.742188 L 213 232.742188 Z M 213 218.070312 " clip-rule="nonzero"/></clipPath><clipPath id="0b77c5dfca"><path d="M 161.394531 157.550781 L 174 157.550781 L 174 172.550781 L 161.394531 172.550781 Z M 161.394531 157.550781 " clip-rule="nonzero"/></clipPath><clipPath id="d6e20feaf3"><path d="M 161.640625 203.066406 L 174 203.066406 L 174 218 L 161.640625 218 Z M 161.640625 203.066406 " clip-rule="nonzero"/></clipPath><clipPath id="83fda5114d"><path d="M 200 157.550781 L 212.683594 157.550781 L 212.683594 172.550781 L 200 172.550781 Z M 200 157.550781 " clip-rule="nonzero"/></clipPath><clipPath id="b10d69db3d"><path d="M 200.179688 203.066406 L 212.929688 203.066406 L 212.929688 218 L 200.179688 218 Z M 200.179688 203.066406 " clip-rule="nonzero"/></clipPath><clipPath id="525f6b3a23"><path d="M 161.394531 180.164062 L 174 180.164062 L 174 195 L 161.394531 195 Z M 161.394531 180.164062 " clip-rule="nonzero"/></clipPath><clipPath id="c611cc6054"><path d="M 200 180.472656 L 212.683594 180.472656 L 212.683594 195.472656 L 200 195.472656 Z M 200 180.472656 " clip-rule="nonzero"/></clipPath><clipPath id="af2814397f"><path d="M 181 168.050781 L 193.414062 168.050781 L 193.414062 183 L 181 183 Z M 181 168.050781 " clip-rule="nonzero"/></clipPath><clipPath id="103377a0c5"><path d="M 181 190.523438 L 193.660156 190.523438 L 193.660156 205.523438 L 181 205.523438 Z M 181 190.523438 " clip-rule="nonzero"/></clipPath></defs><g clip-path="url(#ec5ab7adaa)"><g clip-path="url(#1960215293)"><path fill="#ffffff" d="M 142.351562 124.464844 L 232.648438 124.464844 L 232.648438 250.535156 L 142.351562 250.535156 Z M 142.351562 124.464844 " fill-opacity="1" fill-rule="nonzero"/></g></g><g clip-path="url(#86722efded)"><g clip-path="url(#8f08b0e5d0)"><path stroke-linecap="butt" transform="matrix(0.75, 0, 0, 0.75, 142.354186, 124.46548)" fill="none" stroke-linejoin="miter" d="M 9.001712 -0.000848102 L 111.387135 -0.000848102 C 113.772552 -0.000848102 116.05901 0.947069 117.74651 2.634569 C 119.43401 4.322069 120.387136 6.613736 120.387136 8.999152 L 120.387136 159.077287 C 120.387136 161.467913 119.43401 163.754371 117.74651 165.441871 C 116.05901 167.129371 113.772552 168.077288 111.387135 168.077288 L 9.001712 168.077288 C 4.027753 168.077288 0.00171093 164.051246 0.00171093 159.077287 L 0.00171093 8.999152 C 0.00171093 4.030402 4.027753 -0.000848102 9.001712 -0.000848102 Z M 9.001712 -0.000848102 " stroke="#463f57" stroke-width="12" stroke-opacity="1" stroke-miterlimit="4"/></g></g><g clip-path="url(#38b58ad204)"><path fill="#463f57" d="M 159.480469 148.738281 C 156.925781 146.273438 155.246094 143.699219 154.886719 142.957031 C 154.527344 143.699219 152.847656 146.273438 150.296875 148.738281 C 148.59375 150.53125 148.390625 152.882812 149.914062 154.335938 C 151.371094 155.769531 153.117188 154.761719 154.125 153.976562 C 154.101562 154.492188 153.925781 156.015625 152.511719 157.472656 L 157.304688 157.472656 C 155.871094 156.015625 155.695312 154.46875 155.695312 153.976562 C 156.679688 154.761719 158.425781 155.769531 159.90625 154.335938 C 161.382812 152.882812 161.183594 150.507812 159.480469 148.738281 " fill-opacity="1" fill-rule="nonzero"/></g><g clip-path="url(#2aec34f26f)"><path fill="#463f57" d="M 224.023438 226.882812 C 221.46875 229.347656 219.792969 231.921875 219.433594 232.660156 C 219.074219 231.921875 217.394531 229.347656 214.839844 226.882812 C 213.140625 225.089844 212.9375 222.738281 214.460938 221.285156 C 215.914062 219.851562 217.664062 220.859375 218.671875 221.640625 C 218.648438 221.128906 218.46875 219.605469 217.058594 218.148438 L 221.851562 218.148438 C 220.417969 219.605469 220.238281 221.148438 220.238281 221.640625 C 221.226562 220.859375 222.972656 219.851562 224.449219 221.285156 C 225.929688 222.738281 225.726562 225.113281 224.023438 226.882812 " fill-opacity="1" fill-rule="nonzero"/></g><g fill="#000000" fill-opacity="1"><g transform="translate(151.057406, 140.786943)"><g><path d="M 5.734375 -7.324219 L 1.933594 -7.324219 C 0.765625 -7.324219 0.1875 -6.742188 0.179688 -5.570312 L 0.179688 -4.609375 C 0.1875 -4.078125 0.359375 -3.664062 0.703125 -3.375 C 0.359375 -3.085938 0.1875 -2.671875 0.179688 -2.140625 L 0.179688 -1.195312 C 0.1875 -0.0273438 0.765625 0.566406 1.933594 0.566406 L 5.734375 0.566406 C 6.902344 0.566406 7.480469 -0.0273438 7.488281 -1.195312 L 7.488281 -2.140625 C 7.480469 -2.671875 7.308594 -3.085938 6.957031 -3.375 C 7.308594 -3.664062 7.480469 -4.078125 7.488281 -4.609375 L 7.488281 -5.570312 C 7.480469 -6.742188 6.902344 -7.324219 5.734375 -7.324219 Z M 4.886719 -1.078125 L 2.78125 -1.078125 C 2.429688 -1.078125 2.25 -1.261719 2.25 -1.609375 L 2.25 -2.035156 C 2.25 -2.386719 2.429688 -2.554688 2.78125 -2.554688 L 4.886719 -2.554688 C 5.238281 -2.554688 5.417969 -2.386719 5.417969 -2.035156 L 5.417969 -1.609375 C 5.417969 -1.261719 5.238281 -1.078125 4.886719 -1.078125 Z M 4.886719 -4.203125 L 2.78125 -4.203125 C 2.429688 -4.203125 2.25 -4.375 2.25 -4.726562 L 2.25 -5.15625 C 2.25 -5.507812 2.429688 -5.6875 2.78125 -5.6875 L 4.886719 -5.6875 C 5.238281 -5.6875 5.417969 -5.507812 5.417969 -5.15625 L 5.417969 -4.726562 C 5.417969 -4.375 5.238281 -4.203125 4.886719 -4.203125 Z M 4.886719 -4.203125 "/></g></g></g><g fill="#000000" fill-opacity="1"><g transform="translate(223.268135, 234.829672)"><g><path d="M -5.734375 7.324219 L -1.933594 7.324219 C -0.765625 7.324219 -0.1875 6.742188 -0.179688 5.570312 L -0.179688 4.609375 C -0.1875 4.078125 -0.359375 3.664062 -0.703125 3.375 C -0.359375 3.085938 -0.1875 2.671875 -0.179688 2.140625 L -0.179688 1.195312 C -0.1875 0.0273438 -0.765625 -0.566406 -1.933594 -0.566406 L -5.734375 -0.566406 C -6.902344 -0.566406 -7.480469 0.0273438 -7.488281 1.195312 L -7.488281 2.140625 C -7.480469 2.671875 -7.308594 3.085938 -6.957031 3.375 C -7.308594 3.664062 -7.480469 4.078125 -7.488281 4.609375 L -7.488281 5.570312 C -7.480469 6.742188 -6.902344 7.324219 -5.734375 7.324219 Z M -4.886719 1.078125 L -2.78125 1.078125 C -2.429688 1.078125 -2.25 1.261719 -2.25 1.609375 L -2.25 2.035156 C -2.25 2.386719 -2.429688 2.554688 -2.78125 2.554688 L -4.886719 2.554688 C -5.238281 2.554688 -5.417969 2.386719 -5.417969 2.035156 L -5.417969 1.609375 C -5.417969 1.261719 -5.238281 1.078125 -4.886719 1.078125 Z M -4.886719 4.203125 L -2.78125 4.203125 C -2.429688 4.203125 -2.25 4.375 -2.25 4.726562 L -2.25 5.15625 C -2.25 5.507812 -2.429688 5.6875 -2.78125 5.6875 L -4.886719 5.6875 C -5.238281 5.6875 -5.417969 5.507812 -5.417969 5.15625 L -5.417969 4.726562 C -5.417969 4.375 -5.238281 4.203125 -4.886719 4.203125 Z M -4.886719 4.203125 "/></g></g></g><g clip-path="url(#0b77c5dfca)"><path fill="#463f57" d="M 172.484375 163.410156 C 169.929688 160.945312 168.25 158.371094 167.890625 157.632812 C 167.53125 158.371094 165.851562 160.945312 163.300781 163.410156 C 161.597656 165.203125 161.394531 167.554688 162.917969 169.007812 C 164.375 170.441406 166.121094 169.433594 167.128906 168.652344 C 167.105469 169.164062 166.929688 170.6875 165.515625 172.144531 L 170.308594 172.144531 C 168.875 170.6875 168.699219 169.144531 168.699219 168.652344 C 169.683594 169.433594 171.429688 170.441406 172.910156 169.007812 C 174.386719 167.554688 174.1875 165.179688 172.484375 163.410156 " fill-opacity="1" fill-rule="nonzero"/></g><g clip-path="url(#d6e20feaf3)"><path fill="#463f57" d="M 163.304688 212.210938 C 165.859375 214.671875 167.535156 217.25 167.894531 217.988281 C 168.253906 217.25 169.933594 214.671875 172.488281 212.210938 C 174.1875 210.417969 174.390625 208.066406 172.867188 206.609375 C 171.414062 205.175781 169.664062 206.183594 168.65625 206.96875 C 168.679688 206.453125 168.859375 204.929688 170.269531 203.476562 L 165.476562 203.476562 C 166.910156 204.929688 167.089844 206.476562 167.089844 206.96875 C 166.101562 206.183594 164.355469 205.175781 162.878906 206.609375 C 161.398438 208.066406 161.601562 210.441406 163.304688 212.210938 " fill-opacity="1" fill-rule="nonzero"/></g><g clip-path="url(#83fda5114d)"><path fill="#463f57" d="M 211.019531 163.410156 C 208.464844 160.945312 206.789062 158.371094 206.429688 157.632812 C 206.070312 158.371094 204.390625 160.945312 201.835938 163.410156 C 200.136719 165.203125 199.933594 167.554688 201.457031 169.007812 C 202.910156 170.441406 204.660156 169.433594 205.667969 168.652344 C 205.644531 169.164062 205.464844 170.6875 204.054688 172.144531 L 208.847656 172.144531 C 207.414062 170.6875 207.234375 169.144531 207.234375 168.652344 C 208.222656 169.433594 209.96875 170.441406 211.445312 169.007812 C 212.925781 167.554688 212.722656 165.179688 211.019531 163.410156 " fill-opacity="1" fill-rule="nonzero"/></g><g clip-path="url(#b10d69db3d)"><path fill="#463f57" d="M 201.839844 212.210938 C 204.394531 214.671875 206.074219 217.25 206.433594 217.988281 C 206.792969 217.25 208.46875 214.671875 211.023438 212.210938 C 212.726562 210.417969 212.929688 208.066406 211.40625 206.609375 C 209.949219 205.175781 208.203125 206.183594 207.195312 206.96875 C 207.21875 206.453125 207.394531 204.929688 208.808594 203.476562 L 204.015625 203.476562 C 205.449219 204.929688 205.625 206.476562 205.625 206.96875 C 204.640625 206.183594 202.894531 205.175781 201.414062 206.609375 C 199.9375 208.066406 200.136719 210.441406 201.839844 212.210938 " fill-opacity="1" fill-rule="nonzero"/></g><g clip-path="url(#525f6b3a23)"><path fill="#463f57" d="M 172.484375 186.019531 C 169.929688 183.558594 168.25 180.980469 167.890625 180.242188 C 167.53125 180.980469 165.851562 183.558594 163.300781 186.019531 C 161.597656 187.8125 161.394531 190.164062 162.917969 191.621094 C 164.375 193.054688 166.121094 192.046875 167.128906 191.261719 C 167.105469 191.777344 166.929688 193.300781 165.515625 194.757812 L 170.308594 194.757812 C 168.875 193.300781 168.699219 191.753906 168.699219 191.261719 C 169.683594 192.046875 171.429688 193.054688 172.910156 191.621094 C 174.386719 190.164062 174.1875 187.789062 172.484375 186.019531 " fill-opacity="1" fill-rule="nonzero"/></g><g clip-path="url(#c611cc6054)"><path fill="#463f57" d="M 211.019531 186.332031 C 208.464844 183.867188 206.789062 181.292969 206.429688 180.554688 C 206.070312 181.292969 204.390625 183.867188 201.835938 186.332031 C 200.136719 188.125 199.933594 190.476562 201.457031 191.929688 C 202.910156 193.363281 204.660156 192.355469 205.667969 191.574219 C 205.644531 192.085938 205.464844 193.609375 204.054688 195.066406 L 208.847656 195.066406 C 207.414062 193.609375 207.234375 192.066406 207.234375 191.574219 C 208.222656 192.355469 209.96875 193.363281 211.445312 191.929688 C 212.925781 190.476562 212.722656 188.101562 211.019531 186.332031 " fill-opacity="1" fill-rule="nonzero"/></g><g clip-path="url(#af2814397f)"><path fill="#5271ff" d="M 191.75 173.910156 C 189.199219 171.445312 187.519531 168.871094 187.160156 168.132812 C 186.800781 168.871094 185.121094 171.445312 182.570312 173.910156 C 180.867188 175.703125 180.664062 178.054688 182.1875 179.507812 C 183.644531 180.941406 185.390625 179.933594 186.398438 179.152344 C 186.375 179.664062 186.195312 181.1875 184.785156 182.644531 L 189.578125 182.644531 C 188.144531 181.1875 187.96875 179.644531 187.96875 179.152344 C 188.953125 179.933594 190.699219 180.941406 192.179688 179.507812 C 193.65625 178.054688 193.453125 175.679688 191.75 173.910156 " fill-opacity="1" fill-rule="nonzero"/></g><g clip-path="url(#103377a0c5)"><path fill="#5271ff" d="M 182.574219 199.667969 C 185.125 202.128906 186.804688 204.707031 187.164062 205.445312 C 187.523438 204.707031 189.203125 202.128906 191.753906 199.667969 C 193.457031 197.875 193.660156 195.523438 192.136719 194.066406 C 190.679688 192.632812 188.933594 193.640625 187.925781 194.425781 C 187.949219 193.910156 188.128906 192.386719 189.539062 190.929688 L 184.746094 190.929688 C 186.179688 192.386719 186.355469 193.933594 186.355469 194.425781 C 185.371094 193.640625 183.625 192.632812 182.144531 194.066406 C 180.667969 195.523438 180.871094 197.898438 182.574219 199.667969 " fill-opacity="1" fill-rule="nonzero"/></g></svg>