<svg xmlns="http://www.w3.org/2000/svg" xmlns:xlink="http://www.w3.org/1999/xlink" width="500" zoomAndPan="magnify" viewBox="0 0 375 374.999991" height="500" preserveAspectRatio="xMidYMid meet" version="1.0"><defs><g/><clipPath id="c900d36c98"><path d="M 142.351562 124.464844 L 232.648438 124.464844 L 232.648438 250.535156 L 142.351562 250.535156 Z M 142.351562 124.464844 " clip-rule="nonzero"/></clipPath><clipPath id="0b47b67578"><path d="M 149.101562 124.464844 L 225.898438 124.464844 C 227.6875 124.464844 229.40625 125.175781 230.671875 126.441406 C 231.9375 127.707031 232.648438 129.425781 232.648438 131.214844 L 232.648438 243.785156 C 232.648438 245.574219 231.9375 247.292969 230.671875 248.558594 C 229.40625 249.824219 227.6875 250.535156 225.898438 250.535156 L 149.101562 250.535156 C 145.375 250.535156 142.351562 247.511719 142.351562 243.785156 L 142.351562 131.214844 C 142.351562 127.488281 145.375 124.464844 149.101562 124.464844 Z M 149.101562 124.464844 " clip-rule="nonzero"/></clipPath><clipPath id="75bac1aaa6"><path d="M 142.355469 124.464844 L 232.351562 124.464844 L 232.351562 250.464844 L 142.355469 250.464844 Z M 142.355469 124.464844 " clip-rule="nonzero"/></clipPath><clipPath id="d66122c021"><path d="M 149.105469 124.464844 L 225.894531 124.464844 C 227.683594 124.464844 229.398438 125.175781 230.664062 126.441406 C 231.929688 127.707031 232.644531 129.425781 232.644531 131.214844 L 232.644531 243.773438 C 232.644531 245.566406 231.929688 247.28125 230.664062 248.546875 C 229.398438 249.8125 227.683594 250.523438 225.894531 250.523438 L 149.105469 250.523438 C 145.375 250.523438 142.355469 247.503906 142.355469 243.773438 L 142.355469 131.214844 C 142.355469 127.488281 145.375 124.464844 149.105469 124.464844 Z M 149.105469 124.464844 " clip-rule="nonzero"/></clipPath><clipPath id="e4a87fc9f0"><path d="M 148.390625 142.878906 L 161 142.878906 L 161 157.878906 L 148.390625 157.878906 Z M 148.390625 142.878906 " clip-rule="nonzero"/></clipPath><clipPath id="25c3d35e77"><path d="M 213 218.070312 L 225.6875 218.070312 L 225.6875 232.742188 L 213 232.742188 Z M 213 218.070312 " clip-rule="nonzero"/></clipPath><clipPath id="a15b22f40d"><path d="M 161.394531 157.550781 L 174 157.550781 L 174 172.550781 L 161.394531 172.550781 Z M 161.394531 157.550781 " clip-rule="nonzero"/></clipPath><clipPath id="f8cae79cf0"><path d="M 161.640625 203.066406 L 174 203.066406 L 174 218 L 161.640625 218 Z M 161.640625 203.066406 " clip-rule="nonzero"/></clipPath><clipPath id="ce09f29b30"><path d="M 200 157.550781 L 212.683594 157.550781 L 212.683594 172.550781 L 200 172.550781 Z M 200 157.550781 " clip-rule="nonzero"/></clipPath><clipPath id="090698d4f5"><path d="M 200.179688 203.066406 L 212.929688 203.066406 L 212.929688 218 L 200.179688 218 Z M 200.179688 203.066406 " clip-rule="nonzero"/></clipPath><clipPath id="675440ca9c"><path d="M 181 180.164062 L 193.746094 180.164062 L 193.746094 195 L 181 195 Z M 181 180.164062 " clip-rule="nonzero"/></clipPath></defs><g clip-path="url(#c900d36c98)"><g clip-path="url(#0b47b67578)"><path fill="#ffffff" d="M 142.351562 124.464844 L 232.648438 124.464844 L 232.648438 250.535156 L 142.351562 250.535156 Z M 142.351562 124.464844 " fill-opacity="1" fill-rule="nonzero"/></g></g><g clip-path="url(#75bac1aaa6)"><g clip-path="url(#d66122c021)"><path stroke-linecap="butt" transform="matrix(0.75, 0, 0, 0.75, 142.354186, 124.465422)" fill="none" stroke-linejoin="miter" d="M 9.001712 -0.000771302 L 111.387135 -0.000771302 C 113.772552 -0.000771302 116.05901 0.947145 117.74651 2.634646 C 119.43401 4.322146 120.387136 6.613812 120.387136 8.999229 L 120.387136 159.077364 C 120.387136 161.467989 119.43401 163.754448 117.74651 165.441948 C 116.05901 167.129448 113.772552 168.077365 111.387135 168.077365 L 9.001712 168.077365 C 4.027753 168.077365 0.00171093 164.051323 0.00171093 159.077364 L 0.00171093 8.999229 C 0.00171093 4.030479 4.027753 -0.000771302 9.001712 -0.000771302 Z M 9.001712 -0.000771302 " stroke="#463f57" stroke-width="12" stroke-opacity="1" stroke-miterlimit="4"/></g></g><g clip-path="url(#e4a87fc9f0)"><path fill="#463f57" d="M 159.480469 148.738281 C 156.925781 146.273438 155.246094 143.699219 154.886719 142.957031 C 154.527344 143.699219 152.847656 146.273438 150.296875 148.738281 C 148.59375 150.53125 148.390625 152.882812 149.914062 154.335938 C 151.371094 155.769531 153.117188 154.761719 154.125 153.976562 C 154.101562 154.492188 153.925781 156.015625 152.511719 157.472656 L 157.304688 157.472656 C 155.871094 156.015625 155.695312 154.46875 155.695312 153.976562 C 156.679688 154.761719 158.425781 155.769531 159.90625 154.335938 C 161.382812 152.882812 161.183594 150.507812 159.480469 148.738281 " fill-opacity="1" fill-rule="nonzero"/></g><g clip-path="url(#25c3d35e77)"><path fill="#463f57" d="M 224.023438 226.882812 C 221.46875 229.347656 219.792969 231.921875 219.433594 232.660156 C 219.074219 231.921875 217.394531 229.347656 214.839844 226.882812 C 213.140625 225.089844 212.9375 222.738281 214.460938 221.285156 C 215.914062 219.851562 217.664062 220.859375 218.671875 221.644531 C 218.648438 221.128906 218.46875 219.605469 217.058594 218.148438 L 221.851562 218.148438 C 220.417969 219.605469 220.238281 221.152344 220.238281 221.644531 C 221.226562 220.859375 222.972656 219.851562 224.449219 221.285156 C 225.929688 222.738281 225.726562 225.113281 224.023438 226.882812 " fill-opacity="1" fill-rule="nonzero"/></g><g fill="#000000" fill-opacity="1"><g transform="translate(151.057406, 140.78706)"><g><path d="M 2.25 -1.800781 C 2.25 -2.023438 2.132812 -2.125 1.898438 -2.125 L 0.53125 -2.125 C 0.289062 -2.125 0.179688 -2.023438 0.179688 -1.800781 L 0.179688 -1.195312 C 0.179688 -0.0273438 0.765625 0.566406 1.933594 0.566406 L 5.734375 0.566406 C 6.902344 0.566406 7.480469 -0.0273438 7.488281 -1.195312 L 7.488281 -2.824219 C 7.480469 -3.996094 6.902344 -4.589844 5.734375 -4.589844 L 2.429688 -4.589844 C 2.3125 -4.589844 2.25 -4.652344 2.25 -4.761719 L 2.25 -5.507812 C 2.25 -5.625 2.3125 -5.6875 2.429688 -5.6875 L 7.136719 -5.6875 C 7.371094 -5.6875 7.488281 -5.796875 7.488281 -6.011719 L 7.488281 -7.003906 C 7.488281 -7.226562 7.371094 -7.324219 7.136719 -7.324219 L 0.53125 -7.324219 C 0.289062 -7.324219 0.179688 -7.226562 0.179688 -7.003906 L 0.179688 -3.292969 C 0.179688 -3.058594 0.289062 -2.941406 0.53125 -2.941406 L 4.886719 -2.941406 C 5.238281 -2.941406 5.417969 -2.773438 5.417969 -2.421875 L 5.417969 -1.609375 C 5.417969 -1.261719 5.238281 -1.078125 4.886719 -1.078125 L 2.78125 -1.078125 C 2.429688 -1.078125 2.25 -1.261719 2.25 -1.609375 Z M 2.25 -1.800781 "/></g></g></g><g fill="#000000" fill-opacity="1"><g transform="translate(223.268135, 234.829672)"><g><path d="M -2.25 1.800781 C -2.25 2.023438 -2.132812 2.125 -1.898438 2.125 L -0.53125 2.125 C -0.289062 2.125 -0.179688 2.023438 -0.179688 1.800781 L -0.179688 1.195312 C -0.179688 0.0273438 -0.765625 -0.566406 -1.933594 -0.566406 L -5.734375 -0.566406 C -6.902344 -0.566406 -7.480469 0.0273438 -7.488281 1.195312 L -7.488281 2.824219 C -7.480469 3.996094 -6.902344 4.589844 -5.734375 4.589844 L -2.429688 4.589844 C -2.3125 4.589844 -2.25 4.652344 -2.25 4.761719 L -2.25 5.507812 C -2.25 5.625 -2.3125 5.6875 -2.429688 5.6875 L -7.136719 5.6875 C -7.371094 5.6875 -7.488281 5.796875 -7.488281 6.011719 L -7.488281 7.003906 C -7.488281 7.226562 -7.371094 7.324219 -7.136719 7.324219 L -0.53125 7.324219 C -0.289062 7.324219 -0.179688 7.226562 -0.179688 7.003906 L -0.179688 3.292969 C -0.179688 3.058594 -0.289062 2.941406 -0.53125 2.941406 L -4.886719 2.941406 C -5.238281 2.941406 -5.417969 2.773438 -5.417969 2.421875 L -5.417969 1.609375 C -5.417969 1.261719 -5.238281 1.078125 -4.886719 1.078125 L -2.78125 1.078125 C -2.429688 1.078125 -2.25 1.261719 -2.25 1.609375 Z M -2.25 1.800781 "/></g></g></g><g clip-path="url(#a15b22f40d)"><path fill="#463f57" d="M 172.484375 163.410156 C 169.929688 160.945312 168.25 158.371094 167.890625 157.632812 C 167.53125 158.371094 165.851562 160.945312 163.300781 163.410156 C 161.597656 165.203125 161.394531 167.554688 162.917969 169.007812 C 164.375 170.441406 166.121094 169.433594 167.128906 168.652344 C 167.105469 169.164062 166.929688 170.6875 165.515625 172.144531 L 170.308594 172.144531 C 168.875 170.6875 168.699219 169.144531 168.699219 168.652344 C 169.683594 169.433594 171.429688 170.441406 172.910156 169.007812 C 174.386719 167.554688 174.1875 165.179688 172.484375 163.410156 " fill-opacity="1" fill-rule="nonzero"/></g><g clip-path="url(#f8cae79cf0)"><path fill="#463f57" d="M 163.304688 212.210938 C 165.859375 214.671875 167.535156 217.25 167.894531 217.988281 C 168.253906 217.25 169.933594 214.671875 172.488281 212.210938 C 174.1875 210.417969 174.390625 208.066406 172.867188 206.609375 C 171.414062 205.175781 169.664062 206.183594 168.65625 206.96875 C 168.679688 206.453125 168.859375 204.929688 170.269531 203.476562 L 165.476562 203.476562 C 166.910156 204.929688 167.089844 206.476562 167.089844 206.96875 C 166.101562 206.183594 164.355469 205.175781 162.878906 206.609375 C 161.398438 208.066406 161.601562 210.441406 163.304688 212.210938 " fill-opacity="1" fill-rule="nonzero"/></g><g clip-path="url(#ce09f29b30)"><path fill="#463f57" d="M 211.019531 163.410156 C 208.464844 160.945312 206.789062 158.371094 206.429688 157.632812 C 206.070312 158.371094 204.390625 160.945312 201.835938 163.410156 C 200.136719 165.203125 199.933594 167.554688 201.457031 169.007812 C 202.910156 170.441406 204.660156 169.433594 205.667969 168.652344 C 205.644531 169.164062 205.464844 170.6875 204.054688 172.144531 L 208.847656 172.144531 C 207.414062 170.6875 207.234375 169.144531 207.234375 168.652344 C 208.222656 169.433594 209.96875 170.441406 211.445312 169.007812 C 212.925781 167.554688 212.722656 165.179688 211.019531 163.410156 " fill-opacity="1" fill-rule="nonzero"/></g><g clip-path="url(#090698d4f5)"><path fill="#463f57" d="M 201.839844 212.210938 C 204.394531 214.671875 206.074219 217.25 206.433594 217.988281 C 206.792969 217.25 208.46875 214.671875 211.023438 212.210938 C 212.726562 210.417969 212.929688 208.066406 211.40625 206.609375 C 209.949219 205.175781 208.203125 206.183594 207.195312 206.96875 C 207.21875 206.453125 207.394531 204.929688 208.808594 203.476562 L 204.015625 203.476562 C 205.449219 204.929688 205.625 206.476562 205.625 206.96875 C 204.640625 206.183594 202.894531 205.175781 201.414062 206.609375 C 199.9375 208.066406 200.136719 210.441406 201.839844 212.210938 " fill-opacity="1" fill-rule="nonzero"/></g><g clip-path="url(#675440ca9c)"><path fill="#5271ff" d="M 192.085938 186.023438 C 189.53125 183.558594 187.851562 180.980469 187.492188 180.242188 C 187.136719 180.980469 185.457031 183.558594 182.902344 186.023438 C 181.199219 187.8125 180.996094 190.164062 182.523438 191.621094 C 183.976562 193.054688 185.722656 192.046875 186.734375 191.261719 C 186.710938 191.777344 186.53125 193.300781 185.121094 194.757812 L 189.914062 194.757812 C 188.480469 193.300781 188.300781 191.753906 188.300781 191.261719 C 189.285156 192.046875 191.03125 193.054688 192.511719 191.621094 C 193.988281 190.164062 193.789062 187.789062 192.085938 186.023438 " fill-opacity="1" fill-rule="nonzero"/></g></svg>