<svg xmlns="http://www.w3.org/2000/svg" xmlns:xlink="http://www.w3.org/1999/xlink" width="500" zoomAndPan="magnify" viewBox="0 0 375 374.999991" height="500" preserveAspectRatio="xMidYMid meet" version="1.0"><defs><g/><clipPath id="2294175e5c"><path d="M 142.351562 124.464844 L 232.648438 124.464844 L 232.648438 250.535156 L 142.351562 250.535156 Z M 142.351562 124.464844 " clip-rule="nonzero"/></clipPath><clipPath id="3a688a97dd"><path d="M 149.101562 124.464844 L 225.898438 124.464844 C 227.6875 124.464844 229.40625 125.175781 230.671875 126.441406 C 231.9375 127.707031 232.648438 129.425781 232.648438 131.214844 L 232.648438 243.785156 C 232.648438 245.574219 231.9375 247.292969 230.671875 248.558594 C 229.40625 249.824219 227.6875 250.535156 225.898438 250.535156 L 149.101562 250.535156 C 145.375 250.535156 142.351562 247.511719 142.351562 243.785156 L 142.351562 131.214844 C 142.351562 127.488281 145.375 124.464844 149.101562 124.464844 Z M 149.101562 124.464844 " clip-rule="nonzero"/></clipPath><clipPath id="0b1678915e"><path d="M 142.355469 124.464844 L 232.351562 124.464844 L 232.351562 250.464844 L 142.355469 250.464844 Z M 142.355469 124.464844 " clip-rule="nonzero"/></clipPath><clipPath id="362a2994b1"><path d="M 149.105469 124.464844 L 225.894531 124.464844 C 227.683594 124.464844 229.398438 125.175781 230.664062 126.441406 C 231.929688 127.707031 232.644531 129.425781 232.644531 131.214844 L 232.644531 243.773438 C 232.644531 245.566406 231.929688 247.28125 230.664062 248.546875 C 229.398438 249.8125 227.683594 250.523438 225.894531 250.523438 L 149.105469 250.523438 C 145.375 250.523438 142.355469 247.503906 142.355469 243.773438 L 142.355469 131.214844 C 142.355469 127.488281 145.375 124.464844 149.105469 124.464844 Z M 149.105469 124.464844 " clip-rule="nonzero"/></clipPath><clipPath id="dacb5dae07"><path d="M 148.390625 142.878906 L 161 142.878906 L 161 157.878906 L 148.390625 157.878906 Z M 148.390625 142.878906 " clip-rule="nonzero"/></clipPath><clipPath id="75021d06a4"><path d="M 213 218.070312 L 225.6875 218.070312 L 225.6875 232.742188 L 213 232.742188 Z M 213 218.070312 " clip-rule="nonzero"/></clipPath><clipPath id="a3a0e83fcb"><path d="M 158.757812 173 L 167 173 L 167 182 L 158.757812 182 Z M 158.757812 173 " clip-rule="nonzero"/></clipPath><clipPath id="ebdfb72f64"><path d="M 208 173 L 216.507812 173 L 216.507812 182 L 208 182 Z M 208 173 " clip-rule="nonzero"/></clipPath><clipPath id="4341d9ff9f"><path d="M 175 162.851562 L 184 162.851562 L 184 171 L 175 171 Z M 175 162.851562 " clip-rule="nonzero"/></clipPath><clipPath id="6a98e60c88"><path d="M 191 162.851562 L 200 162.851562 L 200 171 L 191 171 Z M 191 162.851562 " clip-rule="nonzero"/></clipPath><clipPath id="ce7cd5502f"><path d="M 168 206 L 206 206 L 206 212.351562 L 168 212.351562 Z M 168 206 " clip-rule="nonzero"/></clipPath></defs><g clip-path="url(#2294175e5c)"><g clip-path="url(#3a688a97dd)"><path fill="#ffffff" d="M 142.351562 124.464844 L 232.648438 124.464844 L 232.648438 250.535156 L 142.351562 250.535156 Z M 142.351562 124.464844 " fill-opacity="1" fill-rule="nonzero"/></g></g><g clip-path="url(#0b1678915e)"><g clip-path="url(#362a2994b1)"><path stroke-linecap="butt" transform="matrix(0.75, 0, 0, 0.75, 142.354186, 124.46548)" fill="none" stroke-linejoin="miter" d="M 9.001712 -0.000848102 L 111.387135 -0.000848102 C 113.772552 -0.000848102 116.05901 0.947069 117.74651 2.634569 C 119.43401 4.322069 120.387136 6.613736 120.387136 8.999152 L 120.387136 159.077287 C 120.387136 161.467913 119.43401 163.754371 117.74651 165.441871 C 116.05901 167.129371 113.772552 168.077288 111.387135 168.077288 L 9.001712 168.077288 C 4.027753 168.077288 0.00171093 164.051246 0.00171093 159.077287 L 0.00171093 8.999152 C 0.00171093 4.030402 4.027753 -0.000848102 9.001712 -0.000848102 Z M 9.001712 -0.000848102 " stroke="#463f57" stroke-width="12" stroke-opacity="1" stroke-miterlimit="4"/></g></g><g clip-path="url(#dacb5dae07)"><path fill="#463f57" d="M 159.480469 148.738281 C 156.925781 146.273438 155.246094 143.699219 154.886719 142.957031 C 154.527344 143.699219 152.847656 146.273438 150.296875 148.738281 C 148.59375 150.53125 148.390625 152.882812 149.914062 154.335938 C 151.371094 155.769531 153.117188 154.761719 154.125 153.976562 C 154.101562 154.492188 153.925781 156.015625 152.511719 157.472656 L 157.304688 157.472656 C 155.871094 156.015625 155.695312 154.46875 155.695312 153.976562 C 156.679688 154.761719 158.425781 155.769531 159.90625 154.335938 C 161.382812 152.882812 161.183594 150.507812 159.480469 148.738281 " fill-opacity="1" fill-rule="nonzero"/></g><g clip-path="url(#75021d06a4)"><path fill="#463f57" d="M 224.023438 226.882812 C 221.46875 229.347656 219.792969 231.921875 219.433594 232.660156 C 219.074219 231.921875 217.394531 229.347656 214.839844 226.882812 C 213.140625 225.089844 212.9375 222.738281 214.460938 221.285156 C 215.914062 219.851562 217.664062 220.859375 218.671875 221.640625 C 218.648438 221.128906 218.46875 219.605469 217.058594 218.148438 L 221.851562 218.148438 C 220.417969 219.605469 220.238281 221.148438 220.238281 221.640625 C 221.226562 220.859375 222.972656 219.851562 224.449219 221.285156 C 225.929688 222.738281 225.726562 225.113281 224.023438 226.882812 " fill-opacity="1" fill-rule="nonzero"/></g><g clip-path="url(#a3a0e83fcb)"><path fill="#463f57" d="M 166.632812 177.359375 C 166.632812 177.882812 166.535156 178.382812 166.332031 178.867188 C 166.132812 179.351562 165.847656 179.777344 165.480469 180.148438 C 165.109375 180.515625 164.683594 180.800781 164.199219 181.003906 C 163.714844 181.203125 163.210938 181.300781 162.691406 181.300781 C 162.167969 181.300781 161.664062 181.203125 161.179688 181.003906 C 160.695312 180.800781 160.269531 180.515625 159.898438 180.148438 C 159.53125 179.777344 159.246094 179.351562 159.046875 178.867188 C 158.84375 178.382812 158.746094 177.882812 158.746094 177.359375 C 158.746094 176.835938 158.84375 176.332031 159.046875 175.847656 C 159.246094 175.363281 159.53125 174.9375 159.898438 174.570312 C 160.269531 174.199219 160.695312 173.914062 161.179688 173.714844 C 161.664062 173.511719 162.167969 173.414062 162.691406 173.414062 C 163.210938 173.414062 163.714844 173.511719 164.199219 173.714844 C 164.683594 173.914062 165.109375 174.199219 165.480469 174.570312 C 165.847656 174.9375 166.132812 175.363281 166.332031 175.847656 C 166.535156 176.332031 166.632812 176.835938 166.632812 177.359375 Z M 166.632812 177.359375 " fill-opacity="1" fill-rule="nonzero"/></g><g clip-path="url(#ebdfb72f64)"><path fill="#463f57" d="M 216.226562 177.359375 C 216.226562 177.882812 216.125 178.382812 215.925781 178.867188 C 215.726562 179.351562 215.441406 179.777344 215.070312 180.148438 C 214.699219 180.515625 214.273438 180.800781 213.789062 181.003906 C 213.308594 181.203125 212.804688 181.300781 212.28125 181.300781 C 211.757812 181.300781 211.253906 181.203125 210.769531 181.003906 C 210.289062 180.800781 209.859375 180.515625 209.492188 180.148438 C 209.121094 179.777344 208.835938 179.351562 208.636719 178.867188 C 208.4375 178.382812 208.335938 177.882812 208.335938 177.359375 C 208.335938 176.835938 208.4375 176.332031 208.636719 175.847656 C 208.835938 175.363281 209.121094 174.9375 209.492188 174.570312 C 209.859375 174.199219 210.289062 173.914062 210.769531 173.714844 C 211.253906 173.511719 211.757812 173.414062 212.28125 173.414062 C 212.804688 173.414062 213.308594 173.511719 213.789062 173.714844 C 214.273438 173.914062 214.699219 174.199219 215.070312 174.570312 C 215.441406 174.9375 215.726562 175.363281 215.925781 175.847656 C 216.125 176.332031 216.226562 176.835938 216.226562 177.359375 Z M 216.226562 177.359375 " fill-opacity="1" fill-rule="nonzero"/></g><g clip-path="url(#4341d9ff9f)"><path fill="#463f57" d="M 183.164062 166.839844 C 183.164062 167.363281 183.0625 167.863281 182.863281 168.347656 C 182.664062 168.832031 182.378906 169.257812 182.007812 169.628906 C 181.640625 169.996094 181.210938 170.28125 180.730469 170.484375 C 180.246094 170.683594 179.742188 170.785156 179.21875 170.785156 C 178.695312 170.785156 178.195312 170.683594 177.710938 170.484375 C 177.226562 170.28125 176.800781 169.996094 176.429688 169.628906 C 176.0625 169.257812 175.777344 168.832031 175.574219 168.347656 C 175.375 167.863281 175.273438 167.363281 175.273438 166.839844 C 175.273438 166.316406 175.375 165.8125 175.574219 165.328125 C 175.777344 164.847656 176.0625 164.417969 176.429688 164.050781 C 176.800781 163.679688 177.226562 163.394531 177.710938 163.195312 C 178.195312 162.992188 178.695312 162.894531 179.21875 162.894531 C 179.742188 162.894531 180.246094 162.992188 180.730469 163.195312 C 181.210938 163.394531 181.640625 163.679688 182.007812 164.050781 C 182.378906 164.417969 182.664062 164.847656 182.863281 165.328125 C 183.0625 165.8125 183.164062 166.316406 183.164062 166.839844 Z M 183.164062 166.839844 " fill-opacity="1" fill-rule="nonzero"/></g><g clip-path="url(#6a98e60c88)"><path fill="#463f57" d="M 199.695312 166.839844 C 199.695312 167.363281 199.59375 167.863281 199.394531 168.347656 C 199.195312 168.832031 198.910156 169.257812 198.539062 169.628906 C 198.167969 169.996094 197.742188 170.28125 197.257812 170.484375 C 196.777344 170.683594 196.273438 170.785156 195.75 170.785156 C 195.226562 170.785156 194.722656 170.683594 194.242188 170.484375 C 193.757812 170.28125 193.332031 169.996094 192.960938 169.628906 C 192.589844 169.257812 192.304688 168.832031 192.105469 168.347656 C 191.90625 167.863281 191.804688 167.363281 191.804688 166.839844 C 191.804688 166.316406 191.90625 165.8125 192.105469 165.328125 C 192.304688 164.847656 192.589844 164.417969 192.960938 164.050781 C 193.332031 163.679688 193.757812 163.394531 194.242188 163.195312 C 194.722656 162.992188 195.226562 162.894531 195.75 162.894531 C 196.273438 162.894531 196.777344 162.992188 197.257812 163.195312 C 197.742188 163.394531 198.167969 163.679688 198.539062 164.050781 C 198.910156 164.417969 199.195312 164.847656 199.394531 165.328125 C 199.59375 165.8125 199.695312 166.316406 199.695312 166.839844 Z M 199.695312 166.839844 " fill-opacity="1" fill-rule="nonzero"/></g><path fill="#463f57" d="M 208.253906 182.710938 L 201.777344 190.695312 L 197.460938 188.066406 L 196.902344 175.292969 L 193.050781 175.292969 L 189.046875 187.972656 L 187.765625 188.160156 L 186.496094 187.972656 L 182.507812 175.292969 L 178.65625 175.292969 L 178.097656 188.066406 L 173.777344 190.695312 L 167.304688 182.710938 L 165.25 183.652344 L 169.40625 203.84375 L 206.152344 203.84375 L 210.308594 183.652344 Z M 208.253906 182.710938 " fill-opacity="1" fill-rule="nonzero"/><g clip-path="url(#ce7cd5502f)"><path fill="#463f57" d="M 168.980469 206.097656 L 205.800781 206.097656 L 205.800781 212.109375 L 168.980469 212.109375 Z M 168.980469 206.097656 " fill-opacity="1" fill-rule="nonzero"/></g><g fill="#000000" fill-opacity="1"><g transform="translate(151.067162, 140.786885)"><g><path d="M 2.554688 -2.464844 L 2.554688 -4.132812 C 2.554688 -4.546875 2.628906 -4.816406 2.773438 -4.96875 C 2.898438 -5.113281 3.167969 -5.183594 3.554688 -5.183594 L 4.105469 -5.183594 C 4.492188 -5.183594 4.753906 -5.113281 4.894531 -4.96875 C 5.03125 -4.816406 5.09375 -4.546875 5.09375 -4.132812 L 5.09375 -3.175781 L 4.699219 -3.5625 C 4.5 -3.769531 4.320312 -3.871094 4.167969 -3.871094 C 3.996094 -3.859375 3.808594 -3.742188 3.582031 -3.519531 L 3.195312 -3.160156 C 3.007812 -2.953125 2.90625 -2.78125 2.898438 -2.617188 C 2.890625 -2.449219 2.988281 -2.277344 3.1875 -2.070312 L 3.84375 -1.421875 L 3.554688 -1.421875 C 3.167969 -1.421875 2.898438 -1.492188 2.773438 -1.648438 C 2.628906 -1.789062 2.554688 -2.0625 2.554688 -2.464844 Z M 3.4375 0.703125 L 4.222656 0.703125 C 4.824219 0.691406 5.355469 0.628906 5.785156 0.511719 C 5.929688 0.640625 6.085938 0.703125 6.210938 0.703125 C 6.371094 0.691406 6.550781 0.59375 6.742188 0.40625 L 7.171875 -0.0078125 C 7.371094 -0.1875 7.46875 -0.367188 7.480469 -0.539062 C 7.488281 -0.648438 7.425781 -0.792969 7.316406 -0.9375 C 7.425781 -1.3125 7.488281 -1.78125 7.488281 -2.320312 L 7.488281 -4.257812 C 7.488281 -5.417969 7.234375 -6.210938 6.714844 -6.652344 C 6.191406 -7.09375 5.371094 -7.316406 4.222656 -7.316406 L 3.4375 -7.316406 C 2.285156 -7.316406 1.457031 -7.09375 0.9375 -6.652344 C 0.421875 -6.210938 0.171875 -5.417969 0.171875 -4.257812 L 0.171875 -2.320312 C 0.171875 -1.171875 0.421875 -0.386719 0.9375 0.046875 C 1.457031 0.476562 2.285156 0.691406 3.4375 0.703125 Z M 3.4375 0.703125 "/></g></g></g><g fill="#000000" fill-opacity="1"><g transform="translate(223.265893, 234.837407)"><g><path d="M -2.554688 2.464844 L -2.554688 4.132812 C -2.554688 4.546875 -2.628906 4.816406 -2.773438 4.96875 C -2.898438 5.113281 -3.167969 5.183594 -3.554688 5.183594 L -4.105469 5.183594 C -4.492188 5.183594 -4.753906 5.113281 -4.894531 4.96875 C -5.03125 4.816406 -5.09375 4.546875 -5.09375 4.132812 L -5.09375 3.175781 L -4.699219 3.5625 C -4.5 3.769531 -4.320312 3.871094 -4.167969 3.871094 C -3.996094 3.859375 -3.808594 3.742188 -3.582031 3.519531 L -3.195312 3.160156 C -3.007812 2.953125 -2.90625 2.78125 -2.898438 2.617188 C -2.890625 2.449219 -2.988281 2.277344 -3.1875 2.070312 L -3.84375 1.421875 L -3.554688 1.421875 C -3.167969 1.421875 -2.898438 1.492188 -2.773438 1.648438 C -2.628906 1.789062 -2.554688 2.0625 -2.554688 2.464844 Z M -3.4375 -0.703125 L -4.222656 -0.703125 C -4.824219 -0.691406 -5.355469 -0.628906 -5.785156 -0.511719 C -5.929688 -0.640625 -6.085938 -0.703125 -6.210938 -0.703125 C -6.371094 -0.691406 -6.550781 -0.59375 -6.742188 -0.40625 L -7.171875 0.0078125 C -7.371094 0.1875 -7.46875 0.367188 -7.480469 0.539062 C -7.488281 0.648438 -7.425781 0.792969 -7.316406 0.9375 C -7.425781 1.3125 -7.488281 1.78125 -7.488281 2.320312 L -7.488281 4.257812 C -7.488281 5.417969 -7.234375 6.210938 -6.714844 6.652344 C -6.191406 7.09375 -5.371094 7.316406 -4.222656 7.316406 L -3.4375 7.316406 C -2.285156 7.316406 -1.457031 7.09375 -0.9375 6.652344 C -0.421875 6.210938 -0.171875 5.417969 -0.171875 4.257812 L -0.171875 2.320312 C -0.171875 1.171875 -0.421875 0.386719 -0.9375 -0.046875 C -1.457031 -0.476562 -2.285156 -0.691406 -3.4375 -0.703125 Z M -3.4375 -0.703125 "/></g></g></g></svg>