<svg xmlns="http://www.w3.org/2000/svg" xmlns:xlink="http://www.w3.org/1999/xlink" width="500" zoomAndPan="magnify" viewBox="0 0 375 374.999991" height="500" preserveAspectRatio="xMidYMid meet" version="1.0"><defs><g/><clipPath id="d61c6cbd5b"><path d="M 142.351562 124.464844 L 232.648438 124.464844 L 232.648438 250.535156 L 142.351562 250.535156 Z M 142.351562 124.464844 " clip-rule="nonzero"/></clipPath><clipPath id="5291cfda8b"><path d="M 149.101562 124.464844 L 225.898438 124.464844 C 227.6875 124.464844 229.40625 125.175781 230.671875 126.441406 C 231.9375 127.707031 232.648438 129.425781 232.648438 131.214844 L 232.648438 243.785156 C 232.648438 245.574219 231.9375 247.292969 230.671875 248.558594 C 229.40625 249.824219 227.6875 250.535156 225.898438 250.535156 L 149.101562 250.535156 C 145.375 250.535156 142.351562 247.511719 142.351562 243.785156 L 142.351562 131.214844 C 142.351562 127.488281 145.375 124.464844 149.101562 124.464844 Z M 149.101562 124.464844 " clip-rule="nonzero"/></clipPath><clipPath id="cec13db7c4"><path d="M 142.355469 124.464844 L 232.351562 124.464844 L 232.351562 250.464844 L 142.355469 250.464844 Z M 142.355469 124.464844 " clip-rule="nonzero"/></clipPath><clipPath id="5daa32c31c"><path d="M 149.105469 124.464844 L 225.894531 124.464844 C 227.683594 124.464844 229.398438 125.175781 230.664062 126.441406 C 231.929688 127.707031 232.644531 129.425781 232.644531 131.214844 L 232.644531 243.773438 C 232.644531 245.566406 231.929688 247.28125 230.664062 248.546875 C 229.398438 249.8125 227.683594 250.523438 225.894531 250.523438 L 149.105469 250.523438 C 145.375 250.523438 142.355469 247.503906 142.355469 243.773438 L 142.355469 131.214844 C 142.355469 127.488281 145.375 124.464844 149.105469 124.464844 Z M 149.105469 124.464844 " clip-rule="nonzero"/></clipPath><clipPath id="412789f56d"><path d="M 148.390625 142.878906 L 161 142.878906 L 161 157.878906 L 148.390625 157.878906 Z M 148.390625 142.878906 " clip-rule="nonzero"/></clipPath><clipPath id="5b2165616e"><path d="M 213 218.070312 L 225.6875 218.070312 L 225.6875 232.742188 L 213 232.742188 Z M 213 218.070312 " clip-rule="nonzero"/></clipPath><clipPath id="39e3dfb38e"><path d="M 161.394531 150.214844 L 174 150.214844 L 174 165 L 161.394531 165 Z M 161.394531 150.214844 " clip-rule="nonzero"/></clipPath><clipPath id="2245cba76b"><path d="M 162 209.46875 L 174.65625 209.46875 L 174.65625 224.46875 L 162 224.46875 Z M 162 209.46875 " clip-rule="nonzero"/></clipPath><clipPath id="b0d7c8e97c"><path d="M 162 189.542969 L 174.65625 189.542969 L 174.65625 204.542969 L 162 204.542969 Z M 162 189.542969 " clip-rule="nonzero"/></clipPath><clipPath id="60e499e373"><path d="M 162 170.042969 L 174.410156 170.042969 L 174.410156 185 L 162 185 Z M 162 170.042969 " clip-rule="nonzero"/></clipPath><clipPath id="6bda8a4e4d"><path d="M 181 157.710938 L 193.746094 157.710938 L 193.746094 172.710938 L 181 172.710938 Z M 181 157.710938 " clip-rule="nonzero"/></clipPath><clipPath id="e6e0eb8c03"><path d="M 181.242188 202.132812 L 193.992188 202.132812 L 193.992188 217.132812 L 181.242188 217.132812 Z M 181.242188 202.132812 " clip-rule="nonzero"/></clipPath><clipPath id="b812318f02"><path d="M 200 150.375 L 212.417969 150.375 L 212.417969 165 L 200 165 Z M 200 150.375 " clip-rule="nonzero"/></clipPath><clipPath id="f9480d32c2"><path d="M 200.179688 210.402344 L 212.929688 210.402344 L 212.929688 225.402344 L 200.179688 225.402344 Z M 200.179688 210.402344 " clip-rule="nonzero"/></clipPath><clipPath id="d6849c6bf8"><path d="M 200.179688 190 L 212.929688 190 L 212.929688 204.703125 L 200.179688 204.703125 Z M 200.179688 190 " clip-rule="nonzero"/></clipPath><clipPath id="f5cdc04cd7"><path d="M 200 170.203125 L 212.683594 170.203125 L 212.683594 185 L 200 185 Z M 200 170.203125 " clip-rule="nonzero"/></clipPath></defs><g clip-path="url(#d61c6cbd5b)"><g clip-path="url(#5291cfda8b)"><path fill="#ffffff" d="M 142.351562 124.464844 L 232.648438 124.464844 L 232.648438 250.535156 L 142.351562 250.535156 Z M 142.351562 124.464844 " fill-opacity="1" fill-rule="nonzero"/></g></g><g clip-path="url(#cec13db7c4)"><g clip-path="url(#5daa32c31c)"><path stroke-linecap="butt" transform="matrix(0.75, 0, 0, 0.75, 142.354186, 124.465422)" fill="none" stroke-linejoin="miter" d="M 9.001712 -0.000771302 L 111.387135 -0.000771302 C 113.772552 -0.000771302 116.05901 0.947145 117.74651 2.634646 C 119.43401 4.322146 120.387136 6.613812 120.387136 8.999229 L 120.387136 159.077364 C 120.387136 161.467989 119.43401 163.754448 117.74651 165.441948 C 116.05901 167.129448 113.772552 168.077365 111.387135 168.077365 L 9.001712 168.077365 C 4.027753 168.077365 0.00171093 164.051323 0.00171093 159.077364 L 0.00171093 8.999229 C 0.00171093 4.030479 4.027753 -0.000771302 9.001712 -0.000771302 Z M 9.001712 -0.000771302 " stroke="#463f57" stroke-width="12" stroke-opacity="1" stroke-miterlimit="4"/></g></g><g clip-path="url(#412789f56d)"><path fill="#463f57" d="M 159.480469 148.738281 C 156.925781 146.273438 155.246094 143.699219 154.886719 142.957031 C 154.527344 143.699219 152.847656 146.273438 150.296875 148.738281 C 148.59375 150.53125 148.390625 152.882812 149.914062 154.335938 C 151.371094 155.769531 153.117188 154.761719 154.125 153.976562 C 154.101562 154.492188 153.925781 156.015625 152.511719 157.472656 L 157.304688 157.472656 C 155.871094 156.015625 155.695312 154.46875 155.695312 153.976562 C 156.679688 154.761719 158.425781 155.769531 159.90625 154.335938 C 161.382812 152.882812 161.183594 150.507812 159.480469 148.738281 " fill-opacity="1" fill-rule="nonzero"/></g><g clip-path="url(#5b2165616e)"><path fill="#463f57" d="M 224.023438 226.882812 C 221.46875 229.347656 219.792969 231.921875 219.433594 232.660156 C 219.074219 231.921875 217.394531 229.347656 214.839844 226.882812 C 213.140625 225.089844 212.9375 222.738281 214.460938 221.285156 C 215.914062 219.851562 217.664062 220.859375 218.671875 221.644531 C 218.648438 221.128906 218.46875 219.605469 217.058594 218.148438 L 221.851562 218.148438 C 220.417969 219.605469 220.238281 221.152344 220.238281 221.644531 C 221.226562 220.859375 222.972656 219.851562 224.449219 221.285156 C 225.929688 222.738281 225.726562 225.113281 224.023438 226.882812 " fill-opacity="1" fill-rule="nonzero"/></g><g fill="#000000" fill-opacity="1"><g transform="translate(149.369906, 140.78706)"><g><path d="M 3.195312 0.234375 L 3.195312 -6.652344 C 3.195312 -7.101562 2.960938 -7.324219 2.492188 -7.324219 L 0.53125 -7.324219 C 0.289062 -7.324219 0.179688 -7.226562 0.179688 -7.003906 L 0.179688 -6.011719 C 0.179688 -5.796875 0.289062 -5.6875 0.53125 -5.6875 L 0.945312 -5.6875 C 1.0625 -5.6875 1.125 -5.625 1.125 -5.507812 L 1.125 0.234375 C 1.125 0.460938 1.242188 0.566406 1.476562 0.566406 L 2.84375 0.566406 C 3.085938 0.566406 3.195312 0.460938 3.195312 0.234375 Z M 3.195312 0.234375 "/></g></g></g><g fill="#000000" fill-opacity="1"><g transform="translate(152.744929, 140.78706)"><g><path d="M 5.417969 -1.609375 C 5.417969 -1.261719 5.238281 -1.078125 4.886719 -1.078125 L 2.78125 -1.078125 C 2.429688 -1.078125 2.25 -1.261719 2.25 -1.609375 L 2.25 -5.15625 C 2.25 -5.507812 2.429688 -5.6875 2.78125 -5.6875 L 4.886719 -5.6875 C 5.238281 -5.6875 5.417969 -5.507812 5.417969 -5.15625 Z M 0.179688 -1.195312 C 0.179688 -0.0273438 0.765625 0.566406 1.933594 0.566406 L 5.734375 0.566406 C 6.902344 0.566406 7.480469 -0.0273438 7.488281 -1.195312 L 7.488281 -5.570312 C 7.480469 -6.742188 6.902344 -7.324219 5.734375 -7.324219 L 1.933594 -7.324219 C 0.765625 -7.324219 0.179688 -6.742188 0.179688 -5.570312 Z M 0.179688 -1.195312 "/></g></g></g><g fill="#000000" fill-opacity="1"><g transform="translate(224.965112, 234.837525)"><g><path d="M -3.195312 -0.234375 L -3.195312 6.652344 C -3.195312 7.101562 -2.960938 7.324219 -2.492188 7.324219 L -0.53125 7.324219 C -0.289062 7.324219 -0.179688 7.226562 -0.179688 7.003906 L -0.179688 6.011719 C -0.179688 5.796875 -0.289062 5.6875 -0.53125 5.6875 L -0.945312 5.6875 C -1.0625 5.6875 -1.125 5.625 -1.125 5.507812 L -1.125 -0.234375 C -1.125 -0.460938 -1.242188 -0.566406 -1.476562 -0.566406 L -2.84375 -0.566406 C -3.085938 -0.566406 -3.195312 -0.460938 -3.195312 -0.234375 Z M -3.195312 -0.234375 "/></g></g></g><g fill="#000000" fill-opacity="1"><g transform="translate(221.590089, 234.837525)"><g><path d="M -5.417969 1.609375 C -5.417969 1.261719 -5.238281 1.078125 -4.886719 1.078125 L -2.78125 1.078125 C -2.429688 1.078125 -2.25 1.261719 -2.25 1.609375 L -2.25 5.15625 C -2.25 5.507812 -2.429688 5.6875 -2.78125 5.6875 L -4.886719 5.6875 C -5.238281 5.6875 -5.417969 5.507812 -5.417969 5.15625 Z M -0.179688 1.195312 C -0.179688 0.0273438 -0.765625 -0.566406 -1.933594 -0.566406 L -5.734375 -0.566406 C -6.902344 -0.566406 -7.480469 0.0273438 -7.488281 1.195312 L -7.488281 5.570312 C -7.480469 6.742188 -6.902344 7.324219 -5.734375 7.324219 L -1.933594 7.324219 C -0.765625 7.324219 -0.179688 6.742188 -0.179688 5.570312 Z M -0.179688 1.195312 "/></g></g></g><g clip-path="url(#39e3dfb38e)"><path fill="#463f57" d="M 172.484375 156.074219 C 169.929688 153.609375 168.25 151.035156 167.890625 150.296875 C 167.53125 151.035156 165.851562 153.609375 163.300781 156.074219 C 161.597656 157.867188 161.394531 160.21875 162.917969 161.671875 C 164.375 163.105469 166.121094 162.097656 167.128906 161.3125 C 167.105469 161.828125 166.929688 163.351562 165.515625 164.808594 L 170.308594 164.808594 C 168.875 163.351562 168.699219 161.804688 168.699219 161.3125 C 169.683594 162.097656 171.429688 163.105469 172.910156 161.671875 C 174.386719 160.21875 174.1875 157.84375 172.484375 156.074219 " fill-opacity="1" fill-rule="nonzero"/></g><g clip-path="url(#2245cba76b)"><path fill="#463f57" d="M 163.570312 218.609375 C 166.121094 221.074219 167.800781 223.648438 168.160156 224.386719 C 168.519531 223.648438 170.199219 221.074219 172.75 218.609375 C 174.453125 216.816406 174.65625 214.464844 173.132812 213.011719 C 171.675781 211.578125 169.929688 212.585938 168.921875 213.371094 C 168.945312 212.855469 169.125 211.332031 170.535156 209.875 L 165.742188 209.875 C 167.175781 211.332031 167.351562 212.878906 167.351562 213.371094 C 166.367188 212.585938 164.621094 211.578125 163.140625 213.011719 C 161.664062 214.464844 161.867188 216.839844 163.570312 218.609375 " fill-opacity="1" fill-rule="nonzero"/></g><g clip-path="url(#b0d7c8e97c)"><path fill="#463f57" d="M 163.570312 198.6875 C 166.121094 201.148438 167.800781 203.726562 168.160156 204.464844 C 168.519531 203.726562 170.199219 201.148438 172.75 198.6875 C 174.453125 196.894531 174.65625 194.542969 173.132812 193.089844 C 171.675781 191.652344 169.929688 192.660156 168.921875 193.445312 C 168.945312 192.929688 169.125 191.40625 170.535156 189.953125 L 165.742188 189.953125 C 167.175781 191.40625 167.351562 192.953125 167.351562 193.445312 C 166.367188 192.660156 164.621094 191.652344 163.140625 193.089844 C 161.664062 194.542969 161.867188 196.917969 163.570312 198.6875 " fill-opacity="1" fill-rule="nonzero"/></g><g clip-path="url(#60e499e373)"><path fill="#463f57" d="M 172.746094 175.902344 C 170.195312 173.4375 168.515625 170.863281 168.15625 170.125 C 167.796875 170.863281 166.117188 173.4375 163.5625 175.902344 C 161.863281 177.695312 161.660156 180.046875 163.183594 181.5 C 164.640625 182.933594 166.386719 181.925781 167.394531 181.140625 C 167.371094 181.65625 167.191406 183.179688 165.78125 184.636719 L 170.574219 184.636719 C 169.140625 183.179688 168.964844 181.632812 168.964844 181.140625 C 169.949219 181.925781 171.695312 182.933594 173.171875 181.5 C 174.652344 180.046875 174.449219 177.671875 172.746094 175.902344 " fill-opacity="1" fill-rule="nonzero"/></g><g clip-path="url(#6bda8a4e4d)"><path fill="#5271ff" d="M 192.085938 163.566406 C 189.53125 161.105469 187.851562 158.527344 187.492188 157.789062 C 187.136719 158.527344 185.457031 161.105469 182.902344 163.566406 C 181.199219 165.359375 180.996094 167.710938 182.523438 169.167969 C 183.976562 170.601562 185.722656 169.59375 186.734375 168.808594 C 186.710938 169.324219 186.53125 170.847656 185.121094 172.300781 L 189.914062 172.300781 C 188.480469 170.847656 188.300781 169.300781 188.300781 168.808594 C 189.285156 169.59375 191.03125 170.601562 192.511719 169.167969 C 193.988281 167.710938 193.789062 165.335938 192.085938 163.566406 " fill-opacity="1" fill-rule="nonzero"/></g><g clip-path="url(#e6e0eb8c03)"><path fill="#5271ff" d="M 182.90625 211.273438 C 185.460938 213.738281 187.140625 216.3125 187.5 217.050781 C 187.855469 216.3125 189.535156 213.738281 192.089844 211.273438 C 193.792969 209.480469 193.992188 207.128906 192.46875 205.675781 C 191.015625 204.242188 189.269531 205.25 188.257812 206.03125 C 188.28125 205.515625 188.460938 203.996094 189.871094 202.539062 L 185.078125 202.539062 C 186.511719 203.996094 186.691406 205.539062 186.691406 206.03125 C 185.707031 205.25 183.960938 204.242188 182.480469 205.675781 C 181.003906 207.128906 181.203125 209.503906 182.90625 211.273438 " fill-opacity="1" fill-rule="nonzero"/></g><g clip-path="url(#b812318f02)"><path fill="#463f57" d="M 210.753906 156.230469 C 208.203125 153.769531 206.523438 151.191406 206.164062 150.453125 C 205.804688 151.191406 204.125 153.769531 201.574219 156.230469 C 199.871094 158.023438 199.667969 160.375 201.191406 161.828125 C 202.648438 163.265625 204.394531 162.257812 205.402344 161.472656 C 205.378906 161.988281 205.199219 163.511719 203.789062 164.964844 L 208.582031 164.964844 C 207.148438 163.511719 206.972656 161.964844 206.972656 161.472656 C 207.957031 162.257812 209.703125 163.265625 211.183594 161.828125 C 212.660156 160.375 212.457031 158 210.753906 156.230469 " fill-opacity="1" fill-rule="nonzero"/></g><g clip-path="url(#f9480d32c2)"><path fill="#463f57" d="M 201.839844 219.546875 C 204.394531 222.011719 206.074219 224.585938 206.433594 225.324219 C 206.792969 224.585938 208.46875 222.011719 211.023438 219.546875 C 212.726562 217.753906 212.929688 215.402344 211.40625 213.949219 C 209.949219 212.515625 208.203125 213.519531 207.195312 214.304688 C 207.21875 213.789062 207.394531 212.269531 208.808594 210.8125 L 204.015625 210.8125 C 205.449219 212.269531 205.625 213.8125 205.625 214.304688 C 204.640625 213.519531 202.894531 212.515625 201.414062 213.949219 C 199.9375 215.402344 200.136719 217.777344 201.839844 219.546875 " fill-opacity="1" fill-rule="nonzero"/></g><g clip-path="url(#d6849c6bf8)"><path fill="#463f57" d="M 201.839844 198.84375 C 204.394531 201.308594 206.074219 203.882812 206.433594 204.625 C 206.792969 203.882812 208.46875 201.308594 211.023438 198.84375 C 212.726562 197.050781 212.929688 194.699219 211.40625 193.246094 C 209.949219 191.8125 208.203125 192.820312 207.195312 193.605469 C 207.21875 193.089844 207.394531 191.566406 208.808594 190.109375 L 204.015625 190.109375 C 205.449219 191.566406 205.625 193.113281 205.625 193.605469 C 204.640625 192.820312 202.894531 191.8125 201.414062 193.246094 C 199.9375 194.699219 200.136719 197.074219 201.839844 198.84375 " fill-opacity="1" fill-rule="nonzero"/></g><g clip-path="url(#f5cdc04cd7)"><path fill="#463f57" d="M 211.019531 176.058594 C 208.464844 173.597656 206.789062 171.019531 206.429688 170.28125 C 206.070312 171.019531 204.390625 173.597656 201.835938 176.058594 C 200.136719 177.851562 199.933594 180.203125 201.457031 181.660156 C 202.910156 183.09375 204.660156 182.085938 205.667969 181.300781 C 205.644531 181.816406 205.464844 183.339844 204.054688 184.792969 L 208.847656 184.792969 C 207.414062 183.339844 207.234375 181.792969 207.234375 181.300781 C 208.222656 182.085938 209.96875 183.09375 211.445312 181.660156 C 212.925781 180.203125 212.722656 177.828125 211.019531 176.058594 " fill-opacity="1" fill-rule="nonzero"/></g></svg>