<svg xmlns="http://www.w3.org/2000/svg" xmlns:xlink="http://www.w3.org/1999/xlink" width="500" zoomAndPan="magnify" viewBox="0 0 375 374.999991" height="500" preserveAspectRatio="xMidYMid meet" version="1.0"><defs><g/><clipPath id="579e9c0e49"><path d="M 142.351562 124.464844 L 232.648438 124.464844 L 232.648438 250.535156 L 142.351562 250.535156 Z M 142.351562 124.464844 " clip-rule="nonzero"/></clipPath><clipPath id="6934b1cb3c"><path d="M 149.101562 124.464844 L 225.898438 124.464844 C 227.6875 124.464844 229.40625 125.175781 230.671875 126.441406 C 231.9375 127.707031 232.648438 129.425781 232.648438 131.214844 L 232.648438 243.785156 C 232.648438 245.574219 231.9375 247.292969 230.671875 248.558594 C 229.40625 249.824219 227.6875 250.535156 225.898438 250.535156 L 149.101562 250.535156 C 145.375 250.535156 142.351562 247.511719 142.351562 243.785156 L 142.351562 131.214844 C 142.351562 127.488281 145.375 124.464844 149.101562 124.464844 Z M 149.101562 124.464844 " clip-rule="nonzero"/></clipPath><clipPath id="f6d385ffc9"><path d="M 142.355469 124.464844 L 232.351562 124.464844 L 232.351562 250.464844 L 142.355469 250.464844 Z M 142.355469 124.464844 " clip-rule="nonzero"/></clipPath><clipPath id="750fcafeb0"><path d="M 149.105469 124.464844 L 225.894531 124.464844 C 227.683594 124.464844 229.398438 125.175781 230.664062 126.441406 C 231.929688 127.707031 232.644531 129.425781 232.644531 131.214844 L 232.644531 243.773438 C 232.644531 245.566406 231.929688 247.28125 230.664062 248.546875 C 229.398438 249.8125 227.683594 250.523438 225.894531 250.523438 L 149.105469 250.523438 C 145.375 250.523438 142.355469 247.503906 142.355469 243.773438 L 142.355469 131.214844 C 142.355469 127.488281 145.375 124.464844 149.105469 124.464844 Z M 149.105469 124.464844 " clip-rule="nonzero"/></clipPath><clipPath id="51ca093bcb"><path d="M 148.390625 142.878906 L 161 142.878906 L 161 157.878906 L 148.390625 157.878906 Z M 148.390625 142.878906 " clip-rule="nonzero"/></clipPath><clipPath id="6f8ff52c45"><path d="M 213 218.070312 L 225.6875 218.070312 L 225.6875 232.742188 L 213 232.742188 Z M 213 218.070312 " clip-rule="nonzero"/></clipPath><clipPath id="456e5716c5"><path d="M 181 158.496094 L 193.746094 158.496094 L 193.746094 173.496094 L 181 173.496094 Z M 181 158.496094 " clip-rule="nonzero"/></clipPath><clipPath id="445fe17392"><path d="M 181 203.394531 L 193.746094 203.394531 L 193.746094 218 L 181 218 Z M 181 203.394531 " clip-rule="nonzero"/></clipPath><clipPath id="414ca5c0a4"><path d="M 181 181 L 193.746094 181 L 193.746094 195.945312 L 181 195.945312 Z M 181 181 " clip-rule="nonzero"/></clipPath></defs><g clip-path="url(#579e9c0e49)"><g clip-path="url(#6934b1cb3c)"><path fill="#ffffff" d="M 142.351562 124.464844 L 232.648438 124.464844 L 232.648438 250.535156 L 142.351562 250.535156 Z M 142.351562 124.464844 " fill-opacity="1" fill-rule="nonzero"/></g></g><g clip-path="url(#f6d385ffc9)"><g clip-path="url(#750fcafeb0)"><path stroke-linecap="butt" transform="matrix(0.75, 0, 0, 0.75, 142.354186, 124.46548)" fill="none" stroke-linejoin="miter" d="M 9.001712 -0.000848102 L 111.387135 -0.000848102 C 113.772552 -0.000848102 116.05901 0.947069 117.74651 2.634569 C 119.43401 4.322069 120.387136 6.613736 120.387136 8.999152 L 120.387136 159.077287 C 120.387136 161.467913 119.43401 163.754371 117.74651 165.441871 C 116.05901 167.129371 113.772552 168.077288 111.387135 168.077288 L 9.001712 168.077288 C 4.027753 168.077288 0.00171093 164.051246 0.00171093 159.077287 L 0.00171093 8.999152 C 0.00171093 4.030402 4.027753 -0.000848102 9.001712 -0.000848102 Z M 9.001712 -0.000848102 " stroke="#463f57" stroke-width="12" stroke-opacity="1" stroke-miterlimit="4"/></g></g><g clip-path="url(#51ca093bcb)"><path fill="#463f57" d="M 159.480469 148.738281 C 156.925781 146.273438 155.246094 143.699219 154.886719 142.957031 C 154.527344 143.699219 152.847656 146.273438 150.296875 148.738281 C 148.59375 150.53125 148.390625 152.882812 149.914062 154.335938 C 151.371094 155.769531 153.117188 154.761719 154.125 153.976562 C 154.101562 154.492188 153.925781 156.015625 152.511719 157.472656 L 157.304688 157.472656 C 155.871094 156.015625 155.695312 154.46875 155.695312 153.976562 C 156.679688 154.761719 158.425781 155.769531 159.90625 154.335938 C 161.382812 152.882812 161.183594 150.507812 159.480469 148.738281 " fill-opacity="1" fill-rule="nonzero"/></g><g clip-path="url(#6f8ff52c45)"><path fill="#463f57" d="M 224.023438 226.882812 C 221.46875 229.347656 219.792969 231.921875 219.433594 232.660156 C 219.074219 231.921875 217.394531 229.347656 214.839844 226.882812 C 213.140625 225.089844 212.9375 222.738281 214.460938 221.285156 C 215.914062 219.851562 217.664062 220.859375 218.671875 221.640625 C 218.648438 221.128906 218.46875 219.605469 217.058594 218.148438 L 221.851562 218.148438 C 220.417969 219.605469 220.238281 221.148438 220.238281 221.640625 C 221.226562 220.859375 222.972656 219.851562 224.449219 221.285156 C 225.929688 222.738281 225.726562 225.113281 224.023438 226.882812 " fill-opacity="1" fill-rule="nonzero"/></g><g fill="#000000" fill-opacity="1"><g transform="translate(151.058711, 140.786943)"><g><path d="M 2.25 -4.96875 L 2.25 -5.15625 C 2.25 -5.507812 2.429688 -5.6875 2.78125 -5.6875 L 4.886719 -5.6875 C 5.238281 -5.6875 5.417969 -5.507812 5.417969 -5.15625 L 5.417969 -4.726562 C 5.417969 -4.375 5.238281 -4.203125 4.886719 -4.203125 L 3.132812 -4.203125 C 2.890625 -4.203125 2.78125 -4.09375 2.78125 -3.878906 L 2.78125 -2.878906 C 2.78125 -2.664062 2.890625 -2.554688 3.132812 -2.554688 L 4.886719 -2.554688 C 5.238281 -2.554688 5.417969 -2.386719 5.417969 -2.035156 L 5.417969 -1.609375 C 5.417969 -1.261719 5.238281 -1.078125 4.886719 -1.078125 L 2.78125 -1.078125 C 2.429688 -1.078125 2.25 -1.261719 2.25 -1.609375 L 2.25 -1.800781 C 2.25 -2.023438 2.132812 -2.125 1.898438 -2.125 L 0.53125 -2.125 C 0.289062 -2.125 0.179688 -2.023438 0.179688 -1.800781 L 0.179688 -1.195312 C 0.179688 -0.0273438 0.765625 0.566406 1.933594 0.566406 L 5.734375 0.566406 C 6.902344 0.566406 7.480469 -0.0273438 7.488281 -1.195312 L 7.488281 -2.140625 C 7.480469 -2.671875 7.308594 -3.085938 6.957031 -3.375 C 7.308594 -3.664062 7.480469 -4.078125 7.488281 -4.609375 L 7.488281 -5.570312 C 7.480469 -6.742188 6.902344 -7.324219 5.734375 -7.324219 L 1.933594 -7.324219 C 0.765625 -7.324219 0.179688 -6.742188 0.179688 -5.570312 L 0.179688 -4.96875 C 0.179688 -4.742188 0.289062 -4.644531 0.53125 -4.644531 L 1.898438 -4.644531 C 2.132812 -4.644531 2.25 -4.742188 2.25 -4.96875 Z M 2.25 -4.96875 "/></g></g></g><g fill="#000000" fill-opacity="1"><g transform="translate(223.268135, 234.825688)"><g><path d="M -2.25 4.96875 L -2.25 5.15625 C -2.25 5.507812 -2.429688 5.6875 -2.78125 5.6875 L -4.886719 5.6875 C -5.238281 5.6875 -5.417969 5.507812 -5.417969 5.15625 L -5.417969 4.726562 C -5.417969 4.375 -5.238281 4.203125 -4.886719 4.203125 L -3.132812 4.203125 C -2.890625 4.203125 -2.78125 4.09375 -2.78125 3.878906 L -2.78125 2.878906 C -2.78125 2.664062 -2.890625 2.554688 -3.132812 2.554688 L -4.886719 2.554688 C -5.238281 2.554688 -5.417969 2.386719 -5.417969 2.035156 L -5.417969 1.609375 C -5.417969 1.261719 -5.238281 1.078125 -4.886719 1.078125 L -2.78125 1.078125 C -2.429688 1.078125 -2.25 1.261719 -2.25 1.609375 L -2.25 1.800781 C -2.25 2.023438 -2.132812 2.125 -1.898438 2.125 L -0.53125 2.125 C -0.289062 2.125 -0.179688 2.023438 -0.179688 1.800781 L -0.179688 1.195312 C -0.179688 0.0273438 -0.765625 -0.566406 -1.933594 -0.566406 L -5.734375 -0.566406 C -6.902344 -0.566406 -7.480469 0.0273438 -7.488281 1.195312 L -7.488281 2.140625 C -7.480469 2.671875 -7.308594 3.085938 -6.957031 3.375 C -7.308594 3.664062 -7.480469 4.078125 -7.488281 4.609375 L -7.488281 5.570312 C -7.480469 6.742188 -6.902344 7.324219 -5.734375 7.324219 L -1.933594 7.324219 C -0.765625 7.324219 -0.179688 6.742188 -0.179688 5.570312 L -0.179688 4.96875 C -0.179688 4.742188 -0.289062 4.644531 -0.53125 4.644531 L -1.898438 4.644531 C -2.132812 4.644531 -2.25 4.742188 -2.25 4.96875 Z M -2.25 4.96875 "/></g></g></g><g clip-path="url(#456e5716c5)"><path fill="#463f57" d="M 192.085938 164.355469 C 189.53125 161.890625 187.851562 159.316406 187.492188 158.574219 C 187.136719 159.316406 185.457031 161.890625 182.902344 164.355469 C 181.199219 166.144531 180.996094 168.496094 182.523438 169.953125 C 183.976562 171.386719 185.722656 170.378906 186.734375 169.59375 C 186.710938 170.109375 186.53125 171.632812 185.121094 173.089844 L 189.914062 173.089844 C 188.480469 171.632812 188.300781 170.085938 188.300781 169.59375 C 189.285156 170.378906 191.03125 171.386719 192.511719 169.953125 C 193.988281 168.496094 193.789062 166.121094 192.085938 164.355469 " fill-opacity="1" fill-rule="nonzero"/></g><g clip-path="url(#445fe17392)"><path fill="#463f57" d="M 192.085938 209.253906 C 189.53125 206.789062 187.851562 204.214844 187.492188 203.476562 C 187.136719 204.214844 185.457031 206.789062 182.902344 209.253906 C 181.199219 211.046875 180.996094 213.398438 182.523438 214.851562 C 183.976562 216.285156 185.722656 215.277344 186.734375 214.496094 C 186.710938 215.007812 186.53125 216.53125 185.121094 217.988281 L 189.914062 217.988281 C 188.480469 216.53125 188.300781 214.988281 188.300781 214.496094 C 189.285156 215.277344 191.03125 216.285156 192.511719 214.851562 C 193.988281 213.398438 193.789062 211.023438 192.085938 209.253906 " fill-opacity="1" fill-rule="nonzero"/></g><g clip-path="url(#414ca5c0a4)"><path fill="#5271ff" d="M 192.085938 186.804688 C 189.53125 184.339844 187.851562 181.765625 187.492188 181.023438 C 187.136719 181.765625 185.457031 184.339844 182.902344 186.804688 C 181.199219 188.597656 180.996094 190.949219 182.523438 192.402344 C 183.976562 193.835938 185.722656 192.828125 186.734375 192.042969 C 186.710938 192.558594 186.53125 194.082031 185.121094 195.539062 L 189.914062 195.539062 C 188.480469 194.082031 188.300781 192.535156 188.300781 192.042969 C 189.285156 192.828125 191.03125 193.835938 192.511719 192.402344 C 193.988281 190.949219 193.789062 188.574219 192.085938 186.804688 " fill-opacity="1" fill-rule="nonzero"/></g></svg>