<svg xmlns="http://www.w3.org/2000/svg" xmlns:xlink="http://www.w3.org/1999/xlink" width="122" zoomAndPan="magnify" viewBox="0 0 91.5 127.499994" height="170" preserveAspectRatio="xMidYMid meet" version="1.0"><defs><g/><clipPath id="6326c96cfa"><path d="M 0.597656 0.808594 L 90.402344 0.808594 L 90.402344 126.191406 L 0.597656 126.191406 Z M 0.597656 0.808594 " clip-rule="nonzero"/></clipPath><clipPath id="a2d9bf44bc"><path d="M 7.3125 0.808594 L 83.691406 0.808594 C 85.472656 0.808594 87.179688 1.515625 88.4375 2.777344 C 89.695312 4.035156 90.402344 5.742188 90.402344 7.523438 L 90.402344 119.480469 C 90.402344 121.261719 89.695312 122.96875 88.4375 124.226562 C 87.179688 125.484375 85.472656 126.191406 83.691406 126.191406 L 7.3125 126.191406 C 3.605469 126.191406 0.597656 123.1875 0.597656 119.480469 L 0.597656 7.523438 C 0.597656 3.816406 3.605469 0.808594 7.3125 0.808594 Z M 7.3125 0.808594 " clip-rule="nonzero"/></clipPath><clipPath id="4f597b6680"><path d="M 0.601562 0.808594 L 90.109375 0.808594 L 90.109375 126.125 L 0.601562 126.125 Z M 0.601562 0.808594 " clip-rule="nonzero"/></clipPath><clipPath id="96c85ce732"><path d="M 7.3125 0.808594 L 83.6875 0.808594 C 85.464844 0.808594 87.171875 1.515625 88.433594 2.777344 C 89.691406 4.035156 90.398438 5.742188 90.398438 7.523438 L 90.398438 119.46875 C 90.398438 121.25 89.691406 122.957031 88.433594 124.214844 C 87.171875 125.476562 85.464844 126.183594 83.6875 126.183594 L 7.3125 126.183594 C 3.605469 126.183594 0.601562 123.175781 0.601562 119.46875 L 0.601562 7.523438 C 0.601562 3.816406 3.605469 0.808594 7.3125 0.808594 Z M 7.3125 0.808594 " clip-rule="nonzero"/></clipPath><clipPath id="a4636b7c9f"><path d="M 6.175781 19.128906 L 19.601562 19.128906 L 19.601562 32.558594 L 6.175781 32.558594 Z M 6.175781 19.128906 " clip-rule="nonzero"/></clipPath><clipPath id="45df4f9140"><path d="M 70.730469 95.054688 L 84.15625 95.054688 L 84.15625 108.484375 L 70.730469 108.484375 Z M 70.730469 95.054688 " clip-rule="nonzero"/></clipPath><clipPath id="eae48b8a0e"><path d="M 38.605469 56.605469 L 52.03125 56.605469 L 52.03125 70.03125 L 38.605469 70.03125 Z M 38.605469 56.605469 " clip-rule="nonzero"/></clipPath></defs><g clip-path="url(#6326c96cfa)"><g clip-path="url(#a2d9bf44bc)"><path fill="#ffffff" d="M 0.597656 0.808594 L 90.402344 0.808594 L 90.402344 126.191406 L 0.597656 126.191406 Z M 0.597656 0.808594 " fill-opacity="1" fill-rule="nonzero"/></g></g><g clip-path="url(#4f597b6680)"><g clip-path="url(#96c85ce732)"><path stroke-linecap="butt" transform="matrix(0.745924, 0, 0, 0.745924, 0.600905, 0.809393)" fill="none" stroke-linejoin="miter" d="M 8.997694 -0.00107172 L 111.387498 -0.00107172 C 113.77024 -0.00107172 116.058719 0.946788 117.750203 2.638273 C 119.436451 4.32452 120.384311 6.613 120.384311 9.000978 L 120.384311 159.077031 C 120.384311 161.46501 119.436451 163.753489 117.750203 165.439737 C 116.058719 167.131221 113.77024 168.079081 111.387498 168.079081 L 8.997694 168.079081 C 4.027976 168.079081 0.000881536 164.046749 0.000881536 159.077031 L 0.000881536 9.000978 C 0.000881536 4.03126 4.027976 -0.00107172 8.997694 -0.00107172 Z M 8.997694 -0.00107172 " stroke="#463f57" stroke-width="12" stroke-opacity="1" stroke-miterlimit="4"/></g></g><g clip-path="url(#a4636b7c9f)"><path fill="#463f57" d="M 13.070312 19.128906 C 11.4375 19.128906 10.113281 20.519531 10.113281 22.234375 C 10.128906 23.3125 10.683594 24.222656 11.261719 25.085938 C 10.617188 24.597656 9.902344 24.304688 9.128906 24.300781 C 7.496094 24.300781 6.175781 25.691406 6.175781 27.402344 C 6.175781 29.117188 7.496094 30.503906 9.128906 30.503906 C 10.449219 30.484375 11.507812 29.558594 12.546875 28.78125 C 12.359375 31.101562 11.980469 32.40625 9.785156 32.917969 L 16.351562 32.917969 C 14.15625 32.40625 13.777344 31.101562 13.589844 28.78125 C 14.617188 29.660156 15.695312 30.410156 17.007812 30.503906 C 18.640625 30.503906 19.960938 29.117188 19.960938 27.402344 C 19.960938 25.691406 18.640625 24.300781 17.007812 24.300781 C 16.214844 24.300781 15.53125 24.664062 14.875 25.085938 C 15.527344 24.230469 15.960938 23.304688 16.023438 22.234375 C 16.023438 20.519531 14.699219 19.128906 13.070312 19.128906 Z M 13.070312 19.128906 " fill-opacity="1" fill-rule="nonzero"/></g><g fill="#000000" fill-opacity="1"><g transform="translate(81.075102, 110.57376)"><g><path d="M -4.332031 7.296875 L -3.265625 7.296875 C -2.945312 7.304688 -2.730469 7.257812 -2.613281 7.144531 C -2.488281 7.027344 -2.390625 6.828125 -2.300781 6.542969 L -0.195312 0.527344 C -0.125 0.320312 -0.0703125 0.144531 -0.0429688 -0.0195312 C -0.0351562 -0.25 -0.0976562 -0.429688 -0.207031 -0.546875 C -0.320312 -0.644531 -0.519531 -0.699219 -0.789062 -0.707031 L -1.460938 -0.707031 C -1.726562 -0.714844 -1.933594 -0.664062 -2.050781 -0.554688 C -2.167969 -0.4375 -2.265625 -0.25 -2.335938 -0.0195312 L -2.558594 0.636719 L -5.039062 0.636719 L -5.273438 -0.0195312 C -5.34375 -0.25 -5.433594 -0.4375 -5.558594 -0.554688 C -5.675781 -0.664062 -5.871094 -0.714844 -6.148438 -0.707031 L -6.820312 -0.707031 C -7.089844 -0.699219 -7.285156 -0.644531 -7.402344 -0.546875 C -7.519531 -0.429688 -7.574219 -0.25 -7.5625 -0.0195312 C -7.535156 0.144531 -7.484375 0.320312 -7.402344 0.527344 L -5.308594 6.542969 C -5.21875 6.828125 -5.109375 7.027344 -5.003906 7.144531 C -4.878906 7.257812 -4.664062 7.304688 -4.332031 7.296875 Z M -3.804688 4.207031 L -4.304688 2.757812 L -3.292969 2.757812 Z M -3.804688 4.207031 "/></g></g></g><g clip-path="url(#45df4f9140)"><path fill="#463f57" d="M 77.261719 108.484375 C 78.894531 108.484375 80.21875 107.09375 80.21875 105.378906 C 80.203125 104.304688 79.648438 103.390625 79.070312 102.527344 C 79.714844 103.015625 80.429688 103.308594 81.203125 103.3125 C 82.832031 103.3125 84.15625 101.921875 84.15625 100.210938 C 84.15625 98.496094 82.832031 97.109375 81.203125 97.109375 C 79.882812 97.128906 78.824219 98.054688 77.785156 98.832031 C 77.972656 96.511719 78.351562 95.207031 80.546875 94.695312 L 73.980469 94.695312 C 76.175781 95.207031 76.554688 96.511719 76.738281 98.832031 C 75.714844 97.953125 74.636719 97.207031 73.324219 97.109375 C 71.691406 97.109375 70.367188 98.496094 70.367188 100.210938 C 70.367188 101.921875 71.691406 103.3125 73.324219 103.3125 C 74.113281 103.3125 74.800781 102.949219 75.457031 102.527344 C 74.800781 103.382812 74.371094 104.308594 74.308594 105.378906 C 74.308594 107.09375 75.632812 108.484375 77.261719 108.484375 Z M 77.261719 108.484375 " fill-opacity="1" fill-rule="nonzero"/></g><g clip-path="url(#eae48b8a0e)"><path fill="#463f57" d="M 45.496094 56.605469 C 43.867188 56.605469 42.542969 57.992188 42.542969 59.707031 C 42.558594 60.785156 43.113281 61.695312 43.691406 62.5625 C 43.046875 62.074219 42.332031 61.777344 41.558594 61.773438 C 39.925781 61.773438 38.605469 63.164062 38.605469 64.875 C 38.605469 66.589844 39.925781 67.980469 41.558594 67.980469 C 42.878906 67.957031 43.9375 67.03125 44.972656 66.253906 C 44.789062 68.578125 44.410156 69.878906 42.214844 70.390625 L 48.78125 70.390625 C 46.585938 69.878906 46.207031 68.578125 46.019531 66.253906 C 47.046875 67.136719 48.125 67.882812 49.4375 67.980469 C 51.066406 67.980469 52.390625 66.589844 52.390625 64.875 C 52.390625 63.164062 51.066406 61.773438 49.4375 61.773438 C 48.644531 61.773438 47.960938 62.136719 47.304688 62.5625 C 47.957031 61.703125 48.390625 60.777344 48.453125 59.707031 C 48.453125 57.992188 47.128906 56.605469 45.496094 56.605469 Z M 45.496094 56.605469 " fill-opacity="1" fill-rule="nonzero"/></g><g fill="#000000" fill-opacity="1"><g transform="translate(9.266539, 17.04217)"><g><path d="M 4.332031 -7.296875 L 3.265625 -7.296875 C 2.945312 -7.304688 2.730469 -7.257812 2.613281 -7.144531 C 2.488281 -7.027344 2.390625 -6.828125 2.300781 -6.542969 L 0.195312 -0.527344 C 0.125 -0.320312 0.0703125 -0.144531 0.0429688 0.0195312 C 0.0351562 0.25 0.0976562 0.429688 0.207031 0.546875 C 0.320312 0.644531 0.519531 0.699219 0.789062 0.707031 L 1.460938 0.707031 C 1.726562 0.714844 1.933594 0.664062 2.050781 0.554688 C 2.167969 0.4375 2.265625 0.25 2.335938 0.0195312 L 2.558594 -0.636719 L 5.039062 -0.636719 L 5.273438 0.0195312 C 5.34375 0.25 5.433594 0.4375 5.558594 0.554688 C 5.675781 0.664062 5.871094 0.714844 6.148438 0.707031 L 6.820312 0.707031 C 7.089844 0.699219 7.285156 0.644531 7.402344 0.546875 C 7.519531 0.429688 7.574219 0.25 7.5625 0.0195312 C 7.535156 -0.144531 7.484375 -0.320312 7.402344 -0.527344 L 5.308594 -6.542969 C 5.21875 -6.828125 5.109375 -7.027344 5.003906 -7.144531 C 4.878906 -7.257812 4.664062 -7.304688 4.332031 -7.296875 Z M 3.804688 -4.207031 L 4.304688 -2.757812 L 3.292969 -2.757812 Z M 3.804688 -4.207031 "/></g></g></g></svg>