<svg xmlns="http://www.w3.org/2000/svg" xmlns:xlink="http://www.w3.org/1999/xlink" width="122" zoomAndPan="magnify" viewBox="0 0 91.5 127.499994" height="170" preserveAspectRatio="xMidYMid meet" version="1.0"><defs><g/><clipPath id="0e98e7b042"><path d="M 0.597656 0.808594 L 90.402344 0.808594 L 90.402344 126.191406 L 0.597656 126.191406 Z M 0.597656 0.808594 " clip-rule="nonzero"/></clipPath><clipPath id="cca1f96398"><path d="M 7.3125 0.808594 L 83.691406 0.808594 C 85.472656 0.808594 87.179688 1.515625 88.4375 2.777344 C 89.695312 4.035156 90.402344 5.742188 90.402344 7.523438 L 90.402344 119.480469 C 90.402344 121.261719 89.695312 122.96875 88.4375 124.226562 C 87.179688 125.484375 85.472656 126.191406 83.691406 126.191406 L 7.3125 126.191406 C 3.605469 126.191406 0.597656 123.1875 0.597656 119.480469 L 0.597656 7.523438 C 0.597656 3.816406 3.605469 0.808594 7.3125 0.808594 Z M 7.3125 0.808594 " clip-rule="nonzero"/></clipPath><clipPath id="60b5e9f878"><path d="M 0.601562 0.808594 L 90.109375 0.808594 L 90.109375 126.125 L 0.601562 126.125 Z M 0.601562 0.808594 " clip-rule="nonzero"/></clipPath><clipPath id="33ef07939c"><path d="M 7.3125 0.808594 L 83.6875 0.808594 C 85.464844 0.808594 87.171875 1.515625 88.433594 2.777344 C 89.691406 4.035156 90.398438 5.742188 90.398438 7.523438 L 90.398438 119.46875 C 90.398438 121.25 89.691406 122.957031 88.433594 124.214844 C 87.171875 125.476562 85.464844 126.183594 83.6875 126.183594 L 7.3125 126.183594 C 3.605469 126.183594 0.601562 123.175781 0.601562 119.46875 L 0.601562 7.523438 C 0.601562 3.816406 3.605469 0.808594 7.3125 0.808594 Z M 7.3125 0.808594 " clip-rule="nonzero"/></clipPath><clipPath id="06b30e1cb6"><path d="M 6.175781 19.128906 L 19.601562 19.128906 L 19.601562 32.558594 L 6.175781 32.558594 Z M 6.175781 19.128906 " clip-rule="nonzero"/></clipPath><clipPath id="5dd27b3cf9"><path d="M 70.730469 95.054688 L 84.15625 95.054688 L 84.15625 108.484375 L 70.730469 108.484375 Z M 70.730469 95.054688 " clip-rule="nonzero"/></clipPath><clipPath id="2b0f590008"><path d="M 19.96875 26.027344 L 33.394531 26.027344 L 33.394531 39.453125 L 19.96875 39.453125 Z M 19.96875 26.027344 " clip-rule="nonzero"/></clipPath><clipPath id="8e188350e5"><path d="M 20.332031 88.160156 L 33.757812 88.160156 L 33.757812 101.585938 L 20.332031 101.585938 Z M 20.332031 88.160156 " clip-rule="nonzero"/></clipPath><clipPath id="7f88177a5f"><path d="M 56.574219 26.027344 L 70 26.027344 L 70 39.453125 L 56.574219 39.453125 Z M 56.574219 26.027344 " clip-rule="nonzero"/></clipPath><clipPath id="96892c0b99"><path d="M 19.96875 47.085938 L 33.394531 47.085938 L 33.394531 60.511719 L 19.96875 60.511719 Z M 19.96875 47.085938 " clip-rule="nonzero"/></clipPath><clipPath id="150b6311c4"><path d="M 56.574219 47.085938 L 70 47.085938 L 70 60.511719 L 56.574219 60.511719 Z M 56.574219 47.085938 " clip-rule="nonzero"/></clipPath><clipPath id="2f73c4c7e7"><path d="M 38.605469 56.605469 L 52.03125 56.605469 L 52.03125 70.03125 L 38.605469 70.03125 Z M 38.605469 56.605469 " clip-rule="nonzero"/></clipPath><clipPath id="009f613aa9"><path d="M 56.933594 67.953125 L 70.363281 67.953125 L 70.363281 81.382812 L 56.933594 81.382812 Z M 56.933594 67.953125 " clip-rule="nonzero"/></clipPath><clipPath id="cbeeeadada"><path d="M 20.332031 67.953125 L 33.757812 67.953125 L 33.757812 81.382812 L 20.332031 81.382812 Z M 20.332031 67.953125 " clip-rule="nonzero"/></clipPath><clipPath id="f3dae7854c"><path d="M 56.933594 88.160156 L 70.363281 88.160156 L 70.363281 101.585938 L 56.933594 101.585938 Z M 56.933594 88.160156 " clip-rule="nonzero"/></clipPath></defs><g clip-path="url(#0e98e7b042)"><g clip-path="url(#cca1f96398)"><path fill="#ffffff" d="M 0.597656 0.808594 L 90.402344 0.808594 L 90.402344 126.191406 L 0.597656 126.191406 Z M 0.597656 0.808594 " fill-opacity="1" fill-rule="nonzero"/></g></g><g clip-path="url(#60b5e9f878)"><g clip-path="url(#33ef07939c)"><path stroke-linecap="butt" transform="matrix(0.745924, 0, 0, 0.745924, 0.600905, 0.809393)" fill="none" stroke-linejoin="miter" d="M 8.997694 -0.00107172 L 111.387498 -0.00107172 C 113.77024 -0.00107172 116.058719 0.946788 117.750203 2.638273 C 119.436451 4.32452 120.384311 6.613 120.384311 9.000978 L 120.384311 159.077031 C 120.384311 161.46501 119.436451 163.753489 117.750203 165.439737 C 116.058719 167.131221 113.77024 168.079081 111.387498 168.079081 L 8.997694 168.079081 C 4.027976 168.079081 0.000881536 164.046749 0.000881536 159.077031 L 0.000881536 9.000978 C 0.000881536 4.03126 4.027976 -0.00107172 8.997694 -0.00107172 Z M 8.997694 -0.00107172 " stroke="#463f57" stroke-width="12" stroke-opacity="1" stroke-miterlimit="4"/></g></g><g clip-path="url(#06b30e1cb6)"><path fill="#463f57" d="M 13.070312 19.128906 C 11.4375 19.128906 10.113281 20.519531 10.113281 22.234375 C 10.128906 23.3125 10.683594 24.222656 11.261719 25.085938 C 10.617188 24.597656 9.902344 24.304688 9.128906 24.300781 C 7.496094 24.300781 6.175781 25.691406 6.175781 27.402344 C 6.175781 29.117188 7.496094 30.503906 9.128906 30.503906 C 10.449219 30.484375 11.507812 29.558594 12.546875 28.78125 C 12.359375 31.101562 11.980469 32.40625 9.785156 32.917969 L 16.351562 32.917969 C 14.15625 32.40625 13.777344 31.101562 13.589844 28.78125 C 14.617188 29.660156 15.695312 30.410156 17.007812 30.503906 C 18.640625 30.503906 19.960938 29.117188 19.960938 27.402344 C 19.960938 25.691406 18.640625 24.300781 17.007812 24.300781 C 16.214844 24.300781 15.53125 24.664062 14.875 25.085938 C 15.527344 24.230469 15.960938 23.304688 16.023438 22.234375 C 16.023438 20.519531 14.699219 19.128906 13.070312 19.128906 Z M 13.070312 19.128906 " fill-opacity="1" fill-rule="nonzero"/></g><g fill="#000000" fill-opacity="1"><g transform="translate(9.256826, 17.04217)"><g><path d="M 5.386719 -5.128906 L 5.386719 -4.671875 C 5.386719 -4.324219 5.210938 -4.152344 4.859375 -4.152344 L 2.765625 -4.152344 C 2.417969 -4.152344 2.238281 -4.324219 2.238281 -4.671875 L 2.238281 -5.128906 C 2.238281 -5.476562 2.417969 -5.65625 2.765625 -5.65625 L 4.859375 -5.65625 C 5.210938 -5.65625 5.386719 -5.476562 5.386719 -5.128906 Z M 7.449219 -1.191406 L 7.449219 -5.539062 C 7.449219 -6.703125 6.867188 -7.285156 5.703125 -7.285156 L 1.925781 -7.285156 C 0.761719 -7.285156 0.1875 -6.703125 0.179688 -5.539062 L 0.179688 -4.269531 C 0.1875 -3.105469 0.761719 -2.515625 1.925781 -2.515625 L 5.210938 -2.515625 C 5.324219 -2.515625 5.386719 -2.453125 5.386719 -2.34375 L 5.386719 -1.601562 C 5.386719 -1.253906 5.210938 -1.074219 4.859375 -1.074219 L 2.765625 -1.074219 C 2.417969 -1.074219 2.238281 -1.253906 2.238281 -1.601562 L 2.238281 -1.621094 C 2.238281 -1.835938 2.121094 -1.941406 1.890625 -1.941406 L 0.527344 -1.941406 C 0.285156 -1.941406 0.179688 -1.835938 0.179688 -1.621094 L 0.179688 -1.191406 C 0.1875 -0.0273438 0.761719 0.5625 1.925781 0.5625 L 5.703125 0.5625 C 6.867188 0.5625 7.449219 -0.0273438 7.449219 -1.191406 Z M 7.449219 -1.191406 "/></g></g></g><g fill="#000000" fill-opacity="1"><g transform="translate(81.075092, 110.57376)"><g><path d="M -5.386719 5.128906 L -5.386719 4.671875 C -5.386719 4.324219 -5.210938 4.152344 -4.859375 4.152344 L -2.765625 4.152344 C -2.417969 4.152344 -2.238281 4.324219 -2.238281 4.671875 L -2.238281 5.128906 C -2.238281 5.476562 -2.417969 5.65625 -2.765625 5.65625 L -4.859375 5.65625 C -5.210938 5.65625 -5.386719 5.476562 -5.386719 5.128906 Z M -7.449219 1.191406 L -7.449219 5.539062 C -7.449219 6.703125 -6.867188 7.285156 -5.703125 7.285156 L -1.925781 7.285156 C -0.761719 7.285156 -0.1875 6.703125 -0.179688 5.539062 L -0.179688 4.269531 C -0.1875 3.105469 -0.761719 2.515625 -1.925781 2.515625 L -5.210938 2.515625 C -5.324219 2.515625 -5.386719 2.453125 -5.386719 2.34375 L -5.386719 1.601562 C -5.386719 1.253906 -5.210938 1.074219 -4.859375 1.074219 L -2.765625 1.074219 C -2.417969 1.074219 -2.238281 1.253906 -2.238281 1.601562 L -2.238281 1.621094 C -2.238281 1.835938 -2.121094 1.941406 -1.890625 1.941406 L -0.527344 1.941406 C -0.285156 1.941406 -0.179688 1.835938 -0.179688 1.621094 L -0.179688 1.191406 C -0.1875 0.0273438 -0.761719 -0.5625 -1.925781 -0.5625 L -5.703125 -0.5625 C -6.867188 -0.5625 -7.449219 0.0273438 -7.449219 1.191406 Z M -7.449219 1.191406 "/></g></g></g><g clip-path="url(#5dd27b3cf9)"><path fill="#463f57" d="M 77.261719 108.484375 C 78.894531 108.484375 80.21875 107.09375 80.21875 105.378906 C 80.203125 104.304688 79.648438 103.390625 79.070312 102.527344 C 79.714844 103.015625 80.429688 103.308594 81.203125 103.3125 C 82.832031 103.3125 84.15625 101.921875 84.15625 100.210938 C 84.15625 98.496094 82.832031 97.109375 81.203125 97.109375 C 79.882812 97.128906 78.824219 98.054688 77.785156 98.832031 C 77.972656 96.511719 78.351562 95.207031 80.546875 94.695312 L 73.980469 94.695312 C 76.175781 95.207031 76.554688 96.511719 76.738281 98.832031 C 75.714844 97.953125 74.636719 97.207031 73.324219 97.109375 C 71.691406 97.109375 70.367188 98.496094 70.367188 100.210938 C 70.367188 101.921875 71.691406 103.3125 73.324219 103.3125 C 74.113281 103.3125 74.800781 102.949219 75.457031 102.527344 C 74.800781 103.382812 74.371094 104.308594 74.308594 105.378906 C 74.308594 107.09375 75.632812 108.484375 77.261719 108.484375 Z M 77.261719 108.484375 " fill-opacity="1" fill-rule="nonzero"/></g><g clip-path="url(#2b0f590008)"><path fill="#463f57" d="M 26.863281 26.027344 C 25.234375 26.027344 23.910156 27.417969 23.910156 29.128906 C 23.921875 30.207031 24.480469 31.117188 25.058594 31.984375 C 24.414062 31.496094 23.695312 31.203125 22.925781 31.199219 C 21.292969 31.199219 19.96875 32.589844 19.96875 34.300781 C 19.96875 36.011719 21.292969 37.402344 22.925781 37.402344 C 24.246094 37.382812 25.300781 36.457031 26.339844 35.679688 C 26.15625 38 25.777344 39.304688 23.582031 39.816406 L 30.144531 39.816406 C 27.949219 39.304688 27.574219 38 27.386719 35.679688 C 28.414062 36.558594 29.488281 37.304688 30.804688 37.402344 C 32.433594 37.402344 33.757812 36.011719 33.757812 34.300781 C 33.757812 32.589844 32.433594 31.199219 30.804688 31.199219 C 30.011719 31.199219 29.328125 31.5625 28.667969 31.984375 C 29.324219 31.128906 29.753906 30.203125 29.816406 29.128906 C 29.816406 27.417969 28.496094 26.027344 26.863281 26.027344 Z M 26.863281 26.027344 " fill-opacity="1" fill-rule="nonzero"/></g><g clip-path="url(#8e188350e5)"><path fill="#463f57" d="M 26.863281 101.585938 C 28.496094 101.585938 29.816406 100.195312 29.816406 98.484375 C 29.804688 97.40625 29.246094 96.496094 28.667969 95.628906 C 29.3125 96.117188 30.03125 96.410156 30.804688 96.414062 C 32.433594 96.414062 33.757812 95.023438 33.757812 93.3125 C 33.757812 91.601562 32.433594 90.210938 30.804688 90.210938 C 29.480469 90.230469 28.425781 91.15625 27.386719 91.933594 C 27.574219 89.613281 27.949219 88.308594 30.144531 87.796875 L 23.582031 87.796875 C 25.777344 88.308594 26.152344 89.613281 26.339844 91.933594 C 25.3125 91.054688 24.238281 90.308594 22.925781 90.210938 C 21.292969 90.210938 19.96875 91.601562 19.96875 93.3125 C 19.96875 95.023438 21.292969 96.414062 22.925781 96.414062 C 23.714844 96.414062 24.398438 96.050781 25.058594 95.628906 C 24.402344 96.484375 23.972656 97.410156 23.910156 98.484375 C 23.910156 100.195312 25.230469 101.585938 26.863281 101.585938 Z M 26.863281 101.585938 " fill-opacity="1" fill-rule="nonzero"/></g><g clip-path="url(#7f88177a5f)"><path fill="#463f57" d="M 63.46875 26.027344 C 61.835938 26.027344 60.511719 27.417969 60.511719 29.128906 C 60.527344 30.207031 61.082031 31.117188 61.664062 31.984375 C 61.015625 31.496094 60.300781 31.203125 59.527344 31.199219 C 57.898438 31.199219 56.574219 32.589844 56.574219 34.300781 C 56.574219 36.011719 57.898438 37.402344 59.527344 37.402344 C 60.851562 37.382812 61.90625 36.457031 62.945312 35.679688 C 62.757812 38 62.382812 39.304688 60.183594 39.816406 L 66.75 39.816406 C 64.554688 39.304688 64.175781 38 63.992188 35.679688 C 65.015625 36.558594 66.09375 37.304688 67.40625 37.402344 C 69.039062 37.402344 70.363281 36.011719 70.363281 34.300781 C 70.363281 32.589844 69.039062 31.199219 67.40625 31.199219 C 66.617188 31.199219 65.933594 31.5625 65.273438 31.984375 C 65.929688 31.128906 66.359375 30.203125 66.421875 29.128906 C 66.421875 27.417969 65.097656 26.027344 63.46875 26.027344 Z M 63.46875 26.027344 " fill-opacity="1" fill-rule="nonzero"/></g><g clip-path="url(#96892c0b99)"><path fill="#463f57" d="M 26.863281 47.085938 C 25.234375 47.085938 23.910156 48.476562 23.910156 50.1875 C 23.921875 51.265625 24.480469 52.175781 25.058594 53.042969 C 24.414062 52.554688 23.695312 52.257812 22.925781 52.253906 C 21.292969 52.253906 19.96875 53.644531 19.96875 55.359375 C 19.96875 57.070312 21.292969 58.460938 22.925781 58.460938 C 24.246094 58.4375 25.300781 57.515625 26.339844 56.738281 C 26.15625 59.058594 25.777344 60.359375 23.582031 60.875 L 30.144531 60.875 C 27.949219 60.359375 27.574219 59.058594 27.386719 56.738281 C 28.414062 57.617188 29.488281 58.363281 30.804688 58.460938 C 32.433594 58.460938 33.757812 57.070312 33.757812 55.359375 C 33.757812 53.644531 32.433594 52.253906 30.804688 52.253906 C 30.011719 52.253906 29.328125 52.621094 28.667969 53.042969 C 29.324219 52.183594 29.753906 51.261719 29.816406 50.1875 C 29.816406 48.476562 28.496094 47.085938 26.863281 47.085938 Z M 26.863281 47.085938 " fill-opacity="1" fill-rule="nonzero"/></g><g clip-path="url(#150b6311c4)"><path fill="#463f57" d="M 63.46875 47.085938 C 61.835938 47.085938 60.511719 48.476562 60.511719 50.1875 C 60.527344 51.265625 61.082031 52.175781 61.664062 53.042969 C 61.015625 52.554688 60.300781 52.257812 59.527344 52.253906 C 57.898438 52.253906 56.574219 53.644531 56.574219 55.359375 C 56.574219 57.070312 57.898438 58.460938 59.527344 58.460938 C 60.851562 58.4375 61.90625 57.515625 62.945312 56.738281 C 62.757812 59.058594 62.382812 60.359375 60.183594 60.875 L 66.75 60.875 C 64.554688 60.359375 64.175781 59.058594 63.992188 56.738281 C 65.015625 57.617188 66.09375 58.363281 67.40625 58.460938 C 69.039062 58.460938 70.363281 57.070312 70.363281 55.359375 C 70.363281 53.644531 69.039062 52.253906 67.40625 52.253906 C 66.617188 52.253906 65.933594 52.621094 65.273438 53.042969 C 65.929688 52.183594 66.359375 51.261719 66.421875 50.1875 C 66.421875 48.476562 65.097656 47.085938 63.46875 47.085938 Z M 63.46875 47.085938 " fill-opacity="1" fill-rule="nonzero"/></g><g clip-path="url(#2f73c4c7e7)"><path fill="#5271ff" d="M 45.496094 56.605469 C 43.867188 56.605469 42.542969 57.992188 42.542969 59.707031 C 42.558594 60.785156 43.113281 61.695312 43.691406 62.5625 C 43.046875 62.074219 42.332031 61.777344 41.558594 61.773438 C 39.925781 61.773438 38.605469 63.164062 38.605469 64.875 C 38.605469 66.589844 39.925781 67.980469 41.558594 67.980469 C 42.878906 67.957031 43.9375 67.03125 44.972656 66.253906 C 44.789062 68.578125 44.410156 69.878906 42.214844 70.390625 L 48.78125 70.390625 C 46.585938 69.878906 46.207031 68.578125 46.019531 66.253906 C 47.046875 67.136719 48.125 67.882812 49.4375 67.980469 C 51.066406 67.980469 52.390625 66.589844 52.390625 64.875 C 52.390625 63.164062 51.066406 61.773438 49.4375 61.773438 C 48.644531 61.773438 47.960938 62.136719 47.304688 62.5625 C 47.957031 61.703125 48.390625 60.777344 48.453125 59.707031 C 48.453125 57.992188 47.128906 56.605469 45.496094 56.605469 Z M 45.496094 56.605469 " fill-opacity="1" fill-rule="nonzero"/></g><g clip-path="url(#009f613aa9)"><path fill="#463f57" d="M 63.46875 81.382812 C 65.097656 81.382812 66.421875 79.992188 66.421875 78.28125 C 66.410156 77.203125 65.851562 76.289062 65.273438 75.425781 C 65.917969 75.914062 66.636719 76.207031 67.40625 76.210938 C 69.039062 76.210938 70.363281 74.820312 70.363281 73.109375 C 70.363281 71.394531 69.039062 70.007812 67.40625 70.007812 C 66.085938 70.027344 65.03125 70.953125 63.992188 71.730469 C 64.175781 69.410156 64.554688 68.105469 66.75 67.59375 L 60.183594 67.59375 C 62.382812 68.105469 62.757812 69.410156 62.945312 71.730469 C 61.917969 70.851562 60.84375 70.105469 59.527344 70.007812 C 57.898438 70.007812 56.574219 71.394531 56.574219 73.109375 C 56.574219 74.820312 57.898438 76.210938 59.527344 76.210938 C 60.320312 76.210938 61.003906 75.847656 61.664062 75.425781 C 61.007812 76.28125 60.574219 77.207031 60.511719 78.28125 C 60.511719 79.992188 61.835938 81.382812 63.46875 81.382812 Z M 63.46875 81.382812 " fill-opacity="1" fill-rule="nonzero"/></g><g clip-path="url(#cbeeeadada)"><path fill="#463f57" d="M 26.863281 81.382812 C 28.496094 81.382812 29.816406 79.992188 29.816406 78.28125 C 29.804688 77.203125 29.246094 76.289062 28.667969 75.425781 C 29.3125 75.914062 30.03125 76.207031 30.804688 76.210938 C 32.433594 76.210938 33.757812 74.820312 33.757812 73.109375 C 33.757812 71.394531 32.433594 70.007812 30.804688 70.007812 C 29.480469 70.027344 28.425781 70.953125 27.386719 71.730469 C 27.574219 69.410156 27.949219 68.105469 30.144531 67.59375 L 23.582031 67.59375 C 25.777344 68.105469 26.152344 69.410156 26.339844 71.730469 C 25.3125 70.851562 24.238281 70.105469 22.925781 70.007812 C 21.292969 70.007812 19.96875 71.394531 19.96875 73.109375 C 19.96875 74.820312 21.292969 76.210938 22.925781 76.210938 C 23.714844 76.210938 24.398438 75.847656 25.058594 75.425781 C 24.402344 76.28125 23.972656 77.207031 23.910156 78.28125 C 23.910156 79.992188 25.230469 81.382812 26.863281 81.382812 Z M 26.863281 81.382812 " fill-opacity="1" fill-rule="nonzero"/></g><g clip-path="url(#f3dae7854c)"><path fill="#463f57" d="M 63.46875 101.585938 C 65.097656 101.585938 66.421875 100.195312 66.421875 98.484375 C 66.410156 97.40625 65.851562 96.496094 65.273438 95.628906 C 65.917969 96.117188 66.636719 96.410156 67.40625 96.414062 C 69.039062 96.414062 70.363281 95.023438 70.363281 93.3125 C 70.363281 91.601562 69.039062 90.210938 67.40625 90.210938 C 66.085938 90.230469 65.03125 91.15625 63.992188 91.933594 C 64.175781 89.613281 64.554688 88.308594 66.75 87.796875 L 60.183594 87.796875 C 62.382812 88.308594 62.757812 89.613281 62.945312 91.933594 C 61.917969 91.054688 60.84375 90.308594 59.527344 90.210938 C 57.898438 90.210938 56.574219 91.601562 56.574219 93.3125 C 56.574219 95.023438 57.898438 96.414062 59.527344 96.414062 C 60.320312 96.414062 61.003906 96.050781 61.664062 95.628906 C 61.007812 96.484375 60.574219 97.410156 60.511719 98.484375 C 60.511719 100.195312 61.835938 101.585938 63.46875 101.585938 Z M 63.46875 101.585938 " fill-opacity="1" fill-rule="nonzero"/></g></svg>