<svg xmlns="http://www.w3.org/2000/svg" xmlns:xlink="http://www.w3.org/1999/xlink" width="122" zoomAndPan="magnify" viewBox="0 0 91.5 127.499994" height="170" preserveAspectRatio="xMidYMid meet" version="1.0"><defs><g/><clipPath id="266f61f27c"><path d="M 0.597656 0.808594 L 90.402344 0.808594 L 90.402344 126.191406 L 0.597656 126.191406 Z M 0.597656 0.808594 " clip-rule="nonzero"/></clipPath><clipPath id="2d9280affc"><path d="M 7.3125 0.808594 L 83.691406 0.808594 C 85.472656 0.808594 87.179688 1.515625 88.4375 2.777344 C 89.695312 4.035156 90.402344 5.742188 90.402344 7.523438 L 90.402344 119.480469 C 90.402344 121.261719 89.695312 122.96875 88.4375 124.226562 C 87.179688 125.484375 85.472656 126.191406 83.691406 126.191406 L 7.3125 126.191406 C 3.605469 126.191406 0.597656 123.1875 0.597656 119.480469 L 0.597656 7.523438 C 0.597656 3.816406 3.605469 0.808594 7.3125 0.808594 Z M 7.3125 0.808594 " clip-rule="nonzero"/></clipPath><clipPath id="53b7887373"><path d="M 0.601562 0.808594 L 90.109375 0.808594 L 90.109375 126.125 L 0.601562 126.125 Z M 0.601562 0.808594 " clip-rule="nonzero"/></clipPath><clipPath id="8af518e2fc"><path d="M 7.3125 0.808594 L 83.6875 0.808594 C 85.464844 0.808594 87.171875 1.515625 88.433594 2.777344 C 89.691406 4.035156 90.398438 5.742188 90.398438 7.523438 L 90.398438 119.46875 C 90.398438 121.25 89.691406 122.957031 88.433594 124.214844 C 87.171875 125.476562 85.464844 126.183594 83.6875 126.183594 L 7.3125 126.183594 C 3.605469 126.183594 0.601562 123.175781 0.601562 119.46875 L 0.601562 7.523438 C 0.601562 3.816406 3.605469 0.808594 7.3125 0.808594 Z M 7.3125 0.808594 " clip-rule="nonzero"/></clipPath><clipPath id="e7d7397b4d"><path d="M 42 41.417969 L 49 41.417969 L 49 49 L 42 49 Z M 42 41.417969 " clip-rule="nonzero"/></clipPath><clipPath id="85ff6fe23c"><path d="M 10.753906 54 L 18 54 L 18 61 L 10.753906 61 Z M 10.753906 54 " clip-rule="nonzero"/></clipPath><clipPath id="569bf11f67"><path d="M 73 54 L 80.125 54 L 80.125 61 L 73 61 Z M 73 54 " clip-rule="nonzero"/></clipPath><clipPath id="9f8caa667e"><path d="M 23 78 L 68 78 L 68 85.425781 L 23 85.425781 Z M 23 78 " clip-rule="nonzero"/></clipPath><clipPath id="debb058cd9"><path d="M 6.253906 19.128906 L 19.683594 19.128906 L 19.683594 34.796875 L 6.253906 34.796875 Z M 6.253906 19.128906 " clip-rule="nonzero"/></clipPath><clipPath id="1d8352508b"><path d="M 70.449219 92.707031 L 83.875 92.707031 L 83.875 108.371094 L 70.449219 108.371094 Z M 70.449219 92.707031 " clip-rule="nonzero"/></clipPath></defs><g clip-path="url(#266f61f27c)"><g clip-path="url(#2d9280affc)"><path fill="#ffffff" d="M 0.597656 0.808594 L 90.402344 0.808594 L 90.402344 126.191406 L 0.597656 126.191406 Z M 0.597656 0.808594 " fill-opacity="1" fill-rule="nonzero"/></g></g><g clip-path="url(#53b7887373)"><g clip-path="url(#8af518e2fc)"><path stroke-linecap="butt" transform="matrix(0.745924, 0, 0, 0.745924, 0.600905, 0.809393)" fill="none" stroke-linejoin="miter" d="M 8.997694 -0.00107172 L 111.387498 -0.00107172 C 113.77024 -0.00107172 116.058719 0.946788 117.750203 2.638273 C 119.436451 4.32452 120.384311 6.613 120.384311 9.000978 L 120.384311 159.077031 C 120.384311 161.46501 119.436451 163.753489 117.750203 165.439737 C 116.058719 167.131221 113.77024 168.079081 111.387498 168.079081 L 8.997694 168.079081 C 4.027976 168.079081 0.000881536 164.046749 0.000881536 159.077031 L 0.000881536 9.000978 C 0.000881536 4.03126 4.027976 -0.00107172 8.997694 -0.00107172 Z M 8.997694 -0.00107172 " stroke="#463f57" stroke-width="12" stroke-opacity="1" stroke-miterlimit="4"/></g></g><g clip-path="url(#e7d7397b4d)"><path fill="#463f57" d="M 48.871094 44.765625 C 48.871094 45.207031 48.785156 45.636719 48.617188 46.046875 C 48.445312 46.453125 48.203125 46.816406 47.890625 47.128906 C 47.578125 47.445312 47.214844 47.6875 46.804688 47.855469 C 46.394531 48.027344 45.96875 48.109375 45.523438 48.109375 C 45.082031 48.109375 44.652344 48.027344 44.242188 47.855469 C 43.835938 47.6875 43.472656 47.445312 43.160156 47.128906 C 42.84375 46.816406 42.601562 46.453125 42.433594 46.046875 C 42.261719 45.636719 42.179688 45.207031 42.179688 44.765625 C 42.179688 44.320312 42.261719 43.894531 42.433594 43.484375 C 42.601562 43.074219 42.84375 42.710938 43.160156 42.398438 C 43.472656 42.085938 43.835938 41.84375 44.242188 41.671875 C 44.652344 41.503906 45.082031 41.417969 45.523438 41.417969 C 45.96875 41.417969 46.394531 41.503906 46.804688 41.671875 C 47.214844 41.84375 47.578125 42.085938 47.890625 42.398438 C 48.203125 42.710938 48.445312 43.074219 48.617188 43.484375 C 48.785156 43.894531 48.871094 44.320312 48.871094 44.765625 Z M 48.871094 44.765625 " fill-opacity="1" fill-rule="nonzero"/></g><path fill="#463f57" d="M 32.003906 49.96875 C 32.003906 50.410156 31.917969 50.832031 31.75 51.238281 C 31.582031 51.644531 31.339844 52.003906 31.03125 52.316406 C 30.71875 52.628906 30.359375 52.867188 29.953125 53.039062 C 29.542969 53.207031 29.121094 53.289062 28.679688 53.289062 C 28.238281 53.289062 27.816406 53.207031 27.410156 53.039062 C 27 52.867188 26.640625 52.628906 26.332031 52.316406 C 26.019531 52.003906 25.777344 51.644531 25.609375 51.238281 C 25.441406 50.832031 25.355469 50.410156 25.355469 49.96875 C 25.355469 49.527344 25.441406 49.101562 25.609375 48.695312 C 25.777344 48.289062 26.019531 47.929688 26.332031 47.617188 C 26.640625 47.304688 27 47.066406 27.410156 46.898438 C 27.816406 46.730469 28.238281 46.644531 28.679688 46.644531 C 29.121094 46.644531 29.542969 46.730469 29.953125 46.898438 C 30.359375 47.066406 30.71875 47.304688 31.03125 47.617188 C 31.339844 47.929688 31.582031 48.289062 31.75 48.695312 C 31.917969 49.101562 32.003906 49.527344 32.003906 49.96875 Z M 32.003906 49.96875 " fill-opacity="1" fill-rule="nonzero"/><path fill="#463f57" d="M 65.417969 49.964844 C 65.417969 50.40625 65.332031 50.832031 65.164062 51.238281 C 64.996094 51.644531 64.753906 52.003906 64.441406 52.316406 C 64.132812 52.628906 63.769531 52.867188 63.363281 53.035156 C 62.957031 53.207031 62.53125 53.289062 62.09375 53.289062 C 61.652344 53.289062 61.226562 53.207031 60.820312 53.035156 C 60.414062 52.867188 60.054688 52.628906 59.742188 52.316406 C 59.429688 52.003906 59.191406 51.644531 59.019531 51.238281 C 58.851562 50.832031 58.769531 50.40625 58.769531 49.964844 C 58.769531 49.523438 58.851562 49.101562 59.019531 48.695312 C 59.191406 48.285156 59.429688 47.925781 59.742188 47.617188 C 60.054688 47.304688 60.414062 47.0625 60.820312 46.894531 C 61.226562 46.726562 61.652344 46.640625 62.09375 46.640625 C 62.53125 46.640625 62.957031 46.726562 63.363281 46.894531 C 63.769531 47.0625 64.132812 47.304688 64.441406 47.617188 C 64.753906 47.925781 64.996094 48.285156 65.164062 48.695312 C 65.332031 49.101562 65.417969 49.523438 65.417969 49.964844 Z M 65.417969 49.964844 " fill-opacity="1" fill-rule="nonzero"/><path fill="#463f57" d="M 48.527344 76.664062 C 46.746094 76.570312 44.945312 76.625 43.164062 76.640625 C 42.742188 76.644531 42.359375 76.652344 41.910156 76.6875 C 41.210938 76.742188 40.4375 76.746094 39.800781 76.792969 C 38.867188 76.863281 37.929688 76.941406 36.992188 77.023438 C 34.667969 77.226562 32.164062 77.585938 29.476562 78.101562 C 27.394531 78.5 25.382812 79.050781 23.34375 79.613281 C 23.300781 79.625 23.269531 79.613281 23.25 79.574219 C 22.90625 78.84375 22.578125 78.109375 22.265625 77.367188 C 19.511719 70.808594 17.480469 65.992188 16.167969 62.914062 C 16.050781 62.632812 15.894531 62.347656 15.914062 62.066406 C 15.953125 61.371094 16.6875 61.367188 17.1875 61.648438 C 17.765625 61.972656 18.339844 62.3125 18.90625 62.664062 C 21.058594 64 23.210938 65.339844 25.359375 66.683594 C 25.691406 66.890625 26.871094 67.703125 27.203125 67.671875 C 27.617188 67.632812 27.695312 67.269531 27.746094 66.875 C 28.191406 63.441406 28.65625 60.011719 29.144531 56.585938 C 29.257812 55.785156 29.1875 53.722656 30.667969 54.894531 C 30.996094 55.152344 31.429688 55.585938 31.796875 55.898438 C 34.136719 57.902344 36.472656 59.910156 38.800781 61.921875 C 39.3125 62.367188 39.554688 62.113281 39.789062 61.585938 C 41.492188 57.765625 43.199219 53.945312 44.910156 50.128906 C 45.027344 49.871094 45.167969 49.453125 45.4375 49.378906 C 45.683594 49.3125 45.8125 49.484375 45.90625 49.699219 C 47.683594 53.722656 49.457031 57.753906 51.222656 61.78125 C 51.433594 62.257812 51.929688 62.222656 52.269531 61.921875 C 55.007812 59.527344 57.75 57.132812 60.492188 54.742188 C 61.003906 54.296875 61.527344 54.601562 61.605469 55.207031 C 62.070312 58.855469 62.542969 62.5 63.019531 66.148438 C 63.078125 66.597656 63.042969 67.605469 63.625 67.703125 C 63.839844 67.738281 64.242188 67.46875 64.445312 67.34375 C 67.953125 65.191406 70.945312 63.34375 73.417969 61.800781 C 73.726562 61.605469 74.082031 61.417969 74.441406 61.464844 C 74.828125 61.519531 75.160156 61.847656 74.980469 62.273438 C 72.585938 67.972656 70.164062 73.664062 67.71875 79.339844 C 67.683594 79.421875 67.644531 79.5 67.601562 79.578125 C 67.585938 79.601562 67.566406 79.609375 67.542969 79.609375 C 67.375 79.589844 67.242188 79.566406 67.136719 79.535156 C 62.863281 78.269531 58.484375 77.4375 54.003906 77.042969 C 52.527344 76.910156 51.25 76.792969 49.847656 76.730469 C 49.40625 76.710938 48.96875 76.6875 48.527344 76.664062 Z M 48.527344 76.664062 " fill-opacity="1" fill-rule="nonzero"/><g clip-path="url(#85ff6fe23c)"><path fill="#463f57" d="M 17.417969 57.625 C 17.417969 58.070312 17.332031 58.492188 17.164062 58.902344 C 16.996094 59.308594 16.753906 59.671875 16.441406 59.984375 C 16.128906 60.296875 15.769531 60.535156 15.359375 60.703125 C 14.953125 60.875 14.527344 60.957031 14.085938 60.957031 C 13.644531 60.957031 13.21875 60.875 12.808594 60.703125 C 12.402344 60.535156 12.042969 60.296875 11.730469 59.984375 C 11.417969 59.671875 11.175781 59.308594 11.007812 58.902344 C 10.839844 58.492188 10.753906 58.070312 10.753906 57.625 C 10.753906 57.183594 10.839844 56.757812 11.007812 56.351562 C 11.175781 55.941406 11.417969 55.582031 11.730469 55.269531 C 12.042969 54.957031 12.402344 54.71875 12.808594 54.546875 C 13.21875 54.378906 13.644531 54.292969 14.085938 54.292969 C 14.527344 54.292969 14.953125 54.378906 15.359375 54.546875 C 15.769531 54.71875 16.128906 54.957031 16.441406 55.269531 C 16.753906 55.582031 16.996094 55.941406 17.164062 56.351562 C 17.332031 56.757812 17.417969 57.183594 17.417969 57.625 Z M 17.417969 57.625 " fill-opacity="1" fill-rule="nonzero"/></g><g clip-path="url(#569bf11f67)"><path fill="#463f57" d="M 80.242188 57.636719 C 80.242188 58.078125 80.15625 58.503906 79.988281 58.914062 C 79.820312 59.320312 79.578125 59.683594 79.265625 59.996094 C 78.953125 60.308594 78.589844 60.550781 78.183594 60.71875 C 77.773438 60.886719 77.347656 60.972656 76.90625 60.972656 C 76.460938 60.972656 76.035156 60.886719 75.628906 60.71875 C 75.21875 60.550781 74.855469 60.308594 74.542969 59.996094 C 74.230469 59.683594 73.988281 59.320312 73.820312 58.914062 C 73.652344 58.503906 73.566406 58.078125 73.566406 57.636719 C 73.566406 57.191406 73.652344 56.765625 73.820312 56.359375 C 73.988281 55.949219 74.230469 55.589844 74.542969 55.273438 C 74.855469 54.960938 75.21875 54.722656 75.628906 54.550781 C 76.035156 54.382812 76.460938 54.296875 76.90625 54.296875 C 77.347656 54.296875 77.773438 54.382812 78.183594 54.550781 C 78.589844 54.722656 78.953125 54.960938 79.265625 55.273438 C 79.578125 55.589844 79.820312 55.949219 79.988281 56.359375 C 80.15625 56.765625 80.242188 57.191406 80.242188 57.636719 Z M 80.242188 57.636719 " fill-opacity="1" fill-rule="nonzero"/></g><g clip-path="url(#9f8caa667e)"><path fill="#463f57" d="M 46.324219 82.460938 C 39.757812 82.347656 33.113281 83.0625 26.722656 84.582031 C 25.554688 84.859375 24.421875 85.199219 23.285156 85.566406 C 23.253906 85.578125 23.234375 85.566406 23.234375 85.53125 L 23.234375 81.65625 C 23.234375 81.628906 23.246094 81.609375 23.269531 81.601562 C 23.6875 81.441406 24.109375 81.300781 24.535156 81.175781 C 28.507812 80.035156 32.558594 79.289062 36.671875 78.882812 C 41.433594 78.410156 46.171875 78.277344 50.949219 78.589844 C 56.660156 78.964844 62.1875 79.824219 67.550781 81.570312 C 67.609375 81.589844 67.640625 81.632812 67.640625 81.695312 L 67.632812 85.441406 C 67.632812 85.480469 67.617188 85.511719 67.585938 85.535156 C 67.554688 85.558594 67.519531 85.5625 67.480469 85.550781 C 63.332031 84.277344 59.132812 83.425781 54.890625 82.988281 C 54.429688 82.941406 53.96875 82.871094 53.410156 82.84375 C 53.191406 82.835938 52.921875 82.738281 52.648438 82.734375 C 52.085938 82.734375 51.488281 82.632812 50.984375 82.617188 C 50.363281 82.59375 49.742188 82.5625 49.125 82.523438 C 48.195312 82.464844 47.296875 82.480469 46.324219 82.460938 Z M 46.324219 82.460938 " fill-opacity="1" fill-rule="nonzero"/></g><g fill="#000000" fill-opacity="1"><g transform="translate(9.266539, 17.04217)"><g><path d="M 2.648438 -6.515625 C 2.640625 -6.792969 2.578125 -6.992188 2.460938 -7.105469 C 2.34375 -7.222656 2.121094 -7.277344 1.800781 -7.269531 L 0.921875 -7.269531 C 0.644531 -7.257812 0.457031 -7.207031 0.339844 -7.097656 C 0.222656 -6.980469 0.171875 -6.792969 0.179688 -6.515625 L 0.179688 0.0195312 C 0.1875 0.25 0.242188 0.4375 0.367188 0.554688 C 0.484375 0.664062 0.679688 0.714844 0.949219 0.707031 L 1.90625 0.707031 C 2.175781 0.699219 2.382812 0.644531 2.488281 0.546875 C 2.605469 0.429688 2.660156 0.25 2.648438 0.0195312 L 2.648438 -2.101562 L 4.636719 0.511719 C 4.742188 0.652344 4.941406 0.714844 5.210938 0.707031 L 7.007812 0.707031 C 7.214844 0.714844 7.332031 0.679688 7.382812 0.601562 C 7.429688 0.527344 7.402344 0.410156 7.285156 0.269531 L 4.628906 -3.277344 L 7.285156 -6.828125 C 7.402344 -6.964844 7.429688 -7.082031 7.382812 -7.160156 C 7.332031 -7.242188 7.214844 -7.277344 7.007812 -7.269531 L 5.210938 -7.269531 C 4.941406 -7.277344 4.742188 -7.214844 4.636719 -7.0625 L 2.648438 -4.449219 Z M 2.648438 -6.515625 "/></g></g></g><g fill="#000000" fill-opacity="1"><g transform="translate(81.072872, 110.581524)"><g><path d="M -2.648438 6.515625 C -2.640625 6.792969 -2.578125 6.992188 -2.460938 7.105469 C -2.34375 7.222656 -2.121094 7.277344 -1.800781 7.269531 L -0.921875 7.269531 C -0.644531 7.257812 -0.457031 7.207031 -0.339844 7.097656 C -0.222656 6.980469 -0.171875 6.792969 -0.179688 6.515625 L -0.179688 -0.0195312 C -0.1875 -0.25 -0.242188 -0.4375 -0.367188 -0.554688 C -0.484375 -0.664062 -0.679688 -0.714844 -0.949219 -0.707031 L -1.90625 -0.707031 C -2.175781 -0.699219 -2.382812 -0.644531 -2.488281 -0.546875 C -2.605469 -0.429688 -2.660156 -0.25 -2.648438 -0.0195312 L -2.648438 2.101562 L -4.636719 -0.511719 C -4.742188 -0.652344 -4.941406 -0.714844 -5.210938 -0.707031 L -7.007812 -0.707031 C -7.214844 -0.714844 -7.332031 -0.679688 -7.382812 -0.601562 C -7.429688 -0.527344 -7.402344 -0.410156 -7.285156 -0.269531 L -4.628906 3.277344 L -7.285156 6.828125 C -7.402344 6.964844 -7.429688 7.082031 -7.382812 7.160156 C -7.332031 7.242188 -7.214844 7.277344 -7.007812 7.269531 L -5.210938 7.269531 C -4.941406 7.277344 -4.742188 7.214844 -4.636719 7.0625 L -2.648438 4.449219 Z M -2.648438 6.515625 "/></g></g></g><g clip-path="url(#debb058cd9)"><path fill="#463f57" d="M 13.066406 19.132812 C 11.203125 22.0625 8.945312 24.703125 6.253906 27.019531 C 8.9375 29.425781 11.183594 32.070312 13.066406 34.90625 C 14.929688 31.980469 17.183594 29.339844 19.878906 27.019531 C 17.191406 24.617188 14.949219 21.972656 13.066406 19.132812 " fill-opacity="1" fill-rule="nonzero"/></g><g clip-path="url(#1d8352508b)"><path fill="#463f57" d="M 77.261719 92.710938 C 75.398438 95.636719 73.140625 98.277344 70.449219 100.597656 C 73.132812 103 75.375 105.644531 77.261719 108.484375 C 79.125 105.554688 81.378906 102.917969 84.074219 100.597656 C 81.386719 98.191406 79.144531 95.546875 77.261719 92.710938 " fill-opacity="1" fill-rule="nonzero"/></g></svg>