<svg xmlns="http://www.w3.org/2000/svg" xmlns:xlink="http://www.w3.org/1999/xlink" width="122" zoomAndPan="magnify" viewBox="0 0 91.5 127.499994" height="170" preserveAspectRatio="xMidYMid meet" version="1.0"><defs><g/><clipPath id="eafe176e23"><path d="M 0.597656 0.808594 L 90.402344 0.808594 L 90.402344 126.191406 L 0.597656 126.191406 Z M 0.597656 0.808594 " clip-rule="nonzero"/></clipPath><clipPath id="ec0d61cc1d"><path d="M 7.3125 0.808594 L 83.691406 0.808594 C 85.472656 0.808594 87.179688 1.515625 88.4375 2.777344 C 89.695312 4.035156 90.402344 5.742188 90.402344 7.523438 L 90.402344 119.480469 C 90.402344 121.261719 89.695312 122.96875 88.4375 124.226562 C 87.179688 125.484375 85.472656 126.191406 83.691406 126.191406 L 7.3125 126.191406 C 3.605469 126.191406 0.597656 123.1875 0.597656 119.480469 L 0.597656 7.523438 C 0.597656 3.816406 3.605469 0.808594 7.3125 0.808594 Z M 7.3125 0.808594 " clip-rule="nonzero"/></clipPath><clipPath id="fae891668b"><path d="M 0.601562 0.808594 L 90.109375 0.808594 L 90.109375 126.125 L 0.601562 126.125 Z M 0.601562 0.808594 " clip-rule="nonzero"/></clipPath><clipPath id="fab4650047"><path d="M 7.3125 0.808594 L 83.6875 0.808594 C 85.464844 0.808594 87.171875 1.515625 88.433594 2.777344 C 89.691406 4.035156 90.398438 5.742188 90.398438 7.523438 L 90.398438 119.46875 C 90.398438 121.25 89.691406 122.957031 88.433594 124.214844 C 87.171875 125.476562 85.464844 126.183594 83.6875 126.183594 L 7.3125 126.183594 C 3.605469 126.183594 0.601562 123.175781 0.601562 119.46875 L 0.601562 7.523438 C 0.601562 3.816406 3.605469 0.808594 7.3125 0.808594 Z M 7.3125 0.808594 " clip-rule="nonzero"/></clipPath><clipPath id="ed10144b9d"><path d="M 38.683594 34.914062 L 52.113281 34.914062 L 52.113281 50.578125 L 38.683594 50.578125 Z M 38.683594 34.914062 " clip-rule="nonzero"/></clipPath><clipPath id="47892ae63f"><path d="M 6.253906 19.128906 L 19.683594 19.128906 L 19.683594 34.796875 L 6.253906 34.796875 Z M 6.253906 19.128906 " clip-rule="nonzero"/></clipPath><clipPath id="453fa35e98"><path d="M 70.449219 92.707031 L 83.875 92.707031 L 83.875 108.371094 L 70.449219 108.371094 Z M 70.449219 92.707031 " clip-rule="nonzero"/></clipPath><clipPath id="9a2dc4d004"><path d="M 38.683594 76.921875 L 52.113281 76.921875 L 52.113281 92.585938 L 38.683594 92.585938 Z M 38.683594 76.921875 " clip-rule="nonzero"/></clipPath></defs><g clip-path="url(#eafe176e23)"><g clip-path="url(#ec0d61cc1d)"><path fill="#ffffff" d="M 0.597656 0.808594 L 90.402344 0.808594 L 90.402344 126.191406 L 0.597656 126.191406 Z M 0.597656 0.808594 " fill-opacity="1" fill-rule="nonzero"/></g></g><g clip-path="url(#fae891668b)"><g clip-path="url(#fab4650047)"><path stroke-linecap="butt" transform="matrix(0.745924, 0, 0, 0.745924, 0.600905, 0.809393)" fill="none" stroke-linejoin="miter" d="M 8.997694 -0.00107172 L 111.387498 -0.00107172 C 113.77024 -0.00107172 116.058719 0.946788 117.750203 2.638273 C 119.436451 4.32452 120.384311 6.613 120.384311 9.000978 L 120.384311 159.077031 C 120.384311 161.46501 119.436451 163.753489 117.750203 165.439737 C 116.058719 167.131221 113.77024 168.079081 111.387498 168.079081 L 8.997694 168.079081 C 4.027976 168.079081 0.000881536 164.046749 0.000881536 159.077031 L 0.000881536 9.000978 C 0.000881536 4.03126 4.027976 -0.00107172 8.997694 -0.00107172 Z M 8.997694 -0.00107172 " stroke="#463f57" stroke-width="12" stroke-opacity="1" stroke-miterlimit="4"/></g></g><g clip-path="url(#ed10144b9d)"><path fill="#463f57" d="M 45.496094 34.917969 C 43.632812 37.84375 41.375 40.484375 38.683594 42.804688 C 41.367188 45.210938 43.613281 47.851562 45.496094 50.691406 C 47.359375 47.765625 49.613281 45.125 52.308594 42.804688 C 49.621094 40.402344 47.378906 37.757812 45.496094 34.917969 " fill-opacity="1" fill-rule="nonzero"/></g><g fill="#000000" fill-opacity="1"><g transform="translate(9.256826, 17.04217)"><g><path d="M 2.238281 -4.941406 L 2.238281 -5.128906 C 2.238281 -5.476562 2.417969 -5.65625 2.765625 -5.65625 L 4.859375 -5.65625 C 5.210938 -5.65625 5.386719 -5.476562 5.386719 -5.128906 L 5.386719 -4.324219 C 5.386719 -3.972656 5.210938 -3.804688 4.859375 -3.804688 L 1.925781 -3.804688 C 0.761719 -3.804688 0.179688 -3.214844 0.179688 -2.050781 L 0.179688 0.234375 C 0.179688 0.457031 0.285156 0.5625 0.527344 0.5625 L 7.097656 0.5625 C 7.332031 0.5625 7.449219 0.457031 7.449219 0.234375 L 7.449219 -0.75 C 7.449219 -0.964844 7.332031 -1.074219 7.097656 -1.074219 L 2.417969 -1.074219 C 2.300781 -1.074219 2.238281 -1.136719 2.238281 -1.253906 L 2.238281 -1.648438 C 2.238281 -1.996094 2.417969 -2.167969 2.765625 -2.167969 L 5.703125 -2.167969 C 6.867188 -2.167969 7.4375 -2.757812 7.449219 -3.921875 L 7.449219 -5.539062 C 7.4375 -6.703125 6.867188 -7.285156 5.703125 -7.285156 L 1.925781 -7.285156 C 0.761719 -7.285156 0.179688 -6.703125 0.179688 -5.539062 L 0.179688 -4.941406 C 0.179688 -4.71875 0.285156 -4.617188 0.527344 -4.617188 L 1.890625 -4.617188 C 2.121094 -4.617188 2.238281 -4.71875 2.238281 -4.941406 Z M 2.238281 -4.941406 "/></g></g></g><g fill="#000000" fill-opacity="1"><g transform="translate(81.075092, 110.57376)"><g><path d="M -2.238281 4.941406 L -2.238281 5.128906 C -2.238281 5.476562 -2.417969 5.65625 -2.765625 5.65625 L -4.859375 5.65625 C -5.210938 5.65625 -5.386719 5.476562 -5.386719 5.128906 L -5.386719 4.324219 C -5.386719 3.972656 -5.210938 3.804688 -4.859375 3.804688 L -1.925781 3.804688 C -0.761719 3.804688 -0.179688 3.214844 -0.179688 2.050781 L -0.179688 -0.234375 C -0.179688 -0.457031 -0.285156 -0.5625 -0.527344 -0.5625 L -7.097656 -0.5625 C -7.332031 -0.5625 -7.449219 -0.457031 -7.449219 -0.234375 L -7.449219 0.75 C -7.449219 0.964844 -7.332031 1.074219 -7.097656 1.074219 L -2.417969 1.074219 C -2.300781 1.074219 -2.238281 1.136719 -2.238281 1.253906 L -2.238281 1.648438 C -2.238281 1.996094 -2.417969 2.167969 -2.765625 2.167969 L -5.703125 2.167969 C -6.867188 2.167969 -7.4375 2.757812 -7.449219 3.921875 L -7.449219 5.539062 C -7.4375 6.703125 -6.867188 7.285156 -5.703125 7.285156 L -1.925781 7.285156 C -0.761719 7.285156 -0.179688 6.703125 -0.179688 5.539062 L -0.179688 4.941406 C -0.179688 4.71875 -0.285156 4.617188 -0.527344 4.617188 L -1.890625 4.617188 C -2.121094 4.617188 -2.238281 4.71875 -2.238281 4.941406 Z M -2.238281 4.941406 "/></g></g></g><g clip-path="url(#47892ae63f)"><path fill="#463f57" d="M 13.066406 19.132812 C 11.203125 22.0625 8.945312 24.703125 6.253906 27.019531 C 8.9375 29.425781 11.183594 32.070312 13.066406 34.90625 C 14.929688 31.980469 17.183594 29.339844 19.878906 27.019531 C 17.191406 24.617188 14.949219 21.972656 13.066406 19.132812 " fill-opacity="1" fill-rule="nonzero"/></g><g clip-path="url(#453fa35e98)"><path fill="#463f57" d="M 77.261719 92.710938 C 75.398438 95.636719 73.140625 98.277344 70.449219 100.597656 C 73.132812 103 75.375 105.644531 77.261719 108.484375 C 79.125 105.554688 81.378906 102.917969 84.074219 100.597656 C 81.386719 98.191406 79.144531 95.546875 77.261719 92.710938 " fill-opacity="1" fill-rule="nonzero"/></g><g clip-path="url(#9a2dc4d004)"><path fill="#463f57" d="M 45.496094 76.925781 C 43.632812 79.851562 41.375 82.492188 38.683594 84.8125 C 41.367188 87.21875 43.613281 89.859375 45.496094 92.699219 C 47.359375 89.773438 49.613281 87.132812 52.308594 84.8125 C 49.621094 82.410156 47.378906 79.765625 45.496094 76.925781 " fill-opacity="1" fill-rule="nonzero"/></g></svg>