<svg xmlns="http://www.w3.org/2000/svg" xmlns:xlink="http://www.w3.org/1999/xlink" width="122" zoomAndPan="magnify" viewBox="0 0 91.5 127.499994" height="170" preserveAspectRatio="xMidYMid meet" version="1.0"><defs><g/><clipPath id="6226699235"><path d="M 0.597656 0.808594 L 90.402344 0.808594 L 90.402344 126.191406 L 0.597656 126.191406 Z M 0.597656 0.808594 " clip-rule="nonzero"/></clipPath><clipPath id="ba0da4a9b0"><path d="M 7.3125 0.808594 L 83.691406 0.808594 C 85.472656 0.808594 87.179688 1.515625 88.4375 2.777344 C 89.695312 4.035156 90.402344 5.742188 90.402344 7.523438 L 90.402344 119.480469 C 90.402344 121.261719 89.695312 122.96875 88.4375 124.226562 C 87.179688 125.484375 85.472656 126.191406 83.691406 126.191406 L 7.3125 126.191406 C 3.605469 126.191406 0.597656 123.1875 0.597656 119.480469 L 0.597656 7.523438 C 0.597656 3.816406 3.605469 0.808594 7.3125 0.808594 Z M 7.3125 0.808594 " clip-rule="nonzero"/></clipPath><clipPath id="bd974df2aa"><path d="M 0.601562 0.808594 L 90.109375 0.808594 L 90.109375 126.125 L 0.601562 126.125 Z M 0.601562 0.808594 " clip-rule="nonzero"/></clipPath><clipPath id="8c2058137a"><path d="M 7.3125 0.808594 L 83.6875 0.808594 C 85.464844 0.808594 87.171875 1.515625 88.433594 2.777344 C 89.691406 4.035156 90.398438 5.742188 90.398438 7.523438 L 90.398438 119.46875 C 90.398438 121.25 89.691406 122.957031 88.433594 124.214844 C 87.171875 125.476562 85.464844 126.183594 83.6875 126.183594 L 7.3125 126.183594 C 3.605469 126.183594 0.601562 123.175781 0.601562 119.46875 L 0.601562 7.523438 C 0.601562 3.816406 3.605469 0.808594 7.3125 0.808594 Z M 7.3125 0.808594 " clip-rule="nonzero"/></clipPath><clipPath id="7105a7ad12"><path d="M 71.042969 95.050781 L 83.726562 95.050781 L 83.726562 107 L 71.042969 107 Z M 71.042969 95.050781 " clip-rule="nonzero"/></clipPath><clipPath id="ab6a9ec75a"><path d="M 19.539062 34 L 32.21875 34 L 32.21875 46.296875 L 19.539062 46.296875 Z M 19.539062 34 " clip-rule="nonzero"/></clipPath><clipPath id="6091af229e"><path d="M 6.605469 20 L 19.285156 20 L 19.285156 32.558594 L 6.605469 32.558594 Z M 6.605469 20 " clip-rule="nonzero"/></clipPath><clipPath id="4f2bd81e14"><path d="M 19.785156 81.3125 L 32.464844 81.3125 L 32.464844 94 L 19.785156 94 Z M 19.785156 81.3125 " clip-rule="nonzero"/></clipPath><clipPath id="d5e5c28f17"><path d="M 57.867188 34 L 70.546875 34 L 70.546875 46.296875 L 57.867188 46.296875 Z M 57.867188 34 " clip-rule="nonzero"/></clipPath><clipPath id="c08383c9fb"><path d="M 58.109375 81.3125 L 70.792969 81.3125 L 70.792969 94 L 58.109375 94 Z M 58.109375 81.3125 " clip-rule="nonzero"/></clipPath><clipPath id="ff03057a28"><path d="M 19.539062 58 L 32.21875 58 L 32.21875 70.367188 L 19.539062 70.367188 Z M 19.539062 58 " clip-rule="nonzero"/></clipPath><clipPath id="cb5049b808"><path d="M 57.867188 58 L 70.546875 58 L 70.546875 70.367188 L 57.867188 70.367188 Z M 57.867188 58 " clip-rule="nonzero"/></clipPath></defs><g clip-path="url(#6226699235)"><g clip-path="url(#ba0da4a9b0)"><path fill="#ffffff" d="M 0.597656 0.808594 L 90.402344 0.808594 L 90.402344 126.191406 L 0.597656 126.191406 Z M 0.597656 0.808594 " fill-opacity="1" fill-rule="nonzero"/></g></g><g clip-path="url(#bd974df2aa)"><g clip-path="url(#8c2058137a)"><path stroke-linecap="butt" transform="matrix(0.745924, 0, 0, 0.745924, 0.600905, 0.809393)" fill="none" stroke-linejoin="miter" d="M 8.997694 -0.00107172 L 111.387498 -0.00107172 C 113.77024 -0.00107172 116.058719 0.946788 117.750203 2.638273 C 119.436451 4.32452 120.384311 6.613 120.384311 9.000978 L 120.384311 159.077031 C 120.384311 161.46501 119.436451 163.753489 117.750203 165.439737 C 116.058719 167.131221 113.77024 168.079081 111.387498 168.079081 L 8.997694 168.079081 C 4.027976 168.079081 0.000881536 164.046749 0.000881536 159.077031 L 0.000881536 9.000978 C 0.000881536 4.03126 4.027976 -0.00107172 8.997694 -0.00107172 Z M 8.997694 -0.00107172 " stroke="#463f57" stroke-width="12" stroke-opacity="1" stroke-miterlimit="4"/></g></g><g fill="#000000" fill-opacity="1"><g transform="translate(9.254884, 17.04217)"><g><path d="M 2.238281 -1.601562 L 2.238281 -2.050781 C 2.238281 -2.40625 2.417969 -2.578125 2.765625 -2.578125 L 4.859375 -2.578125 C 5.210938 -2.578125 5.386719 -2.40625 5.386719 -2.050781 L 5.386719 -1.601562 C 5.386719 -1.253906 5.210938 -1.074219 4.859375 -1.074219 L 2.765625 -1.074219 C 2.417969 -1.074219 2.238281 -1.253906 2.238281 -1.601562 Z M 0.179688 -5.539062 L 0.179688 -1.191406 C 0.179688 -0.0273438 0.761719 0.5625 1.925781 0.5625 L 5.703125 0.5625 C 6.867188 0.5625 7.4375 -0.0273438 7.449219 -1.191406 L 7.449219 -2.460938 C 7.4375 -3.625 6.867188 -4.214844 5.703125 -4.214844 L 2.417969 -4.214844 C 2.300781 -4.214844 2.238281 -4.277344 2.238281 -4.386719 L 2.238281 -5.128906 C 2.238281 -5.476562 2.417969 -5.65625 2.765625 -5.65625 L 4.859375 -5.65625 C 5.210938 -5.65625 5.386719 -5.476562 5.386719 -5.128906 L 5.386719 -5.109375 C 5.386719 -4.894531 5.496094 -4.789062 5.738281 -4.789062 L 7.097656 -4.789062 C 7.332031 -4.789062 7.449219 -4.894531 7.449219 -5.109375 L 7.449219 -5.539062 C 7.4375 -6.703125 6.867188 -7.285156 5.703125 -7.285156 L 1.925781 -7.285156 C 0.761719 -7.285156 0.179688 -6.703125 0.179688 -5.539062 Z M 0.179688 -5.539062 "/></g></g></g><g fill="#000000" fill-opacity="1"><g transform="translate(81.075092, 110.57376)"><g><path d="M -2.238281 1.601562 L -2.238281 2.050781 C -2.238281 2.40625 -2.417969 2.578125 -2.765625 2.578125 L -4.859375 2.578125 C -5.210938 2.578125 -5.386719 2.40625 -5.386719 2.050781 L -5.386719 1.601562 C -5.386719 1.253906 -5.210938 1.074219 -4.859375 1.074219 L -2.765625 1.074219 C -2.417969 1.074219 -2.238281 1.253906 -2.238281 1.601562 Z M -0.179688 5.539062 L -0.179688 1.191406 C -0.179688 0.0273438 -0.761719 -0.5625 -1.925781 -0.5625 L -5.703125 -0.5625 C -6.867188 -0.5625 -7.4375 0.0273438 -7.449219 1.191406 L -7.449219 2.460938 C -7.4375 3.625 -6.867188 4.214844 -5.703125 4.214844 L -2.417969 4.214844 C -2.300781 4.214844 -2.238281 4.277344 -2.238281 4.386719 L -2.238281 5.128906 C -2.238281 5.476562 -2.417969 5.65625 -2.765625 5.65625 L -4.859375 5.65625 C -5.210938 5.65625 -5.386719 5.476562 -5.386719 5.128906 L -5.386719 5.109375 C -5.386719 4.894531 -5.496094 4.789062 -5.738281 4.789062 L -7.097656 4.789062 C -7.332031 4.789062 -7.449219 4.894531 -7.449219 5.109375 L -7.449219 5.539062 C -7.4375 6.703125 -6.867188 7.285156 -5.703125 7.285156 L -1.925781 7.285156 C -0.761719 7.285156 -0.179688 6.703125 -0.179688 5.539062 Z M -0.179688 5.539062 "/></g></g></g><g clip-path="url(#7105a7ad12)"><path fill="#463f57" d="M 83.738281 103.570312 C 83.738281 107.136719 78.800781 108.457031 77.28125 104.332031 C 75.765625 108.457031 70.828125 107.136719 70.828125 103.570312 C 70.828125 99.699219 77.28125 94.785156 77.28125 94.785156 C 77.28125 94.785156 83.738281 99.699219 83.738281 103.570312 Z M 83.738281 103.570312 " fill-opacity="1" fill-rule="nonzero"/></g><g clip-path="url(#ab6a9ec75a)"><path fill="#463f57" d="M 19.523438 37.777344 C 19.523438 34.214844 24.460938 32.894531 25.980469 37.019531 C 27.5 32.890625 32.4375 34.214844 32.4375 37.777344 C 32.4375 41.652344 25.980469 46.5625 25.980469 46.5625 C 25.980469 46.5625 19.523438 41.652344 19.523438 37.777344 Z M 19.523438 37.777344 " fill-opacity="1" fill-rule="nonzero"/></g><g clip-path="url(#6091af229e)"><path fill="#463f57" d="M 6.59375 24.039062 C 6.59375 20.472656 11.527344 19.152344 13.046875 23.277344 C 14.566406 19.152344 19.503906 20.472656 19.503906 24.039062 C 19.503906 27.910156 13.046875 32.824219 13.046875 32.824219 C 13.046875 32.824219 6.59375 27.910156 6.59375 24.039062 Z M 6.59375 24.039062 " fill-opacity="1" fill-rule="nonzero"/></g><g clip-path="url(#4f2bd81e14)"><path fill="#463f57" d="M 32.476562 89.832031 C 32.476562 93.394531 27.539062 94.71875 26.023438 90.589844 C 24.503906 94.71875 19.566406 93.394531 19.566406 89.832031 C 19.566406 85.957031 26.023438 81.046875 26.023438 81.046875 C 26.023438 81.046875 32.476562 85.957031 32.476562 89.832031 Z M 32.476562 89.832031 " fill-opacity="1" fill-rule="nonzero"/></g><g clip-path="url(#d5e5c28f17)"><path fill="#463f57" d="M 57.851562 37.777344 C 57.851562 34.214844 62.789062 32.894531 64.308594 37.019531 C 65.828125 32.890625 70.765625 34.214844 70.765625 37.777344 C 70.765625 41.652344 64.308594 46.5625 64.308594 46.5625 C 64.308594 46.5625 57.851562 41.652344 57.851562 37.777344 Z M 57.851562 37.777344 " fill-opacity="1" fill-rule="nonzero"/></g><g clip-path="url(#c08383c9fb)"><path fill="#463f57" d="M 70.804688 89.832031 C 70.804688 93.394531 65.867188 94.71875 64.347656 90.589844 C 62.832031 94.71875 57.894531 93.394531 57.894531 89.832031 C 57.894531 85.957031 64.347656 81.046875 64.347656 81.046875 C 64.347656 81.046875 70.804688 85.957031 70.804688 89.832031 Z M 70.804688 89.832031 " fill-opacity="1" fill-rule="nonzero"/></g><g clip-path="url(#ff03057a28)"><path fill="#463f57" d="M 19.523438 61.847656 C 19.523438 58.28125 24.460938 56.960938 25.980469 61.089844 C 27.5 56.960938 32.4375 58.28125 32.4375 61.847656 C 32.4375 65.722656 25.980469 70.632812 25.980469 70.632812 C 25.980469 70.632812 19.523438 65.722656 19.523438 61.847656 Z M 19.523438 61.847656 " fill-opacity="1" fill-rule="nonzero"/></g><g clip-path="url(#cb5049b808)"><path fill="#463f57" d="M 57.851562 61.847656 C 57.851562 58.28125 62.789062 56.960938 64.308594 61.089844 C 65.828125 56.960938 70.765625 58.28125 70.765625 61.847656 C 70.765625 65.722656 64.308594 70.632812 64.308594 70.632812 C 64.308594 70.632812 57.851562 65.722656 57.851562 61.847656 Z M 57.851562 61.847656 " fill-opacity="1" fill-rule="nonzero"/></g></svg>