<svg xmlns="http://www.w3.org/2000/svg" xmlns:xlink="http://www.w3.org/1999/xlink" width="122" zoomAndPan="magnify" viewBox="0 0 91.5 127.499994" height="170" preserveAspectRatio="xMidYMid meet" version="1.0"><defs><g/><clipPath id="f3dc0ca68f"><path d="M 0.597656 0.808594 L 90.402344 0.808594 L 90.402344 126.191406 L 0.597656 126.191406 Z M 0.597656 0.808594 " clip-rule="nonzero"/></clipPath><clipPath id="a4108dcd5f"><path d="M 7.3125 0.808594 L 83.691406 0.808594 C 85.472656 0.808594 87.179688 1.515625 88.4375 2.777344 C 89.695312 4.035156 90.402344 5.742188 90.402344 7.523438 L 90.402344 119.480469 C 90.402344 121.261719 89.695312 122.96875 88.4375 124.226562 C 87.179688 125.484375 85.472656 126.191406 83.691406 126.191406 L 7.3125 126.191406 C 3.605469 126.191406 0.597656 123.1875 0.597656 119.480469 L 0.597656 7.523438 C 0.597656 3.816406 3.605469 0.808594 7.3125 0.808594 Z M 7.3125 0.808594 " clip-rule="nonzero"/></clipPath><clipPath id="7329edce52"><path d="M 0.601562 0.808594 L 90.109375 0.808594 L 90.109375 126.125 L 0.601562 126.125 Z M 0.601562 0.808594 " clip-rule="nonzero"/></clipPath><clipPath id="001084b758"><path d="M 7.3125 0.808594 L 83.6875 0.808594 C 85.464844 0.808594 87.171875 1.515625 88.433594 2.777344 C 89.691406 4.035156 90.398438 5.742188 90.398438 7.523438 L 90.398438 119.46875 C 90.398438 121.25 89.691406 122.957031 88.433594 124.214844 C 87.171875 125.476562 85.464844 126.183594 83.6875 126.183594 L 7.3125 126.183594 C 3.605469 126.183594 0.601562 123.175781 0.601562 119.46875 L 0.601562 7.523438 C 0.601562 3.816406 3.605469 0.808594 7.3125 0.808594 Z M 7.3125 0.808594 " clip-rule="nonzero"/></clipPath><clipPath id="30535747e6"><path d="M 71.042969 95.050781 L 83.726562 95.050781 L 83.726562 107 L 71.042969 107 Z M 71.042969 95.050781 " clip-rule="nonzero"/></clipPath><clipPath id="cf6b375b49"><path d="M 19.539062 27 L 32.21875 27 L 32.21875 39.425781 L 19.539062 39.425781 Z M 19.539062 27 " clip-rule="nonzero"/></clipPath><clipPath id="deecc76396"><path d="M 6.605469 20 L 19.285156 20 L 19.285156 32.558594 L 6.605469 32.558594 Z M 6.605469 20 " clip-rule="nonzero"/></clipPath><clipPath id="448d552f1d"><path d="M 19.785156 88.183594 L 32.464844 88.183594 L 32.464844 101 L 19.785156 101 Z M 19.785156 88.183594 " clip-rule="nonzero"/></clipPath><clipPath id="1ac4ec435b"><path d="M 57.867188 27 L 70.546875 27 L 70.546875 39.425781 L 57.867188 39.425781 Z M 57.867188 27 " clip-rule="nonzero"/></clipPath><clipPath id="e98713eb18"><path d="M 58.109375 88.183594 L 70.792969 88.183594 L 70.792969 101 L 58.109375 101 Z M 58.109375 88.183594 " clip-rule="nonzero"/></clipPath><clipPath id="286cd4ea6a"><path d="M 19.539062 46 L 32.21875 46 L 32.21875 58.816406 L 19.539062 58.816406 Z M 19.539062 46 " clip-rule="nonzero"/></clipPath><clipPath id="1f50f64577"><path d="M 57.867188 46 L 70.546875 46 L 70.546875 58.816406 L 57.867188 58.816406 Z M 57.867188 46 " clip-rule="nonzero"/></clipPath><clipPath id="666b8c47d7"><path d="M 39.035156 38 L 51.714844 38 L 51.714844 50.476562 L 39.035156 50.476562 Z M 39.035156 38 " clip-rule="nonzero"/></clipPath><clipPath id="3aa8999ff0"><path d="M 39.28125 74.441406 L 51.960938 74.441406 L 51.960938 87 L 39.28125 87 Z M 39.28125 74.441406 " clip-rule="nonzero"/></clipPath><clipPath id="41cff1069e"><path d="M 19.785156 66.9375 L 32.464844 66.9375 L 32.464844 79 L 19.785156 79 Z M 19.785156 66.9375 " clip-rule="nonzero"/></clipPath><clipPath id="e41905217d"><path d="M 58.109375 66.9375 L 70.792969 66.9375 L 70.792969 79 L 58.109375 79 Z M 58.109375 66.9375 " clip-rule="nonzero"/></clipPath></defs><g clip-path="url(#f3dc0ca68f)"><g clip-path="url(#a4108dcd5f)"><path fill="#ffffff" d="M 0.597656 0.808594 L 90.402344 0.808594 L 90.402344 126.191406 L 0.597656 126.191406 Z M 0.597656 0.808594 " fill-opacity="1" fill-rule="nonzero"/></g></g><g clip-path="url(#7329edce52)"><g clip-path="url(#001084b758)"><path stroke-linecap="butt" transform="matrix(0.745924, 0, 0, 0.745924, 0.600905, 0.809393)" fill="none" stroke-linejoin="miter" d="M 8.997694 -0.00107172 L 111.387498 -0.00107172 C 113.77024 -0.00107172 116.058719 0.946788 117.750203 2.638273 C 119.436451 4.32452 120.384311 6.613 120.384311 9.000978 L 120.384311 159.077031 C 120.384311 161.46501 119.436451 163.753489 117.750203 165.439737 C 116.058719 167.131221 113.77024 168.079081 111.387498 168.079081 L 8.997694 168.079081 C 4.027976 168.079081 0.000881536 164.046749 0.000881536 159.077031 L 0.000881536 9.000978 C 0.000881536 4.03126 4.027976 -0.00107172 8.997694 -0.00107172 Z M 8.997694 -0.00107172 " stroke="#463f57" stroke-width="12" stroke-opacity="1" stroke-miterlimit="4"/></g></g><g fill="#000000" fill-opacity="1"><g transform="translate(7.578497, 17.04217)"><g><path d="M 3.175781 0.234375 L 3.175781 -6.613281 C 3.175781 -7.0625 2.945312 -7.285156 2.480469 -7.285156 L 0.527344 -7.285156 C 0.285156 -7.285156 0.179688 -7.1875 0.179688 -6.964844 L 0.179688 -5.980469 C 0.179688 -5.765625 0.285156 -5.65625 0.527344 -5.65625 L 0.941406 -5.65625 C 1.054688 -5.65625 1.117188 -5.59375 1.117188 -5.476562 L 1.117188 0.234375 C 1.117188 0.457031 1.234375 0.5625 1.46875 0.5625 L 2.828125 0.5625 C 3.070312 0.5625 3.175781 0.457031 3.175781 0.234375 Z M 3.175781 0.234375 "/></g></g></g><g fill="#000000" fill-opacity="1"><g transform="translate(10.935178, 17.04217)"><g><path d="M 5.386719 -1.601562 C 5.386719 -1.253906 5.210938 -1.074219 4.859375 -1.074219 L 2.765625 -1.074219 C 2.417969 -1.074219 2.238281 -1.253906 2.238281 -1.601562 L 2.238281 -5.128906 C 2.238281 -5.476562 2.417969 -5.65625 2.765625 -5.65625 L 4.859375 -5.65625 C 5.210938 -5.65625 5.386719 -5.476562 5.386719 -5.128906 Z M 0.179688 -1.191406 C 0.179688 -0.0273438 0.761719 0.5625 1.925781 0.5625 L 5.703125 0.5625 C 6.867188 0.5625 7.4375 -0.0273438 7.449219 -1.191406 L 7.449219 -5.539062 C 7.4375 -6.703125 6.867188 -7.285156 5.703125 -7.285156 L 1.925781 -7.285156 C 0.761719 -7.285156 0.179688 -6.703125 0.179688 -5.539062 Z M 0.179688 -1.191406 "/></g></g></g><g fill="#000000" fill-opacity="1"><g transform="translate(82.629675, 110.57376)"><g><path d="M -3.175781 -0.234375 L -3.175781 6.613281 C -3.175781 7.0625 -2.945312 7.285156 -2.480469 7.285156 L -0.527344 7.285156 C -0.285156 7.285156 -0.179688 7.1875 -0.179688 6.964844 L -0.179688 5.980469 C -0.179688 5.765625 -0.285156 5.65625 -0.527344 5.65625 L -0.941406 5.65625 C -1.054688 5.65625 -1.117188 5.59375 -1.117188 5.476562 L -1.117188 -0.234375 C -1.117188 -0.457031 -1.234375 -0.5625 -1.46875 -0.5625 L -2.828125 -0.5625 C -3.070312 -0.5625 -3.175781 -0.457031 -3.175781 -0.234375 Z M -3.175781 -0.234375 "/></g></g></g><g fill="#000000" fill-opacity="1"><g transform="translate(79.272994, 110.57376)"><g><path d="M -5.386719 1.601562 C -5.386719 1.253906 -5.210938 1.074219 -4.859375 1.074219 L -2.765625 1.074219 C -2.417969 1.074219 -2.238281 1.253906 -2.238281 1.601562 L -2.238281 5.128906 C -2.238281 5.476562 -2.417969 5.65625 -2.765625 5.65625 L -4.859375 5.65625 C -5.210938 5.65625 -5.386719 5.476562 -5.386719 5.128906 Z M -0.179688 1.191406 C -0.179688 0.0273438 -0.761719 -0.5625 -1.925781 -0.5625 L -5.703125 -0.5625 C -6.867188 -0.5625 -7.4375 0.0273438 -7.449219 1.191406 L -7.449219 5.539062 C -7.4375 6.703125 -6.867188 7.285156 -5.703125 7.285156 L -1.925781 7.285156 C -0.761719 7.285156 -0.179688 6.703125 -0.179688 5.539062 Z M -0.179688 1.191406 "/></g></g></g><g clip-path="url(#30535747e6)"><path fill="#463f57" d="M 83.738281 103.570312 C 83.738281 107.136719 78.800781 108.457031 77.28125 104.332031 C 75.765625 108.457031 70.828125 107.136719 70.828125 103.570312 C 70.828125 99.699219 77.28125 94.785156 77.28125 94.785156 C 77.28125 94.785156 83.738281 99.699219 83.738281 103.570312 Z M 83.738281 103.570312 " fill-opacity="1" fill-rule="nonzero"/></g><g clip-path="url(#cf6b375b49)"><path fill="#463f57" d="M 19.523438 30.910156 C 19.523438 27.34375 24.460938 26.023438 25.980469 30.148438 C 27.5 26.023438 32.4375 27.34375 32.4375 30.910156 C 32.4375 34.78125 25.980469 39.691406 25.980469 39.691406 C 25.980469 39.691406 19.523438 34.78125 19.523438 30.910156 Z M 19.523438 30.910156 " fill-opacity="1" fill-rule="nonzero"/></g><g clip-path="url(#deecc76396)"><path fill="#463f57" d="M 6.59375 24.039062 C 6.59375 20.472656 11.527344 19.152344 13.046875 23.277344 C 14.566406 19.152344 19.503906 20.472656 19.503906 24.039062 C 19.503906 27.910156 13.046875 32.824219 13.046875 32.824219 C 13.046875 32.824219 6.59375 27.910156 6.59375 24.039062 Z M 6.59375 24.039062 " fill-opacity="1" fill-rule="nonzero"/></g><g clip-path="url(#448d552f1d)"><path fill="#463f57" d="M 32.476562 96.699219 C 32.476562 100.265625 27.539062 101.585938 26.023438 97.460938 C 24.503906 101.585938 19.566406 100.265625 19.566406 96.699219 C 19.566406 92.828125 26.023438 87.917969 26.023438 87.917969 C 26.023438 87.917969 32.476562 92.828125 32.476562 96.699219 Z M 32.476562 96.699219 " fill-opacity="1" fill-rule="nonzero"/></g><g clip-path="url(#1ac4ec435b)"><path fill="#463f57" d="M 57.851562 30.910156 C 57.851562 27.34375 62.789062 26.023438 64.308594 30.148438 C 65.828125 26.023438 70.765625 27.34375 70.765625 30.910156 C 70.765625 34.78125 64.308594 39.691406 64.308594 39.691406 C 64.308594 39.691406 57.851562 34.78125 57.851562 30.910156 Z M 57.851562 30.910156 " fill-opacity="1" fill-rule="nonzero"/></g><g clip-path="url(#e98713eb18)"><path fill="#463f57" d="M 70.804688 96.699219 C 70.804688 100.265625 65.867188 101.585938 64.347656 97.460938 C 62.832031 101.585938 57.894531 100.265625 57.894531 96.699219 C 57.894531 92.828125 64.347656 87.917969 64.347656 87.917969 C 64.347656 87.917969 70.804688 92.828125 70.804688 96.699219 Z M 70.804688 96.699219 " fill-opacity="1" fill-rule="nonzero"/></g><g clip-path="url(#286cd4ea6a)"><path fill="#463f57" d="M 19.523438 50.296875 C 19.523438 46.734375 24.460938 45.414062 25.980469 49.539062 C 27.5 45.414062 32.4375 46.734375 32.4375 50.296875 C 32.4375 54.171875 25.980469 59.082031 25.980469 59.082031 C 25.980469 59.082031 19.523438 54.171875 19.523438 50.296875 Z M 19.523438 50.296875 " fill-opacity="1" fill-rule="nonzero"/></g><g clip-path="url(#1f50f64577)"><path fill="#463f57" d="M 57.851562 50.296875 C 57.851562 46.734375 62.789062 45.414062 64.308594 49.539062 C 65.828125 45.414062 70.765625 46.734375 70.765625 50.296875 C 70.765625 54.171875 64.308594 59.082031 64.308594 59.082031 C 64.308594 59.082031 57.851562 54.171875 57.851562 50.296875 Z M 57.851562 50.296875 " fill-opacity="1" fill-rule="nonzero"/></g><g clip-path="url(#666b8c47d7)"><path fill="#5271ff" d="M 39.019531 41.957031 C 39.019531 38.390625 43.957031 37.070312 45.476562 41.195312 C 46.996094 37.070312 51.933594 38.390625 51.933594 41.957031 C 51.933594 45.828125 45.476562 50.742188 45.476562 50.742188 C 45.476562 50.742188 39.019531 45.828125 39.019531 41.957031 Z M 39.019531 41.957031 " fill-opacity="1" fill-rule="nonzero"/></g><g clip-path="url(#3aa8999ff0)"><path fill="#5271ff" d="M 51.972656 82.960938 C 51.972656 86.523438 47.035156 87.847656 45.519531 83.71875 C 44 87.847656 39.0625 86.527344 39.0625 82.960938 C 39.0625 79.085938 45.519531 74.175781 45.519531 74.175781 C 45.519531 74.175781 51.972656 79.085938 51.972656 82.960938 Z M 51.972656 82.960938 " fill-opacity="1" fill-rule="nonzero"/></g><g clip-path="url(#41cff1069e)"><path fill="#463f57" d="M 32.476562 75.457031 C 32.476562 79.023438 27.539062 80.34375 26.023438 76.214844 C 24.503906 80.34375 19.566406 79.023438 19.566406 75.457031 C 19.566406 71.582031 26.023438 66.671875 26.023438 66.671875 C 26.023438 66.671875 32.476562 71.582031 32.476562 75.457031 Z M 32.476562 75.457031 " fill-opacity="1" fill-rule="nonzero"/></g><g clip-path="url(#e41905217d)"><path fill="#463f57" d="M 70.804688 75.457031 C 70.804688 79.023438 65.867188 80.34375 64.347656 76.214844 C 62.832031 80.34375 57.894531 79.023438 57.894531 75.457031 C 57.894531 71.582031 64.347656 66.671875 64.347656 66.671875 C 64.347656 66.671875 70.804688 71.582031 70.804688 75.457031 Z M 70.804688 75.457031 " fill-opacity="1" fill-rule="nonzero"/></g></svg>