<svg xmlns="http://www.w3.org/2000/svg" xmlns:xlink="http://www.w3.org/1999/xlink" width="122" zoomAndPan="magnify" viewBox="0 0 91.5 127.499994" height="170" preserveAspectRatio="xMidYMid meet" version="1.0"><defs><g/><clipPath id="35e72ebd21"><path d="M 0.597656 0.808594 L 90.402344 0.808594 L 90.402344 126.191406 L 0.597656 126.191406 Z M 0.597656 0.808594 " clip-rule="nonzero"/></clipPath><clipPath id="a16ea1177b"><path d="M 7.3125 0.808594 L 83.691406 0.808594 C 85.472656 0.808594 87.179688 1.515625 88.4375 2.777344 C 89.695312 4.035156 90.402344 5.742188 90.402344 7.523438 L 90.402344 119.480469 C 90.402344 121.261719 89.695312 122.96875 88.4375 124.226562 C 87.179688 125.484375 85.472656 126.191406 83.691406 126.191406 L 7.3125 126.191406 C 3.605469 126.191406 0.597656 123.1875 0.597656 119.480469 L 0.597656 7.523438 C 0.597656 3.816406 3.605469 0.808594 7.3125 0.808594 Z M 7.3125 0.808594 " clip-rule="nonzero"/></clipPath><clipPath id="7f24f9313c"><path d="M 0.601562 0.808594 L 90.109375 0.808594 L 90.109375 126.125 L 0.601562 126.125 Z M 0.601562 0.808594 " clip-rule="nonzero"/></clipPath><clipPath id="fe550ed48b"><path d="M 7.3125 0.808594 L 83.6875 0.808594 C 85.464844 0.808594 87.171875 1.515625 88.433594 2.777344 C 89.691406 4.035156 90.398438 5.742188 90.398438 7.523438 L 90.398438 119.46875 C 90.398438 121.25 89.691406 122.957031 88.433594 124.214844 C 87.171875 125.476562 85.464844 126.183594 83.6875 126.183594 L 7.3125 126.183594 C 3.605469 126.183594 0.601562 123.175781 0.601562 119.46875 L 0.601562 7.523438 C 0.601562 3.816406 3.605469 0.808594 7.3125 0.808594 Z M 7.3125 0.808594 " clip-rule="nonzero"/></clipPath><clipPath id="4ceabe84b6"><path d="M 7 19.121094 L 19.285156 19.121094 L 19.285156 34 L 7 34 Z M 7 19.121094 " clip-rule="nonzero"/></clipPath><clipPath id="7be8e87db8"><path d="M 71 93.902344 L 83.480469 93.902344 L 83.480469 108.496094 L 71 108.496094 Z M 71 93.902344 " clip-rule="nonzero"/></clipPath><clipPath id="67d57e3af6"><path d="M 39.035156 34.65625 L 51.714844 34.65625 L 51.714844 49.574219 L 39.035156 49.574219 Z M 39.035156 34.65625 " clip-rule="nonzero"/></clipPath><clipPath id="de703082d0"><path d="M 39.035156 79.3125 L 51.714844 79.3125 L 51.714844 94 L 39.035156 94 Z M 39.035156 79.3125 " clip-rule="nonzero"/></clipPath><clipPath id="fc8083bbc1"><path d="M 39.035156 57 L 51.714844 57 L 51.714844 71.902344 L 39.035156 71.902344 Z M 39.035156 57 " clip-rule="nonzero"/></clipPath></defs><g clip-path="url(#35e72ebd21)"><g clip-path="url(#a16ea1177b)"><path fill="#ffffff" d="M 0.597656 0.808594 L 90.402344 0.808594 L 90.402344 126.191406 L 0.597656 126.191406 Z M 0.597656 0.808594 " fill-opacity="1" fill-rule="nonzero"/></g></g><g clip-path="url(#7f24f9313c)"><g clip-path="url(#fe550ed48b)"><path stroke-linecap="butt" transform="matrix(0.745924, 0, 0, 0.745924, 0.600905, 0.809393)" fill="none" stroke-linejoin="miter" d="M 8.997694 -0.00107172 L 111.387498 -0.00107172 C 113.77024 -0.00107172 116.058719 0.946788 117.750203 2.638273 C 119.436451 4.32452 120.384311 6.613 120.384311 9.000978 L 120.384311 159.077031 C 120.384311 161.46501 119.436451 163.753489 117.750203 165.439737 C 116.058719 167.131221 113.77024 168.079081 111.387498 168.079081 L 8.997694 168.079081 C 4.027976 168.079081 0.000881536 164.046749 0.000881536 159.077031 L 0.000881536 9.000978 C 0.000881536 4.03126 4.027976 -0.00107172 8.997694 -0.00107172 Z M 8.997694 -0.00107172 " stroke="#463f57" stroke-width="12" stroke-opacity="1" stroke-miterlimit="4"/></g></g><g clip-path="url(#4ceabe84b6)"><path fill="#463f57" d="M 17.632812 24.949219 C 15.09375 22.5 13.421875 19.9375 13.066406 19.203125 C 12.707031 19.9375 11.039062 22.5 8.5 24.949219 C 6.804688 26.730469 6.605469 29.070312 8.121094 30.515625 C 9.566406 31.945312 11.304688 30.941406 12.308594 30.160156 C 12.285156 30.671875 12.109375 32.1875 10.703125 33.636719 L 15.472656 33.636719 C 14.046875 32.1875 13.867188 30.652344 13.867188 30.160156 C 14.847656 30.941406 16.585938 31.945312 18.054688 30.515625 C 19.527344 29.070312 19.328125 26.707031 17.632812 24.949219 " fill-opacity="1" fill-rule="nonzero"/></g><g clip-path="url(#7be8e87db8)"><path fill="#463f57" d="M 81.828125 102.671875 C 79.285156 105.121094 77.617188 107.683594 77.257812 108.417969 C 76.902344 107.683594 75.234375 105.121094 72.695312 102.671875 C 71 100.886719 70.800781 98.550781 72.316406 97.101562 C 73.761719 95.675781 75.5 96.679688 76.503906 97.457031 C 76.480469 96.945312 76.300781 95.429688 74.898438 93.984375 L 79.667969 93.984375 C 78.238281 95.429688 78.0625 96.96875 78.0625 97.457031 C 79.042969 96.679688 80.78125 95.675781 82.25 97.101562 C 83.722656 98.550781 83.519531 100.910156 81.828125 102.671875 " fill-opacity="1" fill-rule="nonzero"/></g><g fill="#000000" fill-opacity="1"><g transform="translate(9.258121, 17.04217)"><g><path d="M 2.238281 -4.941406 L 2.238281 -5.128906 C 2.238281 -5.476562 2.417969 -5.65625 2.765625 -5.65625 L 4.859375 -5.65625 C 5.210938 -5.65625 5.386719 -5.476562 5.386719 -5.128906 L 5.386719 -4.699219 C 5.386719 -4.351562 5.210938 -4.179688 4.859375 -4.179688 L 3.113281 -4.179688 C 2.875 -4.179688 2.765625 -4.074219 2.765625 -3.859375 L 2.765625 -2.863281 C 2.765625 -2.648438 2.875 -2.542969 3.113281 -2.542969 L 4.859375 -2.542969 C 5.210938 -2.542969 5.386719 -2.371094 5.386719 -2.023438 L 5.386719 -1.601562 C 5.386719 -1.253906 5.210938 -1.074219 4.859375 -1.074219 L 2.765625 -1.074219 C 2.417969 -1.074219 2.238281 -1.253906 2.238281 -1.601562 L 2.238281 -1.789062 C 2.238281 -2.015625 2.121094 -2.113281 1.890625 -2.113281 L 0.527344 -2.113281 C 0.285156 -2.113281 0.179688 -2.015625 0.179688 -1.789062 L 0.179688 -1.191406 C 0.179688 -0.0273438 0.761719 0.5625 1.925781 0.5625 L 5.703125 0.5625 C 6.867188 0.5625 7.4375 -0.0273438 7.449219 -1.191406 L 7.449219 -2.128906 C 7.4375 -2.660156 7.269531 -3.070312 6.917969 -3.355469 C 7.269531 -3.644531 7.4375 -4.054688 7.449219 -4.582031 L 7.449219 -5.539062 C 7.4375 -6.703125 6.867188 -7.285156 5.703125 -7.285156 L 1.925781 -7.285156 C 0.761719 -7.285156 0.179688 -6.703125 0.179688 -5.539062 L 0.179688 -4.941406 C 0.179688 -4.71875 0.285156 -4.617188 0.527344 -4.617188 L 1.890625 -4.617188 C 2.121094 -4.617188 2.238281 -4.71875 2.238281 -4.941406 Z M 2.238281 -4.941406 "/></g></g></g><g fill="#000000" fill-opacity="1"><g transform="translate(81.075092, 110.569869)"><g><path d="M -2.238281 4.941406 L -2.238281 5.128906 C -2.238281 5.476562 -2.417969 5.65625 -2.765625 5.65625 L -4.859375 5.65625 C -5.210938 5.65625 -5.386719 5.476562 -5.386719 5.128906 L -5.386719 4.699219 C -5.386719 4.351562 -5.210938 4.179688 -4.859375 4.179688 L -3.113281 4.179688 C -2.875 4.179688 -2.765625 4.074219 -2.765625 3.859375 L -2.765625 2.863281 C -2.765625 2.648438 -2.875 2.542969 -3.113281 2.542969 L -4.859375 2.542969 C -5.210938 2.542969 -5.386719 2.371094 -5.386719 2.023438 L -5.386719 1.601562 C -5.386719 1.253906 -5.210938 1.074219 -4.859375 1.074219 L -2.765625 1.074219 C -2.417969 1.074219 -2.238281 1.253906 -2.238281 1.601562 L -2.238281 1.789062 C -2.238281 2.015625 -2.121094 2.113281 -1.890625 2.113281 L -0.527344 2.113281 C -0.285156 2.113281 -0.179688 2.015625 -0.179688 1.789062 L -0.179688 1.191406 C -0.179688 0.0273438 -0.761719 -0.5625 -1.925781 -0.5625 L -5.703125 -0.5625 C -6.867188 -0.5625 -7.4375 0.0273438 -7.449219 1.191406 L -7.449219 2.128906 C -7.4375 2.660156 -7.269531 3.070312 -6.917969 3.355469 C -7.269531 3.644531 -7.4375 4.054688 -7.449219 4.582031 L -7.449219 5.539062 C -7.4375 6.703125 -6.867188 7.285156 -5.703125 7.285156 L -1.925781 7.285156 C -0.761719 7.285156 -0.179688 6.703125 -0.179688 5.539062 L -0.179688 4.941406 C -0.179688 4.71875 -0.285156 4.617188 -0.527344 4.617188 L -1.890625 4.617188 C -2.121094 4.617188 -2.238281 4.71875 -2.238281 4.941406 Z M -2.238281 4.941406 "/></g></g></g><g clip-path="url(#67d57e3af6)"><path fill="#463f57" d="M 50.0625 40.480469 C 47.523438 38.03125 45.851562 35.46875 45.496094 34.734375 C 45.136719 35.46875 43.46875 38.03125 40.929688 40.480469 C 39.234375 42.261719 39.035156 44.601562 40.550781 46.050781 C 41.996094 47.476562 43.734375 46.472656 44.738281 45.691406 C 44.714844 46.207031 44.539062 47.71875 43.132812 49.167969 L 47.902344 49.167969 C 46.476562 47.71875 46.296875 46.183594 46.296875 45.691406 C 47.277344 46.472656 49.015625 47.476562 50.484375 46.050781 C 51.957031 44.601562 51.753906 42.242188 50.0625 40.480469 " fill-opacity="1" fill-rule="nonzero"/></g><g clip-path="url(#de703082d0)"><path fill="#463f57" d="M 50.0625 85.136719 C 47.523438 82.6875 45.851562 80.125 45.496094 79.390625 C 45.136719 80.125 43.46875 82.6875 40.929688 85.136719 C 39.234375 86.917969 39.035156 89.257812 40.550781 90.703125 C 41.996094 92.132812 43.734375 91.128906 44.738281 90.347656 C 44.714844 90.863281 44.539062 92.375 43.132812 93.824219 L 47.902344 93.824219 C 46.476562 92.375 46.296875 90.839844 46.296875 90.347656 C 47.277344 91.128906 49.015625 92.132812 50.484375 90.703125 C 51.957031 89.257812 51.753906 86.898438 50.0625 85.136719 " fill-opacity="1" fill-rule="nonzero"/></g><g clip-path="url(#fc8083bbc1)"><path fill="#5271ff" d="M 50.0625 62.808594 C 47.523438 60.359375 45.851562 57.796875 45.496094 57.0625 C 45.136719 57.796875 43.46875 60.359375 40.929688 62.808594 C 39.234375 64.589844 39.035156 66.929688 40.550781 68.378906 C 41.996094 69.804688 43.734375 68.800781 44.738281 68.019531 C 44.714844 68.535156 44.539062 70.046875 43.132812 71.496094 L 47.902344 71.496094 C 46.476562 70.046875 46.296875 68.511719 46.296875 68.019531 C 47.277344 68.800781 49.015625 69.804688 50.484375 68.378906 C 51.957031 66.929688 51.753906 64.570312 50.0625 62.808594 " fill-opacity="1" fill-rule="nonzero"/></g></svg>