<svg xmlns="http://www.w3.org/2000/svg" xmlns:xlink="http://www.w3.org/1999/xlink" width="122" zoomAndPan="magnify" viewBox="0 0 91.5 127.499994" height="170" preserveAspectRatio="xMidYMid meet" version="1.0"><defs><g/><clipPath id="ac28c2a18a"><path d="M 0.597656 0.808594 L 90.402344 0.808594 L 90.402344 126.191406 L 0.597656 126.191406 Z M 0.597656 0.808594 " clip-rule="nonzero"/></clipPath><clipPath id="bfbdff89f8"><path d="M 7.3125 0.808594 L 83.691406 0.808594 C 85.472656 0.808594 87.179688 1.515625 88.4375 2.777344 C 89.695312 4.035156 90.402344 5.742188 90.402344 7.523438 L 90.402344 119.480469 C 90.402344 121.261719 89.695312 122.96875 88.4375 124.226562 C 87.179688 125.484375 85.472656 126.191406 83.691406 126.191406 L 7.3125 126.191406 C 3.605469 126.191406 0.597656 123.1875 0.597656 119.480469 L 0.597656 7.523438 C 0.597656 3.816406 3.605469 0.808594 7.3125 0.808594 Z M 7.3125 0.808594 " clip-rule="nonzero"/></clipPath><clipPath id="9edf84d182"><path d="M 0.601562 0.808594 L 90.109375 0.808594 L 90.109375 126.125 L 0.601562 126.125 Z M 0.601562 0.808594 " clip-rule="nonzero"/></clipPath><clipPath id="6bdce0abff"><path d="M 7.3125 0.808594 L 83.6875 0.808594 C 85.464844 0.808594 87.171875 1.515625 88.433594 2.777344 C 89.691406 4.035156 90.398438 5.742188 90.398438 7.523438 L 90.398438 119.46875 C 90.398438 121.25 89.691406 122.957031 88.433594 124.214844 C 87.171875 125.476562 85.464844 126.183594 83.6875 126.183594 L 7.3125 126.183594 C 3.605469 126.183594 0.601562 123.175781 0.601562 119.46875 L 0.601562 7.523438 C 0.601562 3.816406 3.605469 0.808594 7.3125 0.808594 Z M 7.3125 0.808594 " clip-rule="nonzero"/></clipPath><clipPath id="6568cf5a21"><path d="M 7 19.121094 L 19.285156 19.121094 L 19.285156 34 L 7 34 Z M 7 19.121094 " clip-rule="nonzero"/></clipPath><clipPath id="48fc599c19"><path d="M 71 93.902344 L 83.480469 93.902344 L 83.480469 108.496094 L 71 108.496094 Z M 71 93.902344 " clip-rule="nonzero"/></clipPath><clipPath id="4e9baa63b7"><path d="M 39.035156 56.203125 L 51.714844 56.203125 L 51.714844 71 L 39.035156 71 Z M 39.035156 56.203125 " clip-rule="nonzero"/></clipPath></defs><g clip-path="url(#ac28c2a18a)"><g clip-path="url(#bfbdff89f8)"><path fill="#ffffff" d="M 0.597656 0.808594 L 90.402344 0.808594 L 90.402344 126.191406 L 0.597656 126.191406 Z M 0.597656 0.808594 " fill-opacity="1" fill-rule="nonzero"/></g></g><g clip-path="url(#9edf84d182)"><g clip-path="url(#6bdce0abff)"><path stroke-linecap="butt" transform="matrix(0.745924, 0, 0, 0.745924, 0.600905, 0.809393)" fill="none" stroke-linejoin="miter" d="M 8.997694 -0.00107172 L 111.387498 -0.00107172 C 113.77024 -0.00107172 116.058719 0.946788 117.750203 2.638273 C 119.436451 4.32452 120.384311 6.613 120.384311 9.000978 L 120.384311 159.077031 C 120.384311 161.46501 119.436451 163.753489 117.750203 165.439737 C 116.058719 167.131221 113.77024 168.079081 111.387498 168.079081 L 8.997694 168.079081 C 4.027976 168.079081 0.000881536 164.046749 0.000881536 159.077031 L 0.000881536 9.000978 C 0.000881536 4.03126 4.027976 -0.00107172 8.997694 -0.00107172 Z M 8.997694 -0.00107172 " stroke="#463f57" stroke-width="12" stroke-opacity="1" stroke-miterlimit="4"/></g></g><g clip-path="url(#6568cf5a21)"><path fill="#463f57" d="M 17.632812 24.949219 C 15.09375 22.5 13.421875 19.9375 13.066406 19.203125 C 12.707031 19.9375 11.039062 22.5 8.5 24.949219 C 6.804688 26.730469 6.605469 29.070312 8.121094 30.515625 C 9.566406 31.945312 11.304688 30.941406 12.308594 30.160156 C 12.285156 30.671875 12.109375 32.1875 10.703125 33.636719 L 15.472656 33.636719 C 14.046875 32.1875 13.867188 30.652344 13.867188 30.160156 C 14.847656 30.941406 16.585938 31.945312 18.054688 30.515625 C 19.527344 29.070312 19.328125 26.707031 17.632812 24.949219 " fill-opacity="1" fill-rule="nonzero"/></g><g clip-path="url(#48fc599c19)"><path fill="#463f57" d="M 81.828125 102.671875 C 79.285156 105.121094 77.617188 107.683594 77.257812 108.417969 C 76.902344 107.683594 75.234375 105.121094 72.695312 102.671875 C 71 100.886719 70.800781 98.550781 72.316406 97.101562 C 73.761719 95.675781 75.5 96.679688 76.503906 97.457031 C 76.480469 96.945312 76.300781 95.429688 74.898438 93.984375 L 79.667969 93.984375 C 78.238281 95.429688 78.0625 96.96875 78.0625 97.457031 C 79.042969 96.679688 80.78125 95.675781 82.25 97.101562 C 83.722656 98.550781 83.519531 100.910156 81.828125 102.671875 " fill-opacity="1" fill-rule="nonzero"/></g><g fill="#000000" fill-opacity="1"><g transform="translate(9.266539, 17.04217)"><g><path d="M 4.332031 -7.296875 L 3.265625 -7.296875 C 2.945312 -7.304688 2.730469 -7.257812 2.613281 -7.144531 C 2.488281 -7.027344 2.390625 -6.828125 2.300781 -6.542969 L 0.195312 -0.527344 C 0.125 -0.320312 0.0703125 -0.144531 0.0429688 0.0195312 C 0.0351562 0.25 0.0976562 0.429688 0.207031 0.546875 C 0.320312 0.644531 0.519531 0.699219 0.789062 0.707031 L 1.460938 0.707031 C 1.726562 0.714844 1.933594 0.664062 2.050781 0.554688 C 2.167969 0.4375 2.265625 0.25 2.335938 0.0195312 L 2.558594 -0.636719 L 5.039062 -0.636719 L 5.273438 0.0195312 C 5.34375 0.25 5.433594 0.4375 5.558594 0.554688 C 5.675781 0.664062 5.871094 0.714844 6.148438 0.707031 L 6.820312 0.707031 C 7.089844 0.699219 7.285156 0.644531 7.402344 0.546875 C 7.519531 0.429688 7.574219 0.25 7.5625 0.0195312 C 7.535156 -0.144531 7.484375 -0.320312 7.402344 -0.527344 L 5.308594 -6.542969 C 5.21875 -6.828125 5.109375 -7.027344 5.003906 -7.144531 C 4.878906 -7.257812 4.664062 -7.304688 4.332031 -7.296875 Z M 3.804688 -4.207031 L 4.304688 -2.757812 L 3.292969 -2.757812 Z M 3.804688 -4.207031 "/></g></g></g><g fill="#000000" fill-opacity="1"><g transform="translate(81.075092, 110.57376)"><g><path d="M -4.332031 7.296875 L -3.265625 7.296875 C -2.945312 7.304688 -2.730469 7.257812 -2.613281 7.144531 C -2.488281 7.027344 -2.390625 6.828125 -2.300781 6.542969 L -0.195312 0.527344 C -0.125 0.320312 -0.0703125 0.144531 -0.0429688 -0.0195312 C -0.0351562 -0.25 -0.0976562 -0.429688 -0.207031 -0.546875 C -0.320312 -0.644531 -0.519531 -0.699219 -0.789062 -0.707031 L -1.460938 -0.707031 C -1.726562 -0.714844 -1.933594 -0.664062 -2.050781 -0.554688 C -2.167969 -0.4375 -2.265625 -0.25 -2.335938 -0.0195312 L -2.558594 0.636719 L -5.039062 0.636719 L -5.273438 -0.0195312 C -5.34375 -0.25 -5.433594 -0.4375 -5.558594 -0.554688 C -5.675781 -0.664062 -5.871094 -0.714844 -6.148438 -0.707031 L -6.820312 -0.707031 C -7.089844 -0.699219 -7.285156 -0.644531 -7.402344 -0.546875 C -7.519531 -0.429688 -7.574219 -0.25 -7.5625 -0.0195312 C -7.535156 0.144531 -7.484375 0.320312 -7.402344 0.527344 L -5.308594 6.542969 C -5.21875 6.828125 -5.109375 7.027344 -5.003906 7.144531 C -4.878906 7.257812 -4.664062 7.304688 -4.332031 7.296875 Z M -3.804688 4.207031 L -4.304688 2.757812 L -3.292969 2.757812 Z M -3.804688 4.207031 "/></g></g></g><g clip-path="url(#4e9baa63b7)"><path fill="#463f57" d="M 50.0625 62.03125 C 47.523438 59.582031 45.851562 57.019531 45.496094 56.285156 C 45.136719 57.019531 43.46875 59.582031 40.929688 62.03125 C 39.234375 63.8125 39.035156 66.152344 40.550781 67.597656 C 41.996094 69.023438 43.734375 68.023438 44.738281 67.242188 C 44.714844 67.753906 44.539062 69.269531 43.132812 70.71875 L 47.902344 70.71875 C 46.476562 69.269531 46.296875 67.730469 46.296875 67.242188 C 47.277344 68.023438 49.015625 69.023438 50.484375 67.597656 C 51.957031 66.152344 51.753906 63.789062 50.0625 62.03125 " fill-opacity="1" fill-rule="nonzero"/></g></svg>